<?xml version="1.0" encoding="UTF-8" standalone="no"?>
<!-- Created with Inkscape (http://www.inkscape.org/) -->

<svg
   xmlns:dc="http://purl.org/dc/elements/1.1/"
   xmlns:cc="http://creativecommons.org/ns#"
   xmlns:rdf="http://www.w3.org/1999/02/22-rdf-syntax-ns#"
   xmlns:svg="http://www.w3.org/2000/svg"
   xmlns="http://www.w3.org/2000/svg"
   xmlns:sodipodi="http://sodipodi.sourceforge.net/DTD/sodipodi-0.dtd"
   xmlns:inkscape="http://www.inkscape.org/namespaces/inkscape"
   width="899.71094"
   height="155.89754"
   id="svg2"
   version="1.1"
   inkscape:version="0.91 r13725"
   sodipodi:docname="inters.svg">
  <defs
     id="defs4" />
  <sodipodi:namedview
     id="base"
     pagecolor="#ffffff"
     bordercolor="#666666"
     borderopacity="1.0"
     inkscape:pageopacity="0.0"
     inkscape:pageshadow="2"
     inkscape:zoom="5.4648311"
     inkscape:cx="312.09891"
     inkscape:cy="80.255934"
     inkscape:document-units="px"
     inkscape:current-layer="layer1"
     showgrid="false"
     showguides="true"
     inkscape:guide-bbox="true"
     inkscape:window-width="1920"
     inkscape:window-height="1056"
     inkscape:window-x="0"
     inkscape:window-y="0"
     inkscape:window-maximized="1"
     fit-margin-top="8"
     fit-margin-left="200"
     fit-margin-right="200"
     fit-margin-bottom="8">
    <sodipodi:guide
       orientation="1,0"
       position="199.7577,101.99666"
       id="guide3064" />
    <sodipodi:guide
       orientation="1,0"
       position="699.92057,57.835089"
       id="guide3078" />
    <sodipodi:guide
       orientation="0,1"
       position="231.96363,80.221049"
       id="guide3962" />
  </sodipodi:namedview>
  <metadata
     id="metadata7">
    <rdf:RDF>
      <cc:Work
         rdf:about="">
        <dc:format>image/svg+xml</dc:format>
        <dc:type
           rdf:resource="http://purl.org/dc/dcmitype/StillImage" />
        <dc:title></dc:title>
      </cc:Work>
    </rdf:RDF>
  </metadata>
  <g
     inkscape:label="Layer 1"
     inkscape:groupmode="layer"
     id="layer1"
     transform="translate(73.94272,-368.98663)">
    <g
       style="font-style:normal;font-variant:normal;font-weight:300;font-stretch:normal;font-size:72px;line-height:125%;font-family:Lato;-inkscape-font-specification:Sans;letter-spacing:0px;word-spacing:0px;fill:#000000;fill-opacity:1;stroke:none"
       id="text2993"
       transform="translate(0,0.36597654)">
      <path
         d="m 193.76822,482.69788 c -7e-5,5.95314 -1.52351,11.60157 -4.57031,16.94531 -6.46881,11.25 -16.2188,16.87499 -29.25,16.875 -6.04691,-10e-6 -11.69534,-1.52345 -16.94532,-4.57031 -11.29688,-6.51563 -16.94531,-16.26562 -16.94531,-29.25 0,-5.90622 1.47656,-11.53122 4.42969,-16.875 5.76561,-10.26558 14.50779,-15.86713 26.22656,-16.80469 1.03122,-0.0937 2.10934,-0.14057 3.23438,-0.14063 8.62495,6e-5 16.14838,2.836 22.57031,8.50782 6.14056,5.43754 9.77337,12.25785 10.89844,20.46093 0.2343,1.59378 0.35149,3.21097 0.35156,4.85157 m -4.00781,0 c -7e-5,-8.53122 -2.71882,-15.65621 -8.15625,-21.375 l -2.53125,-2.25 c -5.29693,-4.4062 -11.67192,-6.60932 -19.125,-6.60938 -5.25003,6e-5 -10.31253,1.35943 -15.1875,4.07813 -9.79689,5.25004 -14.69532,13.96878 -14.69532,26.15625 0,8.53126 2.71875,15.65626 8.15625,21.375 5.39061,5.67187 12.3281,8.62499 20.8125,8.85937 0.28122,0 0.58591,0 0.91407,0 8.57808,0 15.67963,-2.8125 21.30468,-8.4375 5.53119,-5.99999 8.36713,-13.26561 8.50782,-21.79687 m -16.24219,7.03125 c -5e-5,6.28126 -3.53911,9.67969 -10.61719,10.19531 -0.56254,0.0469 -1.19535,0.0703 -1.89844,0.0703 -6.37503,1e-5 -10.40627,-1.85155 -12.09375,-5.55469 -0.75002,-1.59373 -1.12502,-3.65623 -1.125,-6.1875 l 4.71094,0 c -3e-5,4.07814 1.94528,6.39845 5.83594,6.96094 0.74996,0.0938 1.57028,0.14064 2.46094,0.14063 5.10933,10e-6 7.66401,-1.78124 7.66406,-5.34375 -5e-5,-2.34373 -1.28911,-3.98436 -3.86719,-4.92188 l -9.07031,-2.74219 c -5.25003,-1.92184 -7.87502,-4.61715 -7.875,-8.08593 -2e-5,-3.79684 1.96872,-6.60934 5.90625,-8.4375 2.01559,-0.93746 4.19528,-1.40621 6.53906,-1.40625 8.06246,4e-5 12.49214,3.51566 13.28906,10.54687 l -5.0625,0 c -0.65629,-3.89059 -3.5391,-5.8359 -8.64843,-5.83594 -4.21879,4e-5 -6.51566,1.2891 -6.89063,3.86719 -0.0469,0.32816 -0.0703,0.67972 -0.0703,1.05469 -3e-5,1.64066 1.24216,2.95315 3.72656,3.9375 0.18747,0.0469 0.35153,0.0938 0.49219,0.14062 l 9.63281,3.02344 c 4.64058,1.45315 6.96089,4.31252 6.96094,8.57813"
         id="path3176"
         inkscape:connector-curvature="0" />
      <path
         d="m 265.76822,482.69788 c -7e-5,5.95314 -1.52351,11.60157 -4.57031,16.94531 -6.46881,11.25 -16.2188,16.87499 -29.25,16.875 -6.04691,-10e-6 -11.69534,-1.52345 -16.94532,-4.57031 -11.29688,-6.51563 -16.94531,-16.26562 -16.94531,-29.25 0,-5.90622 1.47656,-11.53122 4.42969,-16.875 5.76561,-10.26558 14.50779,-15.86713 26.22656,-16.80469 1.03122,-0.0937 2.10934,-0.14057 3.23438,-0.14063 8.62495,6e-5 16.14838,2.836 22.57031,8.50782 6.14056,5.43754 9.77337,12.25785 10.89844,20.46093 0.2343,1.59378 0.35149,3.21097 0.35156,4.85157 m -4.00781,0 c -7e-5,-8.53122 -2.71882,-15.65621 -8.15625,-21.375 l -2.53125,-2.25 c -5.29693,-4.4062 -11.67192,-6.60932 -19.125,-6.60938 -5.25003,6e-5 -10.31253,1.35943 -15.1875,4.07813 -9.79689,5.25004 -14.69532,13.96878 -14.69532,26.15625 0,8.53126 2.71875,15.65626 8.15625,21.375 5.39061,5.67187 12.3281,8.62499 20.8125,8.85937 0.28122,0 0.58591,0 0.91407,0 8.57808,0 15.67963,-2.8125 21.30468,-8.4375 5.53119,-5.99999 8.36713,-13.26561 8.50782,-21.79687 m -21.72657,21.16406 -1.40625,0 c -4.59378,0 -7.47659,-0.63281 -8.64843,-1.89844 -0.89066,-1.07812 -1.35941,-3.37499 -1.40625,-6.89062 -4e-5,-0.42187 -4e-5,-1.31249 0,-2.67188 l 0,-17.15625 -6.11719,0 0,-4.28906 6.11719,0 0,-8.64844 4.71093,0 0,8.64844 6.75,0 0,4.28906 -6.75,0 0,21.51563 c -3e-5,1.87501 1.59372,2.8125 4.78125,2.8125 l 1.96875,-0.0703 0,4.35938"
         id="path3178"
         inkscape:connector-curvature="0" />
      <path
         d="m 337.76822,482.69788 c -7e-5,5.95314 -1.52351,11.60157 -4.57031,16.94531 -6.46881,11.25 -16.2188,16.87499 -29.25,16.875 -6.04691,-10e-6 -11.69534,-1.52345 -16.94532,-4.57031 -11.29688,-6.51563 -16.94531,-16.26562 -16.94531,-29.25 0,-5.90622 1.47656,-11.53122 4.42969,-16.875 5.76561,-10.26558 14.50779,-15.86713 26.22656,-16.80469 1.03122,-0.0937 2.10934,-0.14057 3.23438,-0.14063 8.62495,6e-5 16.14838,2.836 22.57031,8.50782 6.14056,5.43754 9.77337,12.25785 10.89844,20.46093 0.2343,1.59378 0.35149,3.21097 0.35156,4.85157 m -4.00781,0 c -7e-5,-8.53122 -2.71882,-15.65621 -8.15625,-21.375 l -2.53125,-2.25 c -5.29693,-4.4062 -11.67192,-6.60932 -19.125,-6.60938 -5.25003,6e-5 -10.31253,1.35943 -15.1875,4.07813 -9.79689,5.25004 -14.69532,13.96878 -14.69532,26.15625 0,8.53126 2.71875,15.65626 8.15625,21.375 5.39061,5.67187 12.3281,8.62499 20.8125,8.85937 0.28122,0 0.58591,0 0.91407,0 8.57808,0 15.67963,-2.8125 21.30468,-8.4375 5.53119,-5.99999 8.36713,-13.26561 8.50782,-21.79687 m -14.41407,5.625 c -1.35942,7.82813 -6.44535,11.74219 -15.25781,11.74218 -9.89065,10e-6 -14.83596,-5.95311 -14.83594,-17.85937 -2e-5,-11.43746 5.06248,-17.15621 15.1875,-17.15625 7.21871,4e-5 11.78902,2.88285 13.71094,8.64844 0.79683,2.62503 1.19526,6.07034 1.19531,10.33593 l -25.10156,0 0,1.19532 c -2e-5,6.79689 3.44528,10.19532 10.33594,10.19531 5.34371,10e-6 8.55464,-2.22655 9.63281,-6.67969 -4e-5,-0.1406 0.0234,-0.28123 0.0703,-0.42187 l 5.0625,0 m -5.0625,-8.64844 c -0.23442,-6.70309 -3.51566,-10.05465 -9.84375,-10.05469 -6.7969,4e-5 -10.19533,3.3516 -10.19531,10.05469 l 20.03906,0"
         id="path3180"
         inkscape:connector-curvature="0" />
      <path
         d="m 409.76822,482.69788 c -7e-5,5.95314 -1.52351,11.60157 -4.57031,16.94531 -6.46881,11.25 -16.2188,16.87499 -29.25,16.875 -6.04691,-10e-6 -11.69534,-1.52345 -16.94532,-4.57031 -11.29688,-6.51563 -16.94531,-16.26562 -16.94531,-29.25 0,-5.90622 1.47656,-11.53122 4.42969,-16.875 5.76561,-10.26558 14.50779,-15.86713 26.22656,-16.80469 1.03122,-0.0937 2.10934,-0.14057 3.23438,-0.14063 8.62495,6e-5 16.14838,2.836 22.57031,8.50782 6.14056,5.43754 9.77337,12.25785 10.89844,20.46093 0.2343,1.59378 0.35149,3.21097 0.35156,4.85157 m -4.00781,0 c -7e-5,-8.53122 -2.71882,-15.65621 -8.15625,-21.375 l -2.53125,-2.25 c -5.29693,-4.4062 -11.67192,-6.60932 -19.125,-6.60938 -5.25003,6e-5 -10.31253,1.35943 -15.1875,4.07813 -9.79689,5.25004 -14.69532,13.96878 -14.69532,26.15625 0,8.53126 2.71875,15.65626 8.15625,21.375 5.39061,5.67187 12.3281,8.62499 20.8125,8.85937 0.28122,0 0.58591,0 0.91407,0 8.57808,0 15.67963,-2.8125 21.30468,-8.4375 5.53119,-5.99999 8.36713,-13.26561 8.50782,-21.79687 m -27.49219,21.86718 -4.64063,0 0,-44.85937 4.64063,0 0,44.85937"
         id="path3182"
         inkscape:connector-curvature="0" />
      <path
         d="m 481.76822,482.69788 c -7e-5,5.95314 -1.52351,11.60157 -4.57031,16.94531 -6.46881,11.25 -16.2188,16.87499 -29.25,16.875 -6.04691,-10e-6 -11.69534,-1.52345 -16.94532,-4.57031 -11.29688,-6.51563 -16.94531,-16.26562 -16.94531,-29.25 0,-5.90622 1.47656,-11.53122 4.42969,-16.875 5.76561,-10.26558 14.50779,-15.86713 26.22656,-16.80469 1.03122,-0.0937 2.10934,-0.14057 3.23438,-0.14063 8.62495,6e-5 16.14838,2.836 22.57031,8.50782 6.14056,5.43754 9.77337,12.25785 10.89844,20.46093 0.2343,1.59378 0.35149,3.21097 0.35156,4.85157 m -4.00781,0 c -7e-5,-8.53122 -2.71882,-15.65621 -8.15625,-21.375 l -2.53125,-2.25 c -5.29693,-4.4062 -11.67192,-6.60932 -19.125,-6.60938 -5.25003,6e-5 -10.31253,1.35943 -15.1875,4.07813 -9.79689,5.25004 -14.69532,13.96878 -14.69532,26.15625 0,8.53126 2.71875,15.65626 8.15625,21.375 5.39061,5.67187 12.3281,8.62499 20.8125,8.85937 0.28122,0 0.58591,0 0.91407,0 8.57808,0 15.67963,-2.8125 21.30468,-8.4375 5.53119,-5.99999 8.36713,-13.26561 8.50782,-21.79687 m -27.49219,21.86718 -4.64063,0 0,-44.85937 4.64063,0 0,44.85937"
         id="path3184"
         inkscape:connector-curvature="0" />
      <path
         d="m 553.76822,482.69788 c -7e-5,5.95314 -1.52351,11.60157 -4.57031,16.94531 -6.46881,11.25 -16.2188,16.87499 -29.25,16.875 -6.04691,-10e-6 -11.69534,-1.52345 -16.94532,-4.57031 -11.29688,-6.51563 -16.94531,-16.26562 -16.94531,-29.25 0,-5.90622 1.47656,-11.53122 4.42969,-16.875 5.76561,-10.26558 14.50779,-15.86713 26.22656,-16.80469 1.03122,-0.0937 2.10934,-0.14057 3.23438,-0.14063 8.62495,6e-5 16.14838,2.836 22.57031,8.50782 6.14056,5.43754 9.77337,12.25785 10.89844,20.46093 0.2343,1.59378 0.35149,3.21097 0.35156,4.85157 m -4.00781,0 c -7e-5,-8.53122 -2.71882,-15.65621 -8.15625,-21.375 l -2.53125,-2.25 c -5.29693,-4.4062 -11.67192,-6.60932 -19.125,-6.60938 -5.25003,6e-5 -10.31253,1.35943 -15.1875,4.07813 -9.79689,5.25004 -14.69532,13.96878 -14.69532,26.15625 0,8.53126 2.71875,15.65626 8.15625,21.375 5.39061,5.67187 12.3281,8.62499 20.8125,8.85937 0.28122,0 0.58591,0 0.91407,0 8.57808,0 15.67963,-2.8125 21.30468,-8.4375 5.53119,-5.99999 8.36713,-13.26561 8.50782,-21.79687 m -12.09375,16.03125 -4.57032,0 c -2.34379,10e-6 -3.63285,-1.05468 -3.86718,-3.16407 -0.0938,-0.51561 -0.11724,-1.10154 -0.0703,-1.75781 -3.42191,3.70314 -7.61722,5.5547 -12.58593,5.55469 -7.12503,10e-6 -10.89846,-3.2578 -11.32032,-9.77344 -0.0469,-0.42185 -0.0703,-0.84373 -0.0703,-1.26562 -2e-5,-4.96873 2.7656,-8.10935 8.29688,-9.42188 1.35934,-0.28122 4.5234,-0.63278 9.49218,-1.05469 3.60934,-0.28122 5.62496,-0.98434 6.04688,-2.10937 0.0937,-0.23434 0.14058,-0.46872 0.14062,-0.70313 -4e-5,-3.23433 -1.94535,-5.06246 -5.83593,-5.48437 l -3.30469,-0.14063 c -5.85941,4e-5 -8.95315,2.15629 -9.28125,6.46875 l -5.0625,0 c 0.0469,-7.45308 4.99216,-11.17964 14.83594,-11.17968 8.85933,4e-5 13.28901,3.51566 13.28906,10.54687 l 0,15.82031 c -5e-5,1.78127 0.42182,2.81252 1.26562,3.09375 0.42183,0.14064 1.28901,0.21096 2.60157,0.21094 l 0,4.35938 m -8.50782,-12.02344 0,-6.39844 c -1.17192,0.93753 -3.86722,1.5469 -8.08593,1.82813 l -5.20313,0.5625 c -3.70315,0.70315 -5.60159,2.46096 -5.69531,5.27343 -3e-5,4.40627 2.64841,6.63283 7.94531,6.67969 3.42184,10e-6 6.30465,-1.21873 8.64844,-3.65625 1.5937,-1.59373 2.39058,-3.02342 2.39062,-4.28906"
         id="path3186"
         inkscape:connector-curvature="0" />
      <path
         d="m 625.76822,482.69788 c -7e-5,5.95314 -1.52351,11.60157 -4.57031,16.94531 -6.46881,11.25 -16.2188,16.87499 -29.25,16.875 -6.04691,-10e-6 -11.69534,-1.52345 -16.94532,-4.57031 -11.29688,-6.51563 -16.94531,-16.26562 -16.94531,-29.25 0,-5.90622 1.47656,-11.53122 4.42969,-16.875 5.76561,-10.26558 14.50779,-15.86713 26.22656,-16.80469 1.03122,-0.0937 2.10934,-0.14057 3.23438,-0.14063 8.62495,6e-5 16.14838,2.836 22.57031,8.50782 6.14056,5.43754 9.77337,12.25785 10.89844,20.46093 0.2343,1.59378 0.35149,3.21097 0.35156,4.85157 m -4.00781,0 c -7e-5,-8.53122 -2.71882,-15.65621 -8.15625,-21.375 l -2.53125,-2.25 c -5.29693,-4.4062 -11.67192,-6.60932 -19.125,-6.60938 -5.25003,6e-5 -10.31253,1.35943 -15.1875,4.07813 -9.79689,5.25004 -14.69532,13.96878 -14.69532,26.15625 0,8.53126 2.71875,15.65626 8.15625,21.375 5.39061,5.67187 12.3281,8.62499 20.8125,8.85937 0.28122,0 0.58591,0 0.91407,0 8.57808,0 15.67963,-2.8125 21.30468,-8.4375 5.53119,-5.99999 8.36713,-13.26561 8.50782,-21.79687 m -18.07032,-10.61719 c -6.70316,3e-5 -10.4766,2.55472 -11.32031,7.66406 l -0.14062,2.39063 0,18.07031 -4.71094,0 0,-32.83594 4.71094,0 0,5.90625 c 2.34371,-3.23434 5.17964,-5.13277 8.50781,-5.69531 0.89058,-0.14059 1.87495,-0.2109 2.95312,-0.21094 l 0,4.71094"
         id="path3188"
         inkscape:connector-curvature="0" />
    </g>
    <text
       sodipodi:linespacing="125%"
       id="text3029"
       y="572.96521"
       x="160.55275"
       style="font-style:normal;font-variant:normal;font-weight:300;font-stretch:normal;font-size:72px;line-height:125%;font-family:Lato;-inkscape-font-specification:Sans;letter-spacing:0px;word-spacing:0px;fill:#000000;fill-opacity:1;stroke:none"
       xml:space="preserve"><tspan
         y="572.96521"
         x="160.55275"
         id="tspan3031"
         sodipodi:role="line" /></text>
    <g
       style="font-style:normal;font-variant:normal;font-weight:300;font-stretch:normal;font-size:72px;line-height:125%;font-family:Lato;-inkscape-font-specification:Sans;letter-spacing:0px;word-spacing:0px;fill:#000000;fill-opacity:1;stroke:none"
       id="text3160">
      <path
         d="m 193.76824,410.80695 c -7e-5,5.95314 -1.5235,11.60157 -4.57031,16.94531 -6.46881,11.25 -16.2188,16.87499 -29.25,16.875 -6.04691,-10e-6 -11.69534,-1.52345 -16.94531,-4.57031 -11.29689,-6.51563 -16.94532,-16.26562 -16.94532,-29.25 0,-5.90622 1.47656,-11.53122 4.42969,-16.875 5.76561,-10.26558 14.50779,-15.86713 26.22656,-16.80469 1.03122,-0.0937 2.10934,-0.14057 3.23438,-0.14063 8.62495,6e-5 16.14838,2.836 22.57031,8.50782 6.14056,5.43754 9.77337,12.25785 10.89844,20.46093 0.2343,1.59378 0.35149,3.21097 0.35156,4.85157 m -4.00781,0 c -7e-5,-8.53122 -2.71881,-15.65621 -8.15625,-21.375 l -2.53125,-2.25 c -5.29693,-4.4062 -11.67192,-6.60932 -19.125,-6.60938 -5.25003,6e-5 -10.31253,1.35943 -15.1875,4.07813 -9.79689,5.25004 -14.69532,13.96878 -14.69531,26.15625 -1e-5,8.53126 2.71874,15.65626 8.15625,21.375 5.3906,5.67187 12.3281,8.62499 20.8125,8.85937 0.28121,0 0.5859,0 0.91406,0 8.57808,0 15.67964,-2.8125 21.30469,-8.4375 5.53118,-5.99999 8.36712,-13.26561 8.50781,-21.79687 m -27.49219,-16.52344 -4.64062,0 0,-6.46875 4.64062,0 0,6.46875 m 0,38.39062 -4.64062,0 0,-32.41406 4.64062,0 0,32.41406"
         id="path3165"
         inkscape:connector-curvature="0"
         style="fill:#000000;fill-opacity:1" />
      <path
         d="m 265.76824,410.80695 c -7e-5,5.95314 -1.5235,11.60157 -4.57031,16.94531 -6.46881,11.25 -16.2188,16.87499 -29.25,16.875 -6.04691,-10e-6 -11.69534,-1.52345 -16.94531,-4.57031 -11.29689,-6.51563 -16.94532,-16.26562 -16.94532,-29.25 0,-5.90622 1.47656,-11.53122 4.42969,-16.875 5.76561,-10.26558 14.50779,-15.86713 26.22656,-16.80469 1.03122,-0.0937 2.10934,-0.14057 3.23438,-0.14063 8.62495,6e-5 16.14838,2.836 22.57031,8.50782 6.14056,5.43754 9.77337,12.25785 10.89844,20.46093 0.2343,1.59378 0.35149,3.21097 0.35156,4.85157 m -4.00781,0 c -7e-5,-8.53122 -2.71881,-15.65621 -8.15625,-21.375 l -2.53125,-2.25 c -5.29693,-4.4062 -11.67192,-6.60932 -19.125,-6.60938 -5.25003,6e-5 -10.31253,1.35943 -15.1875,4.07813 -9.79689,5.25004 -14.69532,13.96878 -14.69531,26.15625 -1e-5,8.53126 2.71874,15.65626 8.15625,21.375 5.3906,5.67187 12.3281,8.62499 20.8125,8.85937 0.28121,0 0.5859,0 0.91406,0 8.57808,0 15.67964,-2.8125 21.30469,-8.4375 5.53118,-5.99999 8.36712,-13.26561 8.50781,-21.79687 m -16.59375,17.50781 -4.71094,0 0,-18.49219 c -4e-5,-4.21872 -0.58598,-7.07809 -1.75781,-8.57812 l -0.91406,-0.91407 c -1.12504,-0.84371 -2.62504,-1.26558 -4.5,-1.26562 -6.60941,4e-5 -9.91409,3.25785 -9.91407,9.77344 l 0,19.47656 -4.71093,0 0,-32.83594 4.71093,0 0,4.35938 c 2.62497,-3.60934 6.02341,-5.41402 10.19532,-5.41407 7.73433,5e-5 11.60151,4.96879 11.60156,14.90625 l 0,18.98438"
         id="path3167"
         inkscape:connector-curvature="0"
         style="fill:#000000;fill-opacity:1" />
      <path
         d="m 337.76824,410.80695 c -7e-5,5.95314 -1.5235,11.60157 -4.57031,16.94531 -6.46881,11.25 -16.2188,16.87499 -29.25,16.875 -6.04691,-10e-6 -11.69534,-1.52345 -16.94531,-4.57031 -11.29689,-6.51563 -16.94532,-16.26562 -16.94532,-29.25 0,-5.90622 1.47656,-11.53122 4.42969,-16.875 5.76561,-10.26558 14.50779,-15.86713 26.22656,-16.80469 1.03122,-0.0937 2.10934,-0.14057 3.23438,-0.14063 8.62495,6e-5 16.14838,2.836 22.57031,8.50782 6.14056,5.43754 9.77337,12.25785 10.89844,20.46093 0.2343,1.59378 0.35149,3.21097 0.35156,4.85157 m -4.00781,0 c -7e-5,-8.53122 -2.71881,-15.65621 -8.15625,-21.375 l -2.53125,-2.25 c -5.29693,-4.4062 -11.67192,-6.60932 -19.125,-6.60938 -5.25003,6e-5 -10.31253,1.35943 -15.1875,4.07813 -9.79689,5.25004 -14.69532,13.96878 -14.69531,26.15625 -10e-6,8.53126 2.71874,15.65626 8.15625,21.375 5.3906,5.67187 12.3281,8.62499 20.8125,8.85937 0.28121,0 0.5859,0 0.91406,0 8.57808,0 15.67964,-2.8125 21.30469,-8.4375 5.53118,-5.99999 8.36712,-13.26561 8.50781,-21.79687 m -21.72656,21.16406 -1.40625,0 c -4.59379,0 -7.4766,-0.63281 -8.64844,-1.89844 -0.89066,-1.07812 -1.35941,-3.37499 -1.40625,-6.89062 -3e-5,-0.42187 -3e-5,-1.31249 0,-2.67188 l 0,-17.15625 -6.11719,0 0,-4.28906 6.11719,0 0,-8.64844 4.71094,0 0,8.64844 6.75,0 0,4.28906 -6.75,0 0,21.51563 c -4e-5,1.87501 1.59371,2.8125 4.78125,2.8125 l 1.96875,-0.0703 0,4.35938"
         id="path3169"
         inkscape:connector-curvature="0"
         style="fill:#000000;fill-opacity:1" />
      <path
         d="m 409.76824,410.80695 c -7e-5,5.95314 -1.5235,11.60157 -4.57031,16.94531 -6.46881,11.25 -16.2188,16.87499 -29.25,16.875 -6.04691,-10e-6 -11.69534,-1.52345 -16.94531,-4.57031 -11.29689,-6.51563 -16.94532,-16.26562 -16.94532,-29.25 0,-5.90622 1.47656,-11.53122 4.42969,-16.875 5.76561,-10.26558 14.50779,-15.86713 26.22656,-16.80469 1.03122,-0.0937 2.10934,-0.14057 3.23438,-0.14063 8.62495,6e-5 16.14838,2.836 22.57031,8.50782 6.14056,5.43754 9.77337,12.25785 10.89844,20.46093 0.2343,1.59378 0.35149,3.21097 0.35156,4.85157 m -4.00781,0 c -7e-5,-8.53122 -2.71881,-15.65621 -8.15625,-21.375 l -2.53125,-2.25 c -5.29693,-4.4062 -11.67192,-6.60932 -19.125,-6.60938 -5.25003,6e-5 -10.31253,1.35943 -15.1875,4.07813 -9.79689,5.25004 -14.69532,13.96878 -14.69531,26.15625 -10e-6,8.53126 2.71874,15.65626 8.15625,21.375 5.3906,5.67187 12.3281,8.62499 20.8125,8.85937 0.28121,0 0.5859,0 0.91406,0 8.57808,0 15.67964,-2.8125 21.30469,-8.4375 5.53118,-5.99999 8.36712,-13.26561 8.50781,-21.79687 m -14.41406,5.625 c -1.35943,7.82813 -6.44536,11.74219 -15.25782,11.74218 -9.89065,1e-5 -14.83595,-5.95311 -14.83593,-17.85937 -2e-5,-11.43746 5.06247,-17.15621 15.1875,-17.15625 7.2187,4e-5 11.78901,2.88285 13.71093,8.64844 0.79683,2.62503 1.19527,6.07034 1.19532,10.33593 l -25.10157,0 0,1.19532 c -2e-5,6.79689 3.44529,10.19532 10.33594,10.19531 5.34371,1e-5 8.55464,-2.22655 9.63281,-6.67969 -4e-5,-0.1406 0.0234,-0.28123 0.0703,-0.42187 l 5.0625,0 m -5.0625,-8.64844 c -0.23442,-6.70309 -3.51567,-10.05465 -9.84375,-10.05469 -6.79691,4e-5 -10.19534,3.3516 -10.19532,10.05469 l 20.03907,0"
         id="path3171"
         inkscape:connector-curvature="0"
         style="fill:#000000;fill-opacity:1" />
      <path
         d="m 481.76824,410.80695 c -7e-5,5.95314 -1.5235,11.60157 -4.57031,16.94531 -6.46881,11.25 -16.2188,16.87499 -29.25,16.875 -6.04691,-10e-6 -11.69534,-1.52345 -16.94531,-4.57031 -11.29689,-6.51563 -16.94532,-16.26562 -16.94532,-29.25 0,-5.90622 1.47656,-11.53122 4.42969,-16.875 5.76561,-10.26558 14.50779,-15.86713 26.22656,-16.80469 1.03122,-0.0937 2.10934,-0.14057 3.23438,-0.14063 8.62495,6e-5 16.14838,2.836 22.57031,8.50782 6.14056,5.43754 9.77337,12.25785 10.89844,20.46093 0.2343,1.59378 0.35149,3.21097 0.35156,4.85157 m -4.00781,0 c -7e-5,-8.53122 -2.71881,-15.65621 -8.15625,-21.375 l -2.53125,-2.25 c -5.29693,-4.4062 -11.67192,-6.60932 -19.125,-6.60938 -5.25003,6e-5 -10.31253,1.35943 -15.1875,4.07813 -9.79689,5.25004 -14.69532,13.96878 -14.69531,26.15625 -10e-6,8.53126 2.71874,15.65626 8.15625,21.375 5.3906,5.67187 12.3281,8.62499 20.8125,8.85937 0.28121,0 0.5859,0 0.91406,0 8.57808,0 15.67964,-2.8125 21.30469,-8.4375 5.53118,-5.99999 8.36712,-13.26561 8.50781,-21.79687 m -18.07031,-10.61719 c -6.70317,3e-5 -10.4766,2.55472 -11.32032,7.66406 l -0.14062,2.39063 0,18.07031 -4.71094,0 0,-32.83594 4.71094,0 0,5.90625 c 2.34371,-3.23434 5.17965,-5.13277 8.50781,-5.69531 0.89058,-0.14059 1.87496,-0.2109 2.95313,-0.21094 l 0,4.71094"
         id="path3173"
         inkscape:connector-curvature="0"
         style="fill:#000000;fill-opacity:1" />
    </g>
  </g>
</svg>
