<?xml version="1.0" encoding="UTF-8" standalone="no"?>
<svg
   xmlns:dc="http://purl.org/dc/elements/1.1/"
   xmlns:cc="http://creativecommons.org/ns#"
   xmlns:rdf="http://www.w3.org/1999/02/22-rdf-syntax-ns#"
   xmlns:svg="http://www.w3.org/2000/svg"
   xmlns="http://www.w3.org/2000/svg"
   version="1.1"
   id="svg2"
   viewBox="0 0 903.40915 556.4673"
   height="157.04744mm"
   width="254.96214mm">
  <defs
     id="defs4">
    <marker
       style="overflow:visible"
       id="marker5501"
       refX="0"
       refY="0"
       orient="auto">
      <path
         transform="matrix(-0.4,0,0,-0.4,-4,0)"
         style="fill:#7c7c7c;fill-opacity:1;fill-rule:evenodd;stroke:#7c7c7c;stroke-width:1pt;stroke-opacity:1"
         d="M 0,0 5,-5 -12.5,0 5,5 0,0 Z"
         id="path5503" />
    </marker>
    <marker
       orient="auto"
       refY="0"
       refX="0"
       id="marker5437"
       style="overflow:visible">
      <path
         id="path5439"
         d="M 0,0 5,-5 -12.5,0 5,5 0,0 Z"
         style="fill:#7c7c7c;fill-opacity:1;fill-rule:evenodd;stroke:#7c7c7c;stroke-width:1pt;stroke-opacity:1"
         transform="matrix(-0.4,0,0,-0.4,-4,0)" />
    </marker>
    <marker
       style="overflow:visible"
       id="marker5206"
       refX="0"
       refY="0"
       orient="auto">
      <path
         transform="matrix(-0.4,0,0,-0.4,-4,0)"
         style="fill:#7c7c7c;fill-opacity:1;fill-rule:evenodd;stroke:#7c7c7c;stroke-width:1pt;stroke-opacity:1"
         d="M 0,0 5,-5 -12.5,0 5,5 0,0 Z"
         id="path5208" />
    </marker>
    <marker
       style="overflow:visible"
       id="marker5037"
       refX="0"
       refY="0"
       orient="auto">
      <path
         transform="matrix(-0.4,0,0,-0.4,-4,0)"
         style="fill:#7c7c7c;fill-opacity:1;fill-rule:evenodd;stroke:#7c7c7c;stroke-width:1pt;stroke-opacity:1"
         d="M 0,0 5,-5 -12.5,0 5,5 0,0 Z"
         id="path5039" />
    </marker>
    <marker
       orient="auto"
       refY="0"
       refX="0"
       id="marker4946"
       style="overflow:visible">
      <path
         id="path4948"
         d="M 0,0 5,-5 -12.5,0 5,5 0,0 Z"
         style="fill:#7c7c7c;fill-opacity:1;fill-rule:evenodd;stroke:#7c7c7c;stroke-width:1pt;stroke-opacity:1"
         transform="matrix(-0.4,0,0,-0.4,-4,0)" />
    </marker>
    <marker
       orient="auto"
       refY="0"
       refX="0"
       id="marker4767"
       style="overflow:visible">
      <path
         id="path4769"
         d="M 0,0 5,-5 -12.5,0 5,5 0,0 Z"
         style="fill:#7c7c7c;fill-opacity:1;fill-rule:evenodd;stroke:#7c7c7c;stroke-width:1pt;stroke-opacity:1"
         transform="matrix(-0.4,0,0,-0.4,-4,0)" />
    </marker>
    <marker
       style="overflow:visible"
       id="Arrow1Mend"
       refX="0"
       refY="0"
       orient="auto">
      <path
         transform="matrix(-0.4,0,0,-0.4,-4,0)"
         style="fill:#7c7c7c;fill-opacity:1;fill-rule:evenodd;stroke:#7c7c7c;stroke-width:1pt;stroke-opacity:1"
         d="M 0,0 5,-5 -12.5,0 5,5 0,0 Z"
         id="path4217" />
    </marker>
    <marker
       style="overflow:visible"
       id="Arrow1Lend"
       refX="0"
       refY="0"
       orient="auto">
      <path
         transform="matrix(-0.8,0,0,-0.8,-10,0)"
         style="fill:#000000;fill-opacity:1;fill-rule:evenodd;stroke:#000000;stroke-width:1pt;stroke-opacity:1"
         d="M 0,0 5,-5 -12.5,0 5,5 0,0 Z"
         id="path4211" />
    </marker>
  </defs>
  <metadata
     id="metadata7">
    <rdf:RDF>
      <cc:Work
         rdf:about="">
        <dc:format>image/svg+xml</dc:format>
        <dc:type
           rdf:resource="http://purl.org/dc/dcmitype/StillImage" />
        <dc:title></dc:title>
      </cc:Work>
    </rdf:RDF>
  </metadata>
  <g
     transform="translate(4.1363876,-277.29104)"
     id="layer1">
    <path
       id="path4926"
       d="M -53.225739,748.21954 A 290.81299,114.41481 0 0 1 -344.03873,862.63435 290.81299,114.41481 0 0 1 -634.85172,748.21954 290.81299,114.41481 0 0 1 -344.03873,633.80473 290.81299,114.41481 0 0 1 -53.225739,748.21954 Z"
       style="opacity:1;fill:#fffff7;fill-opacity:1;fill-rule:evenodd;stroke:#f4f4f4;stroke-width:2.93664742;stroke-linecap:round;stroke-linejoin:round;stroke-miterlimit:4;stroke-dasharray:none;stroke-dashoffset:0;stroke-opacity:1"
       transform="matrix(0.42732128,-0.90409984,0.93991342,0.34141288,0,0)" />
    <g
       transform="translate(166,0.84607875)"
       id="g4197">
      <path
         id="path4138"
         d="M 258.06652,432.18732 A 81.236122,81.235374 0 0 1 176.8304,513.42269 81.236122,81.235374 0 0 1 95.594276,432.18732 81.236122,81.235374 0 0 1 176.8304,350.95194 81.236122,81.235374 0 0 1 258.06652,432.18732 Z"
         style="opacity:1;fill:#a7e5e2;fill-opacity:0.98039216;fill-rule:evenodd;stroke:#acacac;stroke-width:1.97475243;stroke-linecap:round;stroke-linejoin:round;stroke-miterlimit:4;stroke-dasharray:none;stroke-dashoffset:0;stroke-opacity:1" />
      <g
         id="text4140"
         style="font-style:normal;font-variant:normal;font-weight:300;font-stretch:normal;font-size:30px;line-height:125%;font-family:Lato;-inkscape-font-specification:Sans;text-align:center;letter-spacing:0px;word-spacing:0px;text-anchor:middle;fill:#6b6b6b;fill-opacity:1;stroke:none;stroke-width:1px;stroke-linecap:butt;stroke-linejoin:miter;stroke-opacity:1">
        <path
           id="path5861"
           style="font-style:normal;font-variant:normal;font-weight:bold;font-stretch:normal;font-family:Lato;-inkscape-font-specification:'Lato Bold';fill:#6b6b6b;fill-opacity:1"
           d="m 157.37125,428.10335 0,15.39 -3.72,0 0,-15.39 3.72,0 z m 0.51,-4.485 q 0,0.48 -0.195,0.9 -0.195,0.42 -0.525,0.735 -0.315,0.315 -0.75,0.51 -0.435,0.18 -0.93,0.18 -0.48,0 -0.915,-0.18 -0.42,-0.195 -0.735,-0.51 -0.315,-0.315 -0.51,-0.735 -0.18,-0.42 -0.18,-0.9 0,-0.495 0.18,-0.93 0.195,-0.435 0.51,-0.75 0.315,-0.315 0.735,-0.495 0.435,-0.195 0.915,-0.195 0.495,0 0.93,0.195 0.435,0.18 0.75,0.495 0.33,0.315 0.525,0.75 0.195,0.435 0.195,0.93 z" />
        <path
           id="path5863"
           style="font-style:normal;font-variant:normal;font-weight:bold;font-stretch:normal;font-family:Lato;-inkscape-font-specification:'Lato Bold';fill:#6b6b6b;fill-opacity:1"
           d="m 172.24844,443.49335 q -0.735,0 -0.93,-0.675 l -0.315,-1.485 q -0.48,0.54 -1.005,0.975 -0.525,0.435 -1.14,0.75 -0.6,0.315 -1.305,0.48 -0.69,0.18 -1.5,0.18 -1.26,0 -2.31,-0.525 -1.05,-0.525 -1.815,-1.515 -0.75,-1.005 -1.17,-2.475 -0.405,-1.47 -0.405,-3.36 0,-1.71 0.465,-3.18 0.465,-1.47 1.335,-2.55 0.87,-1.08 2.085,-1.68 1.215,-0.615 2.73,-0.615 1.29,0 2.205,0.42 0.915,0.405 1.635,1.095 l 0,-8.13 3.705,0 0,22.29 -2.265,0 z m -4.935,-2.715 q 1.155,0 1.965,-0.48 0.81,-0.48 1.53,-1.365 l 0,-6.9 q -0.63,-0.765 -1.38,-1.08 -0.735,-0.315 -1.59,-0.315 -0.84,0 -1.515,0.315 -0.675,0.315 -1.155,0.96 -0.48,0.63 -0.735,1.62 -0.255,0.975 -0.255,2.31 0,1.35 0.21,2.295 0.225,0.93 0.63,1.53 0.405,0.585 0.99,0.855 0.585,0.255 1.305,0.255 z" />
        <path
           id="path5865"
           style="font-style:normal;font-variant:normal;font-weight:bold;font-stretch:normal;font-family:Lato;-inkscape-font-specification:'Lato Bold';fill:#6b6b6b;fill-opacity:1"
           d="m 181.94922,421.20335 0,22.29 -3.705,0 0,-22.29 3.705,0 z" />
        <path
           id="path5867"
           style="font-style:normal;font-variant:normal;font-weight:bold;font-stretch:normal;font-family:Lato;-inkscape-font-specification:'Lato Bold';fill:#6b6b6b;fill-opacity:1"
           d="m 192.19562,427.86335 q 1.455,0 2.685,0.465 1.23,0.465 2.115,1.365 0.885,0.885 1.38,2.19 0.51,1.29 0.51,2.955 0,0.84 -0.18,1.14 -0.18,0.285 -0.69,0.285 l -9.525,0 q 0.09,1.185 0.42,2.055 0.33,0.855 0.87,1.425 0.54,0.555 1.275,0.84 0.75,0.27 1.65,0.27 0.9,0 1.545,-0.21 0.66,-0.21 1.14,-0.465 0.495,-0.255 0.855,-0.465 0.375,-0.21 0.72,-0.21 0.465,0 0.69,0.345 l 1.065,1.35 q -0.615,0.72 -1.38,1.215 -0.765,0.48 -1.605,0.78 -0.825,0.285 -1.695,0.405 -0.855,0.12 -1.665,0.12 -1.605,0 -2.985,-0.525 -1.38,-0.54 -2.4,-1.575 -1.02,-1.05 -1.605,-2.58 -0.585,-1.545 -0.585,-3.57 0,-1.575 0.51,-2.955 0.51,-1.395 1.455,-2.415 0.96,-1.035 2.325,-1.635 1.38,-0.6 3.105,-0.6 z m 0.075,2.655 q -1.62,0 -2.535,0.915 -0.915,0.915 -1.17,2.595 l 6.99,0 q 0,-0.72 -0.21,-1.35 -0.195,-0.645 -0.6,-1.125 -0.405,-0.48 -1.035,-0.75 -0.615,-0.285 -1.44,-0.285 z" />
      </g>
    </g>
    <g
       transform="translate(178,4)"
       id="g4192">
      <path
         id="path4138-0"
         d="m 524.98328,428.93234 a 81.236122,81.235374 0 0 1 -81.23612,81.23538 81.236122,81.235374 0 0 1 -81.23612,-81.23538 81.236122,81.235374 0 0 1 81.23612,-81.23537 81.236122,81.235374 0 0 1 81.23612,81.23537 z"
         style="opacity:1;fill:#a7e5e2;fill-opacity:0.98039216;fill-rule:evenodd;stroke:#acacac;stroke-width:1.97475243;stroke-linecap:round;stroke-linejoin:round;stroke-miterlimit:4;stroke-dasharray:none;stroke-dashoffset:0;stroke-opacity:1" />
      <g
         id="text4140-3"
         style="font-style:normal;font-variant:normal;font-weight:300;font-stretch:normal;font-size:30px;line-height:125%;font-family:Lato;-inkscape-font-specification:Sans;text-align:center;letter-spacing:0px;word-spacing:0px;text-anchor:middle;fill:#6b6b6b;fill-opacity:1;stroke:none;stroke-width:1px;stroke-linecap:butt;stroke-linejoin:miter;stroke-opacity:1">
        <path
           id="path5871"
           style="font-style:normal;font-variant:normal;font-weight:bold;font-stretch:normal;font-family:Lato;-inkscape-font-specification:'Lato Bold';fill:#6b6b6b;fill-opacity:1"
           d="m 366.35871,422.84837 2.955,0 q 0.405,0 0.69,0.195 0.285,0.195 0.375,0.495 l 2.205,8.22 q 0.165,0.675 0.285,1.32 0.12,0.645 0.225,1.275 0.165,-0.63 0.345,-1.275 0.195,-0.645 0.405,-1.32 l 2.55,-8.25 q 0.09,-0.3 0.345,-0.495 0.27,-0.195 0.645,-0.195 l 1.635,0 q 0.39,0 0.66,0.195 0.285,0.195 0.375,0.495 l 2.475,8.25 q 0.195,0.69 0.36,1.335 0.18,0.645 0.33,1.29 0.12,-0.645 0.255,-1.29 0.135,-0.645 0.315,-1.335 l 2.265,-8.22 q 0.105,-0.3 0.375,-0.495 0.27,-0.195 0.645,-0.195 l 2.82,0 -4.89,15.39 -2.97,0 q -0.51,0 -0.705,-0.66 l -2.76,-8.895 q -0.285,-0.915 -0.435,-1.77 -0.18,0.9 -0.45,1.8 l -2.805,8.865 q -0.18,0.66 -0.795,0.66 l -2.85,0 -4.875,-15.39 z" />
        <path
           id="path5873"
           style="font-style:normal;font-variant:normal;font-weight:bold;font-stretch:normal;font-family:Lato;-inkscape-font-specification:'Lato Bold';fill:#6b6b6b;fill-opacity:1"
           d="m 401.88996,438.23837 q -0.525,0 -0.81,-0.15 -0.285,-0.165 -0.45,-0.645 l -0.33,-1.095 q -0.585,0.525 -1.14,0.93 -0.555,0.39 -1.155,0.66 -0.6,0.27 -1.29,0.405 -0.675,0.135 -1.5,0.135 -0.975,0 -1.8,-0.255 -0.825,-0.27 -1.425,-0.795 -0.6,-0.525 -0.93,-1.305 -0.33,-0.78 -0.33,-1.815 0,-0.87 0.45,-1.71 0.465,-0.855 1.53,-1.53 1.065,-0.69 2.835,-1.14 1.77,-0.45 4.41,-0.51 l 0,-0.9 q 0,-1.545 -0.66,-2.28 -0.66,-0.75 -1.905,-0.75 -0.9,0 -1.5,0.21 -0.585,0.21 -1.035,0.48 -0.45,0.255 -0.825,0.465 -0.36,0.21 -0.81,0.21 -0.39,0 -0.66,-0.195 -0.27,-0.21 -0.435,-0.48 l -0.66,-1.185 q 2.655,-2.43 6.39,-2.43 1.35,0 2.415,0.45 1.065,0.435 1.8,1.23 0.735,0.78 1.11,1.875 0.39,1.095 0.39,2.4 l 0,9.72 -1.68,0 z m -5.535,-2.31 q 1.14,0 1.965,-0.405 0.84,-0.42 1.635,-1.26 l 0,-2.595 q -1.62,0.075 -2.715,0.285 -1.08,0.195 -1.74,0.51 -0.66,0.315 -0.945,0.735 -0.285,0.42 -0.285,0.915 0,0.975 0.57,1.395 0.585,0.42 1.515,0.42 z" />
        <path
           id="path5875"
           style="font-style:normal;font-variant:normal;font-weight:bold;font-stretch:normal;font-family:Lato;-inkscape-font-specification:'Lato Bold';fill:#6b6b6b;fill-opacity:1"
           d="m 410.89934,422.84837 0,15.39 -3.72,0 0,-15.39 3.72,0 z m 0.51,-4.485 q 0,0.48 -0.195,0.9 -0.195,0.42 -0.525,0.735 -0.315,0.315 -0.75,0.51 -0.435,0.18 -0.93,0.18 -0.48,0 -0.915,-0.18 -0.42,-0.195 -0.735,-0.51 -0.315,-0.315 -0.51,-0.735 -0.18,-0.42 -0.18,-0.9 0,-0.495 0.18,-0.93 0.195,-0.435 0.51,-0.75 0.315,-0.315 0.735,-0.495 0.435,-0.195 0.915,-0.195 0.495,0 0.93,0.195 0.435,0.18 0.75,0.495 0.33,0.315 0.525,0.75 0.195,0.435 0.195,0.93 z" />
        <path
           id="path5877"
           style="font-style:normal;font-variant:normal;font-weight:bold;font-stretch:normal;font-family:Lato;-inkscape-font-specification:'Lato Bold';fill:#6b6b6b;fill-opacity:1"
           d="m 419.80653,438.47837 q -2.01,0 -3.09,-1.125 -1.065,-1.14 -1.065,-3.135 l 0,-8.595 -1.575,0 q -0.3,0 -0.51,-0.195 -0.21,-0.195 -0.21,-0.585 l 0,-1.47 2.475,-0.405 0.78,-4.2 q 0.075,-0.3 0.285,-0.465 0.21,-0.165 0.54,-0.165 l 1.92,0 0,4.845 4.11,0 0,2.64 -4.11,0 0,8.34 q 0,0.72 0.345,1.125 0.36,0.405 0.975,0.405 0.345,0 0.57,-0.075 0.24,-0.09 0.405,-0.18 0.18,-0.09 0.315,-0.165 0.135,-0.09 0.27,-0.09 0.165,0 0.27,0.09 0.105,0.075 0.225,0.24 l 1.11,1.8 q -0.81,0.675 -1.86,1.02 -1.05,0.345 -2.175,0.345 z" />
        <path
           id="path5879"
           style="font-style:normal;font-variant:normal;font-weight:bold;font-stretch:normal;font-family:Lato;-inkscape-font-specification:'Lato Bold';fill:#6b6b6b;fill-opacity:1"
           d="m 436.87934,440.24837 0,2.4 -11.82,0 0,-2.4 11.82,0 z" />
        <path
           id="path5881"
           style="font-style:normal;font-variant:normal;font-weight:bold;font-stretch:normal;font-family:Lato;-inkscape-font-specification:'Lato Bold';fill:#6b6b6b;fill-opacity:1"
           d="m 439.81325,438.23837 0,-15.39 2.265,0 q 0.72,0 0.945,0.675 l 0.255,1.215 q 0.465,-0.48 0.975,-0.87 0.525,-0.39 1.095,-0.675 0.585,-0.285 1.245,-0.435 0.66,-0.15 1.44,-0.15 1.26,0 2.235,0.435 0.975,0.42 1.62,1.2 0.66,0.765 0.99,1.845 0.345,1.065 0.345,2.355 l 0,9.795 -3.705,0 0,-9.795 q 0,-1.41 -0.645,-2.175 -0.645,-0.78 -1.965,-0.78 -0.96,0 -1.8,0.435 -0.84,0.435 -1.59,1.185 l 0,11.13 -3.705,0 z" />
        <path
           id="path5883"
           style="font-style:normal;font-variant:normal;font-weight:bold;font-stretch:normal;font-family:Lato;-inkscape-font-specification:'Lato Bold';fill:#6b6b6b;fill-opacity:1"
           d="m 463.55684,422.60837 q 1.71,0 3.105,0.555 1.41,0.555 2.4,1.575 1.005,1.02 1.545,2.49 0.54,1.47 0.54,3.285 0,1.83 -0.54,3.3 -0.54,1.47 -1.545,2.505 -0.99,1.035 -2.4,1.59 -1.395,0.555 -3.105,0.555 -1.725,0 -3.135,-0.555 -1.41,-0.555 -2.415,-1.59 -0.99,-1.035 -1.545,-2.505 -0.54,-1.47 -0.54,-3.3 0,-1.815 0.54,-3.285 0.555,-1.47 1.545,-2.49 1.005,-1.02 2.415,-1.575 1.41,-0.555 3.135,-0.555 z m 0,13.005 q 1.92,0 2.835,-1.29 0.93,-1.29 0.93,-3.78 0,-2.49 -0.93,-3.795 -0.915,-1.305 -2.835,-1.305 -1.95,0 -2.895,1.32 -0.93,1.305 -0.93,3.78 0,2.475 0.93,3.78 0.945,1.29 2.895,1.29 z" />
        <path
           id="path5885"
           style="font-style:normal;font-variant:normal;font-weight:bold;font-stretch:normal;font-family:Lato;-inkscape-font-specification:'Lato Bold';fill:#6b6b6b;fill-opacity:1"
           d="m 473.9734,438.23837 0,-15.39 2.265,0 q 0.72,0 0.945,0.675 l 0.255,1.215 q 0.465,-0.48 0.975,-0.87 0.525,-0.39 1.095,-0.675 0.585,-0.285 1.245,-0.435 0.66,-0.15 1.44,-0.15 1.26,0 2.235,0.435 0.975,0.42 1.62,1.2 0.66,0.765 0.99,1.845 0.345,1.065 0.345,2.355 l 0,9.795 -3.705,0 0,-9.795 q 0,-1.41 -0.645,-2.175 -0.645,-0.78 -1.965,-0.78 -0.96,0 -1.8,0.435 -0.84,0.435 -1.59,1.185 l 0,11.13 -3.705,0 z" />
        <path
           id="path5887"
           style="font-style:normal;font-variant:normal;font-weight:bold;font-stretch:normal;font-family:Lato;-inkscape-font-specification:'Lato Bold';fill:#6b6b6b;fill-opacity:1"
           d="m 501.932,426.10337 q -0.165,0.21 -0.33,0.33 -0.15,0.12 -0.45,0.12 -0.285,0 -0.555,-0.165 -0.27,-0.18 -0.645,-0.39 -0.375,-0.225 -0.9,-0.39 -0.51,-0.18 -1.275,-0.18 -0.975,0 -1.71,0.36 -0.735,0.345 -1.23,1.005 -0.48,0.66 -0.72,1.605 -0.24,0.93 -0.24,2.115 0,1.23 0.255,2.19 0.27,0.96 0.765,1.62 0.495,0.645 1.2,0.99 0.705,0.33 1.59,0.33 0.885,0 1.425,-0.21 0.555,-0.225 0.93,-0.48 0.375,-0.27 0.645,-0.48 0.285,-0.225 0.63,-0.225 0.45,0 0.675,0.345 l 1.065,1.35 q -0.615,0.72 -1.335,1.215 -0.72,0.48 -1.5,0.78 -0.765,0.285 -1.59,0.405 -0.81,0.12 -1.62,0.12 -1.425,0 -2.685,-0.525 -1.26,-0.54 -2.205,-1.56 -0.945,-1.02 -1.5,-2.49 -0.54,-1.485 -0.54,-3.375 0,-1.695 0.48,-3.135 0.495,-1.455 1.44,-2.505 0.945,-1.065 2.34,-1.665 1.395,-0.6 3.21,-0.6 1.725,0 3.015,0.555 1.305,0.555 2.34,1.59 l -0.975,1.35 z" />
        <path
           id="path5889"
           style="font-style:normal;font-variant:normal;font-weight:bold;font-stretch:normal;font-family:Lato;-inkscape-font-specification:'Lato Bold';fill:#6b6b6b;fill-opacity:1"
           d="m 511.64168,422.60837 q 1.455,0 2.685,0.465 1.23,0.465 2.115,1.365 0.885,0.885 1.38,2.19 0.51,1.29 0.51,2.955 0,0.84 -0.18,1.14 -0.18,0.285 -0.69,0.285 l -9.525,0 q 0.09,1.185 0.42,2.055 0.33,0.855 0.87,1.425 0.54,0.555 1.275,0.84 0.75,0.27 1.65,0.27 0.9,0 1.545,-0.21 0.66,-0.21 1.14,-0.465 0.495,-0.255 0.855,-0.465 0.375,-0.21 0.72,-0.21 0.465,0 0.69,0.345 l 1.065,1.35 q -0.615,0.72 -1.38,1.215 -0.765,0.48 -1.605,0.78 -0.825,0.285 -1.695,0.405 -0.855,0.12 -1.665,0.12 -1.605,0 -2.985,-0.525 -1.38,-0.54 -2.4,-1.575 -1.02,-1.05 -1.605,-2.58 -0.585,-1.545 -0.585,-3.57 0,-1.575 0.51,-2.955 0.51,-1.395 1.455,-2.415 0.96,-1.035 2.325,-1.635 1.38,-0.6 3.105,-0.6 z m 0.075,2.655 q -1.62,0 -2.535,0.915 -0.915,0.915 -1.17,2.595 l 6.99,0 q 0,-0.72 -0.21,-1.35 -0.195,-0.645 -0.6,-1.125 -0.405,-0.48 -1.035,-0.75 -0.615,-0.285 -1.44,-0.285 z" />
      </g>
    </g>
    <g
       transform="translate(170,0)"
       id="g4888">
      <path
         id="ellipse4175"
         d="m 397.45576,704.06671 a 81.236122,81.235374 0 0 1 -81.23612,81.23538 81.236122,81.235374 0 0 1 -81.23613,-81.23538 81.236122,81.235374 0 0 1 81.23613,-81.23537 81.236122,81.235374 0 0 1 81.23612,81.23537 z"
         style="opacity:1;fill:#a7e5e2;fill-opacity:0.98039216;fill-rule:evenodd;stroke:#acacac;stroke-width:1.97475243;stroke-linecap:round;stroke-linejoin:round;stroke-miterlimit:4;stroke-dasharray:none;stroke-dashoffset:0;stroke-opacity:1" />
      <g
         id="text4177"
         style="font-style:normal;font-variant:normal;font-weight:300;font-stretch:normal;font-size:30px;line-height:125%;font-family:Lato;-inkscape-font-specification:Sans;text-align:center;letter-spacing:0px;word-spacing:0px;text-anchor:middle;fill:#6b6b6b;fill-opacity:1;stroke:none;stroke-width:1px;stroke-linecap:butt;stroke-linejoin:miter;stroke-opacity:1">
        <path
           id="path5893"
           style="font-style:normal;font-variant:normal;font-weight:bold;font-stretch:normal;font-family:Lato;-inkscape-font-specification:'Lato Bold';fill:#6b6b6b;fill-opacity:1"
           d="m 256.11634,697.98274 2.955,0 q 0.405,0 0.69,0.195 0.285,0.195 0.375,0.495 l 2.205,8.22 q 0.165,0.675 0.285,1.32 0.12,0.645 0.225,1.275 0.165,-0.63 0.345,-1.275 0.195,-0.645 0.405,-1.32 l 2.55,-8.25 q 0.09,-0.3 0.345,-0.495 0.27,-0.195 0.645,-0.195 l 1.635,0 q 0.39,0 0.66,0.195 0.285,0.195 0.375,0.495 l 2.475,8.25 q 0.195,0.69 0.36,1.335 0.18,0.645 0.33,1.29 0.12,-0.645 0.255,-1.29 0.135,-0.645 0.315,-1.335 l 2.265,-8.22 q 0.105,-0.3 0.375,-0.495 0.27,-0.195 0.645,-0.195 l 2.82,0 -4.89,15.39 -2.97,0 q -0.51,0 -0.705,-0.66 l -2.76,-8.895 q -0.285,-0.915 -0.435,-1.77 -0.18,0.9 -0.45,1.8 l -2.805,8.865 q -0.18,0.66 -0.795,0.66 l -2.85,0 -4.875,-15.39 z" />
        <path
           id="path5895"
           style="font-style:normal;font-variant:normal;font-weight:bold;font-stretch:normal;font-family:Lato;-inkscape-font-specification:'Lato Bold';fill:#6b6b6b;fill-opacity:1"
           d="m 291.64759,713.37274 q -0.525,0 -0.81,-0.15 -0.285,-0.165 -0.45,-0.645 l -0.33,-1.095 q -0.585,0.525 -1.14,0.93 -0.555,0.39 -1.155,0.66 -0.6,0.27 -1.29,0.405 -0.675,0.135 -1.5,0.135 -0.975,0 -1.8,-0.255 -0.825,-0.27 -1.425,-0.795 -0.6,-0.525 -0.93,-1.305 -0.33,-0.78 -0.33,-1.815 0,-0.87 0.45,-1.71 0.465,-0.855 1.53,-1.53 1.065,-0.69 2.835,-1.14 1.77,-0.45 4.41,-0.51 l 0,-0.9 q 0,-1.545 -0.66,-2.28 -0.66,-0.75 -1.905,-0.75 -0.9,0 -1.5,0.21 -0.585,0.21 -1.035,0.48 -0.45,0.255 -0.825,0.465 -0.36,0.21 -0.81,0.21 -0.39,0 -0.66,-0.195 -0.27,-0.21 -0.435,-0.48 l -0.66,-1.185 q 2.655,-2.43 6.39,-2.43 1.35,0 2.415,0.45 1.065,0.435 1.8,1.23 0.735,0.78 1.11,1.875 0.39,1.095 0.39,2.4 l 0,9.72 -1.68,0 z m -5.535,-2.31 q 1.14,0 1.965,-0.405 0.84,-0.42 1.635,-1.26 l 0,-2.595 q -1.62,0.075 -2.715,0.285 -1.08,0.195 -1.74,0.51 -0.66,0.315 -0.945,0.735 -0.285,0.42 -0.285,0.915 0,0.975 0.57,1.395 0.585,0.42 1.515,0.42 z" />
        <path
           id="path5897"
           style="font-style:normal;font-variant:normal;font-weight:bold;font-stretch:normal;font-family:Lato;-inkscape-font-specification:'Lato Bold';fill:#6b6b6b;fill-opacity:1"
           d="m 300.65697,697.98274 0,15.39 -3.72,0 0,-15.39 3.72,0 z m 0.51,-4.485 q 0,0.48 -0.195,0.9 -0.195,0.42 -0.525,0.735 -0.315,0.315 -0.75,0.51 -0.435,0.18 -0.93,0.18 -0.48,0 -0.915,-0.18 -0.42,-0.195 -0.735,-0.51 -0.315,-0.315 -0.51,-0.735 -0.18,-0.42 -0.18,-0.9 0,-0.495 0.18,-0.93 0.195,-0.435 0.51,-0.75 0.315,-0.315 0.735,-0.495 0.435,-0.195 0.915,-0.195 0.495,0 0.93,0.195 0.435,0.18 0.75,0.495 0.33,0.315 0.525,0.75 0.195,0.435 0.195,0.93 z" />
        <path
           id="path5899"
           style="font-style:normal;font-variant:normal;font-weight:bold;font-stretch:normal;font-family:Lato;-inkscape-font-specification:'Lato Bold';fill:#6b6b6b;fill-opacity:1"
           d="m 309.56416,713.61274 q -2.01,0 -3.09,-1.125 -1.065,-1.14 -1.065,-3.135 l 0,-8.595 -1.575,0 q -0.3,0 -0.51,-0.195 -0.21,-0.195 -0.21,-0.585 l 0,-1.47 2.475,-0.405 0.78,-4.2 q 0.075,-0.3 0.285,-0.465 0.21,-0.165 0.54,-0.165 l 1.92,0 0,4.845 4.11,0 0,2.64 -4.11,0 0,8.34 q 0,0.72 0.345,1.125 0.36,0.405 0.975,0.405 0.345,0 0.57,-0.075 0.24,-0.09 0.405,-0.18 0.18,-0.09 0.315,-0.165 0.135,-0.09 0.27,-0.09 0.165,0 0.27,0.09 0.105,0.075 0.225,0.24 l 1.11,1.8 q -0.81,0.675 -1.86,1.02 -1.05,0.345 -2.175,0.345 z" />
        <path
           id="path5901"
           style="font-style:normal;font-variant:normal;font-weight:bold;font-stretch:normal;font-family:Lato;-inkscape-font-specification:'Lato Bold';fill:#6b6b6b;fill-opacity:1"
           d="m 326.63697,715.38274 0,2.4 -11.82,0 0,-2.4 11.82,0 z" />
        <path
           id="path5903"
           style="font-style:normal;font-variant:normal;font-weight:bold;font-stretch:normal;font-family:Lato;-inkscape-font-specification:'Lato Bold';fill:#6b6b6b;fill-opacity:1"
           d="m 333.27588,691.08274 0,12.765 0.69,0 q 0.375,0 0.585,-0.09 0.225,-0.105 0.45,-0.405 l 3.825,-4.725 q 0.24,-0.315 0.525,-0.48 0.3,-0.165 0.765,-0.165 l 3.39,0 -4.785,5.715 q -0.51,0.675 -1.11,1.035 0.315,0.225 0.555,0.525 0.255,0.3 0.48,0.645 l 5.13,7.47 -3.345,0 q -0.435,0 -0.75,-0.135 -0.315,-0.15 -0.525,-0.525 l -3.93,-5.835 q -0.21,-0.345 -0.435,-0.45 -0.225,-0.105 -0.675,-0.105 l -0.84,0 0,7.05 -3.705,0 0,-22.29 3.705,0 z" />
        <path
           id="path5905"
           style="font-style:normal;font-variant:normal;font-weight:bold;font-stretch:normal;font-family:Lato;-inkscape-font-specification:'Lato Bold';fill:#6b6b6b;fill-opacity:1"
           d="m 351.41884,697.74274 q 1.455,0 2.685,0.465 1.23,0.465 2.115,1.365 0.885,0.885 1.38,2.19 0.51,1.29 0.51,2.955 0,0.84 -0.18,1.14 -0.18,0.285 -0.69,0.285 l -9.525,0 q 0.09,1.185 0.42,2.055 0.33,0.855 0.87,1.425 0.54,0.555 1.275,0.84 0.75,0.27 1.65,0.27 0.9,0 1.545,-0.21 0.66,-0.21 1.14,-0.465 0.495,-0.255 0.855,-0.465 0.375,-0.21 0.72,-0.21 0.465,0 0.69,0.345 l 1.065,1.35 q -0.615,0.72 -1.38,1.215 -0.765,0.48 -1.605,0.78 -0.825,0.285 -1.695,0.405 -0.855,0.12 -1.665,0.12 -1.605,0 -2.985,-0.525 -1.38,-0.54 -2.4,-1.575 -1.02,-1.05 -1.605,-2.58 -0.585,-1.545 -0.585,-3.57 0,-1.575 0.51,-2.955 0.51,-1.395 1.455,-2.415 0.96,-1.035 2.325,-1.635 1.38,-0.6 3.105,-0.6 z m 0.075,2.655 q -1.62,0 -2.535,0.915 -0.915,0.915 -1.17,2.595 l 6.99,0 q 0,-0.72 -0.21,-1.35 -0.195,-0.645 -0.6,-1.125 -0.405,-0.48 -1.035,-0.75 -0.615,-0.285 -1.44,-0.285 z" />
        <path
           id="path5907"
           style="font-style:normal;font-variant:normal;font-weight:bold;font-stretch:normal;font-family:Lato;-inkscape-font-specification:'Lato Bold';fill:#6b6b6b;fill-opacity:1"
           d="m 366.04478,717.60274 q -0.165,0.39 -0.435,0.585 -0.255,0.21 -0.795,0.21 l -2.76,0 2.88,-6.165 -6.225,-14.25 3.255,0 q 0.435,0 0.675,0.21 0.255,0.21 0.375,0.48 l 3.27,7.98 q 0.3,0.825 0.495,1.635 0.12,-0.42 0.255,-0.825 0.15,-0.42 0.315,-0.825 l 3.09,-7.965 q 0.12,-0.3 0.39,-0.495 0.285,-0.195 0.63,-0.195 l 2.97,0 -8.385,19.62 z" />
      </g>
    </g>
    <g
       id="g5001">
      <path
         style="fill:none;fill-rule:evenodd;stroke:#7c7c7c;stroke-width:3;stroke-linecap:round;stroke-linejoin:miter;stroke-miterlimit:4;stroke-dasharray:none;stroke-opacity:1;marker-end:url(#Arrow1Mend)"
         d="m 429.74618,434.72472 101.52945,0.84608"
         id="path4202" />
      <g
         id="text4732"
         style="font-style:italic;font-variant:normal;font-weight:normal;font-stretch:normal;font-size:20px;line-height:125%;font-family:Lato;-inkscape-font-specification:'Lato Italic';text-align:center;letter-spacing:0px;word-spacing:0px;text-anchor:middle;fill:#7c7c7c;fill-opacity:1;stroke:none;stroke-width:1px;stroke-linecap:butt;stroke-linejoin:miter;stroke-opacity:1">
        <path
           id="path5910"
           style=""
           d="m 466.48544,417.05747 -1.22,10.13 -1.75,0 1.22,-10.13 1.75,0 z m 0.68,-3.18 q 0,0.26 -0.11,0.49 -0.1,0.22 -0.28,0.4 -0.17,0.17 -0.4,0.27 -0.22,0.1 -0.46,0.1 -0.23,0 -0.45,-0.1 -0.22,-0.1 -0.39,-0.27 -0.16,-0.18 -0.26,-0.4 -0.1,-0.23 -0.1,-0.49 0,-0.26 0.1,-0.49 0.1,-0.23 0.27,-0.4 0.17,-0.18 0.39,-0.28 0.22,-0.11 0.45,-0.11 0.24,0 0.46,0.1 0.23,0.1 0.4,0.28 0.17,0.17 0.27,0.41 0.11,0.23 0.11,0.49 z" />
        <path
           id="path5912"
           style=""
           d="m 468.02481,427.18747 1.22,-10.14 0.88,0 q 0.6,0 0.6,0.6 l -0.15,1.97 q 0.81,-1.34 1.83,-2.02 1.02,-0.69 2.1,-0.69 0.64,0 1.12,0.26 0.49,0.25 0.79,0.74 0.31,0.49 0.42,1.21 0.11,0.71 0,1.62 l -0.76,6.45 -1.77,0 0.76,-6.45 q 0.14,-1.2 -0.15,-1.77 -0.29,-0.58 -1.07,-0.58 -0.48,0 -0.98,0.26 -0.49,0.26 -0.95,0.74 -0.46,0.48 -0.86,1.16 -0.39,0.67 -0.67,1.5 l -0.58,5.14 -1.78,0 z" />
        <path
           id="path5914"
           style=""
           d="m 481.68075,417.05747 -1.22,10.13 -1.75,0 1.22,-10.13 1.75,0 z m 0.68,-3.18 q 0,0.26 -0.11,0.49 -0.1,0.22 -0.28,0.4 -0.17,0.17 -0.4,0.27 -0.22,0.1 -0.46,0.1 -0.23,0 -0.45,-0.1 -0.22,-0.1 -0.39,-0.27 -0.16,-0.18 -0.26,-0.4 -0.1,-0.23 -0.1,-0.49 0,-0.26 0.1,-0.49 0.1,-0.23 0.27,-0.4 0.17,-0.18 0.39,-0.28 0.22,-0.11 0.45,-0.11 0.24,0 0.46,0.1 0.23,0.1 0.4,0.28 0.17,0.17 0.27,0.41 0.11,0.23 0.11,0.49 z" />
        <path
           id="path5916"
           style=""
           d="m 484.02013,425.27747 q 0,-0.06 0,-0.15 0,-0.1 0.01,-0.28 0.02,-0.18 0.05,-0.47 0.04,-0.29 0.1,-0.76 l 0.62,-5.07 -1.13,0 q -0.14,0 -0.23,-0.09 -0.08,-0.1 -0.06,-0.3 l 0.08,-0.71 1.56,-0.21 0.76,-3.13 q 0.05,-0.15 0.15,-0.24 0.11,-0.1 0.27,-0.1 l 0.93,0 -0.43,3.49 2.66,0 -0.15,1.29 -2.67,0 -0.61,4.98 q -0.05,0.41 -0.08,0.66 -0.03,0.25 -0.05,0.4 -0.01,0.15 -0.02,0.21 0,0.06 0,0.09 0,0.51 0.24,0.76 0.24,0.24 0.64,0.24 0.27,0 0.46,-0.07 0.2,-0.08 0.35,-0.17 0.15,-0.09 0.25,-0.16 0.1,-0.08 0.17,-0.08 0.09,0 0.13,0.04 0.05,0.04 0.09,0.13 l 0.38,0.85 q -0.49,0.43 -1.12,0.68 -0.62,0.24 -1.25,0.24 -0.97,0 -1.53,-0.53 -0.55,-0.53 -0.57,-1.54 z" />
      </g>
    </g>
    <g
       transform="translate(170,0)"
       id="g4905">
      <path
         id="path4743"
         d="M 415.26548,510.7528 345.30224,618.95142"
         style="fill:none;fill-rule:evenodd;stroke:#7c7c7c;stroke-width:3;stroke-linecap:round;stroke-linejoin:miter;stroke-miterlimit:4;stroke-dasharray:none;stroke-opacity:1;marker-end:url(#marker4767)" />
      <g
         id="text4745"
         style="font-style:italic;font-variant:normal;font-weight:normal;font-stretch:normal;font-size:20px;line-height:125%;font-family:Lato;-inkscape-font-specification:'Lato Italic';text-align:center;letter-spacing:0px;word-spacing:0px;text-anchor:middle;fill:#7c7c7c;fill-opacity:1;stroke:none;stroke-width:1px;stroke-linecap:butt;stroke-linejoin:miter;stroke-opacity:1"
         transform="matrix(0.53516969,-0.84474458,0.84474458,0.53516969,0,0)">
        <path
           id="path5919"
           style=""
           d="m -298.83014,607.15064 q 0,0.5 -0.12,0.9 -0.11,0.4 -0.28,0.74 -0.17,0.34 -0.37,0.64 -0.2,0.3 -0.37,0.6 -0.17,0.29 -0.29,0.61 -0.11,0.31 -0.11,0.68 0,0.27 0.09,0.52 0.1,0.24 0.24,0.48 0.15,0.23 0.32,0.47 0.18,0.24 0.32,0.51 0.15,0.27 0.24,0.59 0.1,0.31 0.1,0.69 -0.01,0.71 -0.34,1.34 -0.33,0.64 -0.94,1.13 -0.61,0.49 -1.48,0.77 -0.87,0.29 -1.96,0.29 -0.87,0 -1.59,-0.18 -0.71,-0.18 -1.22,-0.51 -0.5,-0.33 -0.77,-0.8 -0.28,-0.46 -0.28,-1.02 0,-0.64 0.27,-1.13 0.27,-0.49 0.73,-0.84 0.46,-0.36 1.07,-0.59 0.61,-0.23 1.29,-0.34 0.69,-0.11 1.41,-0.1 0.72,0 1.41,0.1 -0.09,-0.19 -0.15,-0.39 -0.06,-0.21 -0.05,-0.45 0,-0.31 0.09,-0.64 0.1,-0.33 0.32,-0.74 -0.38,0.26 -0.85,0.4 -0.47,0.14 -1.07,0.14 -0.58,0 -1.09,-0.19 -0.5,-0.19 -0.88,-0.56 -0.38,-0.37 -0.6,-0.92 -0.22,-0.56 -0.22,-1.3 0,-0.72 0.26,-1.41 0.27,-0.7 0.78,-1.24 0.51,-0.55 1.26,-0.88 0.75,-0.33 1.73,-0.33 1.1,0 1.91,0.52 l 2.74,0 -0.07,0.59 q -0.05,0.36 -0.4,0.48 l -1.27,0.22 q 0.09,0.26 0.14,0.55 0.05,0.28 0.05,0.6 z m -3.86,2.75 q 0.54,0 0.95,-0.23 0.42,-0.24 0.7,-0.62 0.29,-0.39 0.44,-0.87 0.15,-0.48 0.15,-0.97 0,-0.88 -0.45,-1.33 -0.44,-0.45 -1.22,-0.45 -0.54,0 -0.95,0.22 -0.41,0.22 -0.7,0.59 -0.28,0.37 -0.43,0.84 -0.14,0.47 -0.14,0.98 0,0.9 0.43,1.37 0.44,0.47 1.22,0.47 z m 2.01,4.82 q 0,-0.26 -0.05,-0.48 -0.05,-0.23 -0.13,-0.43 -1.32,-0.22 -2.28,-0.16 -0.96,0.05 -1.59,0.29 -0.62,0.24 -0.92,0.62 -0.3,0.39 -0.3,0.82 0,0.72 0.6,1.1 0.61,0.38 1.72,0.38 0.66,0 1.2,-0.18 0.55,-0.17 0.93,-0.46 0.39,-0.29 0.6,-0.68 0.22,-0.39 0.22,-0.82 z" />
        <path
           id="path5921"
           style=""
           d="m -288.82701,606.51064 q 0,0.66 -0.27,1.22 -0.27,0.55 -0.99,1 -0.72,0.44 -1.98,0.77 -1.26,0.33 -3.24,0.53 -0.01,0.11 -0.01,0.22 0,0.1 0,0.21 0,1.34 0.58,2.05 0.59,0.7 1.77,0.7 0.48,0 0.85,-0.1 0.38,-0.1 0.67,-0.24 0.3,-0.15 0.52,-0.32 0.23,-0.18 0.41,-0.32 0.19,-0.15 0.35,-0.25 0.16,-0.1 0.32,-0.1 0.19,0 0.34,0.17 l 0.44,0.55 q -0.51,0.53 -1,0.91 -0.49,0.37 -1,0.62 -0.5,0.25 -1.06,0.36 -0.55,0.12 -1.19,0.12 -0.87,0 -1.56,-0.29 -0.69,-0.29 -1.17,-0.82 -0.48,-0.54 -0.74,-1.3 -0.26,-0.76 -0.26,-1.7 0,-0.78 0.16,-1.55 0.17,-0.78 0.48,-1.48 0.32,-0.7 0.77,-1.3 0.46,-0.6 1.04,-1.03 0.59,-0.44 1.29,-0.69 0.71,-0.25 1.52,-0.25 0.77,0 1.33,0.22 0.56,0.22 0.92,0.56 0.36,0.34 0.53,0.75 0.18,0.41 0.18,0.78 z m -3.06,-1.03 q -0.63,0 -1.16,0.26 -0.53,0.26 -0.94,0.72 -0.41,0.45 -0.7,1.07 -0.29,0.61 -0.45,1.32 1.54,-0.19 2.47,-0.43 0.93,-0.25 1.43,-0.53 0.5,-0.29 0.66,-0.62 0.16,-0.33 0.16,-0.69 0,-0.18 -0.08,-0.37 -0.08,-0.2 -0.26,-0.36 -0.17,-0.16 -0.45,-0.26 -0.28,-0.11 -0.68,-0.11 z" />
        <path
           id="path5923"
           style=""
           d="m -286.6667,612.56064 q 0,-0.06 0,-0.15 0,-0.1 0.01,-0.28 0.02,-0.18 0.05,-0.47 0.04,-0.29 0.1,-0.76 l 0.62,-5.07 -1.13,0 q -0.14,0 -0.23,-0.09 -0.08,-0.1 -0.06,-0.3 l 0.08,-0.71 1.56,-0.21 0.76,-3.13 q 0.05,-0.15 0.15,-0.24 0.11,-0.1 0.27,-0.1 l 0.93,0 -0.43,3.49 2.66,0 -0.15,1.29 -2.67,0 -0.61,4.98 q -0.05,0.41 -0.08,0.66 -0.03,0.25 -0.05,0.4 -0.01,0.15 -0.02,0.21 0,0.06 0,0.09 0,0.51 0.24,0.76 0.24,0.24 0.64,0.24 0.27,0 0.46,-0.07 0.2,-0.08 0.35,-0.17 0.15,-0.09 0.25,-0.16 0.1,-0.08 0.17,-0.08 0.09,0 0.13,0.04 0.05,0.04 0.09,0.13 l 0.38,0.85 q -0.49,0.43 -1.12,0.68 -0.62,0.24 -1.25,0.24 -0.97,0 -1.53,-0.53 -0.55,-0.53 -0.57,-1.54 z" />
        <path
           id="path5925"
           style=""
           d="m -275.66983,614.47064 1.22,-10.14 0.88,0 q 0.6,0 0.6,0.6 l -0.15,1.97 q 0.81,-1.34 1.83,-2.02 1.02,-0.69 2.1,-0.69 0.64,0 1.12,0.26 0.49,0.25 0.79,0.74 0.31,0.49 0.42,1.21 0.11,0.71 0,1.62 l -0.76,6.45 -1.77,0 0.76,-6.45 q 0.14,-1.2 -0.15,-1.77 -0.29,-0.58 -1.07,-0.58 -0.48,0 -0.98,0.26 -0.49,0.26 -0.95,0.74 -0.46,0.48 -0.86,1.16 -0.39,0.67 -0.67,1.5 l -0.58,5.14 -1.78,0 z" />
        <path
           id="path5927"
           style=""
           d="m -261.14389,613.22064 q 0.73,0 1.32,-0.4 0.6,-0.4 1.02,-1.06 0.43,-0.67 0.66,-1.54 0.23,-0.87 0.23,-1.82 0,-1.4 -0.56,-2.1 -0.55,-0.71 -1.59,-0.71 -0.74,0 -1.34,0.4 -0.59,0.39 -1.01,1.05 -0.42,0.66 -0.65,1.53 -0.23,0.87 -0.23,1.82 0,1.4 0.55,2.12 0.55,0.71 1.6,0.71 z m -0.17,1.39 q -0.83,0 -1.52,-0.28 -0.69,-0.29 -1.19,-0.83 -0.5,-0.54 -0.78,-1.32 -0.28,-0.78 -0.28,-1.78 0,-1.28 0.4,-2.41 0.4,-1.13 1.1,-1.97 0.7,-0.85 1.64,-1.34 0.95,-0.49 2.04,-0.49 0.83,0 1.52,0.29 0.69,0.28 1.19,0.82 0.5,0.54 0.78,1.32 0.28,0.78 0.28,1.77 0,1.27 -0.4,2.4 -0.4,1.13 -1.1,1.98 -0.69,0.85 -1.64,1.35 -0.95,0.49 -2.04,0.49 z" />
        <path
           id="path5929"
           style=""
           d="m -254.69326,614.47064 1.22,-10.14 0.88,0 q 0.6,0 0.6,0.6 l -0.15,1.97 q 0.81,-1.34 1.83,-2.02 1.02,-0.69 2.1,-0.69 0.64,0 1.12,0.26 0.49,0.25 0.79,0.74 0.31,0.49 0.42,1.21 0.11,0.71 0,1.62 l -0.76,6.45 -1.77,0 0.76,-6.45 q 0.14,-1.2 -0.15,-1.77 -0.29,-0.58 -1.07,-0.58 -0.48,0 -0.98,0.26 -0.49,0.26 -0.95,0.74 -0.46,0.48 -0.86,1.16 -0.39,0.67 -0.67,1.5 l -0.58,5.14 -1.78,0 z" />
        <path
           id="path5931"
           style=""
           d="m -236.51733,612.65064 q -0.52,0.57 -0.99,0.95 -0.47,0.38 -0.94,0.61 -0.47,0.22 -0.98,0.31 -0.5,0.09 -1.08,0.09 -0.88,0 -1.56,-0.3 -0.67,-0.3 -1.13,-0.84 -0.45,-0.55 -0.69,-1.31 -0.23,-0.77 -0.23,-1.69 0,-1.23 0.38,-2.36 0.39,-1.13 1.08,-2 0.69,-0.87 1.64,-1.39 0.96,-0.52 2.09,-0.52 1.01,0 1.69,0.36 0.68,0.35 1.19,1.03 l -0.56,0.67 q -0.07,0.08 -0.16,0.13 -0.08,0.05 -0.19,0.05 -0.14,0 -0.28,-0.12 -0.13,-0.13 -0.35,-0.28 -0.22,-0.16 -0.55,-0.28 -0.32,-0.13 -0.83,-0.13 -0.69,0 -1.3,0.38 -0.61,0.37 -1.07,1.02 -0.46,0.65 -0.73,1.54 -0.26,0.89 -0.26,1.91 0,0.62 0.14,1.13 0.14,0.5 0.42,0.86 0.28,0.35 0.68,0.55 0.41,0.19 0.95,0.19 0.67,0 1.12,-0.2 0.46,-0.2 0.77,-0.43 0.31,-0.24 0.52,-0.44 0.22,-0.2 0.43,-0.2 0.19,0 0.34,0.17 l 0.44,0.54 0,0 z" />
        <path
           id="path5933"
           style=""
           d="m -226.99108,606.51064 q 0,0.66 -0.27,1.22 -0.27,0.55 -0.99,1 -0.72,0.44 -1.98,0.77 -1.26,0.33 -3.24,0.53 -0.01,0.11 -0.01,0.22 0,0.1 0,0.21 0,1.34 0.58,2.05 0.59,0.7 1.77,0.7 0.48,0 0.85,-0.1 0.38,-0.1 0.67,-0.24 0.3,-0.15 0.52,-0.32 0.23,-0.18 0.41,-0.32 0.19,-0.15 0.35,-0.25 0.16,-0.1 0.32,-0.1 0.19,0 0.34,0.17 l 0.44,0.55 q -0.51,0.53 -1,0.91 -0.49,0.37 -1,0.62 -0.5,0.25 -1.06,0.36 -0.55,0.12 -1.19,0.12 -0.87,0 -1.56,-0.29 -0.69,-0.29 -1.17,-0.82 -0.48,-0.54 -0.74,-1.3 -0.26,-0.76 -0.26,-1.7 0,-0.78 0.16,-1.55 0.17,-0.78 0.48,-1.48 0.32,-0.7 0.77,-1.3 0.46,-0.6 1.04,-1.03 0.59,-0.44 1.29,-0.69 0.71,-0.25 1.52,-0.25 0.77,0 1.33,0.22 0.56,0.22 0.92,0.56 0.36,0.34 0.53,0.75 0.18,0.41 0.18,0.78 z m -3.06,-1.03 q -0.63,0 -1.16,0.26 -0.53,0.26 -0.94,0.72 -0.41,0.45 -0.7,1.07 -0.29,0.61 -0.45,1.32 1.54,-0.19 2.47,-0.43 0.93,-0.25 1.43,-0.53 0.5,-0.29 0.66,-0.62 0.16,-0.33 0.16,-0.69 0,-0.18 -0.08,-0.37 -0.08,-0.2 -0.26,-0.36 -0.17,-0.16 -0.45,-0.26 -0.28,-0.11 -0.68,-0.11 z" />
      </g>
    </g>
    <g
       id="g5190">
      <path
         style="fill:none;fill-rule:evenodd;stroke:#7c7c7c;stroke-width:3;stroke-linecap:round;stroke-linejoin:miter;stroke-miterlimit:4;stroke-dasharray:none;stroke-opacity:1;marker-end:url(#marker5037)"
         d="M 451.47059,623.24052 380.64516,515.6043"
         id="path4912" />
      <g
         id="text4914"
         style="font-style:italic;font-variant:normal;font-weight:normal;font-stretch:normal;font-size:20px;line-height:125%;font-family:Lato;-inkscape-font-specification:'Lato Italic';text-align:center;letter-spacing:0px;word-spacing:0px;text-anchor:middle;fill:#7c7c7c;fill-opacity:1;stroke:none;stroke-width:1px;stroke-linecap:butt;stroke-linejoin:miter;stroke-opacity:1"
         transform="matrix(0.55741552,0.83023367,-0.83023367,0.55741552,0,0)">
        <path
           id="path5936"
           style=""
           d="m 690.5542,-44.404179 q 0,0.5 -0.12,0.9 -0.11,0.4 -0.28,0.74 -0.17,0.34 -0.37,0.64 -0.2,0.3 -0.37,0.6 -0.17,0.29 -0.29,0.61 -0.11,0.31 -0.11,0.68 0,0.27 0.09,0.52 0.1,0.24 0.24,0.48 0.15,0.23 0.32,0.47 0.18,0.24 0.32,0.51 0.15,0.27 0.24,0.59 0.1,0.31 0.1,0.69 -0.01,0.71 -0.34,1.34 -0.33,0.64 -0.94,1.13 -0.61,0.49 -1.48,0.77 -0.87,0.29 -1.96,0.29 -0.87,0 -1.59,-0.18 -0.71,-0.18 -1.22,-0.51 -0.5,-0.33 -0.77,-0.8 -0.28,-0.46 -0.28,-1.02 0,-0.64 0.27,-1.13 0.27,-0.49 0.73,-0.84 0.46,-0.36 1.07,-0.59 0.61,-0.23 1.29,-0.34 0.69,-0.11 1.41,-0.1 0.72,0 1.41,0.1 -0.09,-0.19 -0.15,-0.39 -0.06,-0.21 -0.05,-0.45 0,-0.31 0.09,-0.64 0.1,-0.33 0.32,-0.74 -0.38,0.26 -0.85,0.4 -0.47,0.14 -1.07,0.14 -0.58,0 -1.09,-0.19 -0.5,-0.19 -0.88,-0.56 -0.38,-0.37 -0.6,-0.92 -0.22,-0.56 -0.22,-1.3 0,-0.72 0.26,-1.41 0.27,-0.7 0.78,-1.24 0.51,-0.55 1.26,-0.88 0.75,-0.33 1.73,-0.33 1.1,0 1.91,0.52 l 2.74,0 -0.07,0.59 q -0.05,0.36 -0.4,0.48 l -1.27,0.22 q 0.09,0.26 0.14,0.55 0.05,0.28 0.05,0.6 z m -3.86,2.75 q 0.54,0 0.95,-0.23 0.42,-0.24 0.7,-0.62 0.29,-0.39 0.44,-0.87 0.15,-0.48 0.15,-0.97 0,-0.88 -0.45,-1.33 -0.44,-0.45 -1.22,-0.45 -0.54,0 -0.95,0.22 -0.41,0.22 -0.7,0.59 -0.28,0.37 -0.43,0.84 -0.14,0.47 -0.14,0.98 0,0.9 0.43,1.37 0.44,0.47 1.22,0.47 z m 2.01,4.82 q 0,-0.26 -0.05,-0.48 -0.05,-0.23 -0.13,-0.43 -1.32,-0.22 -2.28,-0.16 -0.96,0.05 -1.59,0.29 -0.62,0.24 -0.92,0.62 -0.3,0.39 -0.3,0.82 0,0.72 0.6,1.1 0.61,0.38 1.72,0.38 0.66,0 1.2,-0.18 0.55,-0.17 0.93,-0.46 0.39,-0.29 0.6,-0.68 0.22,-0.39 0.22,-0.82 z" />
        <path
           id="path5938"
           style=""
           d="m 700.55732,-45.044179 q 0,0.66 -0.27,1.22 -0.27,0.55 -0.99,1 -0.72,0.44 -1.98,0.77 -1.26,0.33 -3.24,0.53 -0.01,0.11 -0.01,0.22 0,0.1 0,0.21 0,1.34 0.58,2.05 0.59,0.7 1.77,0.7 0.48,0 0.85,-0.1 0.38,-0.1 0.67,-0.24 0.3,-0.15 0.52,-0.32 0.23,-0.18 0.41,-0.32 0.19,-0.15 0.35,-0.25 0.16,-0.1 0.32,-0.1 0.19,0 0.34,0.17 l 0.44,0.55 q -0.51,0.53 -1,0.91 -0.49,0.37 -1,0.62 -0.5,0.25 -1.06,0.36 -0.55,0.12 -1.19,0.12 -0.87,0 -1.56,-0.29 -0.69,-0.29 -1.17,-0.82 -0.48,-0.54 -0.74,-1.3 -0.26,-0.76 -0.26,-1.7 0,-0.78 0.16,-1.55 0.17,-0.78 0.48,-1.48 0.32,-0.7 0.77,-1.3 0.46,-0.6 1.04,-1.03 0.59,-0.44 1.29,-0.69 0.71,-0.25 1.52,-0.25 0.77,0 1.33,0.22 0.56,0.22 0.92,0.56 0.36,0.34 0.53,0.75 0.18,0.41 0.18,0.78 z m -3.06,-1.03 q -0.63,0 -1.16,0.26 -0.53,0.26 -0.94,0.72 -0.41,0.45 -0.7,1.07 -0.29,0.61 -0.45,1.32 1.54,-0.19 2.47,-0.43 0.93,-0.25 1.43,-0.53 0.5,-0.29 0.66,-0.62 0.16,-0.33 0.16,-0.69 0,-0.18 -0.08,-0.37 -0.08,-0.2 -0.26,-0.36 -0.17,-0.16 -0.45,-0.26 -0.28,-0.11 -0.68,-0.11 z" />
        <path
           id="path5940"
           style=""
           d="m 702.71764,-38.994179 q 0,-0.06 0,-0.15 0,-0.1 0.01,-0.28 0.02,-0.18 0.05,-0.47 0.04,-0.29 0.1,-0.76 l 0.62,-5.07 -1.13,0 q -0.14,0 -0.23,-0.09 -0.08,-0.1 -0.06,-0.3 l 0.08,-0.71 1.56,-0.21 0.76,-3.13 q 0.05,-0.15 0.15,-0.24 0.11,-0.1 0.27,-0.1 l 0.93,0 -0.43,3.49 2.66,0 -0.15,1.29 -2.67,0 -0.61,4.98 q -0.05,0.41 -0.08,0.66 -0.03,0.25 -0.05,0.4 -0.01,0.15 -0.02,0.21 0,0.06 0,0.09 0,0.51 0.24,0.76 0.24,0.24 0.64,0.24 0.27,0 0.46,-0.07 0.2,-0.08 0.35,-0.17 0.15,-0.09 0.25,-0.16 0.1,-0.08 0.17,-0.08 0.09,0 0.13,0.04 0.05,0.04 0.09,0.13 l 0.38,0.85 q -0.49,0.43 -1.12,0.68 -0.62,0.24 -1.25,0.24 -0.97,0 -1.53,-0.53 -0.55,-0.53 -0.57,-1.54 z" />
        <path
           id="path5942"
           style=""
           d="m 717.25451,-51.814179 -1.06,8.67 0.3,0 q 0.21,0 0.34,-0.05 0.13,-0.06 0.28,-0.23 l 3.36,-3.43 q 0.14,-0.17 0.3,-0.26 0.16,-0.1 0.39,-0.1 l 1.58,0 -3.91,3.97 q -0.3,0.35 -0.61,0.53 0.16,0.12 0.27,0.28 0.12,0.15 0.22,0.35 l 3.04,5 -1.53,0 q -0.22,0 -0.37,-0.07 -0.14,-0.08 -0.23,-0.28 l -2.58,-4.15 q -0.12,-0.21 -0.25,-0.27 -0.13,-0.07 -0.41,-0.07 l -0.34,0 -0.59,4.84 -1.76,0 1.81,-14.73 1.75,0 z" />
        <path
           id="path5944"
           style=""
           d="m 730.86982,-45.044179 q 0,0.66 -0.27,1.22 -0.27,0.55 -0.99,1 -0.72,0.44 -1.98,0.77 -1.26,0.33 -3.24,0.53 -0.01,0.11 -0.01,0.22 0,0.1 0,0.21 0,1.34 0.58,2.05 0.59,0.7 1.77,0.7 0.48,0 0.85,-0.1 0.38,-0.1 0.67,-0.24 0.3,-0.15 0.52,-0.32 0.23,-0.18 0.41,-0.32 0.19,-0.15 0.35,-0.25 0.16,-0.1 0.32,-0.1 0.19,0 0.34,0.17 l 0.44,0.55 q -0.51,0.53 -1,0.91 -0.49,0.37 -1,0.62 -0.5,0.25 -1.06,0.36 -0.55,0.12 -1.19,0.12 -0.87,0 -1.56,-0.29 -0.69,-0.29 -1.17,-0.82 -0.48,-0.54 -0.74,-1.3 -0.26,-0.76 -0.26,-1.7 0,-0.78 0.16,-1.55 0.17,-0.78 0.48,-1.48 0.32,-0.7 0.77,-1.3 0.46,-0.6 1.04,-1.03 0.59,-0.44 1.29,-0.69 0.71,-0.25 1.52,-0.25 0.77,0 1.33,0.22 0.56,0.22 0.92,0.56 0.36,0.34 0.53,0.75 0.18,0.41 0.18,0.78 z m -3.06,-1.03 q -0.63,0 -1.16,0.26 -0.53,0.26 -0.94,0.72 -0.41,0.45 -0.7,1.07 -0.29,0.61 -0.45,1.32 1.54,-0.19 2.47,-0.43 0.93,-0.25 1.43,-0.53 0.5,-0.29 0.66,-0.62 0.16,-0.33 0.16,-0.69 0,-0.18 -0.08,-0.37 -0.08,-0.2 -0.26,-0.36 -0.17,-0.16 -0.45,-0.26 -0.28,-0.11 -0.68,-0.11 z" />
        <path
           id="path5946"
           style=""
           d="m 734.48576,-34.064179 q -0.11,0.21 -0.26,0.31 -0.14,0.1 -0.36,0.1 l -1.31,0 2.2,-4.03 -2.63,-9.53 1.47,0 q 0.22,0 0.32,0.11 0.1,0.1 0.15,0.26 l 1.63,6.38 q 0.05,0.21 0.08,0.42 0.03,0.21 0.05,0.42 0.08,-0.21 0.17,-0.42 0.1,-0.22 0.2,-0.43 l 3.2,-6.39 q 0.08,-0.16 0.22,-0.25 0.15,-0.1 0.3,-0.1 l 1.41,0 -6.84,13.15 z" />
      </g>
    </g>
    <g
       id="text4928"
       style="font-style:italic;font-variant:normal;font-weight:bold;font-stretch:normal;font-size:30px;line-height:125%;font-family:Lato;-inkscape-font-specification:'Lato Bold Italic';text-align:center;letter-spacing:0px;word-spacing:0px;text-anchor:middle;fill:#dcdcdc;fill-opacity:1;stroke:none;stroke-width:1px;stroke-linecap:butt;stroke-linejoin:miter;stroke-opacity:1">
      <path
         id="path5949"
         style="font-style:italic;font-variant:normal;font-weight:bold;font-stretch:normal;font-size:17.5px;font-family:Lato;-inkscape-font-specification:'Lato Bold Italic';fill:#dcdcdc;fill-opacity:1"
         d="m 597.88781,584.55615 -1.14625,0 q -0.41125,0 -0.56,-0.20125 -0.14,-0.21 -0.14,-0.51625 l 0.07,-1.155 q -0.595,0.9275 -1.33875,1.47 -0.74375,0.53375 -1.63625,0.53375 -0.5075,0 -0.95375,-0.20125 -0.4375,-0.20125 -0.77,-0.595 -0.32375,-0.4025 -0.51625,-0.9975 -0.18375,-0.60375 -0.18375,-1.40875 0,-0.805 0.20125,-1.56625 0.20125,-0.76125 0.56875,-1.42625 0.37625,-0.67375 0.90125,-1.23375 0.525,-0.56 1.1725,-0.9625 0.65625,-0.4025 1.40875,-0.62125 0.76125,-0.2275 1.60125,-0.2275 0.60375,0 1.2075,0.0875 0.6125,0.0875 1.19,0.315 l -1.07625,8.70625 z m -3.9025,-1.63625 q 0.35875,0 0.7,-0.245 0.35,-0.25375 0.65625,-0.6825 0.30625,-0.4375 0.56875,-1.02375 0.2625,-0.58625 0.455,-1.26 l 0.34125,-2.70375 q -0.23625,-0.0263 -0.44625,-0.0263 -0.72625,0 -1.3475,0.3325 -0.62125,0.3325 -1.07625,0.90125 -0.44625,0.56 -0.70875,1.3125 -0.25375,0.74375 -0.25375,1.575 0,0.945 0.2975,1.3825 0.2975,0.4375 0.81375,0.4375 z" />
      <path
         id="path5951"
         style="font-style:italic;font-variant:normal;font-weight:bold;font-stretch:normal;font-size:17.5px;font-family:Lato;-inkscape-font-specification:'Lato Bold Italic';fill:#dcdcdc;fill-opacity:1"
         d="m 606.80378,582.96365 q -0.44625,0.49 -0.8575,0.8225 -0.4025,0.3325 -0.8225,0.53375 -0.42,0.20125 -0.88375,0.28 -0.455,0.0875 -1.00625,0.0875 -0.77875,0 -1.4,-0.2625 -0.6125,-0.27125 -1.04125,-0.76125 -0.42875,-0.49 -0.65625,-1.18125 -0.2275,-0.69125 -0.2275,-1.54 0,-0.72625 0.1575,-1.4175 0.1575,-0.69125 0.455,-1.30375 0.2975,-0.6125 0.7175,-1.12 0.42,-0.5075 0.945,-0.875 0.525,-0.3675 1.1375,-0.56875 0.62125,-0.21 1.3125,-0.21 0.8925,0 1.51375,0.315 0.63,0.315 1.11125,0.945 l -0.69125,0.8225 q -0.07,0.0788 -0.175,0.14875 -0.105,0.0613 -0.2275,0.0613 -0.14875,0 -0.27125,-0.0875 -0.11375,-0.0962 -0.28,-0.20125 -0.1575,-0.105 -0.4025,-0.1925 -0.23625,-0.0962 -0.62125,-0.0962 -0.49875,0 -0.95375,0.27125 -0.455,0.27125 -0.805,0.77 -0.35,0.49875 -0.56,1.19875 -0.20125,0.7 -0.20125,1.54875 0,0.98875 0.4375,1.53125 0.4375,0.53375 1.19,0.53375 0.3325,0 0.58625,-0.07 0.25375,-0.07 0.44625,-0.16625 0.20125,-0.105 0.35,-0.21875 0.14875,-0.1225 0.28,-0.21875 0.13125,-0.105 0.245,-0.175 0.1225,-0.07 0.2625,-0.07 0.11375,0 0.21,0.0612 0.105,0.0525 0.18375,0.14 l 0.5425,0.665 0,0 z" />
      <path
         id="path5953"
         style="font-style:italic;font-variant:normal;font-weight:bold;font-stretch:normal;font-size:17.5px;font-family:Lato;-inkscape-font-specification:'Lato Bold Italic';fill:#dcdcdc;fill-opacity:1"
         d="m 608.02222,584.55615 0,0 z m 9.31,-8.8725 -0.18375,1.47875 -0.91,7.39375 -2.0825,0 0.91,-7.39375 -3.73625,0 -0.49,3.94625 q -0.0438,0.35875 -0.07,0.56875 -0.0263,0.21 -0.0438,0.3325 -0.009,0.11375 -0.0175,0.16625 0,0.0438 0,0.0612 0,0.3325 0.1575,0.525 0.16625,0.1925 0.46375,0.1925 0.18375,0 0.315,-0.0437 0.13125,-0.0525 0.2275,-0.105 0.0963,-0.0525 0.175,-0.0963 0.0788,-0.0525 0.14875,-0.0525 0.0963,0 0.14875,0.0525 0.0525,0.0438 0.0962,0.14 l 0.4725,1.05 q -0.49,0.39375 -1.07625,0.595 -0.5775,0.20125 -1.1725,0.20125 -0.95375,0 -1.51375,-0.51625 -0.55125,-0.51625 -0.58625,-1.4525 0,-0.0612 0,-0.14 0,-0.0875 0.009,-0.245 0.0175,-0.16625 0.0437,-0.42875 0.035,-0.27125 0.0875,-0.69125 l 0.49875,-4.06 -0.805,0 q -0.175,0 -0.28,-0.105 -0.0963,-0.11375 -0.07,-0.3325 l 0.105,-0.83125 1.33,-0.2275 0.735,-2.4675 q 0.0525,-0.175 0.175,-0.27125 0.1225,-0.0963 0.30625,-0.0963 l 1.16375,0 -0.35,2.8525 5.81875,0 z m 0.74375,-2.72125 q 0,0.28 -0.1225,0.525 -0.11375,0.245 -0.30625,0.42875 -0.18375,0.18375 -0.42875,0.2975 -0.245,0.105 -0.5075,0.105 -0.25375,0 -0.49875,-0.105 -0.23625,-0.11375 -0.42,-0.2975 -0.18375,-0.18375 -0.2975,-0.42875 -0.105,-0.245 -0.105,-0.525 0,-0.28 0.11375,-0.53375 0.11375,-0.25375 0.2975,-0.4375 0.18375,-0.1925 0.42,-0.2975 0.245,-0.11375 0.49875,-0.11375 0.2625,0 0.5075,0.11375 0.245,0.105 0.42875,0.28875 0.1925,0.18375 0.30625,0.4375 0.11375,0.25375 0.11375,0.5425 z" />
      <path
         id="path5955"
         style="font-style:italic;font-variant:normal;font-weight:bold;font-stretch:normal;font-size:17.5px;font-family:Lato;-inkscape-font-specification:'Lato Bold Italic';fill:#dcdcdc;fill-opacity:1"
         d="m 618.49706,575.57865 1.77625,0 q 0.2275,0 0.35875,0.11375 0.14,0.11375 0.175,0.28875 l 0.93625,4.795 q 0.07,0.4375 0.11375,0.8575 0.0437,0.41125 0.07,0.83125 0.13125,-0.41125 0.28,-0.8225 0.1575,-0.42 0.3325,-0.86625 l 2.14375,-4.795 q 0.0788,-0.175 0.23625,-0.28875 0.16625,-0.11375 0.3675,-0.11375 l 1.6975,0 -4.4275,8.9775 -1.81125,0 -2.24875,-8.9775 z" />
      <path
         id="path5957"
         style="font-style:italic;font-variant:normal;font-weight:bold;font-stretch:normal;font-size:17.5px;font-family:Lato;-inkscape-font-specification:'Lato Bold Italic';fill:#dcdcdc;fill-opacity:1"
         d="m 634.33484,577.66115 q 0,0.60375 -0.245,1.1025 -0.23625,0.49875 -0.8575,0.8925 -0.62125,0.39375 -1.68875,0.6825 -1.05875,0.28 -2.70375,0.44625 l 0,0.11375 q 0,2.1175 1.79375,2.1175 0.385,0 0.6825,-0.07 0.2975,-0.0788 0.51625,-0.18375 0.2275,-0.105 0.4025,-0.23625 0.18375,-0.13125 0.3325,-0.23625 0.1575,-0.105 0.30625,-0.175 0.14875,-0.0788 0.32375,-0.0788 0.105,0 0.20125,0.0525 0.105,0.0525 0.18375,0.14 l 0.55125,0.665 q -0.46375,0.46375 -0.91,0.805 -0.44625,0.34125 -0.91,0.56 -0.46375,0.21875 -0.98,0.32375 -0.51625,0.105 -1.12,0.105 -0.7875,0 -1.42625,-0.2625 -0.63875,-0.27125 -1.09375,-0.7525 -0.455,-0.49 -0.70875,-1.1725 -0.245,-0.69125 -0.245,-1.54 0,-0.70875 0.14875,-1.39125 0.1575,-0.6825 0.44625,-1.295 0.28875,-0.6125 0.70875,-1.12875 0.42,-0.51625 0.945,-0.8925 0.53375,-0.37625 1.16375,-0.58625 0.63875,-0.21 1.365,-0.21 0.7,0 1.225,0.20125 0.53375,0.20125 0.88375,0.525 0.35875,0.315 0.53375,0.70875 0.175,0.39375 0.175,0.77 z m -2.94,-0.7 q -0.4375,0 -0.81375,0.18375 -0.37625,0.175 -0.6825,0.49875 -0.2975,0.32375 -0.525,0.77875 -0.2275,0.44625 -0.35875,0.98 1.085,-0.14875 1.74125,-0.32375 0.665,-0.175 1.02375,-0.385 0.3675,-0.21 0.48125,-0.44625 0.1225,-0.23625 0.1225,-0.5075 0,-0.13125 -0.0612,-0.27125 -0.0525,-0.14 -0.175,-0.245 -0.11375,-0.11375 -0.30625,-0.18375 -0.18375,-0.0788 -0.44625,-0.0788 z" />
      <path
         id="path5959"
         style="font-style:italic;font-variant:normal;font-weight:bold;font-stretch:normal;font-size:17.5px;font-family:Lato;-inkscape-font-specification:'Lato Bold Italic';fill:#dcdcdc;fill-opacity:1"
         d="m 592.7562,609.3624 1.4525,-11.9175 1.09375,0 q 0.34125,0 0.525,0.16625 0.1925,0.16625 0.1925,0.53375 l -0.0612,1.28625 q 0.6475,-0.97125 1.46125,-1.54 0.8225,-0.5775 1.74125,-0.5775 0.56,0 1.015,0.21 0.455,0.20125 0.77875,0.6125 0.32375,0.41125 0.49875,1.04125 0.175,0.63 0.175,1.47875 0,0.76125 -0.1575,1.49625 -0.1575,0.735 -0.44625,1.39125 -0.28875,0.65625 -0.69125,1.2075 -0.39375,0.55125 -0.88375,0.95375 -0.49,0.4025 -1.05,0.63 -0.55125,0.2275 -1.14625,0.2275 -0.6125,0 -1.1025,-0.21875 -0.48125,-0.21875 -0.84875,-0.595 l -0.44625,3.61375 -2.1,0 z m 5.55625,-10.35125 q -0.35875,0 -0.72625,0.245 -0.3675,0.23625 -0.70875,0.665 -0.34125,0.42 -0.63875,0.9975 -0.28875,0.5775 -0.49875,1.2425 l -0.2625,2.17875 q 0.2975,0.315 0.67375,0.44625 0.385,0.13125 0.76125,0.13125 0.5775,0 1.05,-0.35875 0.4725,-0.35875 0.81375,-0.93625 0.34125,-0.5775 0.525,-1.295 0.18375,-0.72625 0.18375,-1.4525 0,-0.945 -0.315,-1.4 -0.30625,-0.46375 -0.8575,-0.46375 z" />
      <path
         id="path5961"
         style="font-style:italic;font-variant:normal;font-weight:bold;font-stretch:normal;font-size:17.5px;font-family:Lato;-inkscape-font-specification:'Lato Bold Italic';fill:#dcdcdc;fill-opacity:1"
         d="m 609.6798,606.43115 -1.14625,0 q -0.41125,0 -0.56,-0.20125 -0.14,-0.21 -0.14,-0.51625 l 0.07,-1.155 q -0.595,0.9275 -1.33875,1.47 -0.74375,0.53375 -1.63625,0.53375 -0.5075,0 -0.95375,-0.20125 -0.4375,-0.20125 -0.77,-0.595 -0.32375,-0.4025 -0.51625,-0.9975 -0.18375,-0.60375 -0.18375,-1.40875 0,-0.805 0.20125,-1.56625 0.20125,-0.76125 0.56875,-1.42625 0.37625,-0.67375 0.90125,-1.23375 0.525,-0.56 1.1725,-0.9625 0.65625,-0.4025 1.40875,-0.62125 0.76125,-0.2275 1.60125,-0.2275 0.60375,0 1.2075,0.0875 0.6125,0.0875 1.19,0.315 l -1.07625,8.70625 z m -3.9025,-1.63625 q 0.35875,0 0.7,-0.245 0.35,-0.25375 0.65625,-0.6825 0.30625,-0.4375 0.56875,-1.02375 0.2625,-0.58625 0.455,-1.26 l 0.34125,-2.70375 q -0.23625,-0.0263 -0.44625,-0.0263 -0.72625,0 -1.3475,0.3325 -0.62125,0.3325 -1.07625,0.90125 -0.44625,0.56 -0.70875,1.3125 -0.25375,0.74375 -0.25375,1.575 0,0.945 0.2975,1.3825 0.2975,0.4375 0.81375,0.4375 z" />
      <path
         id="path5963"
         style="font-style:italic;font-variant:normal;font-weight:bold;font-stretch:normal;font-size:17.5px;font-family:Lato;-inkscape-font-specification:'Lato Bold Italic';fill:#dcdcdc;fill-opacity:1"
         d="m 611.67452,606.43115 1.085,-8.98625 1.1025,0 q 0.34125,0 0.525,0.16625 0.1925,0.16625 0.1925,0.53375 l -0.0612,1.46125 q 0.34125,-0.665 0.72625,-1.1375 0.39375,-0.48125 0.81375,-0.74375 0.42,-0.27125 0.8575,-0.315 0.44625,-0.0525 0.90125,0.14 l -0.39375,2.065 q -1.07625,-0.44625 -1.88125,0.2275 -0.79625,0.665 -1.2775,2.625 l -0.4725,3.96375 -2.1175,0 z" />
      <path
         id="path5965"
         style="font-style:italic;font-variant:normal;font-weight:bold;font-stretch:normal;font-size:17.5px;font-family:Lato;-inkscape-font-specification:'Lato Bold Italic';fill:#dcdcdc;fill-opacity:1"
         d="m 618.6223,604.6024 q 0,-0.0612 0,-0.14 0,-0.0875 0.009,-0.245 0.0175,-0.16625 0.0438,-0.42875 0.035,-0.27125 0.0875,-0.69125 l 0.49875,-4.025 -0.84875,0 q -0.1575,0 -0.2625,-0.11375 -0.0963,-0.11375 -0.0612,-0.34125 l 0.0962,-0.8575 1.365,-0.23625 0.7175,-2.45 q 0.0612,-0.175 0.18375,-0.27125 0.1225,-0.0963 0.30625,-0.0963 l 1.155,0 -0.35,2.82625 2.17,0 -0.18375,1.54 -2.17875,0 -0.48125,3.91125 q -0.0438,0.35875 -0.07,0.56875 -0.0263,0.21 -0.0437,0.3325 -0.009,0.11375 -0.009,0.16625 0,0.0438 0,0.0612 0,0.3325 0.1575,0.525 0.16625,0.1925 0.46375,0.1925 0.18375,0 0.315,-0.0437 0.13125,-0.0525 0.2275,-0.105 0.0963,-0.0525 0.175,-0.0963 0.0788,-0.0525 0.14875,-0.0525 0.0962,0 0.14875,0.0525 0.0525,0.0438 0.0963,0.14 l 0.46375,1.05 q -0.48125,0.39375 -1.0675,0.595 -0.5775,0.20125 -1.18125,0.20125 -0.95375,0 -1.51375,-0.51625 -0.55125,-0.51625 -0.5775,-1.4525 z" />
      <path
         id="path5967"
         style="font-style:italic;font-variant:normal;font-weight:bold;font-stretch:normal;font-size:17.5px;font-family:Lato;-inkscape-font-specification:'Lato Bold Italic';fill:#dcdcdc;fill-opacity:1"
         d="m 627.00015,608.91615 q -0.1225,0.2275 -0.28875,0.3325 -0.16625,0.11375 -0.41125,0.11375 l -1.60125,0 1.995,-3.61375 -2.26625,-8.295 1.81125,0 q 0.23625,0 0.35,0.1225 0.1225,0.11375 0.16625,0.28 l 1.1025,4.655 q 0.0875,0.44625 0.13125,0.8925 0.0963,-0.2275 0.1925,-0.44625 0.105,-0.2275 0.21,-0.455 l 2.21375,-4.655 q 0.0875,-0.175 0.25375,-0.28 0.16625,-0.11375 0.34125,-0.11375 l 1.7325,0 -5.9325,11.4625 z" />
    </g>
    <path
       id="path4938"
       d="m 414.57859,757.08072 c 0,0 -138.75692,-60.07159 -93.06866,-236.90205"
       style="fill:none;fill-rule:evenodd;stroke:#7c7c7c;stroke-width:3;stroke-linecap:round;stroke-linejoin:miter;stroke-miterlimit:4;stroke-dasharray:3, 9;stroke-dashoffset:0;stroke-opacity:1;marker-end:url(#marker4946)" />
    <g
       id="text5033"
       style="font-style:italic;font-variant:normal;font-weight:normal;font-stretch:normal;font-size:20px;line-height:125%;font-family:Lato;-inkscape-font-specification:'Lato Italic';text-align:center;letter-spacing:0px;word-spacing:0px;text-anchor:middle;fill:#7c7c7c;fill-opacity:1;stroke:none;stroke-width:1px;stroke-linecap:butt;stroke-linejoin:miter;stroke-opacity:1"
       transform="matrix(0.51153137,0.8592646,-0.8592646,0.51153137,0,0)">
      <path
         id="path5970"
         style=""
         d="m 733.0346,48.448021 q 0,-0.06 0,-0.15 0.01,-0.1 0.02,-0.28 0.02,-0.18 0.05,-0.47 0.03,-0.29 0.09,-0.76 l 0.63,-5.09 -1.1,0 q -0.15,0 -0.24,-0.1 -0.09,-0.1 -0.07,-0.29 l 0.08,-0.68 1.54,-0.2 0.76,-3.15 q 0.05,-0.15 0.15,-0.24 0.11,-0.1 0.27,-0.1 l 0.94,0 -0.44,3.5 4.31,0 0.77,-3.16 q 0.05,-0.15 0.15,-0.24 0.11,-0.1 0.27,-0.1 l 0.93,0 -0.43,3.5 2.65,0 -0.16,1.26 -2.65,0 -0.61,5 q -0.05,0.41 -0.08,0.66 -0.03,0.25 -0.05,0.4 -0.01,0.15 -0.02,0.21 0,0.06 0,0.09 0,0.51 0.24,0.76 0.24,0.24 0.64,0.24 0.27,0 0.46,-0.07 0.2,-0.08 0.35,-0.17 0.15,-0.09 0.25,-0.16 0.1,-0.08 0.17,-0.08 0.09,0 0.13,0.04 0.05,0.04 0.09,0.13 l 0.38,0.85 q -0.49,0.43 -1.12,0.68 -0.62,0.24 -1.25,0.24 -0.97,0 -1.53,-0.53 -0.55,-0.53 -0.57,-1.54 0,-0.06 0,-0.15 0.01,-0.1 0.02,-0.28 0.02,-0.18 0.05,-0.47 0.03,-0.29 0.09,-0.76 l 0.62,-5.09 -4.25,0 -0.62,5 q -0.05,0.41 -0.08,0.66 -0.03,0.25 -0.05,0.4 -0.01,0.15 -0.02,0.21 0,0.06 0,0.09 0,0.51 0.24,0.76 0.24,0.24 0.65,0.24 0.26,0 0.46,-0.07 0.2,-0.08 0.34,-0.17 0.15,-0.09 0.25,-0.16 0.1,-0.08 0.18,-0.08 0.08,0 0.12,0.04 0.05,0.04 0.1,0.13 l 0.37,0.85 q -0.48,0.43 -1.11,0.68 -0.62,0.24 -1.25,0.24 -0.97,0 -1.53,-0.53 -0.56,-0.53 -0.58,-1.54 z" />
      <path
         id="path5972"
         style=""
         d="m 745.38054,50.358021 1.79,-14.73 1.75,0 -1.79,14.73 -1.75,0 z" />
    </g>
    <path
       style="fill:none;fill-rule:evenodd;stroke:#7c7c7c;stroke-width:3;stroke-linecap:round;stroke-linejoin:miter;stroke-miterlimit:4;stroke-dasharray:3, 9;stroke-dashoffset:0;stroke-opacity:1;marker-end:url(#marker5206)"
       d="m 626.98802,341.40263 c 0,0 -110.34552,-92.30281 -254.68861,6.64604"
       id="path5197" />
    <g
       id="text5417"
       style="font-style:normal;font-variant:normal;font-weight:300;font-stretch:normal;font-size:30px;line-height:125%;font-family:Lato;-inkscape-font-specification:Sans;text-align:center;letter-spacing:0px;word-spacing:0px;text-anchor:middle;fill:#000000;fill-opacity:1;stroke:none;stroke-width:1px;stroke-linecap:butt;stroke-linejoin:miter;stroke-opacity:1">
      <path
         id="path5975"
         style="font-style:italic;font-variant:normal;font-weight:normal;font-stretch:normal;font-size:20px;font-family:Lato;-inkscape-font-specification:'Lato Italic';fill:#7c7c7c;fill-opacity:1"
         d="m 499.47155,291.05878 q 0,-0.06 0,-0.15 0.01,-0.1 0.02,-0.28 0.02,-0.18 0.05,-0.47 0.03,-0.29 0.09,-0.76 l 0.63,-5.09 -1.1,0 q -0.15,0 -0.24,-0.1 -0.09,-0.1 -0.07,-0.29 l 0.08,-0.68 1.54,-0.2 0.76,-3.15 q 0.05,-0.15 0.15,-0.24 0.11,-0.1 0.27,-0.1 l 0.94,0 -0.44,3.5 4.31,0 0.77,-3.16 q 0.05,-0.15 0.15,-0.24 0.11,-0.1 0.27,-0.1 l 0.93,0 -0.43,3.5 2.65,0 -0.16,1.26 -2.65,0 -0.61,5 q -0.05,0.41 -0.08,0.66 -0.03,0.25 -0.05,0.4 -0.01,0.15 -0.02,0.21 0,0.06 0,0.09 0,0.51 0.24,0.76 0.24,0.24 0.64,0.24 0.27,0 0.46,-0.07 0.2,-0.08 0.35,-0.17 0.15,-0.09 0.25,-0.16 0.1,-0.08 0.17,-0.08 0.09,0 0.13,0.04 0.05,0.04 0.09,0.13 l 0.38,0.85 q -0.49,0.43 -1.12,0.68 -0.62,0.24 -1.25,0.24 -0.97,0 -1.53,-0.53 -0.55,-0.53 -0.57,-1.54 0,-0.06 0,-0.15 0.01,-0.1 0.02,-0.28 0.02,-0.18 0.05,-0.47 0.03,-0.29 0.09,-0.76 l 0.62,-5.09 -4.25,0 -0.62,5 q -0.05,0.41 -0.08,0.66 -0.03,0.25 -0.05,0.4 -0.01,0.15 -0.02,0.21 0,0.06 0,0.09 0,0.51 0.24,0.76 0.24,0.24 0.65,0.24 0.26,0 0.46,-0.07 0.2,-0.08 0.34,-0.17 0.15,-0.09 0.25,-0.16 0.1,-0.08 0.18,-0.08 0.08,0 0.12,0.04 0.05,0.04 0.1,0.13 l 0.37,0.85 q -0.48,0.43 -1.11,0.68 -0.62,0.24 -1.25,0.24 -0.97,0 -1.53,-0.53 -0.56,-0.53 -0.58,-1.54 z" />
      <path
         id="path5977"
         style="font-style:italic;font-variant:normal;font-weight:normal;font-stretch:normal;font-size:20px;font-family:Lato;-inkscape-font-specification:'Lato Italic';fill:#7c7c7c;fill-opacity:1"
         d="m 511.81749,292.96878 1.79,-14.73 1.75,0 -1.79,14.73 -1.75,0 z" />
    </g>
    <path
       id="path5425"
       d="m 315.66688,351.35252 c 0,0 -204.659,-171.77407 -59.10544,55.96827"
       style="fill:none;fill-rule:evenodd;stroke:#7c7c7c;stroke-width:3;stroke-linecap:round;stroke-linejoin:miter;stroke-miterlimit:4;stroke-dasharray:none;stroke-opacity:1;marker-end:url(#marker5437)" />
    <path
       id="path5429"
       d="m 255.23255,441.35814 c 0,0 -204.299995,133.26142 37.20597,64.98982"
       style="fill:none;fill-rule:evenodd;stroke:#7c7c7c;stroke-width:3;stroke-linecap:round;stroke-linejoin:miter;stroke-miterlimit:4;stroke-dasharray:none;stroke-opacity:1;marker-end:url(#marker5501)" />
    <g
       id="text5751"
       style="font-style:normal;font-variant:normal;font-weight:300;font-stretch:normal;font-size:30px;line-height:125%;font-family:Lato;-inkscape-font-specification:Sans;text-align:center;letter-spacing:0px;word-spacing:0px;text-anchor:middle;fill:#000000;fill-opacity:1;stroke:none;stroke-width:1px;stroke-linecap:butt;stroke-linejoin:miter;stroke-opacity:1"
       transform="matrix(0.81959925,0.57293723,-0.57293723,0.81959925,0,0)">
      <path
         id="path5980"
         style="font-style:italic;font-variant:normal;font-weight:normal;font-stretch:normal;font-size:20px;font-family:Lato;-inkscape-font-specification:'Lato Italic';fill:#7c7c7c;fill-opacity:1"
         d="m 369.95947,88.82521 q 0,0.5 -0.12,0.9 -0.11,0.4 -0.28,0.74 -0.17,0.34 -0.37,0.64 -0.2,0.3 -0.37,0.6 -0.17,0.29 -0.29,0.61 -0.11,0.31 -0.11,0.68 0,0.27 0.09,0.52 0.1,0.24 0.24,0.48 0.15,0.23 0.32,0.47 0.18,0.24 0.32,0.51 0.15,0.27 0.24,0.59 0.1,0.31 0.1,0.69 -0.01,0.71 -0.34,1.34 -0.33,0.64 -0.94,1.13 -0.61,0.49 -1.48,0.77 -0.87,0.29 -1.96,0.29 -0.87,0 -1.59,-0.18 -0.71,-0.18 -1.22,-0.51 -0.5,-0.33 -0.77,-0.8 -0.28,-0.46 -0.28,-1.02 0,-0.64 0.27,-1.13 0.27,-0.49 0.73,-0.84 0.46,-0.36 1.07,-0.59 0.61,-0.23 1.29,-0.34 0.69,-0.11 1.41,-0.1 0.72,0 1.41,0.1 -0.09,-0.19 -0.15,-0.39 -0.06,-0.21 -0.05,-0.45 0,-0.31 0.09,-0.64 0.1,-0.33 0.32,-0.74 -0.38,0.26 -0.85,0.4 -0.47,0.14 -1.07,0.14 -0.58,0 -1.09,-0.19 -0.5,-0.19 -0.88,-0.56 -0.38,-0.37 -0.6,-0.92 -0.22,-0.56 -0.22,-1.3 0,-0.72 0.26,-1.41 0.27,-0.7 0.78,-1.24 0.51,-0.55 1.26,-0.88 0.75,-0.33 1.73,-0.33 1.1,0 1.91,0.52 l 2.74,0 -0.07,0.59 q -0.05,0.36 -0.4,0.48 l -1.27,0.22 q 0.09,0.26 0.14,0.55 0.05,0.28 0.05,0.6 z m -3.86,2.75 q 0.54,0 0.95,-0.23 0.42,-0.24 0.7,-0.62 0.29,-0.39 0.44,-0.87 0.15,-0.48 0.15,-0.97 0,-0.88 -0.45,-1.33 -0.44,-0.45 -1.22,-0.45 -0.54,0 -0.95,0.22 -0.41,0.22 -0.7,0.59 -0.28,0.37 -0.43,0.84 -0.14,0.47 -0.14,0.98 0,0.9 0.43,1.37 0.44,0.47 1.22,0.47 z m 2.01,4.82 q 0,-0.26 -0.05,-0.48 -0.05,-0.23 -0.13,-0.43 -1.32,-0.22 -2.28,-0.16 -0.96,0.05 -1.59,0.29 -0.62,0.24 -0.92,0.62 -0.3,0.39 -0.3,0.82 0,0.72 0.6,1.1 0.61,0.38 1.72,0.38 0.66,0 1.2,-0.18 0.55,-0.17 0.93,-0.46 0.39,-0.29 0.6,-0.68 0.22,-0.39 0.22,-0.82 z" />
      <path
         id="path5982"
         style="font-style:italic;font-variant:normal;font-weight:normal;font-stretch:normal;font-size:20px;font-family:Lato;-inkscape-font-specification:'Lato Italic';fill:#7c7c7c;fill-opacity:1"
         d="m 379.9626,88.18521 q 0,0.66 -0.27,1.22 -0.27,0.55 -0.99,1 -0.72,0.44 -1.98,0.77 -1.26,0.33 -3.24,0.53 -0.01,0.11 -0.01,0.22 0,0.1 0,0.21 0,1.34 0.58,2.05 0.59,0.7 1.77,0.7 0.48,0 0.85,-0.1 0.38,-0.1 0.67,-0.24 0.3,-0.15 0.52,-0.32 0.23,-0.18 0.41,-0.32 0.19,-0.15 0.35,-0.25 0.16,-0.1 0.32,-0.1 0.19,0 0.34,0.17 l 0.44,0.55 q -0.51,0.53 -1,0.91 -0.49,0.37 -1,0.62 -0.5,0.25 -1.06,0.36 -0.55,0.12 -1.19,0.12 -0.87,0 -1.56,-0.29 -0.69,-0.29 -1.17,-0.82 -0.48,-0.54 -0.74,-1.3 -0.26,-0.76 -0.26,-1.7 0,-0.78 0.16,-1.55 0.17,-0.78 0.48,-1.48 0.32,-0.7 0.77,-1.3 0.46,-0.6 1.04,-1.03 0.59,-0.44 1.29,-0.69 0.71,-0.25 1.52,-0.25 0.77,0 1.33,0.22 0.56,0.22 0.92,0.56 0.36,0.34 0.53,0.75 0.18,0.41 0.18,0.78 z m -3.06,-1.03 q -0.63,0 -1.16,0.26 -0.53,0.26 -0.94,0.72 -0.41,0.45 -0.7,1.07 -0.29,0.61 -0.45,1.32 1.54,-0.19 2.47,-0.43 0.93,-0.25 1.43,-0.53 0.5,-0.29 0.66,-0.62 0.16,-0.33 0.16,-0.69 0,-0.18 -0.08,-0.37 -0.08,-0.2 -0.26,-0.36 -0.17,-0.16 -0.45,-0.26 -0.28,-0.11 -0.68,-0.11 z" />
      <path
         id="path5984"
         style="font-style:italic;font-variant:normal;font-weight:normal;font-stretch:normal;font-size:20px;font-family:Lato;-inkscape-font-specification:'Lato Italic';fill:#7c7c7c;fill-opacity:1"
         d="m 382.12291,94.23521 q 0,-0.06 0,-0.15 0,-0.1 0.01,-0.28 0.02,-0.18 0.05,-0.47 0.04,-0.29 0.1,-0.76 l 0.62,-5.07 -1.13,0 q -0.14,0 -0.23,-0.09 -0.08,-0.1 -0.06,-0.3 l 0.08,-0.71 1.56,-0.21 0.76,-3.13 q 0.05,-0.15 0.15,-0.24 0.11,-0.1 0.27,-0.1 l 0.93,0 -0.43,3.49 2.66,0 -0.15,1.29 -2.67,0 -0.61,4.98 q -0.05,0.41 -0.08,0.66 -0.03,0.25 -0.05,0.4 -0.01,0.15 -0.02,0.21 0,0.06 0,0.09 0,0.51 0.24,0.76 0.24,0.24 0.64,0.24 0.27,0 0.46,-0.07 0.2,-0.08 0.35,-0.17 0.15,-0.09 0.25,-0.16 0.1,-0.08 0.17,-0.08 0.09,0 0.13,0.04 0.05,0.04 0.09,0.13 l 0.38,0.85 q -0.49,0.43 -1.12,0.68 -0.62,0.24 -1.25,0.24 -0.97,0 -1.53,-0.53 -0.55,-0.53 -0.57,-1.54 z" />
      <path
         id="path5986"
         style="font-style:italic;font-variant:normal;font-weight:normal;font-stretch:normal;font-size:20px;font-family:Lato;-inkscape-font-specification:'Lato Italic';fill:#7c7c7c;fill-opacity:1"
         d="m 393.11979,96.14521 1.22,-10.14 0.88,0 q 0.6,0 0.6,0.6 l -0.15,1.97 q 0.81,-1.34 1.83,-2.02 1.02,-0.69 2.1,-0.69 0.64,0 1.12,0.26 0.49,0.25 0.79,0.74 0.31,0.49 0.42,1.21 0.11,0.71 0,1.62 l -0.76,6.45 -1.77,0 0.76,-6.45 q 0.14,-1.2 -0.15,-1.77 -0.29,-0.58 -1.07,-0.58 -0.48,0 -0.98,0.26 -0.49,0.26 -0.95,0.74 -0.46,0.48 -0.86,1.16 -0.39,0.67 -0.67,1.5 l -0.58,5.14 -1.78,0 z" />
      <path
         id="path5988"
         style="font-style:italic;font-variant:normal;font-weight:normal;font-stretch:normal;font-size:20px;font-family:Lato;-inkscape-font-specification:'Lato Italic';fill:#7c7c7c;fill-opacity:1"
         d="m 407.64572,94.89521 q 0.73,0 1.32,-0.4 0.6,-0.4 1.02,-1.06 0.43,-0.67 0.66,-1.54 0.23,-0.87 0.23,-1.82 0,-1.4 -0.56,-2.1 -0.55,-0.71 -1.59,-0.71 -0.74,0 -1.34,0.4 -0.59,0.39 -1.01,1.05 -0.42,0.66 -0.65,1.53 -0.23,0.87 -0.23,1.82 0,1.4 0.55,2.12 0.55,0.71 1.6,0.71 z m -0.17,1.39 q -0.83,0 -1.52,-0.28 -0.69,-0.29 -1.19,-0.83 -0.5,-0.54 -0.78,-1.32 -0.28,-0.78 -0.28,-1.78 0,-1.28 0.4,-2.41 0.4,-1.13 1.1,-1.97 0.7,-0.85 1.64,-1.34 0.95,-0.49 2.04,-0.49 0.83,0 1.52,0.29 0.69,0.28 1.19,0.82 0.5,0.54 0.78,1.32 0.28,0.78 0.28,1.77 0,1.27 -0.4,2.4 -0.4,1.13 -1.1,1.98 -0.69,0.85 -1.64,1.35 -0.95,0.49 -2.04,0.49 z" />
      <path
         id="path5990"
         style="font-style:italic;font-variant:normal;font-weight:normal;font-stretch:normal;font-size:20px;font-family:Lato;-inkscape-font-specification:'Lato Italic';fill:#7c7c7c;fill-opacity:1"
         d="m 414.09635,96.14521 1.22,-10.14 0.88,0 q 0.6,0 0.6,0.6 l -0.15,1.97 q 0.81,-1.34 1.83,-2.02 1.02,-0.69 2.1,-0.69 0.64,0 1.12,0.26 0.49,0.25 0.79,0.74 0.31,0.49 0.42,1.21 0.11,0.71 0,1.62 l -0.76,6.45 -1.77,0 0.76,-6.45 q 0.14,-1.2 -0.15,-1.77 -0.29,-0.58 -1.07,-0.58 -0.48,0 -0.98,0.26 -0.49,0.26 -0.95,0.74 -0.46,0.48 -0.86,1.16 -0.39,0.67 -0.67,1.5 l -0.58,5.14 -1.78,0 z" />
      <path
         id="path5992"
         style="font-style:italic;font-variant:normal;font-weight:normal;font-stretch:normal;font-size:20px;font-family:Lato;-inkscape-font-specification:'Lato Italic';fill:#7c7c7c;fill-opacity:1"
         d="m 432.27229,94.32521 q -0.52,0.57 -0.99,0.95 -0.47,0.38 -0.94,0.61 -0.47,0.22 -0.98,0.31 -0.5,0.09 -1.08,0.09 -0.88,0 -1.56,-0.3 -0.67,-0.3 -1.13,-0.84 -0.45,-0.55 -0.69,-1.31 -0.23,-0.77 -0.23,-1.69 0,-1.23 0.38,-2.36 0.39,-1.13 1.08,-2 0.69,-0.87 1.64,-1.39 0.96,-0.52 2.09,-0.52 1.01,0 1.69,0.36 0.68,0.35 1.19,1.03 l -0.56,0.67 q -0.07,0.08 -0.16,0.13 -0.08,0.05 -0.19,0.05 -0.14,0 -0.28,-0.12 -0.13,-0.13 -0.35,-0.28 -0.22,-0.16 -0.55,-0.28 -0.32,-0.13 -0.83,-0.13 -0.69,0 -1.3,0.38 -0.61,0.37 -1.07,1.02 -0.46,0.65 -0.73,1.54 -0.26,0.89 -0.26,1.91 0,0.62 0.14,1.13 0.14,0.5 0.42,0.86 0.28,0.35 0.68,0.55 0.41,0.19 0.95,0.19 0.67,0 1.12,-0.2 0.46,-0.2 0.77,-0.43 0.31,-0.24 0.52,-0.44 0.22,-0.2 0.43,-0.2 0.19,0 0.34,0.17 l 0.44,0.54 0,0 z" />
      <path
         id="path5994"
         style="font-style:italic;font-variant:normal;font-weight:normal;font-stretch:normal;font-size:20px;font-family:Lato;-inkscape-font-specification:'Lato Italic';fill:#7c7c7c;fill-opacity:1"
         d="m 441.79854,88.18521 q 0,0.66 -0.27,1.22 -0.27,0.55 -0.99,1 -0.72,0.44 -1.98,0.77 -1.26,0.33 -3.24,0.53 -0.01,0.11 -0.01,0.22 0,0.1 0,0.21 0,1.34 0.58,2.05 0.59,0.7 1.77,0.7 0.48,0 0.85,-0.1 0.38,-0.1 0.67,-0.24 0.3,-0.15 0.52,-0.32 0.23,-0.18 0.41,-0.32 0.19,-0.15 0.35,-0.25 0.16,-0.1 0.32,-0.1 0.19,0 0.34,0.17 l 0.44,0.55 q -0.51,0.53 -1,0.91 -0.49,0.37 -1,0.62 -0.5,0.25 -1.06,0.36 -0.55,0.12 -1.19,0.12 -0.87,0 -1.56,-0.29 -0.69,-0.29 -1.17,-0.82 -0.48,-0.54 -0.74,-1.3 -0.26,-0.76 -0.26,-1.7 0,-0.78 0.16,-1.55 0.17,-0.78 0.48,-1.48 0.32,-0.7 0.77,-1.3 0.46,-0.6 1.04,-1.03 0.59,-0.44 1.29,-0.69 0.71,-0.25 1.52,-0.25 0.77,0 1.33,0.22 0.56,0.22 0.92,0.56 0.36,0.34 0.53,0.75 0.18,0.41 0.18,0.78 z m -3.06,-1.03 q -0.63,0 -1.16,0.26 -0.53,0.26 -0.94,0.72 -0.41,0.45 -0.7,1.07 -0.29,0.61 -0.45,1.32 1.54,-0.19 2.47,-0.43 0.93,-0.25 1.43,-0.53 0.5,-0.29 0.66,-0.62 0.16,-0.33 0.16,-0.69 0,-0.18 -0.08,-0.37 -0.08,-0.2 -0.26,-0.36 -0.17,-0.16 -0.45,-0.26 -0.28,-0.11 -0.68,-0.11 z" />
    </g>
    <g
       id="text5755"
       style="font-style:normal;font-variant:normal;font-weight:300;font-stretch:normal;font-size:30px;line-height:125%;font-family:Lato;-inkscape-font-specification:Sans;text-align:center;letter-spacing:0px;word-spacing:0px;text-anchor:middle;fill:#000000;fill-opacity:1;stroke:none;stroke-width:1px;stroke-linecap:butt;stroke-linejoin:miter;stroke-opacity:1"
       transform="matrix(0.77714502,-0.62932156,0.62932156,0.77714502,0,0)">
      <path
         id="path5997"
         style="font-style:italic;font-variant:normal;font-weight:normal;font-stretch:normal;font-size:20px;font-family:Lato;-inkscape-font-specification:'Lato Italic';fill:#7c7c7c;fill-opacity:1"
         d="m -154.80406,484.21549 q 0,0.5 -0.12,0.9 -0.11,0.4 -0.28,0.74 -0.17,0.34 -0.37,0.64 -0.2,0.3 -0.37,0.6 -0.17,0.29 -0.29,0.61 -0.11,0.31 -0.11,0.68 0,0.27 0.09,0.52 0.1,0.24 0.24,0.48 0.15,0.23 0.32,0.47 0.18,0.24 0.32,0.51 0.15,0.27 0.24,0.59 0.1,0.31 0.1,0.69 -0.01,0.71 -0.34,1.34 -0.33,0.64 -0.94,1.13 -0.61,0.49 -1.48,0.77 -0.87,0.29 -1.96,0.29 -0.87,0 -1.59,-0.18 -0.71,-0.18 -1.22,-0.51 -0.5,-0.33 -0.77,-0.8 -0.28,-0.46 -0.28,-1.02 0,-0.64 0.27,-1.13 0.27,-0.49 0.73,-0.84 0.46,-0.36 1.07,-0.59 0.61,-0.23 1.29,-0.34 0.69,-0.11 1.41,-0.1 0.72,0 1.41,0.1 -0.09,-0.19 -0.15,-0.39 -0.06,-0.21 -0.05,-0.45 0,-0.31 0.09,-0.64 0.1,-0.33 0.32,-0.74 -0.38,0.26 -0.85,0.4 -0.47,0.14 -1.07,0.14 -0.58,0 -1.09,-0.19 -0.5,-0.19 -0.88,-0.56 -0.38,-0.37 -0.6,-0.92 -0.22,-0.56 -0.22,-1.3 0,-0.72 0.26,-1.41 0.27,-0.7 0.78,-1.24 0.51,-0.55 1.26,-0.88 0.75,-0.33 1.73,-0.33 1.1,0 1.91,0.52 l 2.74,0 -0.07,0.59 q -0.05,0.36 -0.4,0.48 l -1.27,0.22 q 0.09,0.26 0.14,0.55 0.05,0.28 0.05,0.6 z m -3.86,2.75 q 0.54,0 0.95,-0.23 0.42,-0.24 0.7,-0.62 0.29,-0.39 0.44,-0.87 0.15,-0.48 0.15,-0.97 0,-0.88 -0.45,-1.33 -0.44,-0.45 -1.22,-0.45 -0.54,0 -0.95,0.22 -0.41,0.22 -0.7,0.59 -0.28,0.37 -0.43,0.84 -0.14,0.47 -0.14,0.98 0,0.9 0.43,1.37 0.44,0.47 1.22,0.47 z m 2.01,4.82 q 0,-0.26 -0.05,-0.48 -0.05,-0.23 -0.13,-0.43 -1.32,-0.22 -2.28,-0.16 -0.96,0.05 -1.59,0.29 -0.62,0.24 -0.92,0.62 -0.3,0.39 -0.3,0.82 0,0.72 0.6,1.1 0.61,0.38 1.72,0.38 0.66,0 1.2,-0.18 0.55,-0.17 0.93,-0.46 0.39,-0.29 0.6,-0.68 0.22,-0.39 0.22,-0.82 z" />
      <path
         id="path5999"
         style="font-style:italic;font-variant:normal;font-weight:normal;font-stretch:normal;font-size:20px;font-family:Lato;-inkscape-font-specification:'Lato Italic';fill:#7c7c7c;fill-opacity:1"
         d="m -144.80094,483.57549 q 0,0.66 -0.27,1.22 -0.27,0.55 -0.99,1 -0.72,0.44 -1.98,0.77 -1.26,0.33 -3.24,0.53 -0.01,0.11 -0.01,0.22 0,0.1 0,0.21 0,1.34 0.58,2.05 0.59,0.7 1.77,0.7 0.48,0 0.85,-0.1 0.38,-0.1 0.67,-0.24 0.3,-0.15 0.52,-0.32 0.23,-0.18 0.41,-0.32 0.19,-0.15 0.35,-0.25 0.16,-0.1 0.32,-0.1 0.19,0 0.34,0.17 l 0.44,0.55 q -0.51,0.53 -1,0.91 -0.49,0.37 -1,0.62 -0.5,0.25 -1.06,0.36 -0.55,0.12 -1.19,0.12 -0.87,0 -1.56,-0.29 -0.69,-0.29 -1.17,-0.82 -0.48,-0.54 -0.74,-1.3 -0.26,-0.76 -0.26,-1.7 0,-0.78 0.16,-1.55 0.17,-0.78 0.48,-1.48 0.32,-0.7 0.77,-1.3 0.46,-0.6 1.04,-1.03 0.59,-0.44 1.29,-0.69 0.71,-0.25 1.52,-0.25 0.77,0 1.33,0.22 0.56,0.22 0.92,0.56 0.36,0.34 0.53,0.75 0.18,0.41 0.18,0.78 z m -3.06,-1.03 q -0.63,0 -1.16,0.26 -0.53,0.26 -0.94,0.72 -0.41,0.45 -0.7,1.07 -0.29,0.61 -0.45,1.32 1.54,-0.19 2.47,-0.43 0.93,-0.25 1.43,-0.53 0.5,-0.29 0.66,-0.62 0.16,-0.33 0.16,-0.69 0,-0.18 -0.08,-0.37 -0.08,-0.2 -0.26,-0.36 -0.17,-0.16 -0.45,-0.26 -0.28,-0.11 -0.68,-0.11 z" />
      <path
         id="path6001"
         style="font-style:italic;font-variant:normal;font-weight:normal;font-stretch:normal;font-size:20px;font-family:Lato;-inkscape-font-specification:'Lato Italic';fill:#7c7c7c;fill-opacity:1"
         d="m -142.64062,489.62549 q 0,-0.06 0,-0.15 0,-0.1 0.01,-0.28 0.02,-0.18 0.05,-0.47 0.04,-0.29 0.1,-0.76 l 0.62,-5.07 -1.13,0 q -0.14,0 -0.23,-0.09 -0.08,-0.1 -0.06,-0.3 l 0.08,-0.71 1.56,-0.21 0.76,-3.13 q 0.05,-0.15 0.15,-0.24 0.11,-0.1 0.27,-0.1 l 0.93,0 -0.43,3.49 2.66,0 -0.15,1.29 -2.67,0 -0.61,4.98 q -0.05,0.41 -0.08,0.66 -0.03,0.25 -0.05,0.4 -0.01,0.15 -0.02,0.21 0,0.06 0,0.09 0,0.51 0.24,0.76 0.24,0.24 0.64,0.24 0.27,0 0.46,-0.07 0.2,-0.08 0.35,-0.17 0.15,-0.09 0.25,-0.16 0.1,-0.08 0.17,-0.08 0.09,0 0.13,0.04 0.05,0.04 0.09,0.13 l 0.38,0.85 q -0.49,0.43 -1.12,0.68 -0.62,0.24 -1.25,0.24 -0.97,0 -1.53,-0.53 -0.55,-0.53 -0.57,-1.54 z" />
      <path
         id="path6003"
         style="font-style:italic;font-variant:normal;font-weight:normal;font-stretch:normal;font-size:20px;font-family:Lato;-inkscape-font-specification:'Lato Italic';fill:#7c7c7c;fill-opacity:1"
         d="m -128.10375,476.80549 -1.06,8.67 0.3,0 q 0.21,0 0.34,-0.05 0.13,-0.06 0.28,-0.23 l 3.36,-3.43 q 0.14,-0.17 0.3,-0.26 0.16,-0.1 0.39,-0.1 l 1.58,0 -3.91,3.97 q -0.3,0.35 -0.61,0.53 0.16,0.12 0.27,0.28 0.12,0.15 0.22,0.35 l 3.04,5 -1.53,0 q -0.22,0 -0.37,-0.07 -0.14,-0.08 -0.23,-0.28 l -2.58,-4.15 q -0.12,-0.21 -0.25,-0.27 -0.13,-0.07 -0.41,-0.07 l -0.34,0 -0.59,4.84 -1.76,0 1.81,-14.73 1.75,0 z" />
      <path
         id="path6005"
         style="font-style:italic;font-variant:normal;font-weight:normal;font-stretch:normal;font-size:20px;font-family:Lato;-inkscape-font-specification:'Lato Italic';fill:#7c7c7c;fill-opacity:1"
         d="m -114.48844,483.57549 q 0,0.66 -0.27,1.22 -0.27,0.55 -0.99,1 -0.72,0.44 -1.98,0.77 -1.26,0.33 -3.24,0.53 -0.01,0.11 -0.01,0.22 0,0.1 0,0.21 0,1.34 0.58,2.05 0.59,0.7 1.77,0.7 0.48,0 0.85,-0.1 0.38,-0.1 0.67,-0.24 0.3,-0.15 0.52,-0.32 0.23,-0.18 0.41,-0.32 0.19,-0.15 0.35,-0.25 0.16,-0.1 0.32,-0.1 0.19,0 0.34,0.17 l 0.44,0.55 q -0.51,0.53 -1,0.91 -0.49,0.37 -1,0.62 -0.5,0.25 -1.06,0.36 -0.55,0.12 -1.19,0.12 -0.87,0 -1.56,-0.29 -0.69,-0.29 -1.17,-0.82 -0.48,-0.54 -0.74,-1.3 -0.26,-0.76 -0.26,-1.7 0,-0.78 0.16,-1.55 0.17,-0.78 0.48,-1.48 0.32,-0.7 0.77,-1.3 0.46,-0.6 1.04,-1.03 0.59,-0.44 1.29,-0.69 0.71,-0.25 1.52,-0.25 0.77,0 1.33,0.22 0.56,0.22 0.92,0.56 0.36,0.34 0.53,0.75 0.18,0.41 0.18,0.78 z m -3.06,-1.03 q -0.63,0 -1.16,0.26 -0.53,0.26 -0.94,0.72 -0.41,0.45 -0.7,1.07 -0.29,0.61 -0.45,1.32 1.54,-0.19 2.47,-0.43 0.93,-0.25 1.43,-0.53 0.5,-0.29 0.66,-0.62 0.16,-0.33 0.16,-0.69 0,-0.18 -0.08,-0.37 -0.08,-0.2 -0.26,-0.36 -0.17,-0.16 -0.45,-0.26 -0.28,-0.11 -0.68,-0.11 z" />
      <path
         id="path6007"
         style="font-style:italic;font-variant:normal;font-weight:normal;font-stretch:normal;font-size:20px;font-family:Lato;-inkscape-font-specification:'Lato Italic';fill:#7c7c7c;fill-opacity:1"
         d="m -110.8725,494.55549 q -0.11,0.21 -0.26,0.31 -0.14,0.1 -0.36,0.1 l -1.31,0 2.2,-4.03 -2.63,-9.53 1.47,0 q 0.22,0 0.32,0.11 0.1,0.1 0.15,0.26 l 1.63,6.38 q 0.05,0.21 0.08,0.42 0.03,0.21 0.05,0.42 0.08,-0.21 0.17,-0.42 0.1,-0.22 0.2,-0.43 l 3.2,-6.39 q 0.08,-0.16 0.22,-0.25 0.15,-0.1 0.3,-0.1 l 1.41,0 -6.84,13.15 z" />
    </g>
  </g>
</svg>
