<?xml version="1.0" encoding="UTF-8" standalone="no"?>
<svg
   xmlns:dc="http://purl.org/dc/elements/1.1/"
   xmlns:cc="http://creativecommons.org/ns#"
   xmlns:rdf="http://www.w3.org/1999/02/22-rdf-syntax-ns#"
   xmlns:svg="http://www.w3.org/2000/svg"
   xmlns="http://www.w3.org/2000/svg"
   version="1.1"
   id="svg2"
   viewBox="0 0 479.91195 328.00134"
   height="328.00134pt"
   width="479.91196pt">
  <metadata
     id="metadata504">
    <rdf:RDF>
      <cc:Work
         rdf:about="">
        <dc:format>image/svg+xml</dc:format>
        <dc:type
           rdf:resource="http://purl.org/dc/dcmitype/StillImage" />
        <dc:title></dc:title>
      </cc:Work>
    </rdf:RDF>
  </metadata>
  <defs
     id="defs502" />
  <g
     transform="translate(-43.049111,-77.468823)"
     id="g4915">
    <g
       class="node"
       id="node1"
       transform="matrix(0.27674778,-0.96094259,0.96094259,0.27674778,455.63284,510.47402)">
      <title
         id="title10">288799116572840229826400393228186816726</title>
      <circle
         style="fill:#fa91f0;stroke:#fa91f0"
         r="14.5"
         id="ellipse12"
         cy="-405.61511"
         cx="14.8101" />
    </g>
    <g
       class="node"
       id="node2"
       transform="matrix(0.27674778,-0.96094259,0.96094259,0.27674778,455.63284,510.47402)">
      <title
         id="title15">328195631542605159717044935356501157328</title>
      <circle
         style="fill:#fa91a7;stroke:#fa91a7"
         r="14.5"
         id="ellipse17"
         cy="-437.4628"
         cx="82.370201" />
    </g>
    <g
       class="edge"
       id="edge1"
       transform="matrix(0.27674778,-0.96094259,0.96094259,0.27674778,455.63284,510.47402)">
      <title
         id="title20">288799116572840229826400393228186816726-&gt;328195631542605159717044935356501157328</title>
      <path
         style="fill:none;stroke:#6d7279"
         id="path22"
         d="m 28.1578,-411.9072 c 10.3637,-4.8854 24.8374,-11.7083 36.223,-17.0754" />
      <polygon
         style="fill:#6d7279;stroke:#6d7279"
         id="polygon24"
         points="65.2738,-427.4688 63.7813,-430.6347 63.7813,-430.6347 69.0502,-431.1838 " />
    </g>
    <g
       class="node"
       id="node3"
       transform="matrix(0.27674778,-0.96094259,0.96094259,0.27674778,455.63284,510.47402)">
      <title
         id="title27">247421096997359509185586096511806622674</title>
      <circle
         style="fill:#b791fa;stroke:#b791fa"
         r="14.5"
         id="ellipse29"
         cy="-374.68829"
         cx="230.856" />
    </g>
    <g
       class="edge"
       id="edge2"
       transform="matrix(0.27674778,-0.96094259,0.96094259,0.27674778,455.63284,510.47402)">
      <title
         id="title32">288799116572840229826400393228186816726-&gt;247421096997359509185586096511806622674</title>
      <path
         style="fill:none;stroke:#7f858e;stroke-dasharray:1, 5"
         id="path34"
         d="m 29.321,-403.5379 c 37.7433,5.4029 139.0239,19.9012 181.914,26.0409" />
      <polygon
         style="fill:#7f858e;stroke:#7f858e"
         id="polygon36"
         points="211.2107,-375.7327 211.7067,-379.1974 211.7067,-379.1974 216.4083,-376.7565 " />
    </g>
    <g
       class="node"
       id="node4"
       transform="matrix(0.27674778,-0.96094259,0.96094259,0.27674778,455.63284,510.47402)">
      <title
         id="title39">188492473068794308163754971150040250344</title>
      <circle
         style="fill:#91d8fa;stroke:#91d8fa"
         r="14.5"
         id="ellipse41"
         cy="-454.73001"
         cx="304.03149" />
    </g>
    <g
       class="edge"
       id="edge3"
       transform="matrix(0.27674778,-0.96094259,0.96094259,0.27674778,455.63284,510.47402)">
      <title
         id="title44">288799116572840229826400393228186816726-&gt;188492473068794308163754971150040250344</title>
      <path
         style="fill:none;stroke:#7a8088"
         id="path46"
         d="m 29.1527,-408.0508 c 47.7015,-8.1005 201.0728,-34.1456 255.4985,-43.3881" />
      <polygon
         style="fill:#7a8088;stroke:#7a8088"
         id="polygon48"
         points="284.966,-449.7172 284.38,-453.1678 284.38,-453.1678 289.6024,-452.2797 " />
    </g>
    <g
       class="node"
       id="node5"
       transform="matrix(0.27674778,-0.96094259,0.96094259,0.27674778,455.63284,510.47402)">
      <title
         id="title51">53320045696887335194993346253191689308</title>
      <circle
         style="fill:#faf491;stroke:#faf491"
         r="14.5"
         id="ellipse53"
         cy="-94.823097"
         cx="376.7673" />
    </g>
    <g
       class="edge"
       id="edge4"
       transform="matrix(0.27674778,-0.96094259,0.96094259,0.27674778,455.63284,510.47402)">
      <title
         id="title56">288799116572840229826400393228186816726-&gt;53320045696887335194993346253191689308</title>
      <path
         style="fill:none;stroke:#b2bac6"
         id="path58"
         d="m 26.0397,-395.973 c 52.6709,45.2255 275.2039,236.302 335.5676,288.1329" />
      <polygon
         style="fill:#b2bac6;stroke:#b2bac6"
         id="polygon60"
         points="360.7351,-106.2824 363.0152,-108.9379 363.0152,-108.9379 365.6687,-104.3529 " />
    </g>
    <g
       class="edge"
       id="edge57"
       transform="matrix(0.27674778,-0.96094259,0.96094259,0.27674778,455.63284,510.47402)">
      <title
         id="title63">288799116572840229826400393228186816726-&gt;53320045696887335194993346253191689308</title>
      <path
         style="fill:none;stroke:#fad591;stroke-width:3;stroke-dasharray:5, 2"
         id="path65"
         d="m 26.0397,-395.973 c 52.6709,45.2255 275.2039,236.302 335.5676,288.1329" />
      <polygon
         style="fill:#fad591;stroke:#fad591;stroke-width:3"
         id="polygon67"
         points="360.7351,-106.2824 363.0152,-108.9379 363.0152,-108.9379 365.6687,-104.3529 " />
    </g>
    <g
       class="node"
       id="node6"
       transform="matrix(0.27674778,-0.96094259,0.96094259,0.27674778,455.63284,510.47402)">
      <title
         id="title70">89632757210598869257822413126404359561</title>
      <circle
         style="fill:#bdfa91;stroke:#bdfa91"
         r="14.5"
         id="ellipse72"
         cy="-78.269402"
         cx="102.3431" />
    </g>
    <g
       class="edge"
       id="edge5"
       transform="matrix(0.27674778,-0.96094259,0.96094259,0.27674778,455.63284,510.47402)">
      <title
         id="title75">288799116572840229826400393228186816726-&gt;89632757210598869257822413126404359561</title>
      <path
         style="fill:none;stroke:#939aa3"
         id="path77"
         d="m 18.5713,-391.5495 c 13.9447,52.1487 62.708,234.5079 78.6708,294.2039" />
      <polygon
         style="fill:#939aa3;stroke:#939aa3"
         id="polygon79"
         points="95.6137,-96.6609 98.9949,-97.5651 98.9949,-97.5651 98.596,-92.2827 " />
    </g>
    <g
       class="edge"
       id="edge58"
       transform="matrix(0.27674778,-0.96094259,0.96094259,0.27674778,455.63284,510.47402)">
      <title
         id="title82">288799116572840229826400393228186816726-&gt;89632757210598869257822413126404359561</title>
      <path
         style="fill:none;stroke:#fad591;stroke-width:3;stroke-dasharray:5, 2"
         id="path84"
         d="m 18.5713,-391.5495 c 13.9447,52.1487 62.708,234.5079 78.6708,294.2039" />
      <polygon
         style="fill:#fad591;stroke:#fad591;stroke-width:3"
         id="polygon86"
         points="95.6137,-96.6609 98.9949,-97.5651 98.9949,-97.5651 98.596,-92.2827 " />
    </g>
    <g
       class="edge"
       id="edge11"
       transform="matrix(0.27674778,-0.96094259,0.96094259,0.27674778,455.63284,510.47402)">
      <title
         id="title89">328195631542605159717044935356501157328-&gt;288799116572840229826400393228186816726</title>
      <path
         style="fill:none;stroke:#6d7279"
         id="path91"
         d="m 69.0225,-431.1707 c -10.3637,4.8854 -24.8374,11.7083 -36.2229,17.0754" />
      <polygon
         style="fill:#6d7279;stroke:#6d7279"
         id="polygon93"
         points="31.9066,-415.6091 33.399,-412.4432 33.399,-412.4432 28.1301,-411.8941 " />
    </g>
    <g
       class="edge"
       id="edge12"
       transform="matrix(0.27674778,-0.96094259,0.96094259,0.27674778,455.63284,510.47402)">
      <title
         id="title96">328195631542605159717044935356501157328-&gt;247421096997359509185586096511806622674</title>
      <path
         style="fill:none;stroke:#777d85"
         id="path98"
         d="m 95.8092,-431.7813 c 26.589,11.2409 85.9578,36.34 116.3449,49.1865" />
      <polygon
         style="fill:#777d85;stroke:#777d85"
         id="polygon100"
         points="211.8381,-380.8284 213.2011,-384.0522 213.2011,-384.0522 217.125,-380.4933 " />
    </g>
    <g
       class="edge"
       id="edge13"
       transform="matrix(0.27674778,-0.96094259,0.96094259,0.27674778,455.63284,510.47402)">
      <title
         id="title103">328195631542605159717044935356501157328-&gt;188492473068794308163754971150040250344</title>
      <path
         style="fill:none;stroke:#888e97;stroke-dasharray:1, 5"
         id="path105"
         d="m 96.914,-438.5957 c 38.5948,-3.0065 143.6423,-11.1896 187.4854,-14.605" />
      <polygon
         style="fill:#888e97;stroke:#888e97"
         id="polygon107"
         points="284.5852,-451.4598 284.3133,-454.9492 284.3133,-454.9492 289.4341,-453.5929 " />
    </g>
    <g
       class="edge"
       id="edge15"
       transform="matrix(0.27674778,-0.96094259,0.96094259,0.27674778,455.63284,510.47402)">
      <title
         id="title110">328195631542605159717044935356501157328-&gt;53320045696887335194993346253191689308</title>
      <path
         style="fill:none;stroke:#acb3bf"
         id="path112"
         d="m 91.8319,-426.4506 c 43.2505,50.3379 222.1658,258.5719 271.9997,316.572" />
      <polygon
         style="fill:#acb3bf;stroke:#acb3bf"
         id="polygon114"
         points="362.607,-108.6185 365.2617,-110.8994 365.2617,-110.8994 367.1929,-105.9665 " />
    </g>
    <g
       class="node"
       id="node8"
       transform="matrix(0.27674778,-0.96094259,0.96094259,0.27674778,455.63284,510.47402)">
      <title
         id="title117">35709442208514154163720557599593798204</title>
      <circle
         style="fill:#fad391;stroke:#fad391"
         r="14.5"
         id="ellipse119"
         cy="-29.4893"
         cx="291.4671" />
    </g>
    <g
       class="edge"
       id="edge14"
       transform="matrix(0.27674778,-0.96094259,0.96094259,0.27674778,455.63284,510.47402)">
      <title
         id="title122">328195631542605159717044935356501157328-&gt;35709442208514154163720557599593798204</title>
      <path
         style="fill:none;stroke:#b1b8c4"
         id="path124"
         d="m 89.0904,-424.3509 c 30.7189,59.9363 157.7943,307.876 193.189,376.9354" />
      <polygon
         style="fill:#b1b8c4;stroke:#b1b8c4"
         id="polygon126"
         points="280.8288,-46.4089 283.9436,-48.0053 283.9436,-48.0053 284.6668,-42.7574 " />
    </g>
    <g
       class="edge"
       id="edge46"
       transform="matrix(0.27674778,-0.96094259,0.96094259,0.27674778,455.63284,510.47402)">
      <title
         id="title129">247421096997359509185586096511806622674-&gt;328195631542605159717044935356501157328</title>
      <path
         style="fill:none;stroke:#777d85"
         id="path131"
         d="m 217.417,-380.3698 c -26.5891,-11.2409 -85.9579,-36.3399 -116.3449,-49.1865" />
      <polygon
         style="fill:#777d85;stroke:#777d85"
         id="polygon133"
         points="101.388,-431.3227 100.0251,-428.0989 100.0251,-428.0989 96.1012,-431.6578 " />
    </g>
    <g
       class="edge"
       id="edge47"
       transform="matrix(0.27674778,-0.96094259,0.96094259,0.27674778,455.63284,510.47402)">
      <title
         id="title136">247421096997359509185586096511806622674-&gt;188492473068794308163754971150040250344</title>
      <path
         style="fill:none;stroke:#70757c"
         id="path138"
         d="m 240.7247,-385.4831 c 12.875,-14.083 35.4557,-38.7824 49.8801,-54.5603" />
      <polygon
         style="fill:#70757c;stroke:#70757c"
         id="polygon140"
         points="292.0032,-438.9795 289.42,-441.3411 289.42,-441.3411 294.0854,-443.8506 " />
    </g>
    <g
       class="node"
       id="node7"
       transform="matrix(0.27674778,-0.96094259,0.96094259,0.27674778,455.63284,510.47402)">
      <title
         id="title143">155097196379112688162682361837491715737</title>
      <circle
         style="fill:#91fade;stroke:#91fade"
         r="14.5"
         id="ellipse145"
         cy="-14.9195"
         cx="139.4976" />
    </g>
    <g
       class="edge"
       id="edge48"
       transform="matrix(0.27674778,-0.96094259,0.96094259,0.27674778,455.63284,510.47402)">
      <title
         id="title148">247421096997359509185586096511806622674-&gt;155097196379112688162682361837491715737</title>
      <path
         style="fill:none;stroke:#a6adb8"
         id="path150"
         d="m 227.2746,-360.5849 c -14.1828,55.8519 -66.4354,261.6222 -82.8255,326.1664" />
      <polygon
         style="fill:#a6adb8;stroke:#a6adb8"
         id="polygon152"
         points="142.688,-34.5932 146.0803,-33.7317 146.0803,-33.7317 143.1534,-29.3163 " />
    </g>
    <g
       class="node"
       id="node9"
       transform="matrix(0.27674778,-0.96094259,0.96094259,0.27674778,455.63284,510.47402)">
      <title
         id="title155">47135923841202478204396209542284742446</title>
      <circle
         style="fill:#fae891;stroke:#fae891"
         r="14.5"
         id="ellipse157"
         cy="-57.823101"
         cx="354.29291" />
    </g>
    <g
       class="edge"
       id="edge49"
       transform="matrix(0.27674778,-0.96094259,0.96094259,0.27674778,455.63284,510.47402)">
      <title
         id="title160">247421096997359509185586096511806622674-&gt;47135923841202478204396209542284742446</title>
      <path
         style="fill:none;stroke:#9399a3"
         id="path162"
         d="m 236.1599,-361.073 c 19.6645,50.4791 88.4292,226.9998 110.9396,284.7845" />
      <polygon
         style="fill:#9399a3;stroke:#9399a3"
         id="polygon164"
         points="345.5631,-75.4114 348.8243,-76.6819 348.8243,-76.6819 349.0087,-71.3877 " />
    </g>
    <g
       class="edge"
       id="edge24"
       transform="matrix(0.27674778,-0.96094259,0.96094259,0.27674778,455.63284,510.47402)">
      <title
         id="title167">188492473068794308163754971150040250344-&gt;288799116572840229826400393228186816726</title>
      <path
         style="fill:none;stroke:#7a8088"
         id="path169"
         d="m 289.689,-452.2944 c -47.7016,8.1006 -201.0728,34.1457 -255.4985,43.3881" />
      <polygon
         style="fill:#7a8088;stroke:#7a8088"
         id="polygon171"
         points="33.8757,-410.6279 34.4617,-407.1773 34.4617,-407.1773 29.2392,-408.0655 " />
    </g>
    <g
       class="edge"
       id="edge25"
       transform="matrix(0.27674778,-0.96094259,0.96094259,0.27674778,455.63284,510.47402)">
      <title
         id="title174">188492473068794308163754971150040250344-&gt;328195631542605159717044935356501157328</title>
      <path
         style="fill:none;stroke:#888e97;stroke-dasharray:1, 5"
         id="path176"
         d="m 289.4877,-453.5971 c -38.5948,3.0065 -143.6423,11.1896 -187.4854,14.605" />
      <polygon
         style="fill:#888e97;stroke:#888e97"
         id="polygon178"
         points="101.8165,-440.733 102.0884,-437.2436 102.0884,-437.2436 96.9676,-438.5999 " />
    </g>
    <g
       class="edge"
       id="edge23"
       transform="matrix(0.27674778,-0.96094259,0.96094259,0.27674778,455.63284,510.47402)">
      <title
         id="title181">188492473068794308163754971150040250344-&gt;247421096997359509185586096511806622674</title>
      <path
         style="fill:none;stroke:#70757c"
         id="path183"
         d="m 294.1627,-443.9352 c -12.8749,14.083 -35.4556,38.7825 -49.88,54.5603" />
      <polygon
         style="fill:#70757c;stroke:#70757c"
         id="polygon185"
         points="242.8842,-390.4388 245.4674,-388.0772 245.4674,-388.0772 240.8021,-385.5677 " />
    </g>
    <g
       class="edge"
       id="edge26"
       transform="matrix(0.27674778,-0.96094259,0.96094259,0.27674778,455.63284,510.47402)">
      <title
         id="title188">188492473068794308163754971150040250344-&gt;155097196379112688162682361837491715737</title>
      <path
         style="fill:none;stroke:#b5bdc9"
         id="path190"
         d="M 298.9269,-441.0851 C 275.0374,-377.2268 174.2754,-107.883 146.572,-33.8299" />
      <polygon
         style="fill:#b5bdc9;stroke:#b5bdc9"
         id="polygon192"
         points="144.8186,-34.1373 148.0967,-32.9109 148.0967,-32.9109 144.7057,-28.8411 " />
    </g>
    <g
       class="edge"
       id="edge27"
       transform="matrix(0.27674778,-0.96094259,0.96094259,0.27674778,455.63284,510.47402)">
      <title
         id="title195">188492473068794308163754971150040250344-&gt;35709442208514154163720557599593798204</title>
      <path
         style="fill:none;stroke:#9298a2"
         id="path197"
         d="m 303.599,-440.0923 c -1.8841,63.7663 -9.3776,317.3816 -11.5431,390.6724" />
      <polygon
         style="fill:#9298a2;stroke:#9298a2"
         id="polygon199"
         points="290.2963,-49.115 293.7947,-49.0116 293.7947,-49.0116 291.8977,-44.0655 " />
    </g>
    <g
       class="edge"
       id="edge21"
       transform="matrix(0.27674778,-0.96094259,0.96094259,0.27674778,455.63284,510.47402)">
      <title
         id="title202">53320045696887335194993346253191689308-&gt;247421096997359509185586096511806622674</title>
      <path
         style="fill:none;stroke:#9097a0"
         id="path204"
         d="M 369.9254,-107.9462 C 346.1824,-153.4864 267.3139,-304.7601 240.1471,-356.8674" />
      <polygon
         style="fill:#9097a0;stroke:#9097a0"
         id="polygon206"
         points="241.5464,-357.969 238.4429,-356.3509 238.4429,-356.3509 237.6831,-361.5936 " />
    </g>
    <g
       class="edge"
       id="edge22"
       transform="matrix(0.27674778,-0.96094259,0.96094259,0.27674778,455.63284,510.47402)">
      <title
         id="title209">53320045696887335194993346253191689308-&gt;188492473068794308163754971150040250344</title>
      <path
         style="fill:none;stroke:#979ea8"
         id="path211"
         d="M 373.8259,-109.3777 C 362.3998,-165.9154 320.9532,-370.999 307.9571,-435.3054" />
      <polygon
         style="fill:#979ea8;stroke:#979ea8"
         id="polygon213"
         points="309.6357,-435.8344 306.2051,-435.1411 306.2051,-435.1411 306.9298,-440.3887 " />
    </g>
    <g
       class="edge"
       id="edge19"
       transform="matrix(0.27674778,-0.96094259,0.96094259,0.27674778,455.63284,510.47402)">
      <title
         id="title216">53320045696887335194993346253191689308-&gt;89632757210598869257822413126404359561</title>
      <path
         style="fill:none;stroke:#828891"
         id="path218"
         d="m 362.4121,-92.0093 c -13.3266,2.4829 -33.748,5.9593 -51.654,7.6316 -69.0483,6.4484 -151.4705,6.6663 -188.5807,6.3676" />
      <polygon
         style="fill:#828891;stroke:#828891"
         id="polygon220"
         points="122.0538,-79.7612 122.0216,-76.2614 122.0216,-76.2614 117.0379,-78.0573 " />
    </g>
    <g
       class="edge"
       id="edge20"
       transform="matrix(0.27674778,-0.96094259,0.96094259,0.27674778,455.63284,510.47402)">
      <title
         id="title223">53320045696887335194993346253191689308-&gt;155097196379112688162682361837491715737</title>
      <path
         style="fill:none;stroke:#7d838b"
         id="path225"
         d="M 362.9851,-90.1818 C 322.6057,-76.5835 204.5213,-36.817 158.3295,-21.2614" />
      <polygon
         style="fill:#7d838b;stroke:#7d838b"
         id="polygon227"
         points="157.4978,-22.8279 158.6149,-19.5109 158.6149,-19.5109 153.3178,-19.5736 " />
    </g>
    <g
       class="edge"
       id="edge18"
       transform="matrix(0.27674778,-0.96094259,0.96094259,0.27674778,455.63284,510.47402)">
      <title
         id="title230">53320045696887335194993346253191689308-&gt;35709442208514154163720557599593798204</title>
      <path
         style="fill:none;stroke:#6e737a"
         id="path232"
         d="m 365.1351,-86.0619 c -6.5531,4.9464 -14.8816,11.2508 -22.2713,16.8992 -11.911,9.1042 -25.3184,19.457 -35.4523,27.3036" />
      <polygon
         style="fill:#6e737a;stroke:#6e737a"
         id="polygon234"
         points="306.1637,-43.1062 308.3071,-40.3393 308.3071,-40.3393 303.2826,-38.6607 " />
    </g>
    <g
       class="edge"
       id="edge62"
       transform="matrix(0.27674778,-0.96094259,0.96094259,0.27674778,455.63284,510.47402)">
      <title
         id="title237">53320045696887335194993346253191689308-&gt;35709442208514154163720557599593798204</title>
      <path
         style="fill:none;stroke:#fad591;stroke-width:3;stroke-dasharray:5, 2"
         id="path239"
         d="m 365.1351,-86.0619 c -6.5531,4.9464 -14.8816,11.2508 -22.2713,16.8992 -11.911,9.1042 -25.3184,19.457 -35.4523,27.3036" />
      <polygon
         style="fill:#fad591;stroke:#fad591;stroke-width:3"
         id="polygon241"
         points="306.1637,-43.1062 308.3071,-40.3393 308.3071,-40.3393 303.2826,-38.6607 " />
    </g>
    <g
       class="edge"
       id="edge16"
       transform="matrix(0.27674778,-0.96094259,0.96094259,0.27674778,455.63284,510.47402)">
      <title
         id="title244">53320045696887335194993346253191689308-&gt;47135923841202478204396209542284742446</title>
      <path
         style="fill:none;stroke:#60646b"
         id="path246"
         d="m 369.1585,-82.2966 c -1.4645,2.4109 -3.021,4.9735 -4.5544,7.498" />
      <polygon
         style="fill:#60646b;stroke:#60646b"
         id="polygon248"
         points="362.9939,-75.5187 365.9853,-73.7016 365.9853,-73.7016 361.8938,-70.3367 " />
    </g>
    <g
       class="node"
       id="node10"
       transform="matrix(0.27674778,-0.96094259,0.96094259,0.27674778,455.63284,510.47402)">
      <title
         id="title251">83129301885096701538872373026313946467</title>
      <circle
         style="fill:#c9fa91;stroke:#c9fa91"
         r="14.5"
         id="ellipse253"
         cy="-100.4771"
         cx="310.61331" />
    </g>
    <g
       class="edge"
       id="edge17"
       transform="matrix(0.27674778,-0.96094259,0.96094259,0.27674778,455.63284,510.47402)">
      <title
         id="title256">53320045696887335194993346253191689308-&gt;83129301885096701538872373026313946467</title>
      <path
         style="fill:none;stroke:#64686f"
         id="path258"
         d="m 362.0856,-96.0779 c -9.3356,-0.7979 -21.5376,-1.8408 -31.7181,-2.7108" />
      <polygon
         style="fill:#64686f;stroke:#64686f"
         id="polygon260"
         points="330.3849,-100.5436 330.0868,-97.0563 330.0868,-97.0563 325.254,-99.2258 " />
    </g>
    <g
       class="edge"
       id="edge61"
       transform="matrix(0.27674778,-0.96094259,0.96094259,0.27674778,455.63284,510.47402)">
      <title
         id="title263">53320045696887335194993346253191689308-&gt;83129301885096701538872373026313946467</title>
      <path
         style="fill:none;stroke:#fad591;stroke-width:3;stroke-dasharray:5, 2"
         id="path265"
         d="m 362.0856,-96.0779 c -9.3356,-0.7979 -21.5376,-1.8408 -31.7181,-2.7108" />
      <polygon
         style="fill:#fad591;stroke:#fad591;stroke-width:3"
         id="polygon267"
         points="330.3849,-100.5436 330.0868,-97.0563 330.0868,-97.0563 325.254,-99.2258 " />
    </g>
    <g
       class="edge"
       id="edge10"
       transform="matrix(0.27674778,-0.96094259,0.96094259,0.27674778,455.63284,510.47402)">
      <title
         id="title270">89632757210598869257822413126404359561-&gt;328195631542605159717044935356501157328</title>
      <path
         style="fill:none;stroke:#9da4ae"
         id="path272"
         d="M 101.5354,-92.7951 C 98.405,-149.0931 87.0683,-352.9724 83.4725,-417.639" />
      <polygon
         style="fill:#9da4ae;stroke:#9da4ae"
         id="polygon274"
         points="85.213,-417.8613 81.7184,-417.6669 81.7184,-417.6669 83.188,-422.7564 " />
    </g>
    <g
       class="edge"
       id="edge9"
       transform="matrix(0.27674778,-0.96094259,0.96094259,0.27674778,455.63284,510.47402)">
      <title
         id="title277">89632757210598869257822413126404359561-&gt;188492473068794308163754971150040250344</title>
      <path
         style="fill:none;stroke:#a6adb8"
         id="path279"
         d="m 109.2857,-91.2281 c 30.2439,-56.4515 150.5316,-280.9741 185.2929,-345.8576" />
      <polygon
         style="fill:#a6adb8;stroke:#a6adb8"
         id="polygon281"
         points="296.2994,-436.5921 293.2143,-438.245 293.2143,-438.245 297.1181,-441.8259 " />
    </g>
    <g
       class="edge"
       id="edge8"
       transform="matrix(0.27674778,-0.96094259,0.96094259,0.27674778,455.63284,510.47402)">
      <title
         id="title284">89632757210598869257822413126404359561-&gt;53320045696887335194993346253191689308</title>
      <path
         style="fill:none;stroke:#828891"
         id="path286"
         d="m 117.0379,-78.0573 c 34.1102,0.3522 121.2761,0.4452 193.7202,-6.3204 15.8076,-1.4763 33.5757,-4.3587 46.6921,-6.7223" />
      <polygon
         style="fill:#828891;stroke:#828891"
         id="polygon288"
         points="357.8095,-89.3866 357.1786,-92.8293 357.1786,-92.8293 362.4121,-92.0093 " />
    </g>
    <g
       class="edge"
       id="edge60"
       transform="matrix(0.27674778,-0.96094259,0.96094259,0.27674778,455.63284,510.47402)">
      <title
         id="title291">89632757210598869257822413126404359561-&gt;53320045696887335194993346253191689308</title>
      <path
         style="fill:none;stroke:#fad591;stroke-width:3;stroke-dasharray:5, 2"
         id="path293"
         d="m 117.0379,-78.0573 c 34.1102,0.3522 121.2761,0.4452 193.7202,-6.3204 15.8076,-1.4763 33.5757,-4.3587 46.6921,-6.7223" />
      <polygon
         style="fill:#fad591;stroke:#fad591;stroke-width:3"
         id="polygon295"
         points="357.8095,-89.3866 357.1786,-92.8293 357.1786,-92.8293 362.4121,-92.0093 " />
    </g>
    <g
       class="edge"
       id="edge6"
       transform="matrix(0.27674778,-0.96094259,0.96094259,0.27674778,455.63284,510.47402)">
      <title
         id="title298">89632757210598869257822413126404359561-&gt;155097196379112688162682361837491715737</title>
      <path
         style="fill:none;stroke:#70757c"
         id="path300"
         d="m 109.6836,-65.7535 c 5.6255,9.5916 13.4529,22.9377 19.6759,33.5482" />
      <polygon
         style="fill:#70757c;stroke:#70757c"
         id="polygon302"
         points="127.8781,-31.2719 130.8972,-33.0426 130.8972,-33.0426 131.9172,-27.8443 " />
    </g>
    <g
       class="edge"
       id="edge7"
       transform="matrix(0.27674778,-0.96094259,0.96094259,0.27674778,455.63284,510.47402)">
      <title
         id="title305">89632757210598869257822413126404359561-&gt;35709442208514154163720557599593798204</title>
      <path
         style="fill:none;stroke:#7c818a"
         id="path307"
         d="m 116.5582,-74.603 c 33.4878,8.6374 117.3769,30.2747 155.5049,40.1089" />
      <polygon
         style="fill:#7c818a;stroke:#7c818a"
         id="polygon309"
         points="272.0664,-32.686 272.9406,-36.0751 272.9406,-36.0751 277.3451,-33.1317 " />
    </g>
    <g
       class="edge"
       id="edge59"
       transform="matrix(0.27674778,-0.96094259,0.96094259,0.27674778,455.63284,510.47402)">
      <title
         id="title312">89632757210598869257822413126404359561-&gt;35709442208514154163720557599593798204</title>
      <path
         style="fill:none;stroke:#fad591;stroke-width:3;stroke-dasharray:5, 2"
         id="path314"
         d="m 116.5582,-74.603 c 33.4878,8.6374 117.3769,30.2747 155.5049,40.1089" />
      <polygon
         style="fill:#fad591;stroke:#fad591;stroke-width:3"
         id="polygon316"
         points="272.0664,-32.686 272.9406,-36.0751 272.9406,-36.0751 277.3451,-33.1317 " />
    </g>
    <g
       class="edge"
       id="edge37"
       transform="matrix(0.27674778,-0.96094259,0.96094259,0.27674778,455.63284,510.47402)">
      <title
         id="title319">155097196379112688162682361837491715737-&gt;328195631542605159717044935356501157328</title>
      <path
         style="fill:none;stroke:#8b919a"
         id="path321"
         d="M 137.5311,-29.4644 C 128.9647,-92.8262 94.8937,-344.8327 85.0477,-417.6586" />
      <polygon
         style="fill:#8b919a;stroke:#8b919a"
         id="polygon323"
         points="86.7326,-418.2586 83.2642,-417.7897 83.2642,-417.7897 84.3284,-422.9791 " />
    </g>
    <g
       class="edge"
       id="edge38"
       transform="matrix(0.27674778,-0.96094259,0.96094259,0.27674778,455.63284,510.47402)">
      <title
         id="title326">155097196379112688162682361837491715737-&gt;247421096997359509185586096511806622674</title>
      <path
         style="fill:none;stroke:#a6adb8"
         id="path328"
         d="m 143.0789,-29.0228 c 14.1829,-55.852 66.4354,-261.6222 82.8256,-326.1665" />
      <polygon
         style="fill:#a6adb8;stroke:#a6adb8"
         id="polygon330"
         points="227.6656,-355.0145 224.2732,-355.876 224.2732,-355.876 227.2001,-360.2915 " />
    </g>
    <g
       class="edge"
       id="edge34"
       transform="matrix(0.27674778,-0.96094259,0.96094259,0.27674778,455.63284,510.47402)">
      <title
         id="title333">155097196379112688162682361837491715737-&gt;89632757210598869257822413126404359561</title>
      <path
         style="fill:none;stroke:#70757c"
         id="path335"
         d="m 132.157,-27.4354 c -5.6254,-9.5916 -13.4528,-22.9377 -19.6758,-33.5482" />
      <polygon
         style="fill:#70757c;stroke:#70757c"
         id="polygon337"
         points="113.9626,-61.917 110.9435,-60.1463 110.9435,-60.1463 109.9235,-65.3446 " />
    </g>
    <g
       class="edge"
       id="edge35"
       transform="matrix(0.27674778,-0.96094259,0.96094259,0.27674778,455.63284,510.47402)">
      <title
         id="title340">155097196379112688162682361837491715737-&gt;47135923841202478204396209542284742446</title>
      <path
         style="fill:none;stroke:#7b8189"
         id="path342"
         d="m 153.7289,-17.829 c 26.8829,-5.4882 86.9813,-17.7197 137.6425,-27.76 14.5185,-2.8773 30.9346,-6.0671 43.358,-8.468" />
      <polygon
         style="fill:#7b8189;stroke:#7b8189"
         id="polygon344"
         points="335.2145,-52.3683 334.5509,-55.8048 334.5509,-55.8048 339.792,-55.0345 " />
    </g>
    <g
       class="edge"
       id="edge36"
       transform="matrix(0.27674778,-0.96094259,0.96094259,0.27674778,455.63284,510.47402)">
      <title
         id="title347">155097196379112688162682361837491715737-&gt;83129301885096701538872373026313946467</title>
      <path
         style="fill:none;stroke:#767c84"
         id="path349"
         d="m 152.6406,-21.491 c 30.284,-15.1419 105.0297,-52.5147 139.7298,-69.8647" />
      <polygon
         style="fill:#767c84;stroke:#767c84"
         id="polygon351"
         points="293.5,-89.9638 291.9347,-93.0943 291.9347,-93.0943 297.1895,-93.7652 " />
    </g>
    <g
       class="edge"
       id="edge33"
       transform="matrix(0.27674778,-0.96094259,0.96094259,0.27674778,455.63284,510.47402)">
      <title
         id="title354">35709442208514154163720557599593798204-&gt;247421096997359509185586096511806622674</title>
      <path
         style="fill:none;stroke:#969ca6"
         id="path356"
         d="m 288.9398,-43.8826 c -9.5884,-54.6091 -43.7299,-249.0557 -54.6785,-311.4113" />
      <polygon
         style="fill:#969ca6;stroke:#969ca6"
         id="polygon358"
         points="235.9824,-355.6116 232.5351,-355.0062 232.5351,-355.0062 233.394,-360.2336 " />
    </g>
    <g
       class="edge"
       id="edge32"
       transform="matrix(0.27674778,-0.96094259,0.96094259,0.27674778,455.63284,510.47402)">
      <title
         id="title361">35709442208514154163720557599593798204-&gt;188492473068794308163754971150040250344</title>
      <path
         style="fill:none;stroke:#9298a2"
         id="path363"
         d="m 291.8996,-44.127 c 1.884,-63.7663 9.3775,-317.3815 11.543,-390.6724" />
      <polygon
         style="fill:#9298a2;stroke:#9298a2"
         id="polygon365"
         points="305.2023,-435.1043 301.7038,-435.2077 301.7038,-435.2077 303.6008,-440.1538 " />
    </g>
    <g
       class="edge"
       id="edge30"
       transform="matrix(0.27674778,-0.96094259,0.96094259,0.27674778,455.63284,510.47402)">
      <title
         id="title368">35709442208514154163720557599593798204-&gt;89632757210598869257822413126404359561</title>
      <path
         style="fill:none;stroke:#7c818a"
         id="path370"
         d="M 277.252,-33.1557 C 243.7642,-41.7932 159.8751,-63.4304 121.7471,-73.2646" />
      <polygon
         style="fill:#7c818a;stroke:#7c818a"
         id="polygon372"
         points="121.7438,-75.0727 120.8696,-71.6836 120.8696,-71.6836 116.4651,-74.627 " />
    </g>
    <g
       class="edge"
       id="edge31"
       transform="matrix(0.27674778,-0.96094259,0.96094259,0.27674778,455.63284,510.47402)">
      <title
         id="title375">35709442208514154163720557599593798204-&gt;155097196379112688162682361837491715737</title>
      <path
         style="fill:none;stroke:#838992"
         id="path377"
         d="m 276.8956,-28.0923 c -27.3888,2.6259 -86.5738,8.3001 -117.5637,11.2713" />
      <polygon
         style="fill:#838992;stroke:#838992"
         id="polygon379"
         points="159.0583,-18.5529 159.3924,-15.0689 159.3924,-15.0689 154.2482,-16.3337 " />
    </g>
    <g
       class="edge"
       id="edge28"
       transform="matrix(0.27674778,-0.96094259,0.96094259,0.27674778,455.63284,510.47402)">
      <title
         id="title382">35709442208514154163720557599593798204-&gt;47135923841202478204396209542284742446</title>
      <path
         style="fill:none;stroke:#70757d"
         id="path384"
         d="m 304.7908,-35.4982 c 9.1624,-4.1321 21.4395,-9.669 31.4747,-14.1948" />
      <polygon
         style="fill:#70757d;stroke:#70757d"
         id="polygon386"
         points="337.1499,-48.172 335.7109,-51.3626 335.7109,-51.3626 340.9883,-51.8229 " />
    </g>
    <g
       class="edge"
       id="edge29"
       transform="matrix(0.27674778,-0.96094259,0.96094259,0.27674778,455.63284,510.47402)">
      <title
         id="title389">35709442208514154163720557599593798204-&gt;83129301885096701538872373026313946467</title>
      <path
         style="fill:none;stroke:#696d74"
         id="path391"
         d="m 295.2497,-43.5142 c 2.8989,-10.7481 6.9325,-25.7032 10.1393,-37.593" />
      <polygon
         style="fill:#696d74;stroke:#696d74"
         id="polygon393"
         points="307.0946,-80.7107 303.7153,-81.6222 303.7153,-81.6222 306.707,-85.9939 " />
    </g>
    <g
       class="edge"
       id="edge56"
       transform="matrix(0.27674778,-0.96094259,0.96094259,0.27674778,455.63284,510.47402)">
      <title
         id="title396">47135923841202478204396209542284742446-&gt;247421096997359509185586096511806622674</title>
      <path
         style="fill:none;stroke:#9399a3"
         id="path398"
         d="M 348.9889,-71.4384 C 329.3245,-121.9175 260.5597,-298.4382 238.0493,-356.2229" />
      <polygon
         style="fill:#9399a3;stroke:#9399a3"
         id="polygon400"
         points="239.5858,-357.1 236.3245,-355.8295 236.3245,-355.8295 236.1401,-361.1237 " />
    </g>
    <g
       class="edge"
       id="edge55"
       transform="matrix(0.27674778,-0.96094259,0.96094259,0.27674778,455.63284,510.47402)">
      <title
         id="title403">47135923841202478204396209542284742446-&gt;188492473068794308163754971150040250344</title>
      <path
         style="fill:none;stroke:#9aa1ac"
         id="path405"
         d="m 352.4444,-72.42 c -7.6811,-60.6565 -37.0871,-292.8718 -45.9014,-362.4773" />
      <polygon
         style="fill:#9aa1ac;stroke:#9aa1ac"
         id="polygon407"
         points="308.2611,-435.2599 304.7889,-434.8202 304.7889,-434.8202 305.8968,-440.0004 " />
    </g>
    <g
       class="edge"
       id="edge50"
       transform="matrix(0.27674778,-0.96094259,0.96094259,0.27674778,455.63284,510.47402)">
      <title
         id="title410">47135923841202478204396209542284742446-&gt;53320045696887335194993346253191689308</title>
      <path
         style="fill:none;stroke:#60646b"
         id="path412"
         d="m 361.9017,-70.3496 c 1.4644,-2.411 3.021,-4.9736 4.5544,-7.498" />
      <polygon
         style="fill:#60646b;stroke:#60646b"
         id="polygon414"
         points="368.0662,-77.1276 365.0748,-78.9446 365.0748,-78.9446 369.1663,-82.3095 " />
    </g>
    <g
       class="edge"
       id="edge53"
       transform="matrix(0.27674778,-0.96094259,0.96094259,0.27674778,455.63284,510.47402)">
      <title
         id="title417">47135923841202478204396209542284742446-&gt;89632757210598869257822413126404359561</title>
      <path
         style="fill:none;stroke:#7e848c"
         id="path419"
         d="m 339.658,-59.0108 c -42.9647,-3.4867 -168.7771,-13.6966 -217.6153,-17.66" />
      <polygon
         style="fill:#7e848c;stroke:#7e848c"
         id="polygon421"
         points="122.1436,-78.4183 121.8605,-74.9297 121.8605,-74.9297 117.0184,-77.0785 " />
    </g>
    <g
       class="edge"
       id="edge54"
       transform="matrix(0.27674778,-0.96094259,0.96094259,0.27674778,455.63284,510.47402)">
      <title
         id="title424">47135923841202478204396209542284742446-&gt;155097196379112688162682361837491715737</title>
      <path
         style="fill:none;stroke:#7b8189"
         id="path426"
         d="m 339.792,-55.0345 c -12.7569,2.4607 -31.8281,6.1571 -48.4206,9.4455 -47.6927,9.452 -103.7492,20.8459 -132.5835,26.7276" />
      <polygon
         style="fill:#7b8189;stroke:#7b8189"
         id="polygon428"
         points="158.278,-20.5435 158.9778,-17.1142 158.9778,-17.1142 153.7289,-17.829 " />
    </g>
    <g
       class="edge"
       id="edge52"
       transform="matrix(0.27674778,-0.96094259,0.96094259,0.27674778,455.63284,510.47402)">
      <title
         id="title431">47135923841202478204396209542284742446-&gt;35709442208514154163720557599593798204</title>
      <path
         style="fill:none;stroke:#70757d"
         id="path433"
         d="m 340.9691,-51.8143 c -9.1624,4.1322 -21.4395,9.6691 -31.4747,14.1948" />
      <polygon
         style="fill:#70757d;stroke:#70757d"
         id="polygon435"
         points="308.61,-39.1404 310.049,-35.9499 310.049,-35.9499 304.7716,-35.4895 " />
    </g>
    <g
       class="edge"
       id="edge51"
       transform="matrix(0.27674778,-0.96094259,0.96094259,0.27674778,455.63284,510.47402)">
      <title
         id="title438">47135923841202478204396209542284742446-&gt;83129301885096701538872373026313946467</title>
      <path
         style="fill:none;stroke:#676b72"
         id="path440"
         d="m 343.7193,-68.1485 c -5.6872,-5.5536 -12.7779,-12.4778 -18.9365,-18.4918" />
      <polygon
         style="fill:#676b72;stroke:#676b72"
         id="polygon442"
         points="325.8895,-88.0056 323.4442,-85.5014 323.4442,-85.5014 321.0895,-90.2468 " />
    </g>
    <g
       class="edge"
       id="edge44"
       transform="matrix(0.27674778,-0.96094259,0.96094259,0.27674778,455.63284,510.47402)">
      <title
         id="title445">83129301885096701538872373026313946467-&gt;328195631542605159717044935356501157328</title>
      <path
         style="fill:none;stroke:#a4abb6"
         id="path447"
         d="M 302.2193,-112.8702 C 267.2601,-164.4852 133.2014,-362.4139 93.5067,-421.0206" />
      <polygon
         style="fill:#a4abb6;stroke:#a4abb6"
         id="polygon449"
         points="94.8527,-422.1539 91.9548,-420.1911 91.9548,-420.1911 90.5998,-425.3123 " />
    </g>
    <g
       class="edge"
       id="edge45"
       transform="matrix(0.27674778,-0.96094259,0.96094259,0.27674778,455.63284,510.47402)">
      <title
         id="title452">83129301885096701538872373026313946467-&gt;188492473068794308163754971150040250344</title>
      <path
         style="fill:none;stroke:#9ca3ad"
         id="path454"
         d="m 310.3389,-115.2479 c -1.0412,-56.0413 -4.7487,-255.588 -5.9376,-319.579" />
      <polygon
         style="fill:#9ca3ad;stroke:#9ca3ad"
         id="polygon456"
         points="306.1498,-434.9296 302.6504,-434.8645 302.6504,-434.8645 304.3071,-439.8962 " />
    </g>
    <g
       class="edge"
       id="edge39"
       transform="matrix(0.27674778,-0.96094259,0.96094259,0.27674778,455.63284,510.47402)">
      <title
         id="title459">83129301885096701538872373026313946467-&gt;53320045696887335194993346253191689308</title>
      <path
         style="fill:none;stroke:#64686f"
         id="path461"
         d="m 325.295,-99.2223 c 9.3356,0.7979 21.5376,1.8408 31.7181,2.7108" />
      <polygon
         style="fill:#64686f;stroke:#64686f"
         id="polygon463"
         points="356.9957,-94.7566 357.2938,-98.2439 357.2938,-98.2439 362.1266,-96.0744 " />
    </g>
    <g
       class="edge"
       id="edge42"
       transform="matrix(0.27674778,-0.96094259,0.96094259,0.27674778,455.63284,510.47402)">
      <title
         id="title466">83129301885096701538872373026313946467-&gt;89632757210598869257822413126404359561</title>
      <path
         style="fill:none;stroke:#898f98"
         id="path468"
         d="m 295.9682,-98.9155 c -36.6718,3.9103 -132.4712,14.1253 -173.9773,18.551" />
      <polygon
         style="fill:#898f98;stroke:#898f98"
         id="polygon470"
         points="121.7583,-82.0997 122.1295,-78.6194 122.1295,-78.6194 116.9721,-79.8293 " />
    </g>
    <g
       class="edge"
       id="edge43"
       transform="matrix(0.27674778,-0.96094259,0.96094259,0.27674778,455.63284,510.47402)">
      <title
         id="title473">83129301885096701538872373026313946467-&gt;155097196379112688162682361837491715737</title>
      <path
         style="fill:none;stroke:#767c84"
         id="path475"
         d="m 297.4703,-93.9056 c -30.284,15.142 -105.0298,52.5147 -139.7299,69.8647" />
      <polygon
         style="fill:#767c84;stroke:#767c84"
         id="polygon477"
         points="156.6109,-25.4327 158.1762,-22.3022 158.1762,-22.3022 152.9214,-21.6313 " />
    </g>
    <g
       class="edge"
       id="edge41"
       transform="matrix(0.27674778,-0.96094259,0.96094259,0.27674778,455.63284,510.47402)">
      <title
         id="title480">83129301885096701538872373026313946467-&gt;35709442208514154163720557599593798204</title>
      <path
         style="fill:none;stroke:#696d74"
         id="path482"
         d="m 306.8306,-86.4522 c -2.8988,10.7481 -6.9324,25.7033 -10.1393,37.593" />
      <polygon
         style="fill:#696d74;stroke:#696d74"
         id="polygon484"
         points="294.9858,-49.2557 298.3651,-48.3442 298.3651,-48.3442 295.3733,-43.9724 " />
    </g>
    <g
       class="edge"
       id="edge63"
       transform="matrix(0.27674778,-0.96094259,0.96094259,0.27674778,455.63284,510.47402)">
      <title
         id="title487">83129301885096701538872373026313946467-&gt;35709442208514154163720557599593798204</title>
      <path
         style="fill:none;stroke:#fad591;stroke-width:3;stroke-dasharray:5, 2"
         id="path489"
         d="m 306.8306,-86.4522 c -2.8988,10.7481 -6.9324,25.7033 -10.1393,37.593" />
      <polygon
         style="fill:#fad591;stroke:#fad591;stroke-width:3"
         id="polygon491"
         points="294.9858,-49.2557 298.3651,-48.3442 298.3651,-48.3442 295.3733,-43.9724 " />
    </g>
    <g
       class="edge"
       id="edge40"
       transform="matrix(0.27674778,-0.96094259,0.96094259,0.27674778,455.63284,510.47402)">
      <title
         id="title494">83129301885096701538872373026313946467-&gt;47135923841202478204396209542284742446</title>
      <path
         style="fill:none;stroke:#676b72"
         id="path496"
         d="m 321.1869,-90.1517 c 5.6872,5.5536 12.7779,12.4778 18.9365,18.4918" />
      <polygon
         style="fill:#676b72;stroke:#676b72"
         id="polygon498"
         points="339.0167,-70.2946 341.462,-72.7987 341.462,-72.7987 343.8166,-68.0534 " />
    </g>
  </g>
</svg>
