<?xml version="1.0" encoding="UTF-8" standalone="no"?>
<!-- Created with Inkscape (http://www.inkscape.org/) -->

<svg
   xmlns:dc="http://purl.org/dc/elements/1.1/"
   xmlns:cc="http://creativecommons.org/ns#"
   xmlns:rdf="http://www.w3.org/1999/02/22-rdf-syntax-ns#"
   xmlns:svg="http://www.w3.org/2000/svg"
   xmlns="http://www.w3.org/2000/svg"
   xmlns:sodipodi="http://sodipodi.sourceforge.net/DTD/sodipodi-0.dtd"
   xmlns:inkscape="http://www.inkscape.org/namespaces/inkscape"
   width="1000mm"
   height="237.00359mm"
   viewBox="0 0 354.33073 83.977645"
   id="svg2"
   version="1.1"
   inkscape:version="0.91 r13725"
   sodipodi:docname="erlangen-intro-mailbox.svg">
  <defs
     id="defs4">
    <marker
       inkscape:stockid="Arrow2Lend"
       orient="auto"
       refY="0"
       refX="0"
       id="marker5286"
       style="overflow:visible"
       inkscape:isstock="true">
      <path
         id="path5288"
         style="fill:#000000;fill-opacity:1;fill-rule:evenodd;stroke:#000000;stroke-width:0.625;stroke-linejoin:round;stroke-opacity:1"
         d="M 8.7185878,4.0337352 -2.2072895,0.01601326 8.7185884,-4.0017078 c -1.7454984,2.3720609 -1.7354408,5.6174519 -6e-7,8.035443 z"
         transform="matrix(-1.1,0,0,-1.1,-1.1,0)"
         inkscape:connector-curvature="0" />
    </marker>
    <marker
       inkscape:isstock="true"
       style="overflow:visible"
       id="marker5272"
       refX="0"
       refY="0"
       orient="auto"
       inkscape:stockid="Arrow2Lend">
      <path
         transform="matrix(-1.1,0,0,-1.1,-1.1,0)"
         d="M 8.7185878,4.0337352 -2.2072895,0.01601326 8.7185884,-4.0017078 c -1.7454984,2.3720609 -1.7354408,5.6174519 -6e-7,8.035443 z"
         style="fill:#000000;fill-opacity:1;fill-rule:evenodd;stroke:#000000;stroke-width:0.625;stroke-linejoin:round;stroke-opacity:1"
         id="path5274"
         inkscape:connector-curvature="0" />
    </marker>
    <marker
       inkscape:stockid="Arrow2Lend"
       orient="auto"
       refY="0"
       refX="0"
       id="marker5242"
       style="overflow:visible"
       inkscape:isstock="true"
       inkscape:collect="always">
      <path
         id="path5007"
         style="fill:#000000;fill-opacity:1;fill-rule:evenodd;stroke:#000000;stroke-width:0.625;stroke-linejoin:round;stroke-opacity:1"
         d="M 8.7185878,4.0337352 -2.2072895,0.01601326 8.7185884,-4.0017078 c -1.7454984,2.3720609 -1.7354408,5.6174519 -6e-7,8.035443 z"
         transform="matrix(-1.1,0,0,-1.1,-1.1,0)"
         inkscape:connector-curvature="0" />
    </marker>
    <marker
       inkscape:stockid="Arrow2Lend"
       orient="auto"
       refY="0"
       refX="0"
       id="Arrow2Lend"
       style="overflow:visible"
       inkscape:isstock="true">
      <path
         id="path4183"
         style="fill:#000000;fill-opacity:1;fill-rule:evenodd;stroke:#000000;stroke-width:0.625;stroke-linejoin:round;stroke-opacity:1"
         d="M 8.7185878,4.0337352 -2.2072895,0.01601326 8.7185884,-4.0017078 c -1.7454984,2.3720609 -1.7354408,5.6174519 -6e-7,8.035443 z"
         transform="matrix(-1.1,0,0,-1.1,-1.1,0)"
         inkscape:connector-curvature="0" />
    </marker>
  </defs>
  <sodipodi:namedview
     id="base"
     pagecolor="#ffffff"
     bordercolor="#666666"
     borderopacity="1.0"
     inkscape:pageopacity="0.0"
     inkscape:pageshadow="2"
     inkscape:zoom="0.38513994"
     inkscape:cx="1646.3905"
     inkscape:cy="413.05511"
     inkscape:document-units="px"
     inkscape:current-layer="layer1"
     showgrid="false"
     showguides="true"
     inkscape:guide-bbox="true"
     inkscape:window-width="1920"
     inkscape:window-height="1056"
     inkscape:window-x="0"
     inkscape:window-y="0"
     inkscape:window-maximized="1"
     fit-margin-top="0"
     fit-margin-left="0"
     fit-margin-right="0"
     fit-margin-bottom="0"
     units="px">
    <sodipodi:guide
       position="66.460432,33.77729"
       orientation="0,1"
       id="guide3356" />
  </sodipodi:namedview>
  <metadata
     id="metadata7">
    <rdf:RDF>
      <cc:Work
         rdf:about="">
        <dc:format>image/svg+xml</dc:format>
        <dc:type
           rdf:resource="http://purl.org/dc/dcmitype/StillImage" />
        <dc:title />
      </cc:Work>
    </rdf:RDF>
  </metadata>
  <g
     inkscape:label="Layer 1"
     inkscape:groupmode="layer"
     id="layer1"
     transform="translate(-220.83092,279.6294)">
    <g
       style="font-style:normal;font-variant:normal;font-weight:500;font-stretch:normal;font-size:10px;line-height:125%;font-family:Inconsolata;-inkscape-font-specification:'Inconsolata, Medium';text-align:start;letter-spacing:0px;word-spacing:0px;writing-mode:lr-tb;text-anchor:start;fill:#000000;fill-opacity:1;stroke:none;stroke-width:1px;stroke-linecap:butt;stroke-linejoin:miter;stroke-opacity:1"
       id="text4476">
      <path
         d="m 317.88415,-268.0767 c -0.42,-0.46 -1.03,-0.71 -1.71,-0.71 -1.06,0 -1.75,0.59 -1.75,1.27 0,0.8 0.86,1.09 1.11,1.18 0.39,0.14 0.89,0.26 1.23,0.42 0.38,0.18 0.45,0.42 0.45,0.58 0,0.43 -0.52,0.72 -1.17,0.72 -0.78,0 -1.28,-0.47 -1.43,-0.63 -0.03,-0.04 -0.03,-0.07 -0.03,-0.11 0,-0.01 0.01,-0.07 -0.04,-0.09 l -0.42,0.71 c 0.54,0.5 1.24,0.73 1.93,0.73 1.25,0 1.9,-0.74 1.9,-1.43 0,-0.31 -0.13,-0.73 -0.67,-1.03 -0.51,-0.29 -1.25,-0.39 -1.68,-0.6 -0.37,-0.18 -0.45,-0.4 -0.45,-0.56 0,-0.36 0.45,-0.62 0.96,-0.62 0.66,0 1.1,0.4 1.27,0.63 0.03,0.03 0.02,0.06 0.02,0.09 0,0.06 0.04,0.08 0.06,0.08 l 0.42,-0.63 z"
         style=""
         id="path4182" />
      <path
         d="m 321.14415,-268.7867 c -1.09,0 -2.1,0.78 -2.1,2.44 0,1.53 0.95,2.34 2.19,2.34 0.66,0 1.25,-0.24 1.64,-0.71 l -0.4,-0.39 c -0.29,0.34 -0.73,0.52 -1.18,0.52 -0.61,0 -1.5,-0.34 -1.55,-1.71 l 3.24,0 c 0.03,-0.31 0.02,-0.61 -0.03,-0.87 -0.21,-1.23 -1.06,-1.62 -1.81,-1.62 z m -1.38,1.94 c 0.15,-1.08 0.84,-1.39 1.33,-1.39 0.74,0 1.27,0.65 1.18,1.39 l -2.51,0 z"
         style=""
         id="path4184" />
      <path
         d="m 324.24415,-264.1167 0.73,0 0,-2.63 c 0,-0.3 0.04,-0.53 0.23,-0.78 0.17,-0.23 0.61,-0.64 1.09,-0.64 0.23,0 0.46,0.1 0.62,0.29 0.25,0.3 0.25,0.69 0.25,1.01 l 0,2.75 0.71,0 0,-2.77 c 0,-0.35 0,-0.73 -0.16,-1.1 -0.23,-0.51 -0.7,-0.8 -1.22,-0.8 -0.62,0 -1.18,0.4 -1.52,0.91 l 0,-0.8 -0.73,0 0,4.56 z"
         style=""
         id="path4186" />
      <path
         d="m 332.27415,-268.0167 c -0.22,-0.47 -0.71,-0.78 -1.34,-0.78 -0.87,0 -1.93,0.62 -1.93,2.36 0,1.69 0.94,2.43 1.82,2.43 0.58,0 1.12,-0.33 1.41,-0.84 l 0,0.4 c 0,0.11 0.01,0.22 0.04,0.33 l 0.72,0 c -0.04,-0.13 -0.04,-0.28 -0.04,-0.42 l -0.01,-5.94 c 0,-0.06 0,-0.08 0.04,-0.14 0.02,-0.03 0.06,-0.08 0.05,-0.15 l -0.76,0 0,2.75 z m -1.31,-0.19 c 0.4,0 0.99,0.21 1.17,0.89 0.06,0.21 0.08,0.46 0.08,0.97 0,0.35 -0.02,0.6 -0.1,0.84 -0.17,0.54 -0.65,0.86 -1.12,0.86 -0.52,0 -1.29,-0.4 -1.29,-1.9 0,-1.31 0.73,-1.66 1.26,-1.66 z"
         style=""
         id="path4188" />
    </g>
    <g
       id="g5245"
       transform="translate(83.931423,0)">
      <path
         style="opacity:0.372;fill:#666666;fill-opacity:1;fill-rule:evenodd;stroke:none;stroke-linecap:round;stroke-opacity:1"
         d="m 247.85514,-242.26134 c 14.97142,0 27.02423,1.20532 27.02423,2.70251 l 0,12.67886 c 0,1.49719 -12.05281,2.70251 -27.02423,2.70251 -14.97142,0 -27.02422,-1.20532 -27.02422,-2.70251 l 0,-12.67886 c 0,-1.49719 12.0528,-2.70251 27.02422,-2.70251 z"
         id="rect4480" />
      <g
         style="font-style:normal;font-variant:normal;font-weight:normal;font-stretch:normal;font-size:10px;line-height:125%;font-family:Lato;-inkscape-font-specification:'Lato, Normal';text-align:start;letter-spacing:0px;word-spacing:0px;writing-mode:lr-tb;text-anchor:start;fill:#000000;fill-opacity:1;stroke:none;stroke-width:1px;stroke-linecap:butt;stroke-linejoin:miter;stroke-opacity:1"
         id="text4482">
        <path
           d="m 228.42308,-232.91971 q 0.06,0.12 0.115,0.255 0.055,0.13 0.11,0.26 0.05,-0.135 0.105,-0.265 0.055,-0.135 0.12,-0.255 l 2.43,-4.405 q 0.06,-0.115 0.13,-0.14 0.075,-0.025 0.205,-0.025 l 0.715,0 0,7.165 -0.85,0 0,-5.265 q 0,-0.105 0.005,-0.225 0.005,-0.12 0.015,-0.245 l -2.455,4.48 q -0.115,0.225 -0.35,0.225 l -0.14,0 q -0.235,0 -0.35,-0.225 l -2.51,-4.495 q 0.015,0.13 0.02,0.255 0.01,0.125 0.01,0.23 l 0,5.265 -0.85,0 0,-7.165 0.715,0 q 0.13,0 0.2,0.025 0.07,0.025 0.135,0.14 l 2.475,4.41 0,0 z"
           style=""
           id="path4192" />
        <path
           d="m 235.88417,-235.47471 q 0.455,0 0.84,0.155 0.39,0.15 0.67,0.44 0.285,0.285 0.445,0.71 0.16,0.42 0.16,0.96 0,0.21 -0.045,0.28 -0.045,0.07 -0.17,0.07 l -3.385,0 q 0.01,0.48 0.13,0.835 0.12,0.355 0.33,0.595 0.21,0.235 0.5,0.355 0.29,0.115 0.65,0.115 0.335,0 0.575,-0.075 0.245,-0.08 0.42,-0.17 0.175,-0.09 0.29,-0.165 0.12,-0.08 0.205,-0.08 0.11,0 0.17,0.085 l 0.25,0.325 q -0.165,0.2 -0.395,0.35 -0.23,0.145 -0.495,0.24 -0.26,0.095 -0.54,0.14 -0.28,0.05 -0.555,0.05 -0.525,0 -0.97,-0.175 -0.44,-0.18 -0.765,-0.52 -0.32,-0.345 -0.5,-0.85 -0.18,-0.505 -0.18,-1.16 0,-0.53 0.16,-0.99 0.165,-0.46 0.47,-0.795 0.305,-0.34 0.745,-0.53 0.44,-0.195 0.99,-0.195 z m 0.02,0.655 q -0.645,0 -1.015,0.375 -0.37,0.37 -0.46,1.03 l 2.77,0 q 0,-0.31 -0.09,-0.565 -0.085,-0.26 -0.255,-0.445 -0.165,-0.19 -0.405,-0.29 -0.24,-0.105 -0.545,-0.105 z"
           style=""
           id="path4194" />
        <path
           d="m 242.03261,-234.55971 q -0.06,0.11 -0.185,0.11 -0.075,0 -0.17,-0.055 -0.095,-0.055 -0.235,-0.12 -0.135,-0.07 -0.325,-0.125 -0.19,-0.06 -0.45,-0.06 -0.225,0 -0.405,0.06 -0.18,0.055 -0.31,0.155 -0.125,0.1 -0.195,0.235 -0.065,0.13 -0.065,0.285 0,0.195 0.11,0.325 0.115,0.13 0.3,0.225 0.185,0.095 0.42,0.17 0.235,0.07 0.48,0.155 0.25,0.08 0.485,0.18 0.235,0.1 0.42,0.25 0.185,0.15 0.295,0.37 0.115,0.215 0.115,0.52 0,0.35 -0.125,0.65 -0.125,0.295 -0.37,0.515 -0.245,0.215 -0.6,0.34 -0.355,0.125 -0.82,0.125 -0.53,0 -0.96,-0.17 -0.43,-0.175 -0.73,-0.445 l 0.21,-0.34 q 0.04,-0.065 0.095,-0.1 0.055,-0.035 0.14,-0.035 0.09,0 0.19,0.07 0.1,0.07 0.24,0.155 0.145,0.085 0.35,0.155 0.205,0.07 0.51,0.07 0.26,0 0.455,-0.065 0.195,-0.07 0.325,-0.185 0.13,-0.115 0.19,-0.265 0.065,-0.15 0.065,-0.32 0,-0.21 -0.115,-0.345 -0.11,-0.14 -0.295,-0.235 -0.185,-0.1 -0.425,-0.17 -0.235,-0.075 -0.485,-0.155 -0.245,-0.08 -0.485,-0.18 -0.235,-0.105 -0.42,-0.26 -0.185,-0.155 -0.3,-0.38 -0.11,-0.23 -0.11,-0.555 0,-0.29 0.12,-0.555 0.12,-0.27 0.35,-0.47 0.23,-0.205 0.565,-0.325 0.335,-0.12 0.765,-0.12 0.5,0 0.895,0.16 0.4,0.155 0.69,0.43 l -0.2,0.325 z"
           style=""
           id="path4196" />
        <path
           d="m 246.36855,-234.55971 q -0.06,0.11 -0.185,0.11 -0.075,0 -0.17,-0.055 -0.095,-0.055 -0.235,-0.12 -0.135,-0.07 -0.325,-0.125 -0.19,-0.06 -0.45,-0.06 -0.225,0 -0.405,0.06 -0.18,0.055 -0.31,0.155 -0.125,0.1 -0.195,0.235 -0.065,0.13 -0.065,0.285 0,0.195 0.11,0.325 0.115,0.13 0.3,0.225 0.185,0.095 0.42,0.17 0.235,0.07 0.48,0.155 0.25,0.08 0.485,0.18 0.235,0.1 0.42,0.25 0.185,0.15 0.295,0.37 0.115,0.215 0.115,0.52 0,0.35 -0.125,0.65 -0.125,0.295 -0.37,0.515 -0.245,0.215 -0.6,0.34 -0.355,0.125 -0.82,0.125 -0.53,0 -0.96,-0.17 -0.43,-0.175 -0.73,-0.445 l 0.21,-0.34 q 0.04,-0.065 0.095,-0.1 0.055,-0.035 0.14,-0.035 0.09,0 0.19,0.07 0.1,0.07 0.24,0.155 0.145,0.085 0.35,0.155 0.205,0.07 0.51,0.07 0.26,0 0.455,-0.065 0.195,-0.07 0.325,-0.185 0.13,-0.115 0.19,-0.265 0.065,-0.15 0.065,-0.32 0,-0.21 -0.115,-0.345 -0.11,-0.14 -0.295,-0.235 -0.185,-0.1 -0.425,-0.17 -0.235,-0.075 -0.485,-0.155 -0.245,-0.08 -0.485,-0.18 -0.235,-0.105 -0.42,-0.26 -0.185,-0.155 -0.3,-0.38 -0.11,-0.23 -0.11,-0.555 0,-0.29 0.12,-0.555 0.12,-0.27 0.35,-0.47 0.23,-0.205 0.565,-0.325 0.335,-0.12 0.765,-0.12 0.5,0 0.895,0.16 0.4,0.155 0.69,0.43 l -0.2,0.325 z"
           style=""
           id="path4198" />
        <path
           d="m 250.97448,-230.32971 q -0.13,0 -0.2,-0.04 -0.07,-0.045 -0.11,-0.17 l -0.1,-0.475 q -0.2,0.18 -0.395,0.325 -0.19,0.14 -0.4,0.24 -0.205,0.095 -0.445,0.145 -0.235,0.055 -0.525,0.055 -0.295,0 -0.555,-0.08 -0.26,-0.085 -0.455,-0.25 -0.19,-0.165 -0.305,-0.415 -0.11,-0.255 -0.11,-0.6 0,-0.3 0.165,-0.575 0.165,-0.28 0.535,-0.495 0.37,-0.215 0.965,-0.35 0.595,-0.14 1.46,-0.16 l 0,-0.395 q 0,-0.59 -0.255,-0.89 -0.255,-0.305 -0.745,-0.305 -0.33,0 -0.555,0.085 -0.22,0.08 -0.385,0.185 -0.16,0.1 -0.28,0.185 -0.115,0.08 -0.23,0.08 -0.09,0 -0.155,-0.045 -0.065,-0.05 -0.11,-0.12 l -0.16,-0.285 q 0.42,-0.405 0.905,-0.605 0.485,-0.2 1.075,-0.2 0.425,0 0.755,0.14 0.33,0.14 0.555,0.39 0.225,0.25 0.34,0.605 0.115,0.355 0.115,0.78 l 0,3.24 -0.395,0 z m -1.91,-0.545 q 0.235,0 0.43,-0.045 0.195,-0.05 0.365,-0.135 0.175,-0.09 0.33,-0.215 0.16,-0.13 0.31,-0.29 l 0,-1.05 q -0.615,0.02 -1.05,0.1 -0.43,0.075 -0.705,0.2 -0.27,0.125 -0.395,0.295 -0.12,0.17 -0.12,0.38 0,0.2 0.065,0.345 0.065,0.145 0.175,0.24 0.115,0.09 0.265,0.135 0.155,0.04 0.33,0.04 z"
           style=""
           id="path4200" />
        <path
           d="m 254.48042,-235.47971 q 0.33,0 0.615,0.075 0.285,0.07 0.52,0.21 l 1.375,0 0,0.33 q 0,0.165 -0.21,0.21 l -0.575,0.08 q 0.17,0.325 0.17,0.725 0,0.37 -0.145,0.675 -0.14,0.3 -0.39,0.515 -0.25,0.215 -0.6,0.33 -0.35,0.115 -0.76,0.115 -0.36,0 -0.675,-0.085 -0.16,0.1 -0.245,0.215 -0.08,0.115 -0.08,0.225 0,0.18 0.145,0.275 0.15,0.09 0.39,0.13 0.24,0.04 0.545,0.05 0.31,0.01 0.63,0.035 0.325,0.02 0.63,0.075 0.31,0.055 0.55,0.18 0.24,0.125 0.385,0.345 0.15,0.22 0.15,0.57 0,0.325 -0.165,0.63 -0.16,0.305 -0.465,0.54 -0.305,0.24 -0.75,0.38 -0.44,0.145 -0.995,0.145 -0.555,0 -0.97,-0.11 -0.415,-0.11 -0.69,-0.295 -0.275,-0.185 -0.415,-0.43 -0.135,-0.24 -0.135,-0.505 0,-0.375 0.235,-0.635 0.235,-0.26 0.64,-0.415 -0.225,-0.1 -0.355,-0.265 -0.13,-0.17 -0.13,-0.455 0,-0.11 0.04,-0.225 0.04,-0.12 0.12,-0.235 0.085,-0.115 0.205,-0.22 0.12,-0.105 0.28,-0.185 -0.375,-0.21 -0.585,-0.56 -0.21,-0.35 -0.21,-0.81 0,-0.37 0.14,-0.67 0.145,-0.305 0.4,-0.515 0.255,-0.215 0.605,-0.33 0.355,-0.115 0.775,-0.115 z m 1.605,5.425 q 0,-0.185 -0.105,-0.3 -0.105,-0.115 -0.285,-0.18 -0.175,-0.065 -0.41,-0.09 -0.235,-0.03 -0.5,-0.045 -0.26,-0.015 -0.53,-0.03 -0.27,-0.015 -0.52,-0.05 -0.28,0.13 -0.46,0.325 -0.175,0.195 -0.175,0.465 0,0.17 0.085,0.315 0.09,0.15 0.27,0.255 0.18,0.11 0.45,0.17 0.275,0.065 0.645,0.065 0.36,0 0.645,-0.065 0.285,-0.065 0.48,-0.185 0.2,-0.12 0.305,-0.285 0.105,-0.165 0.105,-0.365 z m -1.605,-2.75 q 0.27,0 0.475,-0.075 0.205,-0.075 0.345,-0.21 0.14,-0.135 0.21,-0.32 0.07,-0.19 0.07,-0.415 0,-0.465 -0.285,-0.74 -0.28,-0.275 -0.815,-0.275 -0.54,0 -0.825,0.275 -0.28,0.275 -0.28,0.74 0,0.225 0.07,0.415 0.075,0.185 0.215,0.32 0.14,0.135 0.345,0.21 0.205,0.075 0.475,0.075 z"
           style=""
           id="path4202" />
        <path
           d="m 259.90761,-235.47471 q 0.455,0 0.84,0.155 0.39,0.15 0.67,0.44 0.285,0.285 0.445,0.71 0.16,0.42 0.16,0.96 0,0.21 -0.045,0.28 -0.045,0.07 -0.17,0.07 l -3.385,0 q 0.01,0.48 0.13,0.835 0.12,0.355 0.33,0.595 0.21,0.235 0.5,0.355 0.29,0.115 0.65,0.115 0.335,0 0.575,-0.075 0.245,-0.08 0.42,-0.17 0.175,-0.09 0.29,-0.165 0.12,-0.08 0.205,-0.08 0.11,0 0.17,0.085 l 0.25,0.325 q -0.165,0.2 -0.395,0.35 -0.23,0.145 -0.495,0.24 -0.26,0.095 -0.54,0.14 -0.28,0.05 -0.555,0.05 -0.525,0 -0.97,-0.175 -0.44,-0.18 -0.765,-0.52 -0.32,-0.345 -0.5,-0.85 -0.18,-0.505 -0.18,-1.16 0,-0.53 0.16,-0.99 0.165,-0.46 0.47,-0.795 0.305,-0.34 0.745,-0.53 0.44,-0.195 0.99,-0.195 z m 0.02,0.655 q -0.645,0 -1.015,0.375 -0.37,0.37 -0.46,1.03 l 2.77,0 q 0,-0.31 -0.09,-0.565 -0.085,-0.26 -0.255,-0.445 -0.165,-0.19 -0.405,-0.29 -0.24,-0.105 -0.545,-0.105 z"
           style=""
           id="path4204" />
        <path
           d="m 269.38964,-232.91471 1.085,0 0,0.51 q 0,0.08 -0.05,0.135 -0.045,0.055 -0.145,0.055 l -0.89,0 0,1.885 -0.78,0 0,-1.885 -3.18,0 q -0.1,0 -0.175,-0.055 -0.07,-0.06 -0.09,-0.145 l -0.09,-0.455 3.485,-4.625 0.83,0 0,4.58 z m -0.78,-2.955 q 0,-0.13 0.005,-0.28 0.01,-0.155 0.035,-0.315 l -2.61,3.55 2.57,0 0,-2.955 z"
           style=""
           id="path4206" />
      </g>
    </g>
    <path
       style="opacity:1;fill:none;fill-opacity:1;fill-rule:evenodd;stroke:#000000;stroke-width:2.0812664;stroke-linecap:round;stroke-linejoin:round;stroke-miterlimit:4;stroke-dasharray:none;stroke-opacity:1"
       d="m 369.11737,-266.90005 57.4878,0 c 0.46106,0 0.83225,0.012 0.83225,0.027 l 0,70.15367 c 0,0.0149 -0.37119,0.027 -0.83225,0.027 l -57.4878,0 c -0.46106,0 -0.83224,-0.012 -0.83224,-0.027 l 0,-70.15367 c 0,-0.015 0.37118,-0.027 0.83224,-0.027 z"
       id="rect4296" />
    <g
       style="font-style:normal;font-variant:normal;font-weight:bold;font-stretch:normal;font-size:10px;line-height:125%;font-family:Lato;-inkscape-font-specification:'Lato Bold';text-align:start;letter-spacing:0px;word-spacing:0px;writing-mode:lr-tb;text-anchor:start;fill:#000000;fill-opacity:1;stroke:none;stroke-width:1px;stroke-linecap:butt;stroke-linejoin:miter;stroke-opacity:1"
       id="text4298">
      <path
         d="m 384.56638,-273.98996 q 0.085,0.16 0.155,0.335 0.075,0.17 0.145,0.345 0.07,-0.185 0.145,-0.355 0.075,-0.175 0.16,-0.335 l 2.135,-4.005 q 0.04,-0.075 0.085,-0.12 0.045,-0.045 0.095,-0.065 0.055,-0.02 0.12,-0.025 0.065,-0.005 0.155,-0.005 l 1.015,0 0,7.23 -1.185,0 0,-4.67 q 0,-0.13 0.005,-0.285 0.01,-0.155 0.025,-0.315 l -2.185,4.1 q -0.155,0.295 -0.475,0.295 l -0.19,0 q -0.32,0 -0.475,-0.295 l -2.21,-4.115 q 0.015,0.165 0.025,0.325 0.01,0.155 0.01,0.29 l 0,4.67 -1.185,0 0,-7.23 1.015,0 q 0.09,0 0.155,0.005 0.065,0.005 0.115,0.025 0.055,0.02 0.095,0.065 0.045,0.045 0.085,0.12 l 2.165,4.015 0,0 z"
         style=""
         id="path4210" />
      <path
         d="m 393.41278,-270.98996 q -0.175,0 -0.27,-0.05 -0.095,-0.055 -0.15,-0.215 l -0.11,-0.365 q -0.195,0.175 -0.38,0.31 -0.185,0.13 -0.385,0.22 -0.2,0.09 -0.43,0.135 -0.225,0.045 -0.5,0.045 -0.325,0 -0.6,-0.085 -0.275,-0.09 -0.475,-0.265 -0.2,-0.175 -0.31,-0.435 -0.11,-0.26 -0.11,-0.605 0,-0.29 0.15,-0.57 0.155,-0.285 0.51,-0.51 0.355,-0.23 0.945,-0.38 0.59,-0.15 1.47,-0.17 l 0,-0.3 q 0,-0.515 -0.22,-0.76 -0.22,-0.25 -0.635,-0.25 -0.3,0 -0.5,0.07 -0.195,0.07 -0.345,0.16 -0.15,0.085 -0.275,0.155 -0.12,0.07 -0.27,0.07 -0.13,0 -0.22,-0.065 -0.09,-0.07 -0.145,-0.16 l -0.22,-0.395 q 0.885,-0.81 2.13,-0.81 0.45,0 0.805,0.15 0.355,0.145 0.6,0.41 0.245,0.26 0.37,0.625 0.13,0.365 0.13,0.8 l 0,3.24 -0.56,0 z m -1.845,-0.77 q 0.38,0 0.655,-0.135 0.28,-0.14 0.545,-0.42 l 0,-0.865 q -0.54,0.025 -0.905,0.095 -0.36,0.065 -0.58,0.17 -0.22,0.105 -0.315,0.245 -0.095,0.14 -0.095,0.305 0,0.325 0.19,0.465 0.195,0.14 0.505,0.14 z"
         style=""
         id="path4212" />
      <path
         d="m 396.41591,-276.11996 0,5.13 -1.24,0 0,-5.13 1.24,0 z m 0.17,-1.495 q 0,0.16 -0.065,0.3 -0.065,0.14 -0.175,0.245 -0.105,0.105 -0.25,0.17 -0.145,0.06 -0.31,0.06 -0.16,0 -0.305,-0.06 -0.14,-0.065 -0.245,-0.17 -0.105,-0.105 -0.17,-0.245 -0.06,-0.14 -0.06,-0.3 0,-0.165 0.06,-0.31 0.065,-0.145 0.17,-0.25 0.105,-0.105 0.245,-0.165 0.145,-0.065 0.305,-0.065 0.165,0 0.31,0.065 0.145,0.06 0.25,0.165 0.11,0.105 0.175,0.25 0.065,0.145 0.065,0.31 z"
         style=""
         id="path4214" />
      <path
         d="m 398.92497,-278.41996 0,7.43 -1.235,0 0,-7.43 1.235,0 z"
         style=""
         id="path4216" />
      <path
         d="m 400.15544,-270.98996 0,-7.43 1.235,0 0,2.935 q 0.31,-0.33 0.685,-0.52 0.38,-0.195 0.865,-0.195 0.445,0 0.8,0.175 0.36,0.175 0.61,0.505 0.255,0.325 0.39,0.79 0.135,0.465 0.135,1.045 0,0.625 -0.155,1.135 -0.155,0.51 -0.445,0.875 -0.285,0.36 -0.69,0.56 -0.405,0.2 -0.9,0.2 -0.24,0 -0.44,-0.05 -0.195,-0.045 -0.36,-0.13 -0.16,-0.085 -0.3,-0.205 -0.135,-0.125 -0.26,-0.275 l -0.055,0.345 q -0.03,0.13 -0.105,0.185 -0.07,0.055 -0.195,0.055 l -0.815,0 z m 2.36,-4.25 q -0.355,0 -0.62,0.165 -0.265,0.16 -0.505,0.455 l 0,2.3 q 0.21,0.26 0.455,0.365 0.25,0.1 0.525,0.1 0.285,0 0.51,-0.1 0.23,-0.105 0.39,-0.32 0.16,-0.22 0.245,-0.555 0.085,-0.34 0.085,-0.81 0,-0.845 -0.28,-1.22 -0.28,-0.38 -0.805,-0.38 z"
         style=""
         id="path4218" />
      <path
         d="m 408.10903,-276.19996 q 0.57,0 1.035,0.185 0.47,0.185 0.8,0.525 0.335,0.34 0.515,0.83 0.18,0.49 0.18,1.095 0,0.61 -0.18,1.1 -0.18,0.49 -0.515,0.835 -0.33,0.345 -0.8,0.53 -0.465,0.185 -1.035,0.185 -0.575,0 -1.045,-0.185 -0.47,-0.185 -0.805,-0.53 -0.33,-0.345 -0.515,-0.835 -0.18,-0.49 -0.18,-1.1 0,-0.605 0.18,-1.095 0.185,-0.49 0.515,-0.83 0.335,-0.34 0.805,-0.525 0.47,-0.185 1.045,-0.185 z m 0,4.335 q 0.64,0 0.945,-0.43 0.31,-0.43 0.31,-1.26 0,-0.83 -0.31,-1.265 -0.305,-0.435 -0.945,-0.435 -0.65,0 -0.965,0.44 -0.31,0.435 -0.31,1.26 0,0.825 0.31,1.26 0.315,0.43 0.965,0.43 z"
         style=""
         id="path4220" />
      <path
         d="m 412.52185,-273.63496 -1.685,-2.485 1.19,0 q 0.135,0 0.2,0.04 0.065,0.035 0.115,0.12 l 1.075,1.715 q 0.025,-0.085 0.06,-0.17 0.04,-0.085 0.095,-0.17 l 0.865,-1.35 q 0.11,-0.185 0.285,-0.185 l 1.135,0 -1.69,2.43 1.76,2.7 -1.19,0 q -0.135,0 -0.22,-0.07 -0.08,-0.07 -0.135,-0.16 l -1.09,-1.785 q -0.045,0.18 -0.125,0.3 l -0.96,1.485 q -0.055,0.085 -0.135,0.16 -0.08,0.07 -0.2,0.07 l -1.105,0 1.755,-2.645 z"
         style=""
         id="path4222" />
    </g>
    <g
       id="g5260"
       transform="translate(83.931423,-0.6)">
      <path
         style="opacity:0.372;fill:#666666;fill-opacity:1;fill-rule:evenodd;stroke:none;stroke-linecap:round;stroke-opacity:1"
         d="m 314.07791,-216.46985 c 14.97142,0 27.02422,1.20532 27.02422,2.70251 l 0,12.67886 c 0,1.49719 -12.0528,2.70251 -27.02422,2.70251 -14.97143,0 -27.02423,-1.20532 -27.02423,-2.70251 l 0,-12.67886 c 0,-1.49719 12.0528,-2.70251 27.02423,-2.70251 z"
         id="rect4302" />
      <g
         style="font-style:normal;font-variant:normal;font-weight:normal;font-stretch:normal;font-size:10px;line-height:125%;font-family:Lato;-inkscape-font-specification:'Lato, Normal';text-align:start;letter-spacing:0px;word-spacing:0px;writing-mode:lr-tb;text-anchor:start;fill:#000000;fill-opacity:1;stroke:none;stroke-width:1px;stroke-linecap:butt;stroke-linejoin:miter;stroke-opacity:1"
         id="text4304">
        <path
           d="m 294.64584,-207.12822 q 0.06,0.12 0.115,0.255 0.055,0.13 0.11,0.26 0.05,-0.135 0.105,-0.265 0.055,-0.135 0.12,-0.255 l 2.43,-4.405 q 0.06,-0.115 0.13,-0.14 0.075,-0.025 0.205,-0.025 l 0.715,0 0,7.165 -0.85,0 0,-5.265 q 0,-0.105 0.005,-0.225 0.005,-0.12 0.015,-0.245 l -2.455,4.48 q -0.115,0.225 -0.35,0.225 l -0.14,0 q -0.235,0 -0.35,-0.225 l -2.51,-4.495 q 0.015,0.13 0.02,0.255 0.01,0.125 0.01,0.23 l 0,5.265 -0.85,0 0,-7.165 0.715,0 q 0.13,0 0.2,0.025 0.07,0.025 0.135,0.14 l 2.475,4.41 0,0 z"
           style=""
           id="path4226" />
        <path
           d="m 302.10693,-209.68322 q 0.455,0 0.84,0.155 0.39,0.15 0.67,0.44 0.285,0.285 0.445,0.71 0.16,0.42 0.16,0.96 0,0.21 -0.045,0.28 -0.045,0.07 -0.17,0.07 l -3.385,0 q 0.01,0.48 0.13,0.835 0.12,0.355 0.33,0.595 0.21,0.235 0.5,0.355 0.29,0.115 0.65,0.115 0.335,0 0.575,-0.075 0.245,-0.08 0.42,-0.17 0.175,-0.09 0.29,-0.165 0.12,-0.08 0.205,-0.08 0.11,0 0.17,0.085 l 0.25,0.325 q -0.165,0.2 -0.395,0.35 -0.23,0.145 -0.495,0.24 -0.26,0.095 -0.54,0.14 -0.28,0.05 -0.555,0.05 -0.525,0 -0.97,-0.175 -0.44,-0.18 -0.765,-0.52 -0.32,-0.345 -0.5,-0.85 -0.18,-0.505 -0.18,-1.16 0,-0.53 0.16,-0.99 0.165,-0.46 0.47,-0.795 0.305,-0.34 0.745,-0.53 0.44,-0.195 0.99,-0.195 z m 0.02,0.655 q -0.645,0 -1.015,0.375 -0.37,0.37 -0.46,1.03 l 2.77,0 q 0,-0.31 -0.09,-0.565 -0.085,-0.26 -0.255,-0.445 -0.165,-0.19 -0.405,-0.29 -0.24,-0.105 -0.545,-0.105 z"
           style=""
           id="path4228" />
        <path
           d="m 308.25537,-208.76822 q -0.06,0.11 -0.185,0.11 -0.075,0 -0.17,-0.055 -0.095,-0.055 -0.235,-0.12 -0.135,-0.07 -0.325,-0.125 -0.19,-0.06 -0.45,-0.06 -0.225,0 -0.405,0.06 -0.18,0.055 -0.31,0.155 -0.125,0.1 -0.195,0.235 -0.065,0.13 -0.065,0.285 0,0.195 0.11,0.325 0.115,0.13 0.3,0.225 0.185,0.095 0.42,0.17 0.235,0.07 0.48,0.155 0.25,0.08 0.485,0.18 0.235,0.1 0.42,0.25 0.185,0.15 0.295,0.37 0.115,0.215 0.115,0.52 0,0.35 -0.125,0.65 -0.125,0.295 -0.37,0.515 -0.245,0.215 -0.6,0.34 -0.355,0.125 -0.82,0.125 -0.53,0 -0.96,-0.17 -0.43,-0.175 -0.73,-0.445 l 0.21,-0.34 q 0.04,-0.065 0.095,-0.1 0.055,-0.035 0.14,-0.035 0.09,0 0.19,0.07 0.1,0.07 0.24,0.155 0.145,0.085 0.35,0.155 0.205,0.07 0.51,0.07 0.26,0 0.455,-0.065 0.195,-0.07 0.325,-0.185 0.13,-0.115 0.19,-0.265 0.065,-0.15 0.065,-0.32 0,-0.21 -0.115,-0.345 -0.11,-0.14 -0.295,-0.235 -0.185,-0.1 -0.425,-0.17 -0.235,-0.075 -0.485,-0.155 -0.245,-0.08 -0.485,-0.18 -0.235,-0.105 -0.42,-0.26 -0.185,-0.155 -0.3,-0.38 -0.11,-0.23 -0.11,-0.555 0,-0.29 0.12,-0.555 0.12,-0.27 0.35,-0.47 0.23,-0.205 0.565,-0.325 0.335,-0.12 0.765,-0.12 0.5,0 0.895,0.16 0.4,0.155 0.69,0.43 l -0.2,0.325 z"
           style=""
           id="path4230" />
        <path
           d="m 312.59131,-208.76822 q -0.06,0.11 -0.185,0.11 -0.075,0 -0.17,-0.055 -0.095,-0.055 -0.235,-0.12 -0.135,-0.07 -0.325,-0.125 -0.19,-0.06 -0.45,-0.06 -0.225,0 -0.405,0.06 -0.18,0.055 -0.31,0.155 -0.125,0.1 -0.195,0.235 -0.065,0.13 -0.065,0.285 0,0.195 0.11,0.325 0.115,0.13 0.3,0.225 0.185,0.095 0.42,0.17 0.235,0.07 0.48,0.155 0.25,0.08 0.485,0.18 0.235,0.1 0.42,0.25 0.185,0.15 0.295,0.37 0.115,0.215 0.115,0.52 0,0.35 -0.125,0.65 -0.125,0.295 -0.37,0.515 -0.245,0.215 -0.6,0.34 -0.355,0.125 -0.82,0.125 -0.53,0 -0.96,-0.17 -0.43,-0.175 -0.73,-0.445 l 0.21,-0.34 q 0.04,-0.065 0.095,-0.1 0.055,-0.035 0.14,-0.035 0.09,0 0.19,0.07 0.1,0.07 0.24,0.155 0.145,0.085 0.35,0.155 0.205,0.07 0.51,0.07 0.26,0 0.455,-0.065 0.195,-0.07 0.325,-0.185 0.13,-0.115 0.19,-0.265 0.065,-0.15 0.065,-0.32 0,-0.21 -0.115,-0.345 -0.11,-0.14 -0.295,-0.235 -0.185,-0.1 -0.425,-0.17 -0.235,-0.075 -0.485,-0.155 -0.245,-0.08 -0.485,-0.18 -0.235,-0.105 -0.42,-0.26 -0.185,-0.155 -0.3,-0.38 -0.11,-0.23 -0.11,-0.555 0,-0.29 0.12,-0.555 0.12,-0.27 0.35,-0.47 0.23,-0.205 0.565,-0.325 0.335,-0.12 0.765,-0.12 0.5,0 0.895,0.16 0.4,0.155 0.69,0.43 l -0.2,0.325 z"
           style=""
           id="path4232" />
        <path
           d="m 317.19725,-204.53822 q -0.13,0 -0.2,-0.04 -0.07,-0.045 -0.11,-0.17 l -0.1,-0.475 q -0.2,0.18 -0.395,0.325 -0.19,0.14 -0.4,0.24 -0.205,0.095 -0.445,0.145 -0.235,0.055 -0.525,0.055 -0.295,0 -0.555,-0.08 -0.26,-0.085 -0.455,-0.25 -0.19,-0.165 -0.305,-0.415 -0.11,-0.255 -0.11,-0.6 0,-0.3 0.165,-0.575 0.165,-0.28 0.535,-0.495 0.37,-0.215 0.965,-0.35 0.595,-0.14 1.46,-0.16 l 0,-0.395 q 0,-0.59 -0.255,-0.89 -0.255,-0.305 -0.745,-0.305 -0.33,0 -0.555,0.085 -0.22,0.08 -0.385,0.185 -0.16,0.1 -0.28,0.185 -0.115,0.08 -0.23,0.08 -0.09,0 -0.155,-0.045 -0.065,-0.05 -0.11,-0.12 l -0.16,-0.285 q 0.42,-0.405 0.905,-0.605 0.485,-0.2 1.075,-0.2 0.425,0 0.755,0.14 0.33,0.14 0.555,0.39 0.225,0.25 0.34,0.605 0.115,0.355 0.115,0.78 l 0,3.24 -0.395,0 z m -1.91,-0.545 q 0.235,0 0.43,-0.045 0.195,-0.05 0.365,-0.135 0.175,-0.09 0.33,-0.215 0.16,-0.13 0.31,-0.29 l 0,-1.05 q -0.615,0.02 -1.05,0.1 -0.43,0.075 -0.705,0.2 -0.27,0.125 -0.395,0.295 -0.12,0.17 -0.12,0.38 0,0.2 0.065,0.345 0.065,0.145 0.175,0.24 0.115,0.09 0.265,0.135 0.155,0.04 0.33,0.04 z"
           style=""
           id="path4234" />
        <path
           d="m 320.70318,-209.68822 q 0.33,0 0.615,0.075 0.285,0.07 0.52,0.21 l 1.375,0 0,0.33 q 0,0.165 -0.21,0.21 l -0.575,0.08 q 0.17,0.325 0.17,0.725 0,0.37 -0.145,0.675 -0.14,0.3 -0.39,0.515 -0.25,0.215 -0.6,0.33 -0.35,0.115 -0.76,0.115 -0.36,0 -0.675,-0.085 -0.16,0.1 -0.245,0.215 -0.08,0.115 -0.08,0.225 0,0.18 0.145,0.275 0.15,0.09 0.39,0.13 0.24,0.04 0.545,0.05 0.31,0.01 0.63,0.035 0.325,0.02 0.63,0.075 0.31,0.055 0.55,0.18 0.24,0.125 0.385,0.345 0.15,0.22 0.15,0.57 0,0.325 -0.165,0.63 -0.16,0.305 -0.465,0.54 -0.305,0.24 -0.75,0.38 -0.44,0.145 -0.995,0.145 -0.555,0 -0.97,-0.11 -0.415,-0.11 -0.69,-0.295 -0.275,-0.185 -0.415,-0.43 -0.135,-0.24 -0.135,-0.505 0,-0.375 0.235,-0.635 0.235,-0.26 0.64,-0.415 -0.225,-0.1 -0.355,-0.265 -0.13,-0.17 -0.13,-0.455 0,-0.11 0.04,-0.225 0.04,-0.12 0.12,-0.235 0.085,-0.115 0.205,-0.22 0.12,-0.105 0.28,-0.185 -0.375,-0.21 -0.585,-0.56 -0.21,-0.35 -0.21,-0.81 0,-0.37 0.14,-0.67 0.145,-0.305 0.4,-0.515 0.255,-0.215 0.605,-0.33 0.355,-0.115 0.775,-0.115 z m 1.605,5.425 q 0,-0.185 -0.105,-0.3 -0.105,-0.115 -0.285,-0.18 -0.175,-0.065 -0.41,-0.09 -0.235,-0.03 -0.5,-0.045 -0.26,-0.015 -0.53,-0.03 -0.27,-0.015 -0.52,-0.05 -0.28,0.13 -0.46,0.325 -0.175,0.195 -0.175,0.465 0,0.17 0.085,0.315 0.09,0.15 0.27,0.255 0.18,0.11 0.45,0.17 0.275,0.065 0.645,0.065 0.36,0 0.645,-0.065 0.285,-0.065 0.48,-0.185 0.2,-0.12 0.305,-0.285 0.105,-0.165 0.105,-0.365 z m -1.605,-2.75 q 0.27,0 0.475,-0.075 0.205,-0.075 0.345,-0.21 0.14,-0.135 0.21,-0.32 0.07,-0.19 0.07,-0.415 0,-0.465 -0.285,-0.74 -0.28,-0.275 -0.815,-0.275 -0.54,0 -0.825,0.275 -0.28,0.275 -0.28,0.74 0,0.225 0.07,0.415 0.075,0.185 0.215,0.32 0.14,0.135 0.345,0.21 0.205,0.075 0.475,0.075 z"
           style=""
           id="path4236" />
        <path
           d="m 326.13037,-209.68322 q 0.455,0 0.84,0.155 0.39,0.15 0.67,0.44 0.285,0.285 0.445,0.71 0.16,0.42 0.16,0.96 0,0.21 -0.045,0.28 -0.045,0.07 -0.17,0.07 l -3.385,0 q 0.01,0.48 0.13,0.835 0.12,0.355 0.33,0.595 0.21,0.235 0.5,0.355 0.29,0.115 0.65,0.115 0.335,0 0.575,-0.075 0.245,-0.08 0.42,-0.17 0.175,-0.09 0.29,-0.165 0.12,-0.08 0.205,-0.08 0.11,0 0.17,0.085 l 0.25,0.325 q -0.165,0.2 -0.395,0.35 -0.23,0.145 -0.495,0.24 -0.26,0.095 -0.54,0.14 -0.28,0.05 -0.555,0.05 -0.525,0 -0.97,-0.175 -0.44,-0.18 -0.765,-0.52 -0.32,-0.345 -0.5,-0.85 -0.18,-0.505 -0.18,-1.16 0,-0.53 0.16,-0.99 0.165,-0.46 0.47,-0.795 0.305,-0.34 0.745,-0.53 0.44,-0.195 0.99,-0.195 z m 0.02,0.655 q -0.645,0 -1.015,0.375 -0.37,0.37 -0.46,1.03 l 2.77,0 q 0,-0.31 -0.09,-0.565 -0.085,-0.26 -0.255,-0.445 -0.165,-0.19 -0.405,-0.29 -0.24,-0.105 -0.545,-0.105 z"
           style=""
           id="path4238" />
        <path
           d="m 334.1374,-211.78322 q 0.455,0 0.85,0.135 0.395,0.135 0.685,0.395 0.29,0.255 0.455,0.625 0.165,0.37 0.165,0.84 0,0.4 -0.12,0.745 -0.12,0.34 -0.325,0.65 -0.205,0.31 -0.475,0.605 -0.265,0.295 -0.565,0.595 l -1.89,1.93 q 0.2,-0.055 0.405,-0.085 0.205,-0.035 0.395,-0.035 l 2.4,0 q 0.145,0 0.23,0.085 0.085,0.085 0.085,0.22 l 0,0.54 -4.78,0 0,-0.305 q 0,-0.095 0.04,-0.195 0.04,-0.1 0.125,-0.185 l 2.295,-2.305 q 0.285,-0.29 0.52,-0.555 0.235,-0.27 0.4,-0.54 0.165,-0.27 0.255,-0.545 0.09,-0.28 0.09,-0.595 0,-0.315 -0.1,-0.55 -0.1,-0.24 -0.275,-0.395 -0.17,-0.155 -0.405,-0.23 -0.235,-0.08 -0.505,-0.08 -0.275,0 -0.505,0.08 -0.23,0.08 -0.41,0.225 -0.175,0.14 -0.295,0.335 -0.12,0.195 -0.17,0.43 -0.06,0.175 -0.165,0.235 -0.1,0.055 -0.285,0.03 l -0.465,-0.08 q 0.07,-0.49 0.27,-0.865 0.205,-0.38 0.51,-0.635 0.31,-0.255 0.705,-0.385 0.395,-0.135 0.855,-0.135 z"
           style=""
           id="path4240" />
      </g>
    </g>
    <g
       id="g5255"
       transform="translate(83.931423,-1)">
      <path
         style="opacity:0.372;fill:#666666;fill-opacity:1;fill-rule:evenodd;stroke:none;stroke-linecap:round;stroke-opacity:1"
         d="m 313.84603,-235.37991 c 14.97142,0 27.02423,1.20531 27.02423,2.7025 l 0,12.67887 c 0,1.49719 -12.05281,2.70251 -27.02423,2.70251 -14.97142,0 -27.02422,-1.20532 -27.02422,-2.70251 l 0,-12.67887 c 0,-1.49719 12.0528,-2.7025 27.02422,-2.7025 z"
         id="rect4308" />
      <g
         style="font-style:normal;font-variant:normal;font-weight:normal;font-stretch:normal;font-size:10px;line-height:125%;font-family:Lato;-inkscape-font-specification:'Lato, Normal';text-align:start;letter-spacing:0px;word-spacing:0px;writing-mode:lr-tb;text-anchor:start;fill:#000000;fill-opacity:1;stroke:none;stroke-width:1px;stroke-linecap:butt;stroke-linejoin:miter;stroke-opacity:1"
         id="text4310">
        <path
           d="m 294.41397,-226.03829 q 0.06,0.12 0.115,0.255 0.055,0.13 0.11,0.26 0.05,-0.135 0.105,-0.265 0.055,-0.135 0.12,-0.255 l 2.43,-4.405 q 0.06,-0.115 0.13,-0.14 0.075,-0.025 0.205,-0.025 l 0.715,0 0,7.165 -0.85,0 0,-5.265 q 0,-0.105 0.005,-0.225 0.005,-0.12 0.015,-0.245 l -2.455,4.48 q -0.115,0.225 -0.35,0.225 l -0.14,0 q -0.235,0 -0.35,-0.225 l -2.51,-4.495 q 0.015,0.13 0.02,0.255 0.01,0.125 0.01,0.23 l 0,5.265 -0.85,0 0,-7.165 0.715,0 q 0.13,0 0.2,0.025 0.07,0.025 0.135,0.14 l 2.475,4.41 0,0 z"
           style=""
           id="path4244" />
        <path
           d="m 301.87506,-228.59329 q 0.455,0 0.84,0.155 0.39,0.15 0.67,0.44 0.285,0.285 0.445,0.71 0.16,0.42 0.16,0.96 0,0.21 -0.045,0.28 -0.045,0.07 -0.17,0.07 l -3.385,0 q 0.01,0.48 0.13,0.835 0.12,0.355 0.33,0.595 0.21,0.235 0.5,0.355 0.29,0.115 0.65,0.115 0.335,0 0.575,-0.075 0.245,-0.08 0.42,-0.17 0.175,-0.09 0.29,-0.165 0.12,-0.08 0.205,-0.08 0.11,0 0.17,0.085 l 0.25,0.325 q -0.165,0.2 -0.395,0.35 -0.23,0.145 -0.495,0.24 -0.26,0.095 -0.54,0.14 -0.28,0.05 -0.555,0.05 -0.525,0 -0.97,-0.175 -0.44,-0.18 -0.765,-0.52 -0.32,-0.345 -0.5,-0.85 -0.18,-0.505 -0.18,-1.16 0,-0.53 0.16,-0.99 0.165,-0.46 0.47,-0.795 0.305,-0.34 0.745,-0.53 0.44,-0.195 0.99,-0.195 z m 0.02,0.655 q -0.645,0 -1.015,0.375 -0.37,0.37 -0.46,1.03 l 2.77,0 q 0,-0.31 -0.09,-0.565 -0.085,-0.26 -0.255,-0.445 -0.165,-0.19 -0.405,-0.29 -0.24,-0.105 -0.545,-0.105 z"
           style=""
           id="path4246" />
        <path
           d="m 308.0235,-227.67829 q -0.06,0.11 -0.185,0.11 -0.075,0 -0.17,-0.055 -0.095,-0.055 -0.235,-0.12 -0.135,-0.07 -0.325,-0.125 -0.19,-0.06 -0.45,-0.06 -0.225,0 -0.405,0.06 -0.18,0.055 -0.31,0.155 -0.125,0.1 -0.195,0.235 -0.065,0.13 -0.065,0.285 0,0.195 0.11,0.325 0.115,0.13 0.3,0.225 0.185,0.095 0.42,0.17 0.235,0.07 0.48,0.155 0.25,0.08 0.485,0.18 0.235,0.1 0.42,0.25 0.185,0.15 0.295,0.37 0.115,0.215 0.115,0.52 0,0.35 -0.125,0.65 -0.125,0.295 -0.37,0.515 -0.245,0.215 -0.6,0.34 -0.355,0.125 -0.82,0.125 -0.53,0 -0.96,-0.17 -0.43,-0.175 -0.73,-0.445 l 0.21,-0.34 q 0.04,-0.065 0.095,-0.1 0.055,-0.035 0.14,-0.035 0.09,0 0.19,0.07 0.1,0.07 0.24,0.155 0.145,0.085 0.35,0.155 0.205,0.07 0.51,0.07 0.26,0 0.455,-0.065 0.195,-0.07 0.325,-0.185 0.13,-0.115 0.19,-0.265 0.065,-0.15 0.065,-0.32 0,-0.21 -0.115,-0.345 -0.11,-0.14 -0.295,-0.235 -0.185,-0.1 -0.425,-0.17 -0.235,-0.075 -0.485,-0.155 -0.245,-0.08 -0.485,-0.18 -0.235,-0.105 -0.42,-0.26 -0.185,-0.155 -0.3,-0.38 -0.11,-0.23 -0.11,-0.555 0,-0.29 0.12,-0.555 0.12,-0.27 0.35,-0.47 0.23,-0.205 0.565,-0.325 0.335,-0.12 0.765,-0.12 0.5,0 0.895,0.16 0.4,0.155 0.69,0.43 l -0.2,0.325 z"
           style=""
           id="path4248" />
        <path
           d="m 312.35944,-227.67829 q -0.06,0.11 -0.185,0.11 -0.075,0 -0.17,-0.055 -0.095,-0.055 -0.235,-0.12 -0.135,-0.07 -0.325,-0.125 -0.19,-0.06 -0.45,-0.06 -0.225,0 -0.405,0.06 -0.18,0.055 -0.31,0.155 -0.125,0.1 -0.195,0.235 -0.065,0.13 -0.065,0.285 0,0.195 0.11,0.325 0.115,0.13 0.3,0.225 0.185,0.095 0.42,0.17 0.235,0.07 0.48,0.155 0.25,0.08 0.485,0.18 0.235,0.1 0.42,0.25 0.185,0.15 0.295,0.37 0.115,0.215 0.115,0.52 0,0.35 -0.125,0.65 -0.125,0.295 -0.37,0.515 -0.245,0.215 -0.6,0.34 -0.355,0.125 -0.82,0.125 -0.53,0 -0.96,-0.17 -0.43,-0.175 -0.73,-0.445 l 0.21,-0.34 q 0.04,-0.065 0.095,-0.1 0.055,-0.035 0.14,-0.035 0.09,0 0.19,0.07 0.1,0.07 0.24,0.155 0.145,0.085 0.35,0.155 0.205,0.07 0.51,0.07 0.26,0 0.455,-0.065 0.195,-0.07 0.325,-0.185 0.13,-0.115 0.19,-0.265 0.065,-0.15 0.065,-0.32 0,-0.21 -0.115,-0.345 -0.11,-0.14 -0.295,-0.235 -0.185,-0.1 -0.425,-0.17 -0.235,-0.075 -0.485,-0.155 -0.245,-0.08 -0.485,-0.18 -0.235,-0.105 -0.42,-0.26 -0.185,-0.155 -0.3,-0.38 -0.11,-0.23 -0.11,-0.555 0,-0.29 0.12,-0.555 0.12,-0.27 0.35,-0.47 0.23,-0.205 0.565,-0.325 0.335,-0.12 0.765,-0.12 0.5,0 0.895,0.16 0.4,0.155 0.69,0.43 l -0.2,0.325 z"
           style=""
           id="path4250" />
        <path
           d="m 316.96537,-223.44829 q -0.13,0 -0.2,-0.04 -0.07,-0.045 -0.11,-0.17 l -0.1,-0.475 q -0.2,0.18 -0.395,0.325 -0.19,0.14 -0.4,0.24 -0.205,0.095 -0.445,0.145 -0.235,0.055 -0.525,0.055 -0.295,0 -0.555,-0.08 -0.26,-0.085 -0.455,-0.25 -0.19,-0.165 -0.305,-0.415 -0.11,-0.255 -0.11,-0.6 0,-0.3 0.165,-0.575 0.165,-0.28 0.535,-0.495 0.37,-0.215 0.965,-0.35 0.595,-0.14 1.46,-0.16 l 0,-0.395 q 0,-0.59 -0.255,-0.89 -0.255,-0.305 -0.745,-0.305 -0.33,0 -0.555,0.085 -0.22,0.08 -0.385,0.185 -0.16,0.1 -0.28,0.185 -0.115,0.08 -0.23,0.08 -0.09,0 -0.155,-0.045 -0.065,-0.05 -0.11,-0.12 l -0.16,-0.285 q 0.42,-0.405 0.905,-0.605 0.485,-0.2 1.075,-0.2 0.425,0 0.755,0.14 0.33,0.14 0.555,0.39 0.225,0.25 0.34,0.605 0.115,0.355 0.115,0.78 l 0,3.24 -0.395,0 z m -1.91,-0.545 q 0.235,0 0.43,-0.045 0.195,-0.05 0.365,-0.135 0.175,-0.09 0.33,-0.215 0.16,-0.13 0.31,-0.29 l 0,-1.05 q -0.615,0.02 -1.05,0.1 -0.43,0.075 -0.705,0.2 -0.27,0.125 -0.395,0.295 -0.12,0.17 -0.12,0.38 0,0.2 0.065,0.345 0.065,0.145 0.175,0.24 0.115,0.09 0.265,0.135 0.155,0.04 0.33,0.04 z"
           style=""
           id="path4252" />
        <path
           d="m 320.47131,-228.59829 q 0.33,0 0.615,0.075 0.285,0.07 0.52,0.21 l 1.375,0 0,0.33 q 0,0.165 -0.21,0.21 l -0.575,0.08 q 0.17,0.325 0.17,0.725 0,0.37 -0.145,0.675 -0.14,0.3 -0.39,0.515 -0.25,0.215 -0.6,0.33 -0.35,0.115 -0.76,0.115 -0.36,0 -0.675,-0.085 -0.16,0.1 -0.245,0.215 -0.08,0.115 -0.08,0.225 0,0.18 0.145,0.275 0.15,0.09 0.39,0.13 0.24,0.04 0.545,0.05 0.31,0.01 0.63,0.035 0.325,0.02 0.63,0.075 0.31,0.055 0.55,0.18 0.24,0.125 0.385,0.345 0.15,0.22 0.15,0.57 0,0.325 -0.165,0.63 -0.16,0.305 -0.465,0.54 -0.305,0.24 -0.75,0.38 -0.44,0.145 -0.995,0.145 -0.555,0 -0.97,-0.11 -0.415,-0.11 -0.69,-0.295 -0.275,-0.185 -0.415,-0.43 -0.135,-0.24 -0.135,-0.505 0,-0.375 0.235,-0.635 0.235,-0.26 0.64,-0.415 -0.225,-0.1 -0.355,-0.265 -0.13,-0.17 -0.13,-0.455 0,-0.11 0.04,-0.225 0.04,-0.12 0.12,-0.235 0.085,-0.115 0.205,-0.22 0.12,-0.105 0.28,-0.185 -0.375,-0.21 -0.585,-0.56 -0.21,-0.35 -0.21,-0.81 0,-0.37 0.14,-0.67 0.145,-0.305 0.4,-0.515 0.255,-0.215 0.605,-0.33 0.355,-0.115 0.775,-0.115 z m 1.605,5.425 q 0,-0.185 -0.105,-0.3 -0.105,-0.115 -0.285,-0.18 -0.175,-0.065 -0.41,-0.09 -0.235,-0.03 -0.5,-0.045 -0.26,-0.015 -0.53,-0.03 -0.27,-0.015 -0.52,-0.05 -0.28,0.13 -0.46,0.325 -0.175,0.195 -0.175,0.465 0,0.17 0.085,0.315 0.09,0.15 0.27,0.255 0.18,0.11 0.45,0.17 0.275,0.065 0.645,0.065 0.36,0 0.645,-0.065 0.285,-0.065 0.48,-0.185 0.2,-0.12 0.305,-0.285 0.105,-0.165 0.105,-0.365 z m -1.605,-2.75 q 0.27,0 0.475,-0.075 0.205,-0.075 0.345,-0.21 0.14,-0.135 0.21,-0.32 0.07,-0.19 0.07,-0.415 0,-0.465 -0.285,-0.74 -0.28,-0.275 -0.815,-0.275 -0.54,0 -0.825,0.275 -0.28,0.275 -0.28,0.74 0,0.225 0.07,0.415 0.075,0.185 0.215,0.32 0.14,0.135 0.345,0.21 0.205,0.075 0.475,0.075 z"
           style=""
           id="path4254" />
        <path
           d="m 325.8985,-228.59329 q 0.455,0 0.84,0.155 0.39,0.15 0.67,0.44 0.285,0.285 0.445,0.71 0.16,0.42 0.16,0.96 0,0.21 -0.045,0.28 -0.045,0.07 -0.17,0.07 l -3.385,0 q 0.01,0.48 0.13,0.835 0.12,0.355 0.33,0.595 0.21,0.235 0.5,0.355 0.29,0.115 0.65,0.115 0.335,0 0.575,-0.075 0.245,-0.08 0.42,-0.17 0.175,-0.09 0.29,-0.165 0.12,-0.08 0.205,-0.08 0.11,0 0.17,0.085 l 0.25,0.325 q -0.165,0.2 -0.395,0.35 -0.23,0.145 -0.495,0.24 -0.26,0.095 -0.54,0.14 -0.28,0.05 -0.555,0.05 -0.525,0 -0.97,-0.175 -0.44,-0.18 -0.765,-0.52 -0.32,-0.345 -0.5,-0.85 -0.18,-0.505 -0.18,-1.16 0,-0.53 0.16,-0.99 0.165,-0.46 0.47,-0.795 0.305,-0.34 0.745,-0.53 0.44,-0.195 0.99,-0.195 z m 0.02,0.655 q -0.645,0 -1.015,0.375 -0.37,0.37 -0.46,1.03 l 2.77,0 q 0,-0.31 -0.09,-0.565 -0.085,-0.26 -0.255,-0.445 -0.165,-0.19 -0.405,-0.29 -0.24,-0.105 -0.545,-0.105 z"
           style=""
           id="path4256" />
        <path
           d="m 333.94053,-230.69329 q 0.455,0 0.84,0.13 0.385,0.13 0.66,0.37 0.28,0.24 0.435,0.58 0.155,0.34 0.155,0.755 0,0.34 -0.09,0.61 -0.085,0.265 -0.25,0.47 -0.16,0.2 -0.39,0.34 -0.23,0.14 -0.515,0.225 0.7,0.185 1.05,0.62 0.355,0.435 0.355,1.09 0,0.495 -0.19,0.89 -0.185,0.395 -0.51,0.675 -0.325,0.275 -0.76,0.425 -0.43,0.145 -0.925,0.145 -0.57,0 -0.975,-0.14 -0.405,-0.145 -0.685,-0.395 -0.28,-0.25 -0.46,-0.59 -0.18,-0.345 -0.305,-0.745 l 0.385,-0.16 q 0.15,-0.065 0.29,-0.035 0.145,0.03 0.21,0.165 0.065,0.14 0.16,0.335 0.1,0.195 0.27,0.375 0.17,0.18 0.43,0.305 0.265,0.125 0.67,0.125 0.375,0 0.655,-0.12 0.285,-0.125 0.47,-0.32 0.19,-0.195 0.285,-0.435 0.095,-0.24 0.095,-0.475 0,-0.29 -0.075,-0.53 -0.075,-0.24 -0.28,-0.415 -0.205,-0.175 -0.565,-0.275 -0.355,-0.1 -0.915,-0.1 l 0,-0.645 q 0.46,-0.005 0.78,-0.1 0.325,-0.095 0.525,-0.26 0.205,-0.165 0.295,-0.395 0.095,-0.23 0.095,-0.51 0,-0.31 -0.1,-0.54 -0.095,-0.23 -0.265,-0.38 -0.17,-0.15 -0.405,-0.225 -0.23,-0.075 -0.5,-0.075 -0.27,0 -0.505,0.08 -0.23,0.08 -0.41,0.225 -0.175,0.14 -0.295,0.335 -0.12,0.195 -0.17,0.43 -0.065,0.175 -0.165,0.235 -0.095,0.055 -0.28,0.03 l -0.465,-0.08 q 0.07,-0.49 0.27,-0.865 0.2,-0.38 0.505,-0.635 0.31,-0.255 0.705,-0.385 0.4,-0.135 0.86,-0.135 z"
           style=""
           id="path4258" />
      </g>
    </g>
    <g
       id="g5250"
       transform="translate(83.931423,-1.5578755)">
      <path
         style="opacity:0.372;fill:#666666;fill-opacity:1;fill-rule:evenodd;stroke:none;stroke-linecap:round;stroke-opacity:1"
         d="m 380.27456,-240.70346 c 14.97142,0 27.02423,1.20532 27.02423,2.70251 l 0,12.67886 c 0,1.49719 -12.05281,2.70251 -27.02423,2.70251 -14.97142,0 -27.02422,-1.20532 -27.02422,-2.70251 l 0,-12.67886 c 0,-1.49719 12.0528,-2.70251 27.02422,-2.70251 z"
         id="rect4314" />
      <g
         style="font-style:normal;font-variant:normal;font-weight:normal;font-stretch:normal;font-size:10px;line-height:125%;font-family:Lato;-inkscape-font-specification:'Lato, Normal';text-align:start;letter-spacing:0px;word-spacing:0px;writing-mode:lr-tb;text-anchor:start;fill:#000000;fill-opacity:1;stroke:none;stroke-width:1px;stroke-linecap:butt;stroke-linejoin:miter;stroke-opacity:1"
         id="text4316">
        <path
           d="m 360.8425,-231.36184 q 0.06,0.12 0.115,0.255 0.055,0.13 0.11,0.26 0.05,-0.135 0.105,-0.265 0.055,-0.135 0.12,-0.255 l 2.43,-4.405 q 0.06,-0.115 0.13,-0.14 0.075,-0.025 0.205,-0.025 l 0.715,0 0,7.165 -0.85,0 0,-5.265 q 0,-0.105 0.005,-0.225 0.005,-0.12 0.015,-0.245 l -2.455,4.48 q -0.115,0.225 -0.35,0.225 l -0.14,0 q -0.235,0 -0.35,-0.225 l -2.51,-4.495 q 0.015,0.13 0.02,0.255 0.01,0.125 0.01,0.23 l 0,5.265 -0.85,0 0,-7.165 0.715,0 q 0.13,0 0.2,0.025 0.07,0.025 0.135,0.14 l 2.475,4.41 0,0 z"
           style=""
           id="path4262" />
        <path
           d="m 368.30359,-233.91684 q 0.455,0 0.84,0.155 0.39,0.15 0.67,0.44 0.285,0.285 0.445,0.71 0.16,0.42 0.16,0.96 0,0.21 -0.045,0.28 -0.045,0.07 -0.17,0.07 l -3.385,0 q 0.01,0.48 0.13,0.835 0.12,0.355 0.33,0.595 0.21,0.235 0.5,0.355 0.29,0.115 0.65,0.115 0.335,0 0.575,-0.075 0.245,-0.08 0.42,-0.17 0.175,-0.09 0.29,-0.165 0.12,-0.08 0.205,-0.08 0.11,0 0.17,0.085 l 0.25,0.325 q -0.165,0.2 -0.395,0.35 -0.23,0.145 -0.495,0.24 -0.26,0.095 -0.54,0.14 -0.28,0.05 -0.555,0.05 -0.525,0 -0.97,-0.175 -0.44,-0.18 -0.765,-0.52 -0.32,-0.345 -0.5,-0.85 -0.18,-0.505 -0.18,-1.16 0,-0.53 0.16,-0.99 0.165,-0.46 0.47,-0.795 0.305,-0.34 0.745,-0.53 0.44,-0.195 0.99,-0.195 z m 0.02,0.655 q -0.645,0 -1.015,0.375 -0.37,0.37 -0.46,1.03 l 2.77,0 q 0,-0.31 -0.09,-0.565 -0.085,-0.26 -0.255,-0.445 -0.165,-0.19 -0.405,-0.29 -0.24,-0.105 -0.545,-0.105 z"
           style=""
           id="path4264" />
        <path
           d="m 374.45203,-233.00184 q -0.06,0.11 -0.185,0.11 -0.075,0 -0.17,-0.055 -0.095,-0.055 -0.235,-0.12 -0.135,-0.07 -0.325,-0.125 -0.19,-0.06 -0.45,-0.06 -0.225,0 -0.405,0.06 -0.18,0.055 -0.31,0.155 -0.125,0.1 -0.195,0.235 -0.065,0.13 -0.065,0.285 0,0.195 0.11,0.325 0.115,0.13 0.3,0.225 0.185,0.095 0.42,0.17 0.235,0.07 0.48,0.155 0.25,0.08 0.485,0.18 0.235,0.1 0.42,0.25 0.185,0.15 0.295,0.37 0.115,0.215 0.115,0.52 0,0.35 -0.125,0.65 -0.125,0.295 -0.37,0.515 -0.245,0.215 -0.6,0.34 -0.355,0.125 -0.82,0.125 -0.53,0 -0.96,-0.17 -0.43,-0.175 -0.73,-0.445 l 0.21,-0.34 q 0.04,-0.065 0.095,-0.1 0.055,-0.035 0.14,-0.035 0.09,0 0.19,0.07 0.1,0.07 0.24,0.155 0.145,0.085 0.35,0.155 0.205,0.07 0.51,0.07 0.26,0 0.455,-0.065 0.195,-0.07 0.325,-0.185 0.13,-0.115 0.19,-0.265 0.065,-0.15 0.065,-0.32 0,-0.21 -0.115,-0.345 -0.11,-0.14 -0.295,-0.235 -0.185,-0.1 -0.425,-0.17 -0.235,-0.075 -0.485,-0.155 -0.245,-0.08 -0.485,-0.18 -0.235,-0.105 -0.42,-0.26 -0.185,-0.155 -0.3,-0.38 -0.11,-0.23 -0.11,-0.555 0,-0.29 0.12,-0.555 0.12,-0.27 0.35,-0.47 0.23,-0.205 0.565,-0.325 0.335,-0.12 0.765,-0.12 0.5,0 0.895,0.16 0.4,0.155 0.69,0.43 l -0.2,0.325 z"
           style=""
           id="path4266" />
        <path
           d="m 378.78797,-233.00184 q -0.06,0.11 -0.185,0.11 -0.075,0 -0.17,-0.055 -0.095,-0.055 -0.235,-0.12 -0.135,-0.07 -0.325,-0.125 -0.19,-0.06 -0.45,-0.06 -0.225,0 -0.405,0.06 -0.18,0.055 -0.31,0.155 -0.125,0.1 -0.195,0.235 -0.065,0.13 -0.065,0.285 0,0.195 0.11,0.325 0.115,0.13 0.3,0.225 0.185,0.095 0.42,0.17 0.235,0.07 0.48,0.155 0.25,0.08 0.485,0.18 0.235,0.1 0.42,0.25 0.185,0.15 0.295,0.37 0.115,0.215 0.115,0.52 0,0.35 -0.125,0.65 -0.125,0.295 -0.37,0.515 -0.245,0.215 -0.6,0.34 -0.355,0.125 -0.82,0.125 -0.53,0 -0.96,-0.17 -0.43,-0.175 -0.73,-0.445 l 0.21,-0.34 q 0.04,-0.065 0.095,-0.1 0.055,-0.035 0.14,-0.035 0.09,0 0.19,0.07 0.1,0.07 0.24,0.155 0.145,0.085 0.35,0.155 0.205,0.07 0.51,0.07 0.26,0 0.455,-0.065 0.195,-0.07 0.325,-0.185 0.13,-0.115 0.19,-0.265 0.065,-0.15 0.065,-0.32 0,-0.21 -0.115,-0.345 -0.11,-0.14 -0.295,-0.235 -0.185,-0.1 -0.425,-0.17 -0.235,-0.075 -0.485,-0.155 -0.245,-0.08 -0.485,-0.18 -0.235,-0.105 -0.42,-0.26 -0.185,-0.155 -0.3,-0.38 -0.11,-0.23 -0.11,-0.555 0,-0.29 0.12,-0.555 0.12,-0.27 0.35,-0.47 0.23,-0.205 0.565,-0.325 0.335,-0.12 0.765,-0.12 0.5,0 0.895,0.16 0.4,0.155 0.69,0.43 l -0.2,0.325 z"
           style=""
           id="path4268" />
        <path
           d="m 383.3939,-228.77184 q -0.13,0 -0.2,-0.04 -0.07,-0.045 -0.11,-0.17 l -0.1,-0.475 q -0.2,0.18 -0.395,0.325 -0.19,0.14 -0.4,0.24 -0.205,0.095 -0.445,0.145 -0.235,0.055 -0.525,0.055 -0.295,0 -0.555,-0.08 -0.26,-0.085 -0.455,-0.25 -0.19,-0.165 -0.305,-0.415 -0.11,-0.255 -0.11,-0.6 0,-0.3 0.165,-0.575 0.165,-0.28 0.535,-0.495 0.37,-0.215 0.965,-0.35 0.595,-0.14 1.46,-0.16 l 0,-0.395 q 0,-0.59 -0.255,-0.89 -0.255,-0.305 -0.745,-0.305 -0.33,0 -0.555,0.085 -0.22,0.08 -0.385,0.185 -0.16,0.1 -0.28,0.185 -0.115,0.08 -0.23,0.08 -0.09,0 -0.155,-0.045 -0.065,-0.05 -0.11,-0.12 l -0.16,-0.285 q 0.42,-0.405 0.905,-0.605 0.485,-0.2 1.075,-0.2 0.425,0 0.755,0.14 0.33,0.14 0.555,0.39 0.225,0.25 0.34,0.605 0.115,0.355 0.115,0.78 l 0,3.24 -0.395,0 z m -1.91,-0.545 q 0.235,0 0.43,-0.045 0.195,-0.05 0.365,-0.135 0.175,-0.09 0.33,-0.215 0.16,-0.13 0.31,-0.29 l 0,-1.05 q -0.615,0.02 -1.05,0.1 -0.43,0.075 -0.705,0.2 -0.27,0.125 -0.395,0.295 -0.12,0.17 -0.12,0.38 0,0.2 0.065,0.345 0.065,0.145 0.175,0.24 0.115,0.09 0.265,0.135 0.155,0.04 0.33,0.04 z"
           style=""
           id="path4270" />
        <path
           d="m 386.89984,-233.92184 q 0.33,0 0.615,0.075 0.285,0.07 0.52,0.21 l 1.375,0 0,0.33 q 0,0.165 -0.21,0.21 l -0.575,0.08 q 0.17,0.325 0.17,0.725 0,0.37 -0.145,0.675 -0.14,0.3 -0.39,0.515 -0.25,0.215 -0.6,0.33 -0.35,0.115 -0.76,0.115 -0.36,0 -0.675,-0.085 -0.16,0.1 -0.245,0.215 -0.08,0.115 -0.08,0.225 0,0.18 0.145,0.275 0.15,0.09 0.39,0.13 0.24,0.04 0.545,0.05 0.31,0.01 0.63,0.035 0.325,0.02 0.63,0.075 0.31,0.055 0.55,0.18 0.24,0.125 0.385,0.345 0.15,0.22 0.15,0.57 0,0.325 -0.165,0.63 -0.16,0.305 -0.465,0.54 -0.305,0.24 -0.75,0.38 -0.44,0.145 -0.995,0.145 -0.555,0 -0.97,-0.11 -0.415,-0.11 -0.69,-0.295 -0.275,-0.185 -0.415,-0.43 -0.135,-0.24 -0.135,-0.505 0,-0.375 0.235,-0.635 0.235,-0.26 0.64,-0.415 -0.225,-0.1 -0.355,-0.265 -0.13,-0.17 -0.13,-0.455 0,-0.11 0.04,-0.225 0.04,-0.12 0.12,-0.235 0.085,-0.115 0.205,-0.22 0.12,-0.105 0.28,-0.185 -0.375,-0.21 -0.585,-0.56 -0.21,-0.35 -0.21,-0.81 0,-0.37 0.14,-0.67 0.145,-0.305 0.4,-0.515 0.255,-0.215 0.605,-0.33 0.355,-0.115 0.775,-0.115 z m 1.605,5.425 q 0,-0.185 -0.105,-0.3 -0.105,-0.115 -0.285,-0.18 -0.175,-0.065 -0.41,-0.09 -0.235,-0.03 -0.5,-0.045 -0.26,-0.015 -0.53,-0.03 -0.27,-0.015 -0.52,-0.05 -0.28,0.13 -0.46,0.325 -0.175,0.195 -0.175,0.465 0,0.17 0.085,0.315 0.09,0.15 0.27,0.255 0.18,0.11 0.45,0.17 0.275,0.065 0.645,0.065 0.36,0 0.645,-0.065 0.285,-0.065 0.48,-0.185 0.2,-0.12 0.305,-0.285 0.105,-0.165 0.105,-0.365 z m -1.605,-2.75 q 0.27,0 0.475,-0.075 0.205,-0.075 0.345,-0.21 0.14,-0.135 0.21,-0.32 0.07,-0.19 0.07,-0.415 0,-0.465 -0.285,-0.74 -0.28,-0.275 -0.815,-0.275 -0.54,0 -0.825,0.275 -0.28,0.275 -0.28,0.74 0,0.225 0.07,0.415 0.075,0.185 0.215,0.32 0.14,0.135 0.345,0.21 0.205,0.075 0.475,0.075 z"
           style=""
           id="path4272" />
        <path
           d="m 392.32703,-233.91684 q 0.455,0 0.84,0.155 0.39,0.15 0.67,0.44 0.285,0.285 0.445,0.71 0.16,0.42 0.16,0.96 0,0.21 -0.045,0.28 -0.045,0.07 -0.17,0.07 l -3.385,0 q 0.01,0.48 0.13,0.835 0.12,0.355 0.33,0.595 0.21,0.235 0.5,0.355 0.29,0.115 0.65,0.115 0.335,0 0.575,-0.075 0.245,-0.08 0.42,-0.17 0.175,-0.09 0.29,-0.165 0.12,-0.08 0.205,-0.08 0.11,0 0.17,0.085 l 0.25,0.325 q -0.165,0.2 -0.395,0.35 -0.23,0.145 -0.495,0.24 -0.26,0.095 -0.54,0.14 -0.28,0.05 -0.555,0.05 -0.525,0 -0.97,-0.175 -0.44,-0.18 -0.765,-0.52 -0.32,-0.345 -0.5,-0.85 -0.18,-0.505 -0.18,-1.16 0,-0.53 0.16,-0.99 0.165,-0.46 0.47,-0.795 0.305,-0.34 0.745,-0.53 0.44,-0.195 0.99,-0.195 z m 0.02,0.655 q -0.645,0 -1.015,0.375 -0.37,0.37 -0.46,1.03 l 2.77,0 q 0,-0.31 -0.09,-0.565 -0.085,-0.26 -0.255,-0.445 -0.165,-0.19 -0.405,-0.29 -0.24,-0.105 -0.545,-0.105 z"
           style=""
           id="path4274" />
        <path
           d="m 398.62906,-229.45184 1.535,0 0,-4.885 q 0,-0.21 0.015,-0.445 l -1.275,1.095 q -0.065,0.055 -0.13,0.07 -0.065,0.01 -0.12,0 -0.055,-0.01 -0.105,-0.04 -0.045,-0.03 -0.07,-0.065 l -0.28,-0.385 2.135,-1.845 0.725,0 0,6.5 1.41,0 0,0.68 -3.84,0 0,-0.68 z"
           style=""
           id="path4276" />
      </g>
    </g>
    <path
       style="fill:none;fill-rule:evenodd;stroke:#000000;stroke-width:1;stroke-linecap:round;stroke-linejoin:miter;stroke-miterlimit:4;stroke-dasharray:none;stroke-opacity:1;marker-end:url(#marker5242)"
       d="m 329.03649,-244.13754 c 0,0 9.6069,-44.6591 37.64865,-25.4453"
       id="path4980"
       inkscape:connector-curvature="0" />
    <path
       style="fill:none;fill-rule:evenodd;stroke:#000000;stroke-width:1;stroke-linecap:round;stroke-linejoin:miter;stroke-miterlimit:4;stroke-dasharray:none;stroke-opacity:1;marker-end:url(#marker5286)"
       d="m 430.28088,-196.62233 c 0,0 25.18565,2.8561 33.49431,-24.14707"
       id="path5284"
       inkscape:connector-curvature="0" />
    <g
       style="font-style:normal;font-variant:normal;font-weight:500;font-stretch:normal;font-size:10px;line-height:125%;font-family:Inconsolata;-inkscape-font-specification:'Inconsolata, Medium';text-align:start;letter-spacing:0px;word-spacing:0px;writing-mode:lr-tb;text-anchor:start;fill:#000000;fill-opacity:1;stroke:none;stroke-width:1px;stroke-linecap:butt;stroke-linejoin:miter;stroke-opacity:1"
       id="text4174">
      <path
         d="m 455.0648,-201.42842 0,4.57 0.72,0 0,-2.22 c 0,-0.28 0.01,-0.58 0.32,-1.07 0.42,-0.66 0.96,-0.77 1.29,-0.77 0.38,0 0.62,0.18 0.75,0.34 0.06,0.08 0.09,0.16 0.17,0.23 l 0.34,-0.69 c -0.29,-0.3 -0.71,-0.5 -1.22,-0.5 -0.67,0 -1.35,0.34 -1.65,0.99 l 0.03,-0.88 -0.75,0 z"
         style=""
         id="path4279" />
      <path
         d="m 461.6548,-201.53842 c -1.09,0 -2.1,0.78 -2.1,2.44 0,1.53 0.95,2.34 2.19,2.34 0.66,0 1.25,-0.24 1.64,-0.71 l -0.4,-0.39 c -0.29,0.34 -0.73,0.52 -1.18,0.52 -0.61,0 -1.5,-0.34 -1.55,-1.71 l 3.24,0 c 0.03,-0.31 0.02,-0.61 -0.03,-0.87 -0.21,-1.23 -1.06,-1.62 -1.81,-1.62 z m -1.38,1.94 c 0.15,-1.08 0.84,-1.39 1.33,-1.39 0.74,0 1.27,0.65 1.18,1.39 l -2.51,0 z"
         style=""
         id="path4281" />
      <path
         d="m 468.6348,-200.67842 c -0.36,-0.53 -0.97,-0.85 -1.71,-0.85 -1.34,0 -2.29,1.01 -2.29,2.38 0,1.38 0.95,2.4 2.25,2.4 0.63,0 1.25,-0.26 1.68,-0.73 l -0.41,-0.48 c -0.31,0.35 -0.76,0.55 -1.21,0.55 -0.89,0 -1.57,-0.74 -1.57,-1.81 0,-1.04 0.67,-1.69 1.51,-1.69 0.78,0 1.15,0.54 1.18,0.6 0.04,0.07 -0.02,0.17 0.06,0.23 l 0.51,-0.6 z"
         style=""
         id="path4283" />
      <path
         d="m 471.6548,-201.53842 c -1.09,0 -2.1,0.78 -2.1,2.44 0,1.53 0.95,2.34 2.19,2.34 0.66,0 1.25,-0.24 1.64,-0.71 l -0.4,-0.39 c -0.29,0.34 -0.73,0.52 -1.18,0.52 -0.61,0 -1.5,-0.34 -1.55,-1.71 l 3.24,0 c 0.03,-0.31 0.02,-0.61 -0.03,-0.87 -0.21,-1.23 -1.06,-1.62 -1.81,-1.62 z m -1.38,1.94 c 0.15,-1.08 0.84,-1.39 1.33,-1.39 0.74,0 1.27,0.65 1.18,1.39 l -2.51,0 z"
         style=""
         id="path4285" />
      <path
         d="m 475.1348,-201.43842 0,0.59 1.1,0 0,3.41 -1.16,0 0,0.57 2.96,0 0,-0.57 -1.07,0 0,-4 -1.83,0 z m 1.48,-1.98 c -0.29,0 -0.52,0.23 -0.52,0.51 0,0.28 0.23,0.51 0.52,0.51 0.29,0 0.52,-0.23 0.52,-0.51 0,-0.28 -0.23,-0.51 -0.52,-0.51 z"
         style=""
         id="path4287" />
      <path
         d="m 479.4648,-201.43842 1.81,4.61 0.57,0 1.11,-2.61 c 0.27,-0.64 0.53,-1.3 0.68,-2 l -0.65,0 c -0.12,0.67 -0.36,1.3 -0.62,1.9 l -0.73,1.7 -1.32,-3.34 c -0.01,-0.02 -0.02,-0.04 -0.02,-0.06 0,-0.06 0.05,-0.12 0.03,-0.2 l -0.86,0 z"
         style=""
         id="path4289" />
      <path
         d="m 486.6548,-201.53842 c -1.09,0 -2.1,0.78 -2.1,2.44 0,1.53 0.95,2.34 2.19,2.34 0.66,0 1.25,-0.24 1.64,-0.71 l -0.4,-0.39 c -0.29,0.34 -0.73,0.52 -1.18,0.52 -0.61,0 -1.5,-0.34 -1.55,-1.71 l 3.24,0 c 0.03,-0.31 0.02,-0.61 -0.03,-0.87 -0.21,-1.23 -1.06,-1.62 -1.81,-1.62 z m -1.38,1.94 c 0.15,-1.08 0.84,-1.39 1.33,-1.39 0.74,0 1.27,0.65 1.18,1.39 l -2.51,0 z"
         style=""
         id="path4291" />
    </g>
  </g>
</svg>
