<?xml version="1.0" encoding="UTF-8" standalone="no"?>
<!DOCTYPE svg PUBLIC "-//W3C//DTD SVG 1.1//EN"
 "http://www.w3.org/Graphics/SVG/1.1/DTD/svg11.dtd">
<!-- Generated by graphviz version 2.40.1 (20161225.0304)
 -->
<!-- Title: %3 Pages: 1 -->
<svg width="695pt" height="260pt"
 viewBox="0.00 0.00 695.19 260.00" xmlns="http://www.w3.org/2000/svg" xmlns:xlink="http://www.w3.org/1999/xlink">
<g id="graph0" class="graph" transform="scale(1 1) rotate(0) translate(4 256)">
<title>%3</title>
<polygon fill="#ffffff" stroke="transparent" points="-4,4 -4,-256 691.1915,-256 691.1915,4 -4,4"/>
<!-- root_supervisor -->
<g id="node1" class="node">
<title>root_supervisor</title>
<ellipse fill="none" stroke="#0000ff" cx="348.7947" cy="-234" rx="114.2798" ry="18"/>
<text text-anchor="middle" x="348.7947" y="-230.3" font-family="Times,serif" font-size="14.00" fill="#000000">root&#45;supervisor (one&#45;for&#45;one)</text>
</g>
<!-- service_supervisor -->
<g id="node2" class="node">
<title>service_supervisor</title>
<ellipse fill="none" stroke="#0000ff" cx="260.7947" cy="-162" rx="124.5782" ry="18"/>
<text text-anchor="middle" x="260.7947" y="-158.3" font-family="Times,serif" font-size="14.00" fill="#000000">service&#45;supervisor (one&#45;for&#45;one)</text>
</g>
<!-- root_supervisor&#45;&gt;service_supervisor -->
<g id="edge2" class="edge">
<title>root_supervisor&#45;&gt;service_supervisor</title>
<path fill="none" stroke="#000000" d="M327.0419,-216.2022C316.0417,-207.2021 302.5241,-196.1423 290.5744,-186.3652"/>
<polygon fill="#000000" stroke="#000000" points="292.5582,-183.4661 282.6023,-179.8425 288.1255,-188.8838 292.5582,-183.4661"/>
</g>
<!-- logger -->
<g id="node11" class="node">
<title>logger</title>
<ellipse fill="none" stroke="#000000" cx="436.7947" cy="-162" rx="33.2948" ry="18"/>
<text text-anchor="middle" x="436.7947" y="-158.3" font-family="Times,serif" font-size="14.00" fill="#000000">logger</text>
</g>
<!-- root_supervisor&#45;&gt;logger -->
<g id="edge1" class="edge">
<title>root_supervisor&#45;&gt;logger</title>
<path fill="none" stroke="#000000" d="M370.5475,-216.2022C382.572,-206.3641 397.6046,-194.0647 410.3091,-183.6701"/>
<polygon fill="#000000" stroke="#000000" points="412.7433,-186.2007 418.2665,-177.1594 408.3106,-180.783 412.7433,-186.2007"/>
</g>
<!-- feed_importer -->
<g id="node3" class="node">
<title>feed_importer</title>
<ellipse fill="none" stroke="#000000" cx="59.7947" cy="-90" rx="59.5901" ry="18"/>
<text text-anchor="middle" x="59.7947" y="-86.3" font-family="Times,serif" font-size="14.00" fill="#000000">feed&#45;importer</text>
</g>
<!-- service_supervisor&#45;&gt;feed_importer -->
<g id="edge3" class="edge">
<title>service_supervisor&#45;&gt;feed_importer</title>
<path fill="none" stroke="#000000" d="M214.176,-145.3008C182.331,-133.8936 140.2385,-118.8157 108.0501,-107.2855"/>
<polygon fill="#000000" stroke="#000000" points="108.9954,-103.9064 98.4008,-103.8291 106.6347,-110.4964 108.9954,-103.9064"/>
</g>
<!-- scanner_supervisor -->
<g id="node4" class="node">
<title>scanner_supervisor</title>
<ellipse fill="none" stroke="#0000ff" cx="260.7947" cy="-90" rx="122.6784" ry="18"/>
<text text-anchor="middle" x="260.7947" y="-86.3" font-family="Times,serif" font-size="14.00" fill="#000000">scanner&#45;supervisor (one&#45;for&#45;all)</text>
</g>
<!-- service_supervisor&#45;&gt;scanner_supervisor -->
<g id="edge4" class="edge">
<title>service_supervisor&#45;&gt;scanner_supervisor</title>
<path fill="none" stroke="#000000" d="M260.7947,-143.8314C260.7947,-136.131 260.7947,-126.9743 260.7947,-118.4166"/>
<polygon fill="#000000" stroke="#000000" points="264.2948,-118.4132 260.7947,-108.4133 257.2948,-118.4133 264.2948,-118.4132"/>
</g>
<!-- socket_supervisor -->
<g id="node6" class="node">
<title>socket_supervisor</title>
<ellipse fill="none" stroke="#0000ff" cx="523.7947" cy="-90" rx="122.3786" ry="18"/>
<text text-anchor="middle" x="523.7947" y="-86.3" font-family="Times,serif" font-size="14.00" fill="#000000">socket&#45;supervisor (one&#45;for&#45;one)</text>
</g>
<!-- service_supervisor&#45;&gt;socket_supervisor -->
<g id="edge7" class="edge">
<title>service_supervisor&#45;&gt;socket_supervisor</title>
<path fill="none" stroke="#000000" d="M319.1629,-146.0209C359.5969,-134.9515 413.5569,-120.1792 455.9144,-108.5832"/>
<polygon fill="#000000" stroke="#000000" points="456.8687,-111.9508 465.5896,-105.9345 455.0203,-105.1992 456.8687,-111.9508"/>
</g>
<!-- scan_timer -->
<g id="node5" class="node">
<title>scan_timer</title>
<ellipse fill="none" stroke="#000000" cx="161.7947" cy="-18" rx="48.1917" ry="18"/>
<text text-anchor="middle" x="161.7947" y="-14.3" font-family="Times,serif" font-size="14.00" fill="#000000">scan&#45;timer</text>
</g>
<!-- scanner_supervisor&#45;&gt;scan_timer -->
<g id="edge5" class="edge">
<title>scanner_supervisor&#45;&gt;scan_timer</title>
<path fill="none" stroke="#000000" d="M236.3228,-72.2022C223.0458,-62.5463 206.5088,-50.5193 192.3877,-40.2495"/>
<polygon fill="#000000" stroke="#000000" points="194.1043,-37.1702 183.9583,-34.119 189.9871,-42.8313 194.1043,-37.1702"/>
</g>
<!-- scanner -->
<g id="node12" class="node">
<title>scanner</title>
<ellipse fill="none" stroke="#000000" cx="265.7947" cy="-18" rx="37.8943" ry="18"/>
<text text-anchor="middle" x="265.7947" y="-14.3" font-family="Times,serif" font-size="14.00" fill="#000000">scanner</text>
</g>
<!-- scanner_supervisor&#45;&gt;scanner -->
<g id="edge6" class="edge">
<title>scanner_supervisor&#45;&gt;scanner</title>
<path fill="none" stroke="#000000" d="M262.0564,-71.8314C262.5912,-64.131 263.227,-54.9743 263.8213,-46.4166"/>
<polygon fill="#000000" stroke="#000000" points="267.3147,-46.6317 264.516,-36.4133 260.3315,-46.1467 267.3147,-46.6317"/>
</g>
<!-- http_worker1 -->
<g id="node7" class="node">
<title>http_worker1</title>
<ellipse fill="none" stroke="#000000" cx="400.7947" cy="-18" rx="31.6951" ry="18"/>
<text text-anchor="middle" x="400.7947" y="-14.3" font-family="Times,serif" font-size="14.00" fill="#000000">http&#45;1</text>
</g>
<!-- socket_supervisor&#45;&gt;http_worker1 -->
<g id="edge8" class="edge">
<title>socket_supervisor&#45;&gt;http_worker1</title>
<path fill="none" stroke="#000000" d="M493.7055,-72.3868C475.0029,-61.4389 451.0025,-47.3899 432.08,-36.3133"/>
<polygon fill="#000000" stroke="#000000" points="433.6424,-33.1724 423.2441,-31.1411 430.1062,-39.2135 433.6424,-33.1724"/>
</g>
<!-- http_worker2 -->
<g id="node8" class="node">
<title>http_worker2</title>
<ellipse fill="none" stroke="#000000" cx="482.7947" cy="-18" rx="31.6951" ry="18"/>
<text text-anchor="middle" x="482.7947" y="-14.3" font-family="Times,serif" font-size="14.00" fill="#000000">http&#45;2</text>
</g>
<!-- socket_supervisor&#45;&gt;http_worker2 -->
<g id="edge9" class="edge">
<title>socket_supervisor&#45;&gt;http_worker2</title>
<path fill="none" stroke="#000000" d="M513.4487,-71.8314C508.6804,-63.4579 502.9317,-53.3626 497.7072,-44.1878"/>
<polygon fill="#000000" stroke="#000000" points="500.703,-42.3756 492.7131,-35.4177 494.6201,-45.8395 500.703,-42.3756"/>
</g>
<!-- http_worker3 -->
<g id="node9" class="node">
<title>http_worker3</title>
<ellipse fill="none" stroke="#000000" cx="564.7947" cy="-18" rx="31.6951" ry="18"/>
<text text-anchor="middle" x="564.7947" y="-14.3" font-family="Times,serif" font-size="14.00" fill="#000000">http&#45;3</text>
</g>
<!-- socket_supervisor&#45;&gt;http_worker3 -->
<g id="edge10" class="edge">
<title>socket_supervisor&#45;&gt;http_worker3</title>
<path fill="none" stroke="#000000" d="M534.1407,-71.8314C538.9089,-63.4579 544.6577,-53.3626 549.8822,-44.1878"/>
<polygon fill="#000000" stroke="#000000" points="552.9693,-45.8395 554.8763,-35.4177 546.8864,-42.3756 552.9693,-45.8395"/>
</g>
<!-- http_workern -->
<g id="node10" class="node">
<title>http_workern</title>
<ellipse fill="none" stroke="#000000" cx="650.7947" cy="-18" rx="36.2938" ry="18"/>
<text text-anchor="middle" x="650.7947" y="-14.3" font-family="Times,serif" font-size="14.00" fill="#000000">http&#45;…</text>
</g>
<!-- socket_supervisor&#45;&gt;http_workern -->
<g id="edge11" class="edge">
<title>socket_supervisor&#45;&gt;http_workern</title>
<path fill="none" stroke="#000000" d="M554.5379,-72.5708C573.6767,-61.7204 598.2825,-47.7707 617.8253,-36.6913"/>
<polygon fill="#000000" stroke="#000000" points="619.7145,-39.6437 626.6876,-31.667 616.2621,-33.5542 619.7145,-39.6437"/>
</g>
</g>
</svg>
