<?xml version="1.0" encoding="UTF-8" standalone="no"?>
<!-- Created with Inkscape (http://www.inkscape.org/) -->
<svg id="svg2" xmlns:rdf="http://www.w3.org/1999/02/22-rdf-syntax-ns#" xmlns="http://www.w3.org/2000/svg" viewBox="0 0 328.35008 59.492592" height="59.492mm" width="328.350mm" version="1.1" xmlns:cc="http://creativecommons.org/ns#" xmlns:dc="http://purl.org/dc/elements/1.1/">
 <defs id="defs4">
  <marker id="Arrow2Mend" refY="0" refX="0" orient="auto" overflow="visible">
   <path id="path5884" stroke-linejoin="round" d="m8.7186 4.0337-10.926-4.0177 10.926-4.0177c-1.7455 2.3721-1.7354 5.6175-6e-7 8.0354z" fill-rule="evenodd" transform="scale(-.6)" stroke="#000" stroke-width=".625"/>
  </marker>
  <marker id="StopL" refY="0" refX="0" orient="auto" overflow="visible">
   <path id="path6026" d="m0 5.65v-11.3" transform="scale(.8)" stroke="#000" stroke-width="1pt" fill="none"/>
  </marker>
  <linearGradient id="linearGradient6619" y2="530.9" gradientUnits="userSpaceOnUse" y1="530.9" x2="75.528" x1="67.087">
   <stop id="stop6615" stop-color="#6bbb6b" offset="0"/>
   <stop id="stop6617" stop-color="#6bbb6b" stop-opacity=".8" offset="1"/>
  </linearGradient>
  <linearGradient id="linearGradient6621" y2="530.9" gradientUnits="userSpaceOnUse" y1="530.9" x2="350.16" x1="208.01">
   <stop id="stop6631" stop-color="#6bbb6b" stop-opacity=".2" offset="0"/>
   <stop id="stop6633" stop-color="#6bbb6b" stop-opacity="0" offset="1"/>
  </linearGradient>
  <linearGradient id="linearGradient6623" y2="530.9" gradientUnits="userSpaceOnUse" y1="530.9" x2="206.23" x1="134.99">
   <stop id="stop6637" stop-color="#6bbb6b" stop-opacity=".4" offset="0"/>
   <stop id="stop6639" stop-color="#6bbb6b" stop-opacity=".2" offset="1"/>
  </linearGradient>
  <linearGradient id="linearGradient6625" y2="530.9" gradientUnits="userSpaceOnUse" y1="530.9" x2="133.21" x1="97.336">
   <stop id="stop6643" stop-color="#6bbb6b" stop-opacity=".6" offset="0"/>
   <stop id="stop6645" stop-color="#6bbb6b" stop-opacity=".4" offset="1"/>
  </linearGradient>
  <linearGradient id="linearGradient6627" y2="530.9" gradientUnits="userSpaceOnUse" y1="530.9" x2="95.554" x1="77.31">
   <stop id="stop6649" stop-color="#6bbb6b" stop-opacity=".8" offset="0"/>
   <stop id="stop6651" stop-color="#6bbb6b" stop-opacity=".6" offset="1"/>
  </linearGradient>
 </defs>
 <metadata id="metadata7">
  <rdf:RDF>
   <cc:Work rdf:about="">
    <dc:format>image/svg+xml</dc:format>
    <dc:type rdf:resource="http://purl.org/dc/dcmitype/StillImage"/>
    <dc:title/>
   </cc:Work>
  </rdf:RDF>
 </metadata>
 <g id="layer1" transform="translate(-52.914 -500.34)">
  <g id="g4159" stroke-linejoin="round" fill-rule="evenodd" stroke="#6bbb6b" stroke-linecap="round" stroke-width=".89108">
   <rect id="rect4138" opacity=".372" rx="2.3053" ry="0" height="26.263" width="17.352" y="517.76" x="77.756" fill="url(#linearGradient6627)"/>
   <rect id="rect4140" opacity=".372" rx="4.6471" ry="0" height="26.069" width="34.98" y="517.86" x="97.781" fill="url(#linearGradient6625)"/>
   <rect id="rect4142" opacity=".372" rx="9.3461" ry="0" height="25.796" width="70.35" y="518" x="135.43" fill="url(#linearGradient6623)"/>
   <rect id="rect4144" opacity=".372" rx="18.766" ry="0" height="25.416" width="141.26" y="518.19" x="208.46" fill="url(#linearGradient6621)"/>
  </g>
  <g id="g4165">
   <g id="text4146" transform="matrix(.89108 0 0 .89108 7.3072 59.307)">
    <path id="path4407" d="m386.97 503.66 4.638-2.406v0.762q0 0.102-0.048 0.18-0.048 0.072-0.168 0.132l-2.694 1.368q-0.12 0.066-0.258 0.114-0.132 0.042-0.282 0.078 0.15 0.03 0.282 0.078 0.138 0.048 0.258 0.108l2.694 1.362q0.12 0.06 0.168 0.138t0.048 0.174v0.768l-4.638-2.412v-0.444z"/>
    <path id="path4409" d="m396.5 499.23q0.546 0 1.02 0.162t0.822 0.474q0.348 0.306 0.546 0.75t0.198 1.008q0 0.48-0.144 0.894-0.144 0.408-0.39 0.78t-0.57 0.726q-0.318 0.354-0.678 0.714l-2.268 2.316q0.24-0.066 0.486-0.102 0.246-0.042 0.474-0.042h2.88q0.174 0 0.276 0.102t0.102 0.264v0.648h-5.736v-0.366q0-0.114 0.048-0.234t0.15-0.222l2.754-2.766q0.342-0.348 0.624-0.666 0.282-0.324 0.48-0.648t0.306-0.654q0.108-0.336 0.108-0.714t-0.12-0.66q-0.12-0.288-0.33-0.474-0.204-0.186-0.486-0.276-0.282-0.096-0.606-0.096-0.33 0-0.606 0.096t-0.492 0.27q-0.21 0.168-0.354 0.402t-0.204 0.516q-0.072 0.21-0.198 0.282-0.12 0.066-0.342 0.036l-0.558-0.096q0.084-0.588 0.324-1.038 0.246-0.456 0.612-0.762 0.372-0.306 0.846-0.462 0.474-0.162 1.026-0.162z"/>
    <path id="path4411" style="baseline-shift:super" d="m400.47 503.12v-3.9507h0.4173q0.1482 0 0.1833 0.1443l0.0546 0.429q0.2574-0.2847 0.5772-0.4602t0.7371-0.1755q0.3237 0 0.5694 0.1092 0.2496 0.1053 0.4134 0.3042 0.1677 0.195 0.2535 0.4719t0.0858 0.6123v2.5155h-0.6981v-2.5155q0-0.4485-0.2067-0.6942-0.2028-0.2496-0.6201-0.2496-0.312 0-0.5811 0.1482-0.2652 0.1482-0.4875 0.4017v2.9094h-0.6981z"/>
   </g>
   <g id="text4152" transform="matrix(.89108 0 0 .89108 7.3072 59.307)">
    <path id="path4400" style="baseline-shift:super" d="m225.73 502.9v-3.9507h0.4173q0.1482 0 0.1833 0.1443l0.0546 0.429q0.2574-0.2847 0.5772-0.4602t0.7371-0.1755q0.3237 0 0.5694 0.1092 0.2496 0.1053 0.4134 0.3042 0.1677 0.195 0.2535 0.4719t0.0858 0.6123v2.5155h-0.6981v-2.5155q0-0.4485-0.2067-0.6942-0.2028-0.2496-0.6201-0.2496-0.312 0-0.5811 0.1482-0.2652 0.1482-0.4875 0.4017v2.9094h-0.6981z"/>
    <path id="path4402" style="baseline-shift:super" d="m230.12 500.02h3.354v0.5265h-3.354v-0.5265z"/>
    <path id="path4404" style="baseline-shift:super" d="m235.04 502.37h1.1973v-3.8103q0-0.1638 0.0117-0.3471l-0.9945 0.8541q-0.0507 0.0429-0.1014 0.0546-0.0507 0.008-0.0936 0t-0.0819-0.0312q-0.0351-0.0234-0.0546-0.0507l-0.2184-0.3003 1.6653-1.4391h0.5655v5.07h1.0998v0.5304h-2.9952v-0.5304z"/>
   </g>
   <g id="text4158" transform="matrix(.89108 0 0 .89108 7.3072 59.307)">
    <path id="path4393" style="baseline-shift:super" d="m143.36 502.9v-3.9507h0.4173q0.1482 0 0.1833 0.1443l0.0546 0.429q0.2574-0.2847 0.5772-0.4602t0.7371-0.1755q0.3237 0 0.5694 0.1092 0.2496 0.1053 0.4134 0.3042 0.1677 0.195 0.2535 0.4719t0.0858 0.6123v2.5155h-0.6981v-2.5155q0-0.4485-0.2067-0.6942-0.2028-0.2496-0.6201-0.2496-0.312 0-0.5811 0.1482-0.2652 0.1482-0.4875 0.4017v2.9094h-0.6981z"/>
    <path id="path4395" style="baseline-shift:super" d="m147.75 500.02h3.354v0.5265h-3.354v-0.5265z"/>
    <path id="path4397" style="baseline-shift:super" d="m154 497.25q0.3549 0 0.663 0.1053t0.5343 0.3081q0.2262 0.1989 0.3549 0.4875t0.1287 0.6552q0 0.312-0.0936 0.5811-0.0936 0.2652-0.2535 0.507t-0.3705 0.4719q-0.2067 0.2301-0.4407 0.4641l-1.4742 1.5054q0.156-0.0429 0.3159-0.0663 0.1599-0.0273 0.3081-0.0273h1.872q0.1131 0 0.1794 0.0663t0.0663 0.1716v0.4212h-3.7284v-0.2379q0-0.0741 0.0312-0.1521t0.0975-0.1443l1.7901-1.7979q0.2223-0.2262 0.4056-0.4329 0.1833-0.2106 0.312-0.4212t0.1989-0.4251q0.0702-0.2184 0.0702-0.4641t-0.078-0.429q-0.078-0.1872-0.2145-0.3081-0.1326-0.1209-0.3159-0.1794-0.1833-0.0624-0.3939-0.0624-0.2145 0-0.3939 0.0624t-0.3198 0.1755q-0.1365 0.1092-0.2301 0.2613t-0.1326 0.3354q-0.0468 0.1365-0.1287 0.1833-0.078 0.0429-0.2223 0.0234l-0.3627-0.0624q0.0546-0.3822 0.2106-0.6747 0.1599-0.2964 0.3978-0.4953 0.2418-0.1989 0.5499-0.3003 0.3-0.11 0.66-0.11z"/>
   </g>
   <g id="text4172" transform="matrix(.89108 0 0 .89108 7.6857 59.307)">
    <path id="path4386" style="baseline-shift:super" d="m100.84 502.95v-3.9507h0.4173q0.1482 0 0.1833 0.1443l0.0546 0.429q0.2574-0.2847 0.5772-0.4602t0.7371-0.1755q0.3237 0 0.5694 0.1092 0.2496 0.1053 0.4134 0.3042 0.1677 0.195 0.2535 0.4719t0.0858 0.6123v2.5155h-0.6981v-2.5155q0-0.4485-0.2067-0.6942-0.2028-0.2496-0.6201-0.2496-0.312 0-0.5811 0.1482-0.2652 0.1482-0.4875 0.4017v2.9094h-0.6981z"/>
    <path id="path4388" style="baseline-shift:super" d="m105.23 500.07h3.354v0.5265h-3.354v-0.5265z"/>
    <path id="path4390" style="baseline-shift:super" d="m111.5 497.3q0.3549 0 0.6552 0.1014t0.5148 0.2886q0.2184 0.1872 0.3393 0.4524t0.1209 0.5889q0 0.2652-0.0702 0.4758-0.0663 0.2067-0.195 0.3666-0.1248 0.156-0.3042 0.2652t-0.4017 0.1755q0.546 0.1443 0.819 0.4836 0.2769 0.3393 0.2769 0.8502 0 0.3861-0.1482 0.6942-0.1443 0.3081-0.3978 0.5265-0.2535 0.2145-0.5928 0.3315-0.3354 0.1131-0.7215 0.1131-0.4446 0-0.7605-0.1092-0.3159-0.1131-0.5343-0.3081t-0.3588-0.4602q-0.1404-0.2691-0.2379-0.5811l0.3003-0.1248q0.117-0.0507 0.2262-0.0273 0.1131 0.0234 0.1638 0.1287 0.0507 0.1092 0.1248 0.2613 0.078 0.1521 0.2106 0.2925t0.3354 0.2379q0.2067 0.0975 0.5226 0.0975 0.2925 0 0.5109-0.0936 0.2223-0.0975 0.3666-0.2496 0.1482-0.1521 0.2223-0.3393t0.0741-0.3705q0-0.2262-0.0585-0.4134t-0.2184-0.3237-0.4407-0.2145q-0.2769-0.078-0.7137-0.078v-0.5031q0.3588-0.004 0.6084-0.078 0.2535-0.0741 0.4095-0.2028 0.1599-0.1287 0.2301-0.3081 0.0741-0.1794 0.0741-0.3978 0-0.2418-0.078-0.4212-0.0741-0.1794-0.2067-0.2964t-0.3159-0.1755q-0.1794-0.0585-0.39-0.0585t-0.3939 0.0624q-0.1794 0.0624-0.3198 0.1755-0.1365 0.1092-0.2301 0.2613t-0.1326 0.3354q-0.0507 0.1365-0.1287 0.1833-0.0741 0.0429-0.2184 0.0234l-0.3627-0.0624q0.0546-0.3822 0.2106-0.6747 0.156-0.2964 0.3939-0.4953 0.2418-0.1989 0.5499-0.3003 0.312-0.1053 0.6708-0.1053z"/>
   </g>
  </g>
  <rect id="rect4178" opacity=".372" stroke-linejoin="round" fill-rule="evenodd" rx="1.003" ry="0" height="26.299" width="7.5497" stroke="#6bbb6b" stroke-linecap="round" y="517.75" x="67.533" stroke-width=".89108" fill="url(#linearGradient6619)"/>
  <g id="text4180" transform="matrix(.89108 0 0 .89108 7.1811 59.307)">
   <path id="path4379" style="baseline-shift:super" d="m78.873 502.99v-3.9507h0.4173q0.1482 0 0.1833 0.1443l0.0546 0.429q0.2574-0.2847 0.5772-0.4602t0.7371-0.1755q0.3237 0 0.5694 0.1092 0.2496 0.1053 0.4134 0.3042 0.1677 0.195 0.2535 0.4719t0.0858 0.6123v2.5155h-0.6981v-2.5155q0-0.4485-0.2067-0.6942-0.2028-0.2496-0.6201-0.2496-0.312 0-0.5811 0.1482-0.2652 0.1482-0.4875 0.4017v2.9094h-0.6981z"/>
   <path id="path4381" style="baseline-shift:super" d="m83.265 500.11h3.354v0.5265h-3.354v-0.5265z"/>
   <path id="path4383" style="baseline-shift:super" d="m90.66 500.98h0.8463v0.3978q0 0.0624-0.039 0.1053-0.0351 0.0429-0.1131 0.0429h-0.6942v1.4703h-0.6084v-1.4703h-2.4804q-0.078 0-0.1365-0.0429-0.0546-0.0468-0.0702-0.1131l-0.0702-0.3549 2.7183-3.6075h0.6474v3.5724zm-0.6084-2.3049q0-0.1014 0.0039-0.2184 0.0078-0.1209 0.0273-0.2457l-2.0358 2.769h2.0046v-2.3049z"/>
  </g>
  <g id="g4188" fill="none">
   <g id="g4190" stroke-width=".89108" stroke-dasharray="0.89107898, 0.89107898" stroke="#dcdcdc">
    <path id="path4194" d="m349.39 516.39v-15.987"/>
    <path id="path4196" d="m205.66 516.33v-15.987"/>
    <path id="path4198" d="m132.59 516.33v-15.987"/>
    <path id="path4200" d="m95.168 516.33v-15.987"/>
    <path id="path4202" d="m74.997 516.33v-15.987"/>
   </g>
   <path id="path7135" stroke-linejoin="round" marker-end="url(#Arrow2Mend)" d="m67.978 554.55h281.73" marker-start="url(#StopL)" stroke="#000" stroke-width=".5"/>
  </g>
  <g id="g8751" transform="translate(8.9857)">
   <path id="rect8749" fill-rule="evenodd" fill="#fff" d="m178.33 548.22h41.169c0.55566 0 1.003 0.44733 1.003 1.003v9.6096c0 0.55566-0.44733 1.003-1.003 1.003h-41.169c-0.55566 0-1.003-0.44733-1.003-1.003v-9.6096c0-0.55566 0.44733-1.003 1.003-1.003z"/>
   <g id="text7191">
    <path id="path8857" d="m184.84 557.65q-0.19 0-0.24-0.185l-0.08-0.615q-0.325 0.395-0.745 0.635-0.415 0.235-0.955 0.235-0.435 0-0.79-0.165-0.355-0.17-0.605-0.495t-0.385-0.81-0.135-1.115q0-0.56 0.15-1.04 0.15-0.485 0.43-0.84t0.685-0.555q0.41-0.205 0.92-0.205 0.465 0 0.795 0.16 0.335 0.155 0.595 0.44v-2.81h0.89v7.365h-0.53zm-1.73-0.65q0.44 0 0.765-0.2 0.33-0.2 0.605-0.565v-2.445q-0.25-0.33-0.54-0.465t-0.65-0.135q-0.705 0-1.085 0.505t-0.38 1.44q0 0.495 0.085 0.85 0.085 0.35 0.25 0.58 0.165 0.225 0.405 0.33t0.545 0.105z"/>
    <path id="path8859" d="m187.73 552.58v5.065h-0.89v-5.065h0.89zm0.19-1.59q0 0.13-0.055 0.245-0.05 0.11-0.14 0.2-0.085 0.085-0.205 0.135-0.115 0.05-0.245 0.05t-0.245-0.05q-0.11-0.05-0.195-0.135-0.085-0.09-0.135-0.2-0.05-0.115-0.05-0.245t0.05-0.245q0.05-0.12 0.135-0.205 0.085-0.09 0.195-0.14 0.115-0.05 0.245-0.05t0.245 0.05q0.12 0.05 0.205 0.14 0.09 0.085 0.14 0.205 0.055 0.115 0.055 0.245z"/>
    <path id="path8861" d="m192.14 553.42q-0.06 0.11-0.185 0.11-0.075 0-0.17-0.055t-0.235-0.12q-0.135-0.07-0.325-0.125-0.19-0.06-0.45-0.06-0.225 0-0.405 0.06-0.18 0.055-0.31 0.155-0.125 0.1-0.195 0.235-0.065 0.13-0.065 0.285 0 0.195 0.11 0.325 0.115 0.13 0.3 0.225t0.42 0.17q0.235 0.07 0.48 0.155 0.25 0.08 0.485 0.18t0.42 0.25 0.295 0.37q0.115 0.215 0.115 0.52 0 0.35-0.125 0.65-0.125 0.295-0.37 0.515-0.245 0.215-0.6 0.34t-0.82 0.125q-0.53 0-0.96-0.17-0.43-0.175-0.73-0.445l0.21-0.34q0.04-0.065 0.095-0.1t0.14-0.035q0.09 0 0.19 0.07t0.24 0.155q0.145 0.085 0.35 0.155t0.51 0.07q0.26 0 0.455-0.065 0.195-0.07 0.325-0.185t0.19-0.265q0.065-0.15 0.065-0.32 0-0.21-0.115-0.345-0.11-0.14-0.295-0.235-0.185-0.1-0.425-0.17-0.235-0.075-0.485-0.155-0.245-0.08-0.485-0.18-0.235-0.105-0.42-0.26t-0.3-0.38q-0.11-0.23-0.11-0.555 0-0.29 0.12-0.555 0.12-0.27 0.35-0.47 0.23-0.205 0.565-0.325t0.765-0.12q0.5 0 0.895 0.16 0.4 0.155 0.69 0.43l-0.2 0.325z"/>
    <path id="path8863" d="m195.08 557.73q-0.6 0-0.925-0.335-0.32-0.335-0.32-0.965v-3.1h-0.61q-0.08 0-0.135-0.045-0.055-0.05-0.055-0.15v-0.355l0.83-0.105 0.205-1.565q0.015-0.075 0.065-0.12 0.055-0.05 0.14-0.05h0.45v1.745h1.465v0.645h-1.465v3.04q0 0.32 0.155 0.475t0.4 0.155q0.14 0 0.24-0.035 0.105-0.04 0.18-0.085t0.125-0.08q0.055-0.04 0.095-0.04 0.07 0 0.125 0.085l0.26 0.425q-0.23 0.215-0.555 0.34-0.325 0.12-0.67 0.12z"/>
    <path id="path8865" d="m200.34 557.65q-0.13 0-0.2-0.04-0.07-0.045-0.11-0.17l-0.1-0.475q-0.2 0.18-0.395 0.325-0.19 0.14-0.4 0.24-0.205 0.095-0.445 0.145-0.235 0.055-0.525 0.055-0.295 0-0.555-0.08-0.26-0.085-0.455-0.25-0.19-0.165-0.305-0.415-0.11-0.255-0.11-0.6 0-0.3 0.165-0.575 0.165-0.28 0.535-0.495t0.965-0.35q0.595-0.14 1.46-0.16v-0.395q0-0.59-0.255-0.89-0.255-0.305-0.745-0.305-0.33 0-0.555 0.085-0.22 0.08-0.385 0.185-0.16 0.1-0.28 0.185-0.115 0.08-0.23 0.08-0.09 0-0.155-0.045-0.065-0.05-0.11-0.12l-0.16-0.285q0.42-0.405 0.905-0.605t1.075-0.2q0.425 0 0.755 0.14t0.555 0.39 0.34 0.605 0.115 0.78v3.24h-0.395zm-1.91-0.545q0.235 0 0.43-0.045 0.195-0.05 0.365-0.135 0.175-0.09 0.33-0.215 0.16-0.13 0.31-0.29v-1.05q-0.615 0.02-1.05 0.1-0.43 0.075-0.705 0.2-0.27 0.125-0.395 0.295-0.12 0.17-0.12 0.38 0 0.2 0.065 0.345t0.175 0.24q0.115 0.09 0.265 0.135 0.155 0.04 0.33 0.04z"/>
    <path id="path8867" d="m202.08 557.65v-5.065h0.535q0.19 0 0.235 0.185l0.07 0.55q0.33-0.365 0.74-0.59t0.945-0.225q0.415 0 0.73 0.14 0.32 0.135 0.53 0.39 0.215 0.25 0.325 0.605t0.11 0.785v3.225h-0.895v-3.225q0-0.575-0.265-0.89-0.26-0.32-0.795-0.32-0.4 0-0.745 0.19-0.34 0.19-0.625 0.515v3.73h-0.895z"/>
    <path id="path8869" d="m211.19 553.48q-0.04 0.055-0.08 0.085t-0.11 0.03q-0.075 0-0.165-0.06-0.09-0.065-0.225-0.14-0.13-0.075-0.325-0.135-0.19-0.065-0.47-0.065-0.375 0-0.66 0.135-0.285 0.13-0.48 0.38-0.19 0.25-0.29 0.605-0.095 0.355-0.095 0.795 0 0.46 0.105 0.82 0.105 0.355 0.295 0.6 0.195 0.24 0.465 0.37 0.275 0.125 0.615 0.125 0.325 0 0.535-0.075 0.21-0.08 0.345-0.175 0.14-0.095 0.23-0.17 0.095-0.08 0.185-0.08 0.11 0 0.17 0.085l0.25 0.325q-0.165 0.205-0.375 0.35t-0.455 0.245q-0.24 0.095-0.505 0.14t-0.54 0.045q-0.475 0-0.885-0.175-0.405-0.175-0.705-0.505-0.3-0.335-0.47-0.82t-0.17-1.105q0-0.565 0.155-1.045 0.16-0.48 0.46-0.825 0.305-0.35 0.745-0.545 0.445-0.195 1.02-0.195 0.535 0 0.94 0.175 0.41 0.17 0.725 0.485l-0.235 0.32z"/>
    <path id="path8871" d="m214.41 552.5q0.455 0 0.84 0.155 0.39 0.15 0.67 0.44 0.285 0.285 0.445 0.71 0.16 0.42 0.16 0.96 0 0.21-0.045 0.28t-0.17 0.07h-3.385q0.01 0.48 0.13 0.835t0.33 0.595q0.21 0.235 0.5 0.355 0.29 0.115 0.65 0.115 0.335 0 0.575-0.075 0.245-0.08 0.42-0.17t0.29-0.165q0.12-0.08 0.205-0.08 0.11 0 0.17 0.085l0.25 0.325q-0.165 0.2-0.395 0.35-0.23 0.145-0.495 0.24-0.26 0.095-0.54 0.14-0.28 0.05-0.555 0.05-0.525 0-0.97-0.175-0.44-0.18-0.765-0.52-0.32-0.345-0.5-0.85t-0.18-1.16q0-0.53 0.16-0.99 0.165-0.46 0.47-0.795 0.305-0.34 0.745-0.53 0.44-0.195 0.99-0.195zm0.02 0.655q-0.645 0-1.015 0.375-0.37 0.37-0.46 1.03h2.77q0-0.31-0.09-0.565-0.085-0.26-0.255-0.445-0.165-0.19-0.405-0.29-0.24-0.105-0.545-0.105z"/>
   </g>
  </g>
 </g>
</svg>
