<?xml version="1.0" encoding="UTF-8" standalone="no"?>
<svg
   xmlns:dc="http://purl.org/dc/elements/1.1/"
   xmlns:cc="http://creativecommons.org/ns#"
   xmlns:rdf="http://www.w3.org/1999/02/22-rdf-syntax-ns#"
   xmlns:svg="http://www.w3.org/2000/svg"
   xmlns="http://www.w3.org/2000/svg"
   version="1.1"
   id="svg5313"
   viewBox="0 0 431.39642 266.20459"
   height="266.20459pt"
   width="431.39642pt">
  <metadata
     id="metadata5801">
    <rdf:RDF>
      <cc:Work
         rdf:about="">
        <dc:format>image/svg+xml</dc:format>
        <dc:type
           rdf:resource="http://purl.org/dc/dcmitype/StillImage" />
        <dc:title></dc:title>
      </cc:Work>
    </rdf:RDF>
  </metadata>
  <defs
     id="defs5799" />
  <g
     transform="matrix(-0.65532821,-0.75534425,0.75534425,-0.65532821,179.07274,440.69509)"
     id="g6618">
    <g
       class="node"
       id="node1"
       transform="translate(4,445)">
      <title
         id="title5321">288799116572840229826400393228186816726</title>
      <circle
         style="fill:#fa91f0;stroke:#fa91f0"
         r="14.5"
         id="ellipse5323"
         cy="-399.98499"
         cx="207.80811" />
    </g>
    <g
       class="node"
       id="node2"
       transform="translate(4,445)">
      <title
         id="title5326">328195631542605159717044935356501157328</title>
      <circle
         style="fill:#fa91a7;stroke:#fa91a7"
         r="14.5"
         id="ellipse5328"
         cy="-426.99271"
         cx="267.1272" />
    </g>
    <g
       class="edge"
       id="edge1"
       transform="translate(4,445)">
      <title
         id="title5331">288799116572840229826400393228186816726-&gt;328195631542605159717044935356501157328</title>
      <path
         style="fill:none;stroke:#6d7279"
         id="path5333"
         d="m 221.2685,-406.1135 c 8.1911,-3.7293 18.7599,-8.5413 27.6867,-12.6056" />
      <polygon
         style="fill:#6d7279;stroke:#6d7279"
         id="polygon5335"
         points="248.4443,-420.4093 248.4443,-420.4093 253.72,-420.8885 249.8946,-417.2239 " />
    </g>
    <g
       class="node"
       id="node3"
       transform="translate(4,445)">
      <title
         id="title5338">247421096997359509185586096511806622674</title>
      <circle
         style="fill:#b791fa;stroke:#b791fa"
         r="14.5"
         id="ellipse5340"
         cy="-287.5661"
         cx="317.28571" />
    </g>
    <g
       class="edge"
       id="edge2"
       transform="translate(4,445)">
      <title
         id="title5343">288799116572840229826400393228186816726-&gt;247421096997359509185586096511806622674</title>
      <path
         style="fill:none;stroke:#7f858e;stroke-dasharray:1, 5"
         id="path5345"
         d="m 218.3053,-389.2058 c 19.8318,20.3647 62.8049,64.4923 85.0337,87.3183" />
      <polygon
         style="fill:#7f858e;stroke:#7f858e"
         id="polygon5347"
         points="304.7455,-302.9516 304.7455,-302.9516 306.9802,-298.1485 302.238,-300.5097 " />
    </g>
    <g
       class="node"
       id="node4"
       transform="translate(4,445)">
      <title
         id="title5350">188492473068794308163754971150040250344</title>
      <circle
         style="fill:#91d8fa;stroke:#91d8fa"
         r="14.5"
         id="ellipse5352"
         cy="-267.48889"
         cx="404.73291" />
    </g>
    <g
       class="edge"
       id="edge3"
       transform="translate(4,445)">
      <title
         id="title5355">288799116572840229826400393228186816726-&gt;188492473068794308163754971150040250344</title>
      <path
         style="fill:none;stroke:#7a8088"
         id="path5357"
         d="m 220.1266,-391.6968 c 34.0645,22.9195 129.5525,87.1663 168.1294,113.1218" />
      <polygon
         style="fill:#7a8088;stroke:#7a8088"
         id="polygon5359"
         points="389.4989,-279.848 389.4989,-279.848 392.6704,-275.6048 387.5451,-276.9441 " />
    </g>
    <g
       class="node"
       id="node5"
       transform="translate(4,445)">
      <title
         id="title5362">53320045696887335194993346253191689308</title>
      <circle
         style="fill:#faf491;stroke:#faf491"
         r="14.5"
         id="ellipse5364"
         cy="-14.2288"
         cx="185.84911" />
    </g>
    <g
       class="edge"
       id="edge4"
       transform="translate(4,445)">
      <title
         id="title5367">288799116572840229826400393228186816726-&gt;53320045696887335194993346253191689308</title>
      <path
         style="fill:none;stroke:#b2bac6"
         id="path5369"
         d="m 205.3587,-385.45 c -7.7568,47.6446 -30.9695,203.4605 -25.7622,332.8402 0.2453,6.0944 1.0962,12.6673 2.0946,18.6221" />
      <polygon
         style="fill:#b2bac6;stroke:#b2bac6"
         id="polygon5371"
         points="183.475,-33.955 183.475,-33.955 182.6365,-28.7244 180.0301,-33.3362 " />
    </g>
    <g
       class="edge"
       id="edge58"
       transform="translate(4,445)">
      <title
         id="title5374">288799116572840229826400393228186816726-&gt;53320045696887335194993346253191689308</title>
      <path
         style="fill:none;stroke:#fabb91;stroke-width:3;stroke-dasharray:5, 2"
         id="path5376"
         d="m 205.3587,-385.45 c -7.7568,47.6446 -30.9695,203.4605 -25.7622,332.8402 0.2453,6.0944 1.0962,12.6673 2.0946,18.6221" />
      <polygon
         style="fill:#fabb91;stroke:#fabb91;stroke-width:3"
         id="polygon5378"
         points="183.475,-33.955 183.475,-33.955 182.6365,-28.7244 180.0301,-33.3362 " />
    </g>
    <g
       class="node"
       id="node6"
       transform="translate(4,445)">
      <title
         id="title5381">89632757210598869257822413126404359561</title>
      <circle
         style="fill:#bdfa91;stroke:#bdfa91"
         r="14.5"
         id="ellipse5383"
         cy="-168.6772"
         cx="14.0134" />
    </g>
    <g
       class="edge"
       id="edge5"
       transform="translate(4,445)">
      <title
         id="title5386">288799116572840229826400393228186816726-&gt;89632757210598869257822413126404359561</title>
      <path
         style="fill:none;stroke:#939aa3"
         id="path5388"
         d="M 198.461,-388.8286 C 166.7458,-350.9743 63.1942,-227.378 26.8014,-183.9405" />
      <polygon
         style="fill:#939aa3;stroke:#939aa3"
         id="polygon5390"
         points="28.0463,-182.7014 28.0463,-182.7014 23.4938,-179.9926 25.3635,-184.9492 " />
    </g>
    <g
       class="edge"
       id="edge11"
       transform="translate(4,445)">
      <title
         id="title5393">328195631542605159717044935356501157328-&gt;288799116572840229826400393228186816726</title>
      <path
         style="fill:none;stroke:#6d7279"
         id="path5395"
         d="m 253.6667,-420.8643 c -8.191,3.7294 -18.7599,8.5413 -27.6866,12.6057" />
      <polygon
         style="fill:#6d7279;stroke:#6d7279"
         id="polygon5397"
         points="226.491,-406.5684 226.491,-406.5684 221.2152,-406.0892 225.0406,-409.7538 " />
    </g>
    <g
       class="edge"
       id="edge12"
       transform="translate(4,445)">
      <title
         id="title5400">328195631542605159717044935356501157328-&gt;247421096997359509185586096511806622674</title>
      <path
         style="fill:none;stroke:#777d85"
         id="path5402"
         d="m 272.1199,-413.1142 c 9.0511,25.1593 28.1752,78.3189 38.3933,106.7226" />
      <polygon
         style="fill:#777d85;stroke:#777d85"
         id="polygon5404"
         points="312.2672,-306.6857 312.2672,-306.6857 312.3131,-301.3885 308.9738,-305.5009 " />
    </g>
    <g
       class="edge"
       id="edge13"
       transform="translate(4,445)">
      <title
         id="title5407">328195631542605159717044935356501157328-&gt;188492473068794308163754971150040250344</title>
      <path
         style="fill:none;stroke:#888e97;stroke-dasharray:1, 5"
         id="path5409"
         d="m 276.8033,-415.7767 c 24.2385,28.0957 87.5728,101.5088 114.9794,133.2767" />
      <polygon
         style="fill:#888e97;stroke:#888e97"
         id="polygon5411"
         points="393.309,-283.4098 393.309,-283.4098 395.2501,-278.4807 390.6589,-281.1235 " />
    </g>
    <g
       class="edge"
       id="edge15"
       transform="translate(4,445)">
      <title
         id="title5414">328195631542605159717044935356501157328-&gt;53320045696887335194993346253191689308</title>
      <path
         style="fill:none;stroke:#acb3bf"
         id="path5416"
         d="m 261.8704,-413.3194 c -18.1507,48.3757 -77.348,216.2802 -82.2739,360.7096 -0.2157,6.3256 0.5651,13.1655 1.6415,19.2946" />
      <polygon
         style="fill:#acb3bf;stroke:#acb3bf"
         id="polygon5418"
         points="182.9648,-33.6021 182.9648,-33.6021 182.1963,-28.3607 179.5285,-32.9374 " />
    </g>
    <g
       class="node"
       id="node8"
       transform="translate(4,445)">
      <title
         id="title5421">35709442208514154163720557599593798204</title>
      <circle
         style="fill:#fad391;stroke:#fad391"
         r="14.5"
         id="ellipse5423"
         cy="-31.8804"
         cx="110.0207" />
    </g>
    <g
       class="edge"
       id="edge14"
       transform="translate(4,445)">
      <title
         id="title5426">328195631542605159717044935356501157328-&gt;35709442208514154163720557599593798204</title>
      <path
         style="fill:none;stroke:#b1b8c4"
         id="path5428"
         d="m 261.7192,-413.3921 c -23.5587,59.2485 -117.2575,294.895 -144.3351,362.9932" />
      <polygon
         style="fill:#b1b8c4;stroke:#b1b8c4"
         id="polygon5430"
         points="118.8796,-49.4234 118.8796,-49.4234 115.4059,-45.4239 115.6273,-50.7167 " />
    </g>
    <g
       class="edge"
       id="edge47"
       transform="translate(4,445)">
      <title
         id="title5433">247421096997359509185586096511806622674-&gt;288799116572840229826400393228186816726</title>
      <path
         style="fill:none;stroke:#7f858e;stroke-dasharray:1, 5"
         id="path5435"
         d="m 306.7885,-298.3453 c -19.8318,-20.3647 -62.8049,-64.4923 -85.0337,-87.3184" />
      <polygon
         style="fill:#7f858e;stroke:#7f858e"
         id="polygon5437"
         points="220.3483,-384.5995 220.3483,-384.5995 218.1136,-389.4026 222.8558,-387.0414 " />
    </g>
    <g
       class="edge"
       id="edge48"
       transform="translate(4,445)">
      <title
         id="title5440">247421096997359509185586096511806622674-&gt;328195631542605159717044935356501157328</title>
      <path
         style="fill:none;stroke:#777d85"
         id="path5442"
         d="m 312.2929,-301.4446 c -9.051,-25.1593 -28.1751,-78.319 -38.3933,-106.7226" />
      <polygon
         style="fill:#777d85;stroke:#777d85"
         id="polygon5444"
         points="272.1457,-407.8731 272.1457,-407.8731 272.0997,-413.1704 275.439,-409.058 " />
    </g>
    <g
       class="edge"
       id="edge46"
       transform="translate(4,445)">
      <title
         id="title5447">247421096997359509185586096511806622674-&gt;188492473068794308163754971150040250344</title>
      <path
         style="fill:none;stroke:#70757c"
         id="path5449"
         d="m 331.7258,-284.2508 c 14.6442,3.3622 37.3992,8.5866 53.6101,12.3085" />
      <polygon
         style="fill:#70757c;stroke:#70757c"
         id="polygon5451"
         points="386.0799,-273.5671 386.0799,-273.5671 390.5615,-270.7426 385.2966,-270.1559 " />
    </g>
    <g
       class="edge"
       id="edge49"
       transform="translate(4,445)">
      <title
         id="title5454">247421096997359509185586096511806622674-&gt;53320045696887335194993346253191689308</title>
      <path
         style="fill:none;stroke:#9097a0"
         id="path5456"
         d="m 312.4289,-273.638 c -13.7029,38.4797 -54.9632,148.9103 -105.3034,232.3046 -2.3999,3.9755 -5.3006,8.0322 -8.1777,11.7554" />
      <polygon
         style="fill:#9097a0;stroke:#9097a0"
         id="polygon5458"
         points="200.0948,-28.2089 200.0948,-28.2089 195.6125,-25.3855 197.3558,-30.3879 " />
    </g>
    <g
       class="node"
       id="node9"
       transform="translate(4,445)">
      <title
         id="title5461">47135923841202478204396209542284742446</title>
      <circle
         style="fill:#fae891;stroke:#fae891"
         r="14.5"
         id="ellipse5463"
         cy="-52.673"
         cx="195.6964" />
    </g>
    <g
       class="edge"
       id="edge50"
       transform="translate(4,445)">
      <title
         id="title5466">247421096997359509185586096511806622674-&gt;47135923841202478204396209542284742446</title>
      <path
         style="fill:none;stroke:#9399a3"
         id="path5468"
         d="M 310.5753,-274.6026 C 290.0645,-234.9788 228.18,-115.4266 204.7861,-70.233" />
      <polygon
         style="fill:#9399a3;stroke:#9399a3"
         id="polygon5470"
         points="206.2387,-69.2323 206.2387,-69.2323 202.386,-65.5964 203.1304,-70.8413 " />
    </g>
    <g
       class="edge"
       id="edge24"
       transform="translate(4,445)">
      <title
         id="title5473">188492473068794308163754971150040250344-&gt;288799116572840229826400393228186816726</title>
      <path
         style="fill:none;stroke:#7a8088"
         id="path5475"
         d="M 392.4144,-275.7771 C 358.3499,-298.6966 262.8619,-362.9434 224.2849,-388.899" />
      <polygon
         style="fill:#7a8088;stroke:#7a8088"
         id="polygon5477"
         points="223.042,-387.6259 223.042,-387.6259 219.8705,-391.8691 224.9959,-390.5298 " />
    </g>
    <g
       class="edge"
       id="edge25"
       transform="translate(4,445)">
      <title
         id="title5480">188492473068794308163754971150040250344-&gt;328195631542605159717044935356501157328</title>
      <path
         style="fill:none;stroke:#888e97;stroke-dasharray:1, 5"
         id="path5482"
         d="M 395.0567,-278.7049 C 370.8182,-306.8006 307.4839,-380.2138 280.0774,-411.9817" />
      <polygon
         style="fill:#888e97;stroke:#888e97"
         id="polygon5484"
         points="278.551,-411.0719 278.551,-411.0719 276.6099,-416.0009 281.2011,-413.3582 " />
    </g>
    <g
       class="edge"
       id="edge23"
       transform="translate(4,445)">
      <title
         id="title5487">188492473068794308163754971150040250344-&gt;247421096997359509185586096511806622674</title>
      <path
         style="fill:none;stroke:#70757c"
         id="path5489"
         d="m 390.2928,-270.8042 c -14.6442,-3.3622 -37.3993,-8.5866 -53.6101,-12.3085" />
      <polygon
         style="fill:#70757c;stroke:#70757c"
         id="polygon5491"
         points="335.9387,-281.4879 335.9387,-281.4879 331.4571,-284.3125 336.722,-284.8992 " />
    </g>
    <g
       class="node"
       id="node7"
       transform="translate(4,445)">
      <title
         id="title5494">155097196379112688162682361837491715737</title>
      <circle
         style="fill:#91fade;stroke:#91fade"
         r="14.5"
         id="ellipse5496"
         cy="-200.83839"
         cx="84.223999" />
    </g>
    <g
       class="edge"
       id="edge26"
       transform="translate(4,445)">
      <title
         id="title5499">188492473068794308163754971150040250344-&gt;155097196379112688162682361837491715737</title>
      <path
         style="fill:none;stroke:#b5bdc9"
         id="path5501"
         d="m 390.1284,-264.4519 c -51.9483,10.8028 -227.7989,47.3713 -286.5843,59.5959" />
      <polygon
         style="fill:#b5bdc9;stroke:#b5bdc9"
         id="polygon5503"
         points="103.7996,-203.1218 103.7996,-203.1218 98.548,-203.8171 103.0869,-206.5485 " />
    </g>
    <g
       class="edge"
       id="edge27"
       transform="translate(4,445)">
      <title
         id="title5506">188492473068794308163754971150040250344-&gt;35709442208514154163720557599593798204</title>
      <path
         style="fill:none;stroke:#9298a2"
         id="path5508"
         d="m 394.1306,-257.0331 c -32.0237,31.2747 -131.2596,125.9581 -223.9479,191.089 -13.5249,9.5037 -29.9091,18.6403 -42.1621,25.0544" />
      <polygon
         style="fill:#9298a2;stroke:#9298a2"
         id="polygon5510"
         points="128.6206,-39.2298 128.6206,-39.2298 123.3758,-38.4849 127.0113,-42.3379 " />
    </g>
    <g
       class="edge"
       id="edge21"
       transform="translate(4,445)">
      <title
         id="title5513">53320045696887335194993346253191689308-&gt;247421096997359509185586096511806622674</title>
      <path
         style="fill:none;stroke:#9097a0"
         id="path5515"
         d="m 195.6125,-25.3855 c 3.8656,-4.7284 8.1741,-10.4167 11.513,-15.9479 48.3738,-80.1368 88.3632,-185.2388 103.5725,-227.4718" />
      <polygon
         style="fill:#9097a0;stroke:#9097a0"
         id="polygon5517"
         points="309.0954,-269.5208 309.0954,-269.5208 312.4289,-273.638 312.3905,-268.3407 " />
    </g>
    <g
       class="edge"
       id="edge22"
       transform="translate(4,445)">
      <title
         id="title5520">53320045696887335194993346253191689308-&gt;188492473068794308163754971150040250344</title>
      <path
         style="fill:none;stroke:#979ea8"
         id="path5522"
         d="m 195.5367,-25.4378 c 35.1765,-40.7011 156.1878,-180.7176 196.2215,-227.0388" />
      <polygon
         style="fill:#979ea8;stroke:#979ea8"
         id="polygon5524"
         points="390.5636,-253.7707 390.5636,-253.7707 395.1572,-256.4093 393.2117,-251.482 " />
    </g>
    <g
       class="edge"
       id="edge19"
       transform="translate(4,445)">
      <title
         id="title5527">53320045696887335194993346253191689308-&gt;89632757210598869257822413126404359561</title>
      <path
         style="fill:none;stroke:#828891"
         id="path5529"
         d="M 174.8386,-24.1252 C 145.0851,-50.868 63.0336,-124.6171 29.0535,-155.1589" />
      <polygon
         style="fill:#828891;stroke:#828891"
         id="polygon5531"
         points="27.7034,-154.0193 27.7034,-154.0193 25.1546,-158.6633 30.0431,-156.6224 " />
    </g>
    <g
       class="edge"
       id="edge20"
       transform="translate(4,445)">
      <title
         id="title5534">53320045696887335194993346253191689308-&gt;155097196379112688162682361837491715737</title>
      <path
         style="fill:none;stroke:#7d838b"
         id="path5536"
         d="m 176.2854,-25.6198 c -8.2449,-10.1357 -20.1615,-25.5665 -28.8706,-40.1196 -23.7831,-39.7423 -45.1803,-89.9016 -55.9151,-116.5197" />
      <polygon
         style="fill:#7d838b;stroke:#7d838b"
         id="polygon5538"
         points="89.8564,-181.6553 89.8564,-181.6553 89.6211,-186.9475 93.1053,-182.9571 " />
    </g>
    <g
       class="edge"
       id="edge18"
       transform="translate(4,445)">
      <title
         id="title5541">53320045696887335194993346253191689308-&gt;35709442208514154163720557599593798204</title>
      <path
         style="fill:none;stroke:#6e737a"
         id="path5543"
         d="m 171.5863,-17.5489 c -11.9682,-2.786 -29.1715,-6.7907 -42.3522,-9.8589" />
      <polygon
         style="fill:#6e737a;stroke:#6e737a"
         id="polygon5545"
         points="128.6925,-25.737 128.6925,-25.737 124.2195,-28.5752 129.4861,-29.1459 " />
    </g>
    <g
       class="edge"
       id="edge59"
       transform="translate(4,445)">
      <title
         id="title5548">53320045696887335194993346253191689308-&gt;35709442208514154163720557599593798204</title>
      <path
         style="fill:none;stroke:#fabb91;stroke-width:3;stroke-dasharray:5, 2"
         id="path5550"
         d="m 171.5863,-17.5489 c -11.9682,-2.786 -29.1715,-6.7907 -42.3522,-9.8589" />
      <polygon
         style="fill:#fabb91;stroke:#fabb91;stroke-width:3"
         id="polygon5552"
         points="128.6925,-25.737 128.6925,-25.737 124.2195,-28.5752 129.4861,-29.1459 " />
    </g>
    <g
       class="edge"
       id="edge16"
       transform="translate(4,445)">
      <title
         id="title5555">53320045696887335194993346253191689308-&gt;47135923841202478204396209542284742446</title>
      <path
         style="fill:none;stroke:#60646b"
         id="path5557"
         d="m 189.5159,-28.544 c 0.4155,-1.6225 0.8439,-3.2949 1.2722,-4.9667" />
      <polygon
         style="fill:#60646b;stroke:#60646b"
         id="polygon5559"
         points="189.1233,-34.0645 189.1233,-34.0645 192.0593,-38.4739 192.5139,-33.196 " />
    </g>
    <g
       class="node"
       id="node10"
       transform="translate(4,445)">
      <title
         id="title5562">83129301885096701538872373026313946467</title>
      <circle
         style="fill:#c9fa91;stroke:#c9fa91"
         r="14.5"
         id="ellipse5564"
         cy="-77.2257"
         cx="158.6964" />
    </g>
    <g
       class="edge"
       id="edge17"
       transform="translate(4,445)">
      <title
         id="title5567">53320045696887335194993346253191689308-&gt;83129301885096701538872373026313946467</title>
      <path
         style="fill:none;stroke:#64686f"
         id="path5569"
         d="m 180.0907,-27.5888 c -3.9599,-9.1874 -9.266,-21.4979 -13.6031,-31.5605" />
      <polygon
         style="fill:#64686f;stroke:#64686f"
         id="polygon5571"
         points="164.8185,-58.6006 164.8185,-58.6006 164.4465,-63.885 168.0327,-59.986 " />
    </g>
    <g
       class="edge"
       id="edge10"
       transform="translate(4,445)">
      <title
         id="title5574">89632757210598869257822413126404359561-&gt;328195631542605159717044935356501157328</title>
      <path
         style="fill:none;stroke:#9da4ae"
         id="path5576"
         d="m 24.2493,-179.1234 c 39.6717,-40.4869 183.3398,-187.1077 228.9086,-233.613" />
      <polygon
         style="fill:#9da4ae;stroke:#9da4ae"
         id="polygon5578"
         points="252.0145,-414.07 252.0145,-414.07 256.7639,-416.4165 254.5145,-411.6204 " />
    </g>
    <g
       class="edge"
       id="edge9"
       transform="translate(4,445)">
      <title
         id="title5581">89632757210598869257822413126404359561-&gt;188492473068794308163754971150040250344</title>
      <path
         style="fill:none;stroke:#a6adb8"
         id="path5583"
         d="m 28.3244,-171.8197 c 14.2353,-3.1553 36.6872,-8.211 56.0431,-12.9193 114.7101,-27.903 251.7076,-64.3347 301.2831,-77.6195" />
      <polygon
         style="fill:#a6adb8;stroke:#a6adb8"
         id="polygon5585"
         points="385.4336,-264.1121 385.4336,-264.1121 390.7163,-263.717 386.3402,-260.7316 " />
    </g>
    <g
       class="edge"
       id="edge8"
       transform="translate(4,445)">
      <title
         id="title5588">89632757210598869257822413126404359561-&gt;53320045696887335194993346253191689308</title>
      <path
         style="fill:none;stroke:#828891"
         id="path5590"
         d="m 25.0239,-158.7808 c 29.7535,26.7429 111.805,100.492 145.7851,131.0338" />
      <polygon
         style="fill:#828891;stroke:#828891"
         id="polygon5592"
         points="172.159,-28.8866 172.159,-28.8866 174.7079,-24.2426 169.8194,-26.2835 " />
    </g>
    <g
       class="edge"
       id="edge6"
       transform="translate(4,445)">
      <title
         id="title5595">89632757210598869257822413126404359561-&gt;155097196379112688162682361837491715737</title>
      <path
         style="fill:none;stroke:#70757c"
         id="path5597"
         d="m 27.2195,-174.7264 c 10.9413,-5.0119 26.6079,-12.1883 38.7493,-17.7499" />
      <polygon
         style="fill:#70757c;stroke:#70757c"
         id="polygon5599"
         points="65.3237,-194.1056 65.3237,-194.1056 70.5983,-194.5969 66.7813,-190.9235 " />
    </g>
    <g
       class="edge"
       id="edge7"
       transform="translate(4,445)">
      <title
         id="title5602">89632757210598869257822413126404359561-&gt;35709442208514154163720557599593798204</title>
      <path
         style="fill:none;stroke:#7c818a"
         id="path5604"
         d="m 22.5334,-156.5374 c 17.3374,24.7034 56.7219,80.8207 76.1784,108.5434" />
      <polygon
         style="fill:#7c818a;stroke:#7c818a"
         id="polygon5606"
         points="100.217,-48.8957 100.217,-48.8957 101.6569,-43.7977 97.3521,-46.885 " />
    </g>
    <g
       class="edge"
       id="edge38"
       transform="translate(4,445)">
      <title
         id="title5609">155097196379112688162682361837491715737-&gt;328195631542605159717044935356501157328</title>
      <path
         style="fill:none;stroke:#8b919a"
         id="path5611"
         d="m 93.5457,-212.3643 c 30.3338,-37.5069 126.2645,-156.1224 160.929,-198.9841" />
      <polygon
         style="fill:#8b919a;stroke:#8b919a"
         id="polygon5613"
         points="253.3194,-412.7028 253.3194,-412.7028 257.8243,-415.49 256.0408,-410.5018 " />
    </g>
    <g
       class="edge"
       id="edge37"
       transform="translate(4,445)">
      <title
         id="title5616">155097196379112688162682361837491715737-&gt;188492473068794308163754971150040250344</title>
      <path
         style="fill:none;stroke:#b5bdc9"
         id="path5618"
         d="m 98.8285,-203.8754 c 51.9483,-10.8028 227.7989,-47.3713 286.5843,-59.5959" />
      <polygon
         style="fill:#b5bdc9;stroke:#b5bdc9"
         id="polygon5620"
         points="385.1573,-265.2055 385.1573,-265.2055 390.4089,-264.5102 385.87,-261.7788 " />
    </g>
    <g
       class="edge"
       id="edge34"
       transform="translate(4,445)">
      <title
         id="title5623">155097196379112688162682361837491715737-&gt;89632757210598869257822413126404359561</title>
      <path
         style="fill:none;stroke:#70757c"
         id="path5625"
         d="m 71.018,-194.7891 c -10.9413,5.0118 -26.608,12.1882 -38.7494,17.7498" />
      <polygon
         style="fill:#70757c;stroke:#70757c"
         id="polygon5627"
         points="32.9138,-175.41 32.9138,-175.41 27.6392,-174.9187 31.4562,-178.592 " />
    </g>
    <g
       class="edge"
       id="edge35"
       transform="translate(4,445)">
      <title
         id="title5630">155097196379112688162682361837491715737-&gt;47135923841202478204396209542284742446</title>
      <path
         style="fill:none;stroke:#7b8189"
         id="path5632"
         d="m 93.3658,-189.1509 c 15.819,20.283 49.2324,63.384 76.6122,100.4388 4.7506,6.4294 9.8859,13.5827 14.3093,19.8107" />
      <polygon
         style="fill:#7b8189;stroke:#7b8189"
         id="polygon5634"
         points="185.7602,-69.8495 185.7602,-69.8495 187.2224,-64.7578 182.9042,-67.8263 " />
    </g>
    <g
       class="edge"
       id="edge36"
       transform="translate(4,445)">
      <title
         id="title5637">155097196379112688162682361837491715737-&gt;83129301885096701538872373026313946467</title>
      <path
         style="fill:none;stroke:#767c84"
         id="path5639"
         d="m 91.9134,-188.0753 c 13.5045,22.4154 41.4797,68.85 56.5825,93.9184" />
      <polygon
         style="fill:#767c84;stroke:#767c84"
         id="polygon5641"
         points="150.0785,-94.9213 150.0785,-94.9213 151.1598,-89.7353 147.0805,-93.1151 " />
    </g>
    <g
       class="edge"
       id="edge32"
       transform="translate(4,445)">
      <title
         id="title5644">35709442208514154163720557599593798204-&gt;328195631542605159717044935356501157328</title>
      <path
         style="fill:none;stroke:#b1b8c4"
         id="path5646"
         d="m 115.4287,-45.4811 c 23.5586,-59.2484 117.2575,-294.8949 144.335,-362.9931" />
      <polygon
         style="fill:#b1b8c4;stroke:#b1b8c4"
         id="polygon5648"
         points="258.2683,-409.4497 258.2683,-409.4497 261.7419,-413.4493 261.5206,-408.1565 " />
    </g>
    <g
       class="edge"
       id="edge33"
       transform="translate(4,445)">
      <title
         id="title5651">35709442208514154163720557599593798204-&gt;188492473068794308163754971150040250344</title>
      <path
         style="fill:none;stroke:#9298a2"
         id="path5653"
         d="m 123.3758,-38.4849 c 12.4976,-6.3997 31.4867,-16.6939 46.8069,-27.4592 89.4297,-62.8411 184.9548,-153.1934 220.3244,-187.5594" />
      <polygon
         style="fill:#9298a2;stroke:#9298a2"
         id="polygon5655"
         points="389.3278,-254.7978 389.3278,-254.7978 394.1306,-257.0331 391.77,-252.2907 " />
    </g>
    <g
       class="edge"
       id="edge30"
       transform="translate(4,445)">
      <title
         id="title5658">35709442208514154163720557599593798204-&gt;89632757210598869257822413126404359561</title>
      <path
         style="fill:none;stroke:#7c818a"
         id="path5660"
         d="M 101.5007,-44.0202 C 84.1633,-68.7236 44.7788,-124.8408 25.3224,-152.5635" />
      <polygon
         style="fill:#7c818a;stroke:#7c818a"
         id="polygon5662"
         points="23.8172,-151.6619 23.8172,-151.6619 22.3773,-156.7599 26.6821,-153.6725 " />
    </g>
    <g
       class="edge"
       id="edge31"
       transform="translate(4,445)">
      <title
         id="title5665">35709442208514154163720557599593798204-&gt;155097196379112688162682361837491715737</title>
      <path
         style="fill:none;stroke:#838992"
         id="path5667"
         d="M 107.8213,-46.2857 C 103.1951,-76.5856 92.4533,-146.9403 87.2104,-181.2793" />
      <polygon
         style="fill:#838992;stroke:#838992"
         id="polygon5669"
         points="85.4427,-181.2627 85.4427,-181.2627 86.4179,-186.4696 88.9026,-181.791 " />
    </g>
    <g
       class="edge"
       id="edge28"
       transform="translate(4,445)">
      <title
         id="title5672">35709442208514154163720557599593798204-&gt;47135923841202478204396209542284742446</title>
      <path
         style="fill:none;stroke:#70757d"
         id="path5674"
         d="m 124.1683,-35.3139 c 14.2621,-3.4613 36.3765,-8.8282 52.2398,-12.6781" />
      <polygon
         style="fill:#70757d;stroke:#70757d"
         id="polygon5676"
         points="176.2561,-49.7558 176.2561,-49.7558 181.5278,-49.2345 177.0816,-46.3545 " />
    </g>
    <g
       class="edge"
       id="edge60"
       transform="translate(4,445)">
      <title
         id="title5679">35709442208514154163720557599593798204-&gt;47135923841202478204396209542284742446</title>
      <path
         style="fill:none;stroke:#fabb91;stroke-width:3;stroke-dasharray:5, 2"
         id="path5681"
         d="m 124.1683,-35.3139 c 14.2621,-3.4613 36.3765,-8.8282 52.2398,-12.6781" />
      <polygon
         style="fill:#fabb91;stroke:#fabb91;stroke-width:3"
         id="polygon5683"
         points="176.2561,-49.7558 176.2561,-49.7558 181.5278,-49.2345 177.0816,-46.3545 " />
    </g>
    <g
       class="edge"
       id="edge29"
       transform="translate(4,445)">
      <title
         id="title5686">35709442208514154163720557599593798204-&gt;83129301885096701538872373026313946467</title>
      <path
         style="fill:none;stroke:#696d74"
         id="path5688"
         d="m 120.8234,-41.944 c 6.806,-6.3404 15.6827,-14.6097 23.1314,-21.5488" />
      <polygon
         style="fill:#696d74;stroke:#696d74"
         id="polygon5690"
         points="143.0725,-65.0625 143.0725,-65.0625 147.9239,-67.1903 145.4582,-62.5016 " />
    </g>
    <g
       class="edge"
       id="edge61"
       transform="translate(4,445)">
      <title
         id="title5693">35709442208514154163720557599593798204-&gt;83129301885096701538872373026313946467</title>
      <path
         style="fill:none;stroke:#fabb91;stroke-width:3;stroke-dasharray:5, 2"
         id="path5695"
         d="m 120.8234,-41.944 c 6.806,-6.3404 15.6827,-14.6097 23.1314,-21.5488" />
      <polygon
         style="fill:#fabb91;stroke:#fabb91;stroke-width:3"
         id="polygon5697"
         points="143.0725,-65.0625 143.0725,-65.0625 147.9239,-67.1903 145.4582,-62.5016 " />
    </g>
    <g
       class="edge"
       id="edge56"
       transform="translate(4,445)">
      <title
         id="title5700">47135923841202478204396209542284742446-&gt;328195631542605159717044935356501157328</title>
      <path
         style="fill:none;stroke:#a8b0bb"
         id="path5702"
         d="m 198.4966,-67.3468 c 11.1142,-58.2424 52.1291,-273.1731 64.8457,-339.8118" />
      <polygon
         style="fill:#a8b0bb;stroke:#a8b0bb"
         id="polygon5704"
         points="261.6901,-407.8371 261.6901,-407.8371 264.3463,-412.4204 265.128,-407.181 " />
    </g>
    <g
       class="edge"
       id="edge57"
       transform="translate(4,445)">
      <title
         id="title5707">47135923841202478204396209542284742446-&gt;188492473068794308163754971150040250344</title>
      <path
         style="fill:none;stroke:#9aa1ac"
         id="path5709"
         d="m 206.0625,-63.3258 c 34.4766,-35.4298 145.3266,-149.3445 184.6631,-189.7686" />
      <polygon
         style="fill:#9aa1ac;stroke:#9aa1ac"
         id="polygon5711"
         points="389.5629,-254.4089 389.5629,-254.4089 394.3042,-256.7719 392.0713,-251.968 " />
    </g>
    <g
       class="edge"
       id="edge51"
       transform="translate(4,445)">
      <title
         id="title5714">47135923841202478204396209542284742446-&gt;53320045696887335194993346253191689308</title>
      <path
         style="fill:none;stroke:#60646b"
         id="path5716"
         d="m 192.0296,-38.3578 c -0.4156,1.6224 -0.844,3.2949 -1.2722,4.9667" />
      <polygon
         style="fill:#60646b;stroke:#60646b"
         id="polygon5718"
         points="192.4221,-32.8373 192.4221,-32.8373 189.4861,-28.428 189.0316,-33.7059 " />
    </g>
    <g
       class="edge"
       id="edge54"
       transform="translate(4,445)">
      <title
         id="title5721">47135923841202478204396209542284742446-&gt;89632757210598869257822413126404359561</title>
      <path
         style="fill:none;stroke:#7e848c"
         id="path5723"
         d="m 181.0057,-54.6439 c -9.9762,-1.805 -23.194,-5.1363 -33.5909,-11.0955 -46.7845,-26.8154 -95.3607,-68.3854 -118.8911,-89.5581" />
      <polygon
         style="fill:#7e848c;stroke:#7e848c"
         id="polygon5725"
         points="27.2299,-154.1081 27.2299,-154.1081 24.6966,-158.7605 29.5783,-156.7033 " />
    </g>
    <g
       class="edge"
       id="edge55"
       transform="translate(4,445)">
      <title
         id="title5728">47135923841202478204396209542284742446-&gt;155097196379112688162682361837491715737</title>
      <path
         style="fill:none;stroke:#7b8189"
         id="path5730"
         d="m 187.2224,-64.7578 c -4.9679,-7.0315 -11.3975,-16.0412 -17.2444,-23.9543 -25.6686,-34.7389 -56.6401,-74.7918 -73.4458,-96.3754" />
      <polygon
         style="fill:#7b8189;stroke:#7b8189"
         id="polygon5732"
         points="95.0588,-184.1313 95.0588,-184.1313 93.3658,-189.1509 97.8195,-186.2826 " />
    </g>
    <g
       class="edge"
       id="edge53"
       transform="translate(4,445)">
      <title
         id="title5735">47135923841202478204396209542284742446-&gt;35709442208514154163720557599593798204</title>
      <path
         style="fill:none;stroke:#70757d"
         id="path5737"
         d="m 181.5488,-49.2396 c -14.2621,3.4613 -36.3764,8.8282 -52.2398,12.6781" />
      <polygon
         style="fill:#70757d;stroke:#70757d"
         id="polygon5739"
         points="129.461,-34.7977 129.461,-34.7977 124.1893,-35.319 128.6355,-38.1989 " />
    </g>
    <g
       class="edge"
       id="edge52"
       transform="translate(4,445)">
      <title
         id="title5742">47135923841202478204396209542284742446-&gt;83129301885096701538872373026313946467</title>
      <path
         style="fill:none;stroke:#676b72"
         id="path5744"
         d="m 183.5812,-60.7125 c -2.6555,-1.7622 -5.5111,-3.6571 -8.3075,-5.5127" />
      <polygon
         style="fill:#676b72;stroke:#676b72"
         id="polygon5746"
         points="174.164,-64.8613 174.164,-64.8613 170.9655,-69.0841 176.0993,-67.7777 " />
    </g>
    <g
       class="edge"
       id="edge44"
       transform="translate(4,445)">
      <title
         id="title5749">83129301885096701538872373026313946467-&gt;328195631542605159717044935356501157328</title>
      <path
         style="fill:none;stroke:#a4abb6"
         id="path5751"
         d="m 163.0813,-91.3702 c 17.0334,-54.9449 78.8198,-254.2505 98.1937,-316.7452" />
      <polygon
         style="fill:#a4abb6;stroke:#a4abb6"
         id="polygon5753"
         points="259.6544,-408.7979 259.6544,-408.7979 262.8065,-413.0555 262.9974,-407.7615 " />
    </g>
    <g
       class="edge"
       id="edge45"
       transform="translate(4,445)">
      <title
         id="title5756">83129301885096701538872373026313946467-&gt;188492473068794308163754971150040250344</title>
      <path
         style="fill:none;stroke:#9ca3ad"
         id="path5758"
         d="m 170.2332,-86.1473 c 40.0356,-30.96 173.0241,-133.8017 218.8329,-169.2263" />
      <polygon
         style="fill:#9ca3ad;stroke:#9ca3ad"
         id="polygon5760"
         points="388.1951,-256.9123 388.1951,-256.9123 393.221,-258.5866 390.3362,-254.1435 " />
    </g>
    <g
       class="edge"
       id="edge39"
       transform="translate(4,445)">
      <title
         id="title5763">83129301885096701538872373026313946467-&gt;53320045696887335194993346253191689308</title>
      <path
         style="fill:none;stroke:#64686f"
         id="path5765"
         d="m 164.4548,-63.8657 c 3.9599,9.1874 9.2659,21.4979 13.603,31.5605" />
      <polygon
         style="fill:#64686f;stroke:#64686f"
         id="polygon5767"
         points="179.7269,-32.8539 179.7269,-32.8539 180.099,-27.5696 176.5128,-31.4685 " />
    </g>
    <g
       class="edge"
       id="edge42"
       transform="translate(4,445)">
      <title
         id="title5770">83129301885096701538872373026313946467-&gt;89632757210598869257822413126404359561</title>
      <path
         style="fill:none;stroke:#898f98"
         id="path5772"
         d="M 146.3608,-85.0228 C 120.4142,-101.4232 60.1677,-139.5039 30.7624,-158.0904" />
      <polygon
         style="fill:#898f98;stroke:#898f98"
         id="polygon5774"
         points="29.6093,-156.749 29.6093,-156.749 26.3178,-160.8998 31.4793,-159.7075 " />
    </g>
    <g
       class="edge"
       id="edge43"
       transform="translate(4,445)">
      <title
         id="title5777">83129301885096701538872373026313946467-&gt;155097196379112688162682361837491715737</title>
      <path
         style="fill:none;stroke:#767c84"
         id="path5779"
         d="m 151.007,-89.9889 c -13.5044,-22.4153 -41.4797,-68.85 -56.5825,-93.9183" />
      <polygon
         style="fill:#767c84;stroke:#767c84"
         id="polygon5781"
         points="92.842,-183.1429 92.842,-183.1429 91.7607,-188.3288 95.8399,-184.9491 " />
    </g>
    <g
       class="edge"
       id="edge41"
       transform="translate(4,445)">
      <title
         id="title5784">83129301885096701538872373026313946467-&gt;35709442208514154163720557599593798204</title>
      <path
         style="fill:none;stroke:#696d74"
         id="path5786"
         d="m 147.8937,-67.1621 c -6.806,6.3403 -15.6827,14.6096 -23.1314,21.5487" />
      <polygon
         style="fill:#696d74;stroke:#696d74"
         id="polygon5788"
         points="125.6446,-44.0436 125.6446,-44.0436 120.7932,-41.9159 123.2589,-46.6045 " />
    </g>
    <g
       class="edge"
       id="edge40"
       transform="translate(4,445)">
      <title
         id="title5791">83129301885096701538872373026313946467-&gt;47135923841202478204396209542284742446</title>
      <path
         style="fill:none;stroke:#676b72"
         id="path5793"
         d="m 170.8116,-69.1863 c 2.6555,1.7622 5.5111,3.6572 8.3075,5.5128" />
      <polygon
         style="fill:#676b72;stroke:#676b72"
         id="polygon5795"
         points="180.2288,-65.0374 180.2288,-65.0374 183.4273,-60.8146 178.2935,-62.1211 " />
    </g>
  </g>
</svg>
