<?xml version="1.0" encoding="UTF-8" standalone="no"?>
<svg
   xmlns:dc="http://purl.org/dc/elements/1.1/"
   xmlns:cc="http://creativecommons.org/ns#"
   xmlns:rdf="http://www.w3.org/1999/02/22-rdf-syntax-ns#"
   xmlns:svg="http://www.w3.org/2000/svg"
   xmlns="http://www.w3.org/2000/svg"
   version="1.1"
   id="svg2"
   viewBox="0 0 479.91195 328.00134"
   height="328.00134pt"
   width="479.91196pt">
  <metadata
     id="metadata504">
    <rdf:RDF>
      <cc:Work
         rdf:about="">
        <dc:format>image/svg+xml</dc:format>
        <dc:type
           rdf:resource="http://purl.org/dc/dcmitype/StillImage" />
        <dc:title></dc:title>
      </cc:Work>
    </rdf:RDF>
  </metadata>
  <defs
     id="defs502" />
  <g
     transform="matrix(0.27674778,-0.96094259,0.96094259,0.27674778,412.58373,433.0052)"
     id="edge39"
     class="edge">
    <title
       id="title459">83129301885096701538872373026313946467-&gt;53320045696887335194993346253191689308</title>
    <path
       d="m 325.295,-99.2223 c 9.3356,0.7979 21.5376,1.8408 31.7181,2.7108"
       id="path461"
       style="fill:none;stroke:#64686f" />
    <polygon
       points="357.2938,-98.2439 362.1266,-96.0744 356.9957,-94.7566 357.2938,-98.2439 "
       id="polygon463"
       style="fill:#64686f;stroke:#64686f" />
  </g>
  <g
     transform="matrix(0.27674778,-0.96094259,0.96094259,0.27674778,412.58373,433.0052)"
     id="edge30"
     class="edge">
    <title
       id="title368">35709442208514154163720557599593798204-&gt;89632757210598869257822413126404359561</title>
    <path
       d="M 277.252,-33.1557 C 243.7642,-41.7932 159.8751,-63.4304 121.7471,-73.2646"
       id="path370"
       style="fill:none;stroke:#7c818a" />
    <polygon
       points="120.8696,-71.6836 116.4651,-74.627 121.7438,-75.0727 120.8696,-71.6836 "
       id="polygon372"
       style="fill:#7c818a;stroke:#7c818a" />
  </g>
  <g
     transform="matrix(0.27674778,-0.96094259,0.96094259,0.27674778,412.58373,433.0052)"
     id="node1"
     class="node">
    <title
       id="title10">288799116572840229826400393228186816726</title>
    <circle
       cx="14.8101"
       cy="-405.61511"
       id="ellipse12"
       r="14.5"
       style="fill:#fa91f0;stroke:#fa91f0" />
  </g>
  <g
     transform="matrix(0.27674778,-0.96094259,0.96094259,0.27674778,412.58373,433.0052)"
     id="node2"
     class="node">
    <title
       id="title15">328195631542605159717044935356501157328</title>
    <circle
       cx="82.370201"
       cy="-437.4628"
       id="ellipse17"
       r="14.5"
       style="fill:#fa91a7;stroke:#fa91a7" />
  </g>
  <g
     transform="matrix(0.27674778,-0.96094259,0.96094259,0.27674778,412.58373,433.0052)"
     id="edge1"
     class="edge">
    <title
       id="title20">288799116572840229826400393228186816726-&gt;328195631542605159717044935356501157328</title>
    <path
       d="m 28.1578,-411.9072 c 10.3637,-4.8854 24.8374,-11.7083 36.223,-17.0754"
       id="path22"
       style="fill:none;stroke:#6d7279" />
    <polygon
       points="63.7813,-430.6347 69.0502,-431.1838 65.2738,-427.4688 63.7813,-430.6347 "
       id="polygon24"
       style="fill:#6d7279;stroke:#6d7279" />
  </g>
  <g
     transform="matrix(0.27674778,-0.96094259,0.96094259,0.27674778,412.58373,433.0052)"
     id="node3"
     class="node">
    <title
       id="title27">247421096997359509185586096511806622674</title>
    <circle
       cx="230.856"
       cy="-374.68829"
       id="ellipse29"
       r="14.5"
       style="fill:#b791fa;stroke:#b791fa" />
  </g>
  <g
     transform="matrix(0.27674778,-0.96094259,0.96094259,0.27674778,412.58373,433.0052)"
     id="edge2"
     class="edge">
    <title
       id="title32">288799116572840229826400393228186816726-&gt;247421096997359509185586096511806622674</title>
    <path
       d="m 29.321,-403.5379 c 37.7433,5.4029 139.0239,19.9012 181.914,26.0409"
       id="path34"
       style="fill:none;stroke:#7f858e;stroke-dasharray:none;stroke-width:1;stroke-miterlimit:4;stroke-dashoffset:0" />
    <polygon
       points="211.7067,-379.1974 216.4083,-376.7565 211.2107,-375.7327 211.7067,-379.1974 "
       id="polygon36"
       style="fill:#7f858e;stroke:#7f858e" />
  </g>
  <g
     transform="matrix(0.27674778,-0.96094259,0.96094259,0.27674778,412.58373,433.0052)"
     id="node4"
     class="node">
    <title
       id="title39">188492473068794308163754971150040250344</title>
    <circle
       cx="304.03149"
       cy="-454.73001"
       id="ellipse41"
       r="14.5"
       style="fill:#91d8fa;stroke:#91d8fa" />
  </g>
  <g
     transform="matrix(0.27674778,-0.96094259,0.96094259,0.27674778,412.58373,433.0052)"
     id="edge3"
     class="edge">
    <title
       id="title44">288799116572840229826400393228186816726-&gt;188492473068794308163754971150040250344</title>
    <path
       d="m 29.1527,-408.0508 c 47.7015,-8.1005 201.0728,-34.1456 255.4985,-43.3881"
       id="path46"
       style="fill:none;stroke:#7a8088" />
    <polygon
       points="284.38,-453.1678 289.6024,-452.2797 284.966,-449.7172 284.38,-453.1678 "
       id="polygon48"
       style="fill:#7a8088;stroke:#7a8088" />
  </g>
  <g
     transform="matrix(0.27674778,-0.96094259,0.96094259,0.27674778,412.58373,433.0052)"
     id="node5"
     class="node">
    <title
       id="title51">53320045696887335194993346253191689308</title>
    <circle
       cx="376.7673"
       cy="-94.823097"
       id="ellipse53"
       r="14.5"
       style="fill:#faf491;stroke:#faf491" />
  </g>
  <g
     transform="matrix(0.27674778,-0.96094259,0.96094259,0.27674778,412.58373,433.0052)"
     id="edge4"
     class="edge">
    <title
       id="title56">288799116572840229826400393228186816726-&gt;53320045696887335194993346253191689308</title>
    <path
       d="m 26.0397,-395.973 c 52.6709,45.2255 275.2039,236.302 335.5676,288.1329"
       id="path58"
       style="fill:none;stroke:#b2bac6" />
    <polygon
       points="363.0152,-108.9379 365.6687,-104.3529 360.7351,-106.2824 363.0152,-108.9379 "
       id="polygon60"
       style="fill:#b2bac6;stroke:#b2bac6" />
  </g>
  <g
     transform="matrix(0.27674778,-0.96094259,0.96094259,0.27674778,412.58373,433.0052)"
     id="edge57"
     class="edge">
    <title
       id="title63">288799116572840229826400393228186816726-&gt;53320045696887335194993346253191689308</title>
    <path
       d="m 26.0397,-395.973 c 52.6709,45.2255 275.2039,236.302 335.5676,288.1329"
       id="path65"
       style="fill:none;stroke:#fad591;stroke-width:3;stroke-dasharray:5, 2" />
    <polygon
       points="363.0152,-108.9379 365.6687,-104.3529 360.7351,-106.2824 363.0152,-108.9379 "
       id="polygon67"
       style="fill:#fad591;stroke:#fad591;stroke-width:3" />
  </g>
  <g
     transform="matrix(0.27674778,-0.96094259,0.96094259,0.27674778,412.58373,433.0052)"
     id="node6"
     class="node">
    <title
       id="title70">89632757210598869257822413126404359561</title>
    <circle
       cx="102.3431"
       cy="-78.269402"
       id="ellipse72"
       r="14.5"
       style="fill:#bdfa91;stroke:#bdfa91" />
  </g>
  <g
     transform="matrix(0.27674778,-0.96094259,0.96094259,0.27674778,412.58373,433.0052)"
     id="edge5"
     class="edge">
    <title
       id="title75">288799116572840229826400393228186816726-&gt;89632757210598869257822413126404359561</title>
    <path
       d="m 18.5713,-391.5495 c 13.9447,52.1487 62.708,234.5079 78.6708,294.2039"
       id="path77"
       style="fill:none;stroke:#939aa3" />
    <polygon
       points="98.9949,-97.5651 98.596,-92.2827 95.6137,-96.6609 98.9949,-97.5651 "
       id="polygon79"
       style="fill:#939aa3;stroke:#939aa3" />
  </g>
  <g
     transform="matrix(0.27674778,-0.96094259,0.96094259,0.27674778,412.58373,433.0052)"
     id="edge58"
     class="edge">
    <title
       id="title82">288799116572840229826400393228186816726-&gt;89632757210598869257822413126404359561</title>
    <path
       d="m 18.5713,-391.5495 c 13.9447,52.1487 62.708,234.5079 78.6708,294.2039"
       id="path84"
       style="fill:none;stroke:#fad591;stroke-width:3;stroke-dasharray:5, 2" />
    <polygon
       points="98.9949,-97.5651 98.596,-92.2827 95.6137,-96.6609 98.9949,-97.5651 "
       id="polygon86"
       style="fill:#fad591;stroke:#fad591;stroke-width:3" />
  </g>
  <g
     transform="matrix(0.27674778,-0.96094259,0.96094259,0.27674778,412.58373,433.0052)"
     id="edge11"
     class="edge">
    <title
       id="title89">328195631542605159717044935356501157328-&gt;288799116572840229826400393228186816726</title>
    <path
       d="m 69.0225,-431.1707 c -10.3637,4.8854 -24.8374,11.7083 -36.2229,17.0754"
       id="path91"
       style="fill:none;stroke:#6d7279" />
    <polygon
       points="33.399,-412.4432 28.1301,-411.8941 31.9066,-415.6091 33.399,-412.4432 "
       id="polygon93"
       style="fill:#6d7279;stroke:#6d7279" />
  </g>
  <g
     transform="matrix(0.27674778,-0.96094259,0.96094259,0.27674778,412.58373,433.0052)"
     id="edge12"
     class="edge">
    <title
       id="title96">328195631542605159717044935356501157328-&gt;247421096997359509185586096511806622674</title>
    <path
       d="m 95.8092,-431.7813 c 26.589,11.2409 85.9578,36.34 116.3449,49.1865"
       id="path98"
       style="fill:none;stroke:#777d85" />
    <polygon
       points="213.2011,-384.0522 217.125,-380.4933 211.8381,-380.8284 213.2011,-384.0522 "
       id="polygon100"
       style="fill:#777d85;stroke:#777d85" />
  </g>
  <g
     transform="matrix(0.27674778,-0.96094259,0.96094259,0.27674778,412.58373,433.0052)"
     id="edge13"
     class="edge">
    <title
       id="title103">328195631542605159717044935356501157328-&gt;188492473068794308163754971150040250344</title>
    <path
       d="m 96.914,-438.5957 c 38.5948,-3.0065 143.6423,-11.1896 187.4854,-14.605"
       id="path105"
       style="fill:none;stroke:#888e97;stroke-dasharray:1, 5" />
    <polygon
       points="284.3133,-454.9492 289.4341,-453.5929 284.5852,-451.4598 284.3133,-454.9492 "
       id="polygon107"
       style="fill:#888e97;stroke:#888e97" />
  </g>
  <g
     transform="matrix(0.27674778,-0.96094259,0.96094259,0.27674778,412.58373,433.0052)"
     id="edge15"
     class="edge">
    <title
       id="title110">328195631542605159717044935356501157328-&gt;53320045696887335194993346253191689308</title>
    <path
       d="m 91.8319,-426.4506 c 43.2505,50.3379 222.1658,258.5719 271.9997,316.572"
       id="path112"
       style="fill:none;stroke:#acb3bf" />
    <polygon
       points="365.2617,-110.8994 367.1929,-105.9665 362.607,-108.6185 365.2617,-110.8994 "
       id="polygon114"
       style="fill:#acb3bf;stroke:#acb3bf" />
  </g>
  <g
     transform="matrix(0.27674778,-0.96094259,0.96094259,0.27674778,412.58373,433.0052)"
     id="node8"
     class="node">
    <title
       id="title117">35709442208514154163720557599593798204</title>
    <circle
       cx="291.4671"
       cy="-29.4893"
       id="ellipse119"
       r="14.5"
       style="fill:#fad391;stroke:#fad391" />
  </g>
  <g
     transform="matrix(0.27674778,-0.96094259,0.96094259,0.27674778,412.58373,433.0052)"
     id="edge14"
     class="edge">
    <title
       id="title122">328195631542605159717044935356501157328-&gt;35709442208514154163720557599593798204</title>
    <path
       d="m 89.0904,-424.3509 c 30.7189,59.9363 157.7943,307.876 193.189,376.9354"
       id="path124"
       style="fill:none;stroke:#b1b8c4" />
    <polygon
       points="283.9436,-48.0053 284.6668,-42.7574 280.8288,-46.4089 283.9436,-48.0053 "
       id="polygon126"
       style="fill:#b1b8c4;stroke:#b1b8c4" />
  </g>
  <g
     transform="matrix(0.27674778,-0.96094259,0.96094259,0.27674778,412.58373,433.0052)"
     id="edge46"
     class="edge">
    <title
       id="title129">247421096997359509185586096511806622674-&gt;328195631542605159717044935356501157328</title>
    <path
       d="m 217.417,-380.3698 c -26.5891,-11.2409 -85.9579,-36.3399 -116.3449,-49.1865"
       id="path131"
       style="fill:none;stroke:#777d85" />
    <polygon
       points="100.0251,-428.0989 96.1012,-431.6578 101.388,-431.3227 100.0251,-428.0989 "
       id="polygon133"
       style="fill:#777d85;stroke:#777d85" />
  </g>
  <g
     transform="matrix(0.27674778,-0.96094259,0.96094259,0.27674778,412.58373,433.0052)"
     id="edge47"
     class="edge">
    <title
       id="title136">247421096997359509185586096511806622674-&gt;188492473068794308163754971150040250344</title>
    <path
       d="m 240.7247,-385.4831 c 12.875,-14.083 35.4557,-38.7824 49.8801,-54.5603"
       id="path138"
       style="fill:none;stroke:#70757c" />
    <polygon
       points="289.42,-441.3411 294.0854,-443.8506 292.0032,-438.9795 289.42,-441.3411 "
       id="polygon140"
       style="fill:#70757c;stroke:#70757c" />
  </g>
  <g
     transform="matrix(0.27674778,-0.96094259,0.96094259,0.27674778,412.58373,433.0052)"
     id="node7"
     class="node">
    <title
       id="title143">155097196379112688162682361837491715737</title>
    <circle
       cx="139.4976"
       cy="-14.9195"
       id="ellipse145"
       r="14.5"
       style="fill:#91fade;stroke:#91fade" />
  </g>
  <g
     transform="matrix(0.27674778,-0.96094259,0.96094259,0.27674778,412.58373,433.0052)"
     id="edge48"
     class="edge">
    <title
       id="title148">247421096997359509185586096511806622674-&gt;155097196379112688162682361837491715737</title>
    <path
       d="m 227.2746,-360.5849 c -14.1828,55.8519 -66.4354,261.6222 -82.8255,326.1664"
       id="path150"
       style="fill:none;stroke:#a6adb8" />
    <polygon
       points="146.0803,-33.7317 143.1534,-29.3163 142.688,-34.5932 146.0803,-33.7317 "
       id="polygon152"
       style="fill:#a6adb8;stroke:#a6adb8" />
  </g>
  <g
     transform="matrix(0.27674778,-0.96094259,0.96094259,0.27674778,412.58373,433.0052)"
     id="node9"
     class="node">
    <title
       id="title155">47135923841202478204396209542284742446</title>
    <circle
       cx="354.29291"
       cy="-57.823101"
       id="ellipse157"
       r="14.5"
       style="fill:#fae891;stroke:#fae891" />
  </g>
  <g
     transform="matrix(0.27674778,-0.96094259,0.96094259,0.27674778,412.58373,433.0052)"
     id="edge49"
     class="edge">
    <title
       id="title160">247421096997359509185586096511806622674-&gt;47135923841202478204396209542284742446</title>
    <path
       d="m 236.1599,-361.073 c 19.6645,50.4791 88.4292,226.9998 110.9396,284.7845"
       id="path162"
       style="fill:none;stroke:#9399a3" />
    <polygon
       points="348.8243,-76.6819 349.0087,-71.3877 345.5631,-75.4114 348.8243,-76.6819 "
       id="polygon164"
       style="fill:#9399a3;stroke:#9399a3" />
  </g>
  <g
     transform="matrix(0.27674778,-0.96094259,0.96094259,0.27674778,412.58373,433.0052)"
     id="edge24"
     class="edge">
    <title
       id="title167">188492473068794308163754971150040250344-&gt;288799116572840229826400393228186816726</title>
    <path
       d="m 289.689,-452.2944 c -47.7016,8.1006 -201.0728,34.1457 -255.4985,43.3881"
       id="path169"
       style="fill:none;stroke:#7a8088" />
    <polygon
       points="34.4617,-407.1773 29.2392,-408.0655 33.8757,-410.6279 34.4617,-407.1773 "
       id="polygon171"
       style="fill:#7a8088;stroke:#7a8088" />
  </g>
  <g
     transform="matrix(0.27674778,-0.96094259,0.96094259,0.27674778,412.58373,433.0052)"
     id="edge25"
     class="edge"
     style="stroke-width:1;stroke-miterlimit:4;stroke-dasharray:none;stroke-dashoffset:0">
    <title
       id="title174">188492473068794308163754971150040250344-&gt;328195631542605159717044935356501157328</title>
    <path
       d="m 289.4877,-453.5971 c -38.5948,3.0065 -143.6423,11.1896 -187.4854,14.605"
       id="path176"
       style="fill:none;stroke:#888e97;stroke-dasharray:none;stroke-width:1;stroke-miterlimit:4;stroke-dashoffset:0" />
    <polygon
       points="102.0884,-437.2436 96.9676,-438.5999 101.8165,-440.733 102.0884,-437.2436 "
       id="polygon178"
       style="fill:#888e97;stroke:#888e97;stroke-width:1;stroke-miterlimit:4;stroke-dasharray:none;stroke-dashoffset:0" />
  </g>
  <g
     transform="matrix(0.27674778,-0.96094259,0.96094259,0.27674778,412.58373,433.0052)"
     id="edge23"
     class="edge">
    <title
       id="title181">188492473068794308163754971150040250344-&gt;247421096997359509185586096511806622674</title>
    <path
       d="m 294.1627,-443.9352 c -12.8749,14.083 -35.4556,38.7825 -49.88,54.5603"
       id="path183"
       style="fill:none;stroke:#70757c" />
    <polygon
       points="245.4674,-388.0772 240.8021,-385.5677 242.8842,-390.4388 245.4674,-388.0772 "
       id="polygon185"
       style="fill:#70757c;stroke:#70757c" />
  </g>
  <g
     transform="matrix(0.27674778,-0.96094259,0.96094259,0.27674778,412.58373,433.0052)"
     id="edge26"
     class="edge">
    <title
       id="title188">188492473068794308163754971150040250344-&gt;155097196379112688162682361837491715737</title>
    <path
       d="M 298.9269,-441.0851 C 275.0374,-377.2268 174.2754,-107.883 146.572,-33.8299"
       id="path190"
       style="fill:none;stroke:#b5bdc9" />
    <polygon
       points="148.0967,-32.9109 144.7057,-28.8411 144.8186,-34.1373 148.0967,-32.9109 "
       id="polygon192"
       style="fill:#b5bdc9;stroke:#b5bdc9" />
  </g>
  <g
     transform="matrix(0.27674778,-0.96094259,0.96094259,0.27674778,412.58373,433.0052)"
     id="edge27"
     class="edge">
    <title
       id="title195">188492473068794308163754971150040250344-&gt;35709442208514154163720557599593798204</title>
    <path
       d="m 303.599,-440.0923 c -1.8841,63.7663 -9.3776,317.3816 -11.5431,390.6724"
       id="path197"
       style="fill:none;stroke:#9298a2" />
    <polygon
       points="293.7947,-49.0116 291.8977,-44.0655 290.2963,-49.115 293.7947,-49.0116 "
       id="polygon199"
       style="fill:#9298a2;stroke:#9298a2" />
  </g>
  <g
     transform="matrix(0.27674778,-0.96094259,0.96094259,0.27674778,412.58373,433.0052)"
     id="edge21"
     class="edge">
    <title
       id="title202">53320045696887335194993346253191689308-&gt;247421096997359509185586096511806622674</title>
    <path
       d="M 369.9254,-107.9462 C 346.1824,-153.4864 267.3139,-304.7601 240.1471,-356.8674"
       id="path204"
       style="fill:none;stroke:#9097a0" />
    <polygon
       points="238.4429,-356.3509 237.6831,-361.5936 241.5464,-357.969 238.4429,-356.3509 "
       id="polygon206"
       style="fill:#9097a0;stroke:#9097a0" />
  </g>
  <g
     transform="matrix(0.27674778,-0.96094259,0.96094259,0.27674778,412.58373,433.0052)"
     id="edge22"
     class="edge">
    <title
       id="title209">53320045696887335194993346253191689308-&gt;188492473068794308163754971150040250344</title>
    <path
       d="M 373.8259,-109.3777 C 362.3998,-165.9154 320.9532,-370.999 307.9571,-435.3054"
       id="path211"
       style="fill:none;stroke:#979ea8" />
    <polygon
       points="306.2051,-435.1411 306.9298,-440.3887 309.6357,-435.8344 306.2051,-435.1411 "
       id="polygon213"
       style="fill:#979ea8;stroke:#979ea8" />
  </g>
  <g
     transform="matrix(0.27674778,-0.96094259,0.96094259,0.27674778,412.58373,433.0052)"
     id="edge19"
     class="edge">
    <title
       id="title216">53320045696887335194993346253191689308-&gt;89632757210598869257822413126404359561</title>
    <path
       d="m 362.4121,-92.0093 c -13.3266,2.4829 -33.748,5.9593 -51.654,7.6316 -69.0483,6.4484 -151.4705,6.6663 -188.5807,6.3676"
       id="path218"
       style="fill:none;stroke:#828891" />
    <polygon
       points="122.0216,-76.2614 117.0379,-78.0573 122.0538,-79.7612 122.0216,-76.2614 "
       id="polygon220"
       style="fill:#828891;stroke:#828891" />
  </g>
  <g
     transform="matrix(0.27674778,-0.96094259,0.96094259,0.27674778,412.58373,433.0052)"
     id="edge20"
     class="edge">
    <title
       id="title223">53320045696887335194993346253191689308-&gt;155097196379112688162682361837491715737</title>
    <path
       d="M 362.9851,-90.1818 C 322.6057,-76.5835 204.5213,-36.817 158.3295,-21.2614"
       id="path225"
       style="fill:none;stroke:#7d838b" />
    <polygon
       points="158.6149,-19.5109 153.3178,-19.5736 157.4978,-22.8279 158.6149,-19.5109 "
       id="polygon227"
       style="fill:#7d838b;stroke:#7d838b" />
  </g>
  <g
     transform="matrix(0.27674778,-0.96094259,0.96094259,0.27674778,412.58373,433.0052)"
     id="edge18"
     class="edge">
    <title
       id="title230">53320045696887335194993346253191689308-&gt;35709442208514154163720557599593798204</title>
    <path
       d="m 365.1351,-86.0619 c -6.5531,4.9464 -14.8816,11.2508 -22.2713,16.8992 -11.911,9.1042 -25.3184,19.457 -35.4523,27.3036"
       id="path232"
       style="fill:none;stroke:#6e737a" />
    <polygon
       points="308.3071,-40.3393 303.2826,-38.6607 306.1637,-43.1062 308.3071,-40.3393 "
       id="polygon234"
       style="fill:#6e737a;stroke:#6e737a" />
  </g>
  <g
     transform="matrix(0.27674778,-0.96094259,0.96094259,0.27674778,412.58373,433.0052)"
     id="edge62"
     class="edge">
    <title
       id="title237">53320045696887335194993346253191689308-&gt;35709442208514154163720557599593798204</title>
    <path
       d="m 365.1351,-86.0619 c -6.5531,4.9464 -14.8816,11.2508 -22.2713,16.8992 -11.911,9.1042 -25.3184,19.457 -35.4523,27.3036"
       id="path239"
       style="fill:none;stroke:#fad591;stroke-width:3;stroke-dasharray:5, 2" />
    <polygon
       points="308.3071,-40.3393 303.2826,-38.6607 306.1637,-43.1062 308.3071,-40.3393 "
       id="polygon241"
       style="fill:#fad591;stroke:#fad591;stroke-width:3" />
  </g>
  <g
     transform="matrix(0.27674778,-0.96094259,0.96094259,0.27674778,412.58373,433.0052)"
     id="edge16"
     class="edge">
    <title
       id="title244">53320045696887335194993346253191689308-&gt;47135923841202478204396209542284742446</title>
    <path
       d="m 369.1585,-82.2966 c -1.4645,2.4109 -3.021,4.9735 -4.5544,7.498"
       id="path246"
       style="fill:none;stroke:#60646b" />
    <polygon
       points="365.9853,-73.7016 361.8938,-70.3367 362.9939,-75.5187 365.9853,-73.7016 "
       id="polygon248"
       style="fill:#60646b;stroke:#60646b" />
  </g>
  <g
     transform="matrix(0.27674778,-0.96094259,0.96094259,0.27674778,412.58373,433.0052)"
     id="node10"
     class="node">
    <title
       id="title251">83129301885096701538872373026313946467</title>
    <circle
       cx="310.61331"
       cy="-100.4771"
       id="ellipse253"
       r="14.5"
       style="fill:#c9fa91;stroke:#c9fa91" />
  </g>
  <g
     transform="matrix(0.27674778,-0.96094259,0.96094259,0.27674778,412.58373,433.0052)"
     id="edge17"
     class="edge">
    <title
       id="title256">53320045696887335194993346253191689308-&gt;83129301885096701538872373026313946467</title>
    <path
       d="m 362.0856,-96.0779 c -9.3356,-0.7979 -21.5376,-1.8408 -31.7181,-2.7108"
       id="path258"
       style="fill:none;stroke:#64686f" />
    <polygon
       points="330.0868,-97.0563 325.254,-99.2258 330.3849,-100.5436 330.0868,-97.0563 "
       id="polygon260"
       style="fill:#64686f;stroke:#64686f" />
  </g>
  <g
     transform="matrix(0.27674778,-0.96094259,0.96094259,0.27674778,412.58373,433.0052)"
     id="edge61"
     class="edge">
    <title
       id="title263">53320045696887335194993346253191689308-&gt;83129301885096701538872373026313946467</title>
    <path
       d="m 362.0856,-96.0779 c -9.3356,-0.7979 -21.5376,-1.8408 -31.7181,-2.7108"
       id="path265"
       style="fill:none;stroke:#fad591;stroke-width:3;stroke-dasharray:5, 2" />
    <polygon
       points="330.0868,-97.0563 325.254,-99.2258 330.3849,-100.5436 330.0868,-97.0563 "
       id="polygon267"
       style="fill:#fad591;stroke:#fad591;stroke-width:3" />
  </g>
  <g
     transform="matrix(0.27674778,-0.96094259,0.96094259,0.27674778,412.58373,433.0052)"
     id="edge10"
     class="edge">
    <title
       id="title270">89632757210598869257822413126404359561-&gt;328195631542605159717044935356501157328</title>
    <path
       d="M 101.5354,-92.7951 C 98.405,-149.0931 87.0683,-352.9724 83.4725,-417.639"
       id="path272"
       style="fill:none;stroke:#9da4ae" />
    <polygon
       points="81.7184,-417.6669 83.188,-422.7564 85.213,-417.8613 81.7184,-417.6669 "
       id="polygon274"
       style="fill:#9da4ae;stroke:#9da4ae" />
  </g>
  <g
     transform="matrix(0.27674778,-0.96094259,0.96094259,0.27674778,412.58373,433.0052)"
     id="edge9"
     class="edge">
    <title
       id="title277">89632757210598869257822413126404359561-&gt;188492473068794308163754971150040250344</title>
    <path
       d="m 109.2857,-91.2281 c 30.2439,-56.4515 150.5316,-280.9741 185.2929,-345.8576"
       id="path279"
       style="fill:none;stroke:#a6adb8" />
    <polygon
       points="293.2143,-438.245 297.1181,-441.8259 296.2994,-436.5921 293.2143,-438.245 "
       id="polygon281"
       style="fill:#a6adb8;stroke:#a6adb8" />
  </g>
  <g
     transform="matrix(0.27674778,-0.96094259,0.96094259,0.27674778,412.58373,433.0052)"
     id="edge8"
     class="edge">
    <title
       id="title284">89632757210598869257822413126404359561-&gt;53320045696887335194993346253191689308</title>
    <path
       d="m 117.0379,-78.0573 c 34.1102,0.3522 121.2761,0.4452 193.7202,-6.3204 15.8076,-1.4763 33.5757,-4.3587 46.6921,-6.7223"
       id="path286"
       style="fill:none;stroke:#828891" />
    <polygon
       points="357.1786,-92.8293 362.4121,-92.0093 357.8095,-89.3866 357.1786,-92.8293 "
       id="polygon288"
       style="fill:#828891;stroke:#828891" />
  </g>
  <g
     transform="matrix(0.27674778,-0.96094259,0.96094259,0.27674778,412.58373,433.0052)"
     id="edge60"
     class="edge">
    <title
       id="title291">89632757210598869257822413126404359561-&gt;53320045696887335194993346253191689308</title>
    <path
       d="m 117.0379,-78.0573 c 34.1102,0.3522 121.2761,0.4452 193.7202,-6.3204 15.8076,-1.4763 33.5757,-4.3587 46.6921,-6.7223"
       id="path293"
       style="fill:none;stroke:#fad591;stroke-width:3;stroke-dasharray:5, 2" />
    <polygon
       points="357.1786,-92.8293 362.4121,-92.0093 357.8095,-89.3866 357.1786,-92.8293 "
       id="polygon295"
       style="fill:#fad591;stroke:#fad591;stroke-width:3" />
  </g>
  <g
     transform="matrix(0.27674778,-0.96094259,0.96094259,0.27674778,412.58373,433.0052)"
     id="edge6"
     class="edge">
    <title
       id="title298">89632757210598869257822413126404359561-&gt;155097196379112688162682361837491715737</title>
    <path
       d="m 109.6836,-65.7535 c 5.6255,9.5916 13.4529,22.9377 19.6759,33.5482"
       id="path300"
       style="fill:none;stroke:#70757c" />
    <polygon
       points="130.8972,-33.0426 131.9172,-27.8443 127.8781,-31.2719 130.8972,-33.0426 "
       id="polygon302"
       style="fill:#70757c;stroke:#70757c" />
  </g>
  <g
     transform="matrix(0.27674778,-0.96094259,0.96094259,0.27674778,412.58373,433.0052)"
     id="edge7"
     class="edge">
    <title
       id="title305">89632757210598869257822413126404359561-&gt;35709442208514154163720557599593798204</title>
    <path
       d="m 116.5582,-74.603 c 33.4878,8.6374 117.3769,30.2747 155.5049,40.1089"
       id="path307"
       style="fill:none;stroke:#7c818a" />
    <polygon
       points="272.9406,-36.0751 277.3451,-33.1317 272.0664,-32.686 272.9406,-36.0751 "
       id="polygon309"
       style="fill:#7c818a;stroke:#7c818a" />
  </g>
  <g
     transform="matrix(0.27674778,-0.96094259,0.96094259,0.27674778,412.58373,433.0052)"
     id="edge59"
     class="edge">
    <title
       id="title312">89632757210598869257822413126404359561-&gt;35709442208514154163720557599593798204</title>
    <path
       d="m 116.5582,-74.603 c 33.4878,8.6374 117.3769,30.2747 155.5049,40.1089"
       id="path314"
       style="fill:none;stroke:#fad591;stroke-width:3;stroke-dasharray:5, 2" />
    <polygon
       points="272.9406,-36.0751 277.3451,-33.1317 272.0664,-32.686 272.9406,-36.0751 "
       id="polygon316"
       style="fill:#fad591;stroke:#fad591;stroke-width:3" />
  </g>
  <g
     transform="matrix(0.27674778,-0.96094259,0.96094259,0.27674778,412.58373,433.0052)"
     id="edge37"
     class="edge">
    <title
       id="title319">155097196379112688162682361837491715737-&gt;328195631542605159717044935356501157328</title>
    <path
       d="M 137.5311,-29.4644 C 128.9647,-92.8262 94.8937,-344.8327 85.0477,-417.6586"
       id="path321"
       style="fill:none;stroke:#8b919a" />
    <polygon
       points="83.2642,-417.7897 84.3284,-422.9791 86.7326,-418.2586 83.2642,-417.7897 "
       id="polygon323"
       style="fill:#8b919a;stroke:#8b919a" />
  </g>
  <g
     transform="matrix(0.27674778,-0.96094259,0.96094259,0.27674778,412.58373,433.0052)"
     id="edge38"
     class="edge">
    <title
       id="title326">155097196379112688162682361837491715737-&gt;247421096997359509185586096511806622674</title>
    <path
       d="m 143.0789,-29.0228 c 14.1829,-55.852 66.4354,-261.6222 82.8256,-326.1665"
       id="path328"
       style="fill:none;stroke:#a6adb8" />
    <polygon
       points="224.2732,-355.876 227.2001,-360.2915 227.6656,-355.0145 224.2732,-355.876 "
       id="polygon330"
       style="fill:#a6adb8;stroke:#a6adb8" />
  </g>
  <g
     transform="matrix(0.27674778,-0.96094259,0.96094259,0.27674778,412.58373,433.0052)"
     id="edge34"
     class="edge">
    <title
       id="title333">155097196379112688162682361837491715737-&gt;89632757210598869257822413126404359561</title>
    <path
       d="m 132.157,-27.4354 c -5.6254,-9.5916 -13.4528,-22.9377 -19.6758,-33.5482"
       id="path335"
       style="fill:none;stroke:#70757c" />
    <polygon
       points="110.9435,-60.1463 109.9235,-65.3446 113.9626,-61.917 110.9435,-60.1463 "
       id="polygon337"
       style="fill:#70757c;stroke:#70757c" />
  </g>
  <g
     transform="matrix(0.27674778,-0.96094259,0.96094259,0.27674778,412.58373,433.0052)"
     id="edge35"
     class="edge">
    <title
       id="title340">155097196379112688162682361837491715737-&gt;47135923841202478204396209542284742446</title>
    <path
       d="m 153.7289,-17.829 c 26.8829,-5.4882 86.9813,-17.7197 137.6425,-27.76 14.5185,-2.8773 30.9346,-6.0671 43.358,-8.468"
       id="path342"
       style="fill:none;stroke:#7b8189" />
    <polygon
       points="334.5509,-55.8048 339.792,-55.0345 335.2145,-52.3683 334.5509,-55.8048 "
       id="polygon344"
       style="fill:#7b8189;stroke:#7b8189" />
  </g>
  <g
     transform="matrix(0.27674778,-0.96094259,0.96094259,0.27674778,412.58373,433.0052)"
     id="edge36"
     class="edge">
    <title
       id="title347">155097196379112688162682361837491715737-&gt;83129301885096701538872373026313946467</title>
    <path
       d="m 152.6406,-21.491 c 30.284,-15.1419 105.0297,-52.5147 139.7298,-69.8647"
       id="path349"
       style="fill:none;stroke:#767c84" />
    <polygon
       points="291.9347,-93.0943 297.1895,-93.7652 293.5,-89.9638 291.9347,-93.0943 "
       id="polygon351"
       style="fill:#767c84;stroke:#767c84" />
  </g>
  <g
     transform="matrix(0.27674778,-0.96094259,0.96094259,0.27674778,412.58373,433.0052)"
     id="edge33"
     class="edge">
    <title
       id="title354">35709442208514154163720557599593798204-&gt;247421096997359509185586096511806622674</title>
    <path
       d="m 288.9398,-43.8826 c -9.5884,-54.6091 -43.7299,-249.0557 -54.6785,-311.4113"
       id="path356"
       style="fill:none;stroke:#969ca6" />
    <polygon
       points="232.5351,-355.0062 233.394,-360.2336 235.9824,-355.6116 232.5351,-355.0062 "
       id="polygon358"
       style="fill:#969ca6;stroke:#969ca6" />
  </g>
  <g
     transform="matrix(0.27674778,-0.96094259,0.96094259,0.27674778,412.58373,433.0052)"
     id="edge32"
     class="edge">
    <title
       id="title361">35709442208514154163720557599593798204-&gt;188492473068794308163754971150040250344</title>
    <path
       d="m 291.8996,-44.127 c 1.884,-63.7663 9.3775,-317.3815 11.543,-390.6724"
       id="path363"
       style="fill:none;stroke:#9298a2" />
    <polygon
       points="301.7038,-435.2077 303.6008,-440.1538 305.2023,-435.1043 301.7038,-435.2077 "
       id="polygon365"
       style="fill:#9298a2;stroke:#9298a2" />
  </g>
  <g
     transform="matrix(0.27674778,-0.96094259,0.96094259,0.27674778,412.58373,433.0052)"
     id="edge31"
     class="edge">
    <title
       id="title375">35709442208514154163720557599593798204-&gt;155097196379112688162682361837491715737</title>
    <path
       d="m 276.8956,-28.0923 c -27.3888,2.6259 -86.5738,8.3001 -117.5637,11.2713"
       id="path377"
       style="fill:none;stroke:#838992" />
    <polygon
       points="159.3924,-15.0689 154.2482,-16.3337 159.0583,-18.5529 159.3924,-15.0689 "
       id="polygon379"
       style="fill:#838992;stroke:#838992" />
  </g>
  <g
     transform="matrix(0.27674778,-0.96094259,0.96094259,0.27674778,412.58373,433.0052)"
     id="edge28"
     class="edge">
    <title
       id="title382">35709442208514154163720557599593798204-&gt;47135923841202478204396209542284742446</title>
    <path
       d="m 304.7908,-35.4982 c 9.1624,-4.1321 21.4395,-9.669 31.4747,-14.1948"
       id="path384"
       style="fill:none;stroke:#70757d" />
    <polygon
       points="335.7109,-51.3626 340.9883,-51.8229 337.1499,-48.172 335.7109,-51.3626 "
       id="polygon386"
       style="fill:#70757d;stroke:#70757d" />
  </g>
  <g
     transform="matrix(0.27674778,-0.96094259,0.96094259,0.27674778,412.58373,433.0052)"
     id="edge29"
     class="edge">
    <title
       id="title389">35709442208514154163720557599593798204-&gt;83129301885096701538872373026313946467</title>
    <path
       d="m 295.2497,-43.5142 c 2.8989,-10.7481 6.9325,-25.7032 10.1393,-37.593"
       id="path391"
       style="fill:none;stroke:#696d74" />
    <polygon
       points="303.7153,-81.6222 306.707,-85.9939 307.0946,-80.7107 303.7153,-81.6222 "
       id="polygon393"
       style="fill:#696d74;stroke:#696d74" />
  </g>
  <g
     transform="matrix(0.27674778,-0.96094259,0.96094259,0.27674778,412.58373,433.0052)"
     id="edge56"
     class="edge">
    <title
       id="title396">47135923841202478204396209542284742446-&gt;247421096997359509185586096511806622674</title>
    <path
       d="M 348.9889,-71.4384 C 329.3245,-121.9175 260.5597,-298.4382 238.0493,-356.2229"
       id="path398"
       style="fill:none;stroke:#9399a3" />
    <polygon
       points="236.3245,-355.8295 236.1401,-361.1237 239.5858,-357.1 236.3245,-355.8295 "
       id="polygon400"
       style="fill:#9399a3;stroke:#9399a3" />
  </g>
  <g
     transform="matrix(0.27674778,-0.96094259,0.96094259,0.27674778,412.58373,433.0052)"
     id="edge55"
     class="edge">
    <title
       id="title403">47135923841202478204396209542284742446-&gt;188492473068794308163754971150040250344</title>
    <path
       d="m 352.4444,-72.42 c -7.6811,-60.6565 -37.0871,-292.8718 -45.9014,-362.4773"
       id="path405"
       style="fill:none;stroke:#9aa1ac" />
    <polygon
       points="304.7889,-434.8202 305.8968,-440.0004 308.2611,-435.2599 304.7889,-434.8202 "
       id="polygon407"
       style="fill:#9aa1ac;stroke:#9aa1ac" />
  </g>
  <g
     transform="matrix(0.27674778,-0.96094259,0.96094259,0.27674778,412.58373,433.0052)"
     id="edge50"
     class="edge">
    <title
       id="title410">47135923841202478204396209542284742446-&gt;53320045696887335194993346253191689308</title>
    <path
       d="m 361.9017,-70.3496 c 1.4644,-2.411 3.021,-4.9736 4.5544,-7.498"
       id="path412"
       style="fill:none;stroke:#60646b" />
    <polygon
       points="365.0748,-78.9446 369.1663,-82.3095 368.0662,-77.1276 365.0748,-78.9446 "
       id="polygon414"
       style="fill:#60646b;stroke:#60646b" />
  </g>
  <g
     transform="matrix(0.27674778,-0.96094259,0.96094259,0.27674778,412.58373,433.0052)"
     id="edge53"
     class="edge">
    <title
       id="title417">47135923841202478204396209542284742446-&gt;89632757210598869257822413126404359561</title>
    <path
       d="m 339.658,-59.0108 c -42.9647,-3.4867 -168.7771,-13.6966 -217.6153,-17.66"
       id="path419"
       style="fill:none;stroke:#7e848c" />
    <polygon
       points="121.8605,-74.9297 117.0184,-77.0785 122.1436,-78.4183 121.8605,-74.9297 "
       id="polygon421"
       style="fill:#7e848c;stroke:#7e848c" />
  </g>
  <g
     transform="matrix(0.27674778,-0.96094259,0.96094259,0.27674778,412.58373,433.0052)"
     id="edge54"
     class="edge">
    <title
       id="title424">47135923841202478204396209542284742446-&gt;155097196379112688162682361837491715737</title>
    <path
       d="m 339.792,-55.0345 c -12.7569,2.4607 -31.8281,6.1571 -48.4206,9.4455 -47.6927,9.452 -103.7492,20.8459 -132.5835,26.7276"
       id="path426"
       style="fill:none;stroke:#7b8189" />
    <polygon
       points="158.9778,-17.1142 153.7289,-17.829 158.278,-20.5435 158.9778,-17.1142 "
       id="polygon428"
       style="fill:#7b8189;stroke:#7b8189" />
  </g>
  <g
     transform="matrix(0.27674778,-0.96094259,0.96094259,0.27674778,412.58373,433.0052)"
     id="edge52"
     class="edge">
    <title
       id="title431">47135923841202478204396209542284742446-&gt;35709442208514154163720557599593798204</title>
    <path
       d="m 340.9691,-51.8143 c -9.1624,4.1322 -21.4395,9.6691 -31.4747,14.1948"
       id="path433"
       style="fill:none;stroke:#70757d" />
    <polygon
       points="310.049,-35.9499 304.7716,-35.4895 308.61,-39.1404 310.049,-35.9499 "
       id="polygon435"
       style="fill:#70757d;stroke:#70757d" />
  </g>
  <g
     transform="matrix(0.27674778,-0.96094259,0.96094259,0.27674778,412.58373,433.0052)"
     id="edge51"
     class="edge">
    <title
       id="title438">47135923841202478204396209542284742446-&gt;83129301885096701538872373026313946467</title>
    <path
       d="m 343.7193,-68.1485 c -5.6872,-5.5536 -12.7779,-12.4778 -18.9365,-18.4918"
       id="path440"
       style="fill:none;stroke:#676b72" />
    <polygon
       points="323.4442,-85.5014 321.0895,-90.2468 325.8895,-88.0056 323.4442,-85.5014 "
       id="polygon442"
       style="fill:#676b72;stroke:#676b72" />
  </g>
  <g
     transform="matrix(0.27674778,-0.96094259,0.96094259,0.27674778,412.58373,433.0052)"
     id="edge44"
     class="edge">
    <title
       id="title445">83129301885096701538872373026313946467-&gt;328195631542605159717044935356501157328</title>
    <path
       d="M 302.2193,-112.8702 C 267.2601,-164.4852 133.2014,-362.4139 93.5067,-421.0206"
       id="path447"
       style="fill:none;stroke:#a4abb6" />
    <polygon
       points="91.9548,-420.1911 90.5998,-425.3123 94.8527,-422.1539 91.9548,-420.1911 "
       id="polygon449"
       style="fill:#a4abb6;stroke:#a4abb6" />
  </g>
  <g
     transform="matrix(0.27674778,-0.96094259,0.96094259,0.27674778,412.58373,433.0052)"
     id="edge45"
     class="edge">
    <title
       id="title452">83129301885096701538872373026313946467-&gt;188492473068794308163754971150040250344</title>
    <path
       d="m 310.3389,-115.2479 c -1.0412,-56.0413 -4.7487,-255.588 -5.9376,-319.579"
       id="path454"
       style="fill:none;stroke:#9ca3ad" />
    <polygon
       points="302.6504,-434.8645 304.3071,-439.8962 306.1498,-434.9296 302.6504,-434.8645 "
       id="polygon456"
       style="fill:#9ca3ad;stroke:#9ca3ad" />
  </g>
  <g
     transform="matrix(0.27674778,-0.96094259,0.96094259,0.27674778,412.58373,433.0052)"
     id="edge42"
     class="edge">
    <title
       id="title466">83129301885096701538872373026313946467-&gt;89632757210598869257822413126404359561</title>
    <path
       d="m 295.9682,-98.9155 c -36.6718,3.9103 -132.4712,14.1253 -173.9773,18.551"
       id="path468"
       style="fill:none;stroke:#898f98" />
    <polygon
       points="122.1295,-78.6194 116.9721,-79.8293 121.7583,-82.0997 122.1295,-78.6194 "
       id="polygon470"
       style="fill:#898f98;stroke:#898f98" />
  </g>
  <g
     transform="matrix(0.27674778,-0.96094259,0.96094259,0.27674778,412.58373,433.0052)"
     id="edge43"
     class="edge">
    <title
       id="title473">83129301885096701538872373026313946467-&gt;155097196379112688162682361837491715737</title>
    <path
       d="m 297.4703,-93.9056 c -30.284,15.142 -105.0298,52.5147 -139.7299,69.8647"
       id="path475"
       style="fill:none;stroke:#767c84" />
    <polygon
       points="158.1762,-22.3022 152.9214,-21.6313 156.6109,-25.4327 158.1762,-22.3022 "
       id="polygon477"
       style="fill:#767c84;stroke:#767c84" />
  </g>
  <g
     transform="matrix(0.27674778,-0.96094259,0.96094259,0.27674778,412.58373,433.0052)"
     id="edge41"
     class="edge">
    <title
       id="title480">83129301885096701538872373026313946467-&gt;35709442208514154163720557599593798204</title>
    <path
       d="m 306.8306,-86.4522 c -2.8988,10.7481 -6.9324,25.7033 -10.1393,37.593"
       id="path482"
       style="fill:none;stroke:#696d74" />
    <polygon
       points="298.3651,-48.3442 295.3733,-43.9724 294.9858,-49.2557 298.3651,-48.3442 "
       id="polygon484"
       style="fill:#696d74;stroke:#696d74" />
  </g>
  <g
     transform="matrix(0.27674778,-0.96094259,0.96094259,0.27674778,412.58373,433.0052)"
     id="edge63"
     class="edge">
    <title
       id="title487">83129301885096701538872373026313946467-&gt;35709442208514154163720557599593798204</title>
    <path
       d="m 306.8306,-86.4522 c -2.8988,10.7481 -6.9324,25.7033 -10.1393,37.593"
       id="path489"
       style="fill:none;stroke:#fad591;stroke-width:3;stroke-dasharray:5, 2" />
    <polygon
       points="298.3651,-48.3442 295.3733,-43.9724 294.9858,-49.2557 298.3651,-48.3442 "
       id="polygon491"
       style="fill:#fad591;stroke:#fad591;stroke-width:3" />
  </g>
  <g
     transform="matrix(0.27674778,-0.96094259,0.96094259,0.27674778,412.58373,433.0052)"
     id="edge40"
     class="edge">
    <title
       id="title494">83129301885096701538872373026313946467-&gt;47135923841202478204396209542284742446</title>
    <path
       d="m 321.1869,-90.1517 c 5.6872,5.5536 12.7779,12.4778 18.9365,18.4918"
       id="path496"
       style="fill:none;stroke:#676b72" />
    <polygon
       points="341.462,-72.7987 343.8166,-68.0534 339.0167,-70.2946 341.462,-72.7987 "
       id="polygon498"
       style="fill:#676b72;stroke:#676b72" />
  </g>
</svg>
