<?xml version="1.0" encoding="UTF-8" standalone="no"?>
<svg
   xmlns:dc="http://purl.org/dc/elements/1.1/"
   xmlns:cc="http://creativecommons.org/ns#"
   xmlns:rdf="http://www.w3.org/1999/02/22-rdf-syntax-ns#"
   xmlns:svg="http://www.w3.org/2000/svg"
   xmlns="http://www.w3.org/2000/svg"
   width="429.23682pt"
   height="270.78574pt"
   viewBox="0 0 429.23682 270.78574"
   id="svg2"
   version="1.1">
  <metadata
     id="metadata490">
    <rdf:RDF>
      <cc:Work
         rdf:about="">
        <dc:format>image/svg+xml</dc:format>
        <dc:type
           rdf:resource="http://purl.org/dc/dcmitype/StillImage" />
        <dc:title></dc:title>
      </cc:Work>
    </rdf:RDF>
  </metadata>
  <defs
     id="defs488" />
  <g
     id="g4893"
     transform="matrix(-0.6666374,-0.74538217,0.74538217,-0.6666374,182.31825,443.67537)">
    <g
       transform="translate(4,445)"
       id="node1"
       class="node">
      <title
         id="title10">288799116572840229826400393228186816726</title>
      <circle
         cx="207.80811"
         cy="-399.98499"
         id="ellipse12"
         r="14.5"
         style="fill:#fa91f0;stroke:#fa91f0" />
    </g>
    <g
       transform="translate(4,445)"
       id="node2"
       class="node">
      <title
         id="title15">328195631542605159717044935356501157328</title>
      <circle
         cx="267.1272"
         cy="-426.99271"
         id="ellipse17"
         r="14.5"
         style="fill:#fa91a7;stroke:#fa91a7" />
    </g>
    <g
       transform="translate(4,445)"
       id="edge1"
       class="edge">
      <title
         id="title20">288799116572840229826400393228186816726-&gt;328195631542605159717044935356501157328</title>
      <path
         d="m 221.2685,-406.1135 c 8.1911,-3.7293 18.7599,-8.5413 27.6867,-12.6056"
         id="path22"
         style="fill:none;stroke:#6d7279" />
      <polygon
         points="249.8946,-417.2239 248.4443,-420.4093 248.4443,-420.4093 253.72,-420.8885 "
         id="polygon24"
         style="fill:#6d7279;stroke:#6d7279" />
    </g>
    <g
       transform="translate(4,445)"
       id="node3"
       class="node">
      <title
         id="title27">247421096997359509185586096511806622674</title>
      <circle
         cx="317.28571"
         cy="-287.5661"
         id="ellipse29"
         r="14.5"
         style="fill:#b791fa;stroke:#b791fa" />
    </g>
    <g
       transform="translate(4,445)"
       id="edge2"
       class="edge">
      <title
         id="title32">288799116572840229826400393228186816726-&gt;247421096997359509185586096511806622674</title>
      <path
         d="m 218.3053,-389.2058 c 19.8318,20.3647 62.8049,64.4923 85.0337,87.3183"
         id="path34"
         style="fill:none;stroke:#7f858e;stroke-dasharray:1, 5" />
      <polygon
         points="302.238,-300.5097 304.7455,-302.9516 304.7455,-302.9516 306.9802,-298.1485 "
         id="polygon36"
         style="fill:#7f858e;stroke:#7f858e" />
    </g>
    <g
       transform="translate(4,445)"
       id="node4"
       class="node">
      <title
         id="title39">188492473068794308163754971150040250344</title>
      <circle
         cx="404.73291"
         cy="-267.48889"
         id="ellipse41"
         r="14.5"
         style="fill:#91d8fa;stroke:#91d8fa" />
    </g>
    <g
       transform="translate(4,445)"
       id="edge3"
       class="edge">
      <title
         id="title44">288799116572840229826400393228186816726-&gt;188492473068794308163754971150040250344</title>
      <path
         d="m 220.1266,-391.6968 c 34.0645,22.9195 129.5525,87.1663 168.1294,113.1218"
         id="path46"
         style="fill:none;stroke:#7a8088" />
      <polygon
         points="387.5451,-276.9441 389.4989,-279.848 389.4989,-279.848 392.6704,-275.6048 "
         id="polygon48"
         style="fill:#7a8088;stroke:#7a8088" />
    </g>
    <g
       transform="translate(4,445)"
       id="node5"
       class="node">
      <title
         id="title51">53320045696887335194993346253191689308</title>
      <circle
         cx="185.84911"
         cy="-14.2288"
         id="ellipse53"
         r="14.5"
         style="fill:#faf491;stroke:#faf491" />
    </g>
    <g
       transform="translate(4,445)"
       id="edge4"
       class="edge">
      <title
         id="title56">288799116572840229826400393228186816726-&gt;53320045696887335194993346253191689308</title>
      <path
         d="m 205.3587,-385.45 c -7.7568,47.6446 -30.9695,203.4605 -25.7622,332.8402 0.2453,6.0944 1.0962,12.6673 2.0946,18.6221"
         id="path58"
         style="fill:none;stroke:#b2bac6" />
      <polygon
         points="180.0301,-33.3362 183.475,-33.955 183.475,-33.955 182.6365,-28.7244 "
         id="polygon60"
         style="fill:#b2bac6;stroke:#b2bac6" />
    </g>
    <g
       transform="translate(4,445)"
       id="edge58"
       class="edge">
      <title
         id="title63">288799116572840229826400393228186816726-&gt;53320045696887335194993346253191689308</title>
      <path
         d="m 205.3587,-385.45 c -7.7568,47.6446 -30.9695,203.4605 -25.7622,332.8402 0.2453,6.0944 1.0962,12.6673 2.0946,18.6221"
         id="path65"
         style="fill:none;stroke:#faa091;stroke-width:3;stroke-dasharray:5, 2" />
      <polygon
         points="180.0301,-33.3362 183.475,-33.955 183.475,-33.955 182.6365,-28.7244 "
         id="polygon67"
         style="fill:#faa091;stroke:#faa091;stroke-width:3" />
    </g>
    <g
       transform="translate(4,445)"
       id="node6"
       class="node">
      <title
         id="title70">89632757210598869257822413126404359561</title>
      <circle
         cx="14.0134"
         cy="-168.6772"
         id="ellipse72"
         r="14.5"
         style="fill:#bdfa91;stroke:#bdfa91" />
    </g>
    <g
       transform="translate(4,445)"
       id="edge5"
       class="edge">
      <title
         id="title75">288799116572840229826400393228186816726-&gt;89632757210598869257822413126404359561</title>
      <path
         d="M 198.461,-388.8286 C 166.7458,-350.9743 63.1942,-227.378 26.8014,-183.9405"
         id="path77"
         style="fill:none;stroke:#939aa3" />
      <polygon
         points="25.3635,-184.9492 28.0463,-182.7014 28.0463,-182.7014 23.4938,-179.9926 "
         id="polygon79"
         style="fill:#939aa3;stroke:#939aa3" />
    </g>
    <g
       transform="translate(4,445)"
       id="edge11"
       class="edge">
      <title
         id="title82">328195631542605159717044935356501157328-&gt;288799116572840229826400393228186816726</title>
      <path
         d="m 253.6667,-420.8643 c -8.191,3.7294 -18.7599,8.5413 -27.6866,12.6057"
         id="path84"
         style="fill:none;stroke:#6d7279" />
      <polygon
         points="225.0406,-409.7538 226.491,-406.5684 226.491,-406.5684 221.2152,-406.0892 "
         id="polygon86"
         style="fill:#6d7279;stroke:#6d7279" />
    </g>
    <g
       transform="translate(4,445)"
       id="edge12"
       class="edge">
      <title
         id="title89">328195631542605159717044935356501157328-&gt;247421096997359509185586096511806622674</title>
      <path
         d="m 272.1199,-413.1142 c 9.0511,25.1593 28.1752,78.3189 38.3933,106.7226"
         id="path91"
         style="fill:none;stroke:#777d85" />
      <polygon
         points="308.9738,-305.5009 312.2672,-306.6857 312.2672,-306.6857 312.3131,-301.3885 "
         id="polygon93"
         style="fill:#777d85;stroke:#777d85" />
    </g>
    <g
       transform="translate(4,445)"
       id="edge13"
       class="edge">
      <title
         id="title96">328195631542605159717044935356501157328-&gt;188492473068794308163754971150040250344</title>
      <path
         d="m 276.8033,-415.7767 c 24.2385,28.0957 87.5728,101.5088 114.9794,133.2767"
         id="path98"
         style="fill:none;stroke:#888e97;stroke-dasharray:1, 5" />
      <polygon
         points="390.6589,-281.1235 393.309,-283.4098 393.309,-283.4098 395.2501,-278.4807 "
         id="polygon100"
         style="fill:#888e97;stroke:#888e97" />
    </g>
    <g
       transform="translate(4,445)"
       id="edge15"
       class="edge">
      <title
         id="title103">328195631542605159717044935356501157328-&gt;53320045696887335194993346253191689308</title>
      <path
         d="m 261.8704,-413.3194 c -18.1507,48.3757 -77.348,216.2802 -82.2739,360.7096 -0.2157,6.3256 0.5651,13.1655 1.6415,19.2946"
         id="path105"
         style="fill:none;stroke:#acb3bf" />
      <polygon
         points="179.5285,-32.9374 182.9648,-33.6021 182.9648,-33.6021 182.1963,-28.3607 "
         id="polygon107"
         style="fill:#acb3bf;stroke:#acb3bf" />
    </g>
    <g
       transform="translate(4,445)"
       id="node8"
       class="node">
      <title
         id="title110">35709442208514154163720557599593798204</title>
      <circle
         cx="110.0207"
         cy="-31.8804"
         id="ellipse112"
         r="14.5"
         style="fill:#fad391;stroke:#fad391" />
    </g>
    <g
       transform="translate(4,445)"
       id="edge14"
       class="edge">
      <title
         id="title115">328195631542605159717044935356501157328-&gt;35709442208514154163720557599593798204</title>
      <path
         d="m 261.7192,-413.3921 c -23.5587,59.2485 -117.2575,294.895 -144.3351,362.9932"
         id="path117"
         style="fill:none;stroke:#b1b8c4" />
      <polygon
         points="115.6273,-50.7167 118.8796,-49.4234 118.8796,-49.4234 115.4059,-45.4239 "
         id="polygon119"
         style="fill:#b1b8c4;stroke:#b1b8c4" />
    </g>
    <g
       transform="translate(4,445)"
       id="edge47"
       class="edge">
      <title
         id="title122">247421096997359509185586096511806622674-&gt;288799116572840229826400393228186816726</title>
      <path
         d="m 306.7885,-298.3453 c -19.8318,-20.3647 -62.8049,-64.4923 -85.0337,-87.3184"
         id="path124"
         style="fill:none;stroke:#7f858e;stroke-dasharray:1, 5" />
      <polygon
         points="222.8558,-387.0414 220.3483,-384.5995 220.3483,-384.5995 218.1136,-389.4026 "
         id="polygon126"
         style="fill:#7f858e;stroke:#7f858e" />
    </g>
    <g
       transform="translate(4,445)"
       id="edge48"
       class="edge">
      <title
         id="title129">247421096997359509185586096511806622674-&gt;328195631542605159717044935356501157328</title>
      <path
         d="m 312.2929,-301.4446 c -9.051,-25.1593 -28.1751,-78.319 -38.3933,-106.7226"
         id="path131"
         style="fill:none;stroke:#777d85" />
      <polygon
         points="275.439,-409.058 272.1457,-407.8731 272.1457,-407.8731 272.0997,-413.1704 "
         id="polygon133"
         style="fill:#777d85;stroke:#777d85" />
    </g>
    <g
       transform="translate(4,445)"
       id="edge46"
       class="edge">
      <title
         id="title136">247421096997359509185586096511806622674-&gt;188492473068794308163754971150040250344</title>
      <path
         d="m 331.7258,-284.2508 c 14.6442,3.3622 37.3992,8.5866 53.6101,12.3085"
         id="path138"
         style="fill:none;stroke:#70757c" />
      <polygon
         points="385.2966,-270.1559 386.0799,-273.5671 386.0799,-273.5671 390.5615,-270.7426 "
         id="polygon140"
         style="fill:#70757c;stroke:#70757c" />
    </g>
    <g
       transform="translate(4,445)"
       id="edge49"
       class="edge">
      <title
         id="title143">247421096997359509185586096511806622674-&gt;53320045696887335194993346253191689308</title>
      <path
         d="m 312.4289,-273.638 c -13.7029,38.4797 -54.9632,148.9103 -105.3034,232.3046 -2.3999,3.9755 -5.3006,8.0322 -8.1777,11.7554"
         id="path145"
         style="fill:none;stroke:#9097a0" />
      <polygon
         points="197.3558,-30.3879 200.0948,-28.2089 200.0948,-28.2089 195.6125,-25.3855 "
         id="polygon147"
         style="fill:#9097a0;stroke:#9097a0" />
    </g>
    <g
       transform="translate(4,445)"
       id="node9"
       class="node">
      <title
         id="title150">47135923841202478204396209542284742446</title>
      <circle
         cx="195.6964"
         cy="-52.673"
         id="ellipse152"
         r="14.5"
         style="fill:#fae891;stroke:#fae891" />
    </g>
    <g
       transform="translate(4,445)"
       id="edge50"
       class="edge">
      <title
         id="title155">247421096997359509185586096511806622674-&gt;47135923841202478204396209542284742446</title>
      <path
         d="M 310.5753,-274.6026 C 290.0645,-234.9788 228.18,-115.4266 204.7861,-70.233"
         id="path157"
         style="fill:none;stroke:#9399a3" />
      <polygon
         points="203.1304,-70.8413 206.2387,-69.2323 206.2387,-69.2323 202.386,-65.5964 "
         id="polygon159"
         style="fill:#9399a3;stroke:#9399a3" />
    </g>
    <g
       transform="translate(4,445)"
       id="edge24"
       class="edge">
      <title
         id="title162">188492473068794308163754971150040250344-&gt;288799116572840229826400393228186816726</title>
      <path
         d="M 392.4144,-275.7771 C 358.3499,-298.6966 262.8619,-362.9434 224.2849,-388.899"
         id="path164"
         style="fill:none;stroke:#7a8088" />
      <polygon
         points="224.9959,-390.5298 223.042,-387.6259 223.042,-387.6259 219.8705,-391.8691 "
         id="polygon166"
         style="fill:#7a8088;stroke:#7a8088" />
    </g>
    <g
       transform="translate(4,445)"
       id="edge25"
       class="edge">
      <title
         id="title169">188492473068794308163754971150040250344-&gt;328195631542605159717044935356501157328</title>
      <path
         d="M 395.0567,-278.7049 C 370.8182,-306.8006 307.4839,-380.2138 280.0774,-411.9817"
         id="path171"
         style="fill:none;stroke:#888e97;stroke-dasharray:1, 5" />
      <polygon
         points="281.2011,-413.3582 278.551,-411.0719 278.551,-411.0719 276.6099,-416.0009 "
         id="polygon173"
         style="fill:#888e97;stroke:#888e97" />
    </g>
    <g
       transform="translate(4,445)"
       id="edge23"
       class="edge">
      <title
         id="title176">188492473068794308163754971150040250344-&gt;247421096997359509185586096511806622674</title>
      <path
         d="m 390.2928,-270.8042 c -14.6442,-3.3622 -37.3993,-8.5866 -53.6101,-12.3085"
         id="path178"
         style="fill:none;stroke:#70757c" />
      <polygon
         points="336.722,-284.8992 335.9387,-281.4879 335.9387,-281.4879 331.4571,-284.3125 "
         id="polygon180"
         style="fill:#70757c;stroke:#70757c" />
    </g>
    <g
       transform="translate(4,445)"
       id="node7"
       class="node">
      <title
         id="title183">155097196379112688162682361837491715737</title>
      <circle
         cx="84.223999"
         cy="-200.83839"
         id="ellipse185"
         r="14.5"
         style="fill:#91fade;stroke:#91fade" />
    </g>
    <g
       transform="translate(4,445)"
       id="edge26"
       class="edge">
      <title
         id="title188">188492473068794308163754971150040250344-&gt;155097196379112688162682361837491715737</title>
      <path
         d="m 390.1284,-264.4519 c -51.9483,10.8028 -227.7989,47.3713 -286.5843,59.5959"
         id="path190"
         style="fill:none;stroke:#b5bdc9" />
      <polygon
         points="103.0869,-206.5485 103.7996,-203.1218 103.7996,-203.1218 98.548,-203.8171 "
         id="polygon192"
         style="fill:#b5bdc9;stroke:#b5bdc9" />
    </g>
    <g
       transform="translate(4,445)"
       id="edge27"
       class="edge">
      <title
         id="title195">188492473068794308163754971150040250344-&gt;35709442208514154163720557599593798204</title>
      <path
         d="m 394.1306,-257.0331 c -32.0237,31.2747 -131.2596,125.9581 -223.9479,191.089 -13.5249,9.5037 -29.9091,18.6403 -42.1621,25.0544"
         id="path197"
         style="fill:none;stroke:#9298a2" />
      <polygon
         points="127.0113,-42.3379 128.6206,-39.2298 128.6206,-39.2298 123.3758,-38.4849 "
         id="polygon199"
         style="fill:#9298a2;stroke:#9298a2" />
    </g>
    <g
       transform="translate(4,445)"
       id="edge21"
       class="edge">
      <title
         id="title202">53320045696887335194993346253191689308-&gt;247421096997359509185586096511806622674</title>
      <path
         d="m 195.6125,-25.3855 c 3.8656,-4.7284 8.1741,-10.4167 11.513,-15.9479 48.3738,-80.1368 88.3632,-185.2388 103.5725,-227.4718"
         id="path204"
         style="fill:none;stroke:#9097a0" />
      <polygon
         points="312.3905,-268.3407 309.0954,-269.5208 309.0954,-269.5208 312.4289,-273.638 "
         id="polygon206"
         style="fill:#9097a0;stroke:#9097a0" />
    </g>
    <g
       transform="translate(4,445)"
       id="edge22"
       class="edge">
      <title
         id="title209">53320045696887335194993346253191689308-&gt;188492473068794308163754971150040250344</title>
      <path
         d="m 195.5367,-25.4378 c 35.1765,-40.7011 156.1878,-180.7176 196.2215,-227.0388"
         id="path211"
         style="fill:none;stroke:#979ea8" />
      <polygon
         points="393.2117,-251.482 390.5636,-253.7707 390.5636,-253.7707 395.1572,-256.4093 "
         id="polygon213"
         style="fill:#979ea8;stroke:#979ea8" />
    </g>
    <g
       transform="translate(4,445)"
       id="edge19"
       class="edge">
      <title
         id="title216">53320045696887335194993346253191689308-&gt;89632757210598869257822413126404359561</title>
      <path
         d="M 174.8386,-24.1252 C 145.0851,-50.868 63.0336,-124.6171 29.0535,-155.1589"
         id="path218"
         style="fill:none;stroke:#828891" />
      <polygon
         points="30.0431,-156.6224 27.7034,-154.0193 27.7034,-154.0193 25.1546,-158.6633 "
         id="polygon220"
         style="fill:#828891;stroke:#828891" />
    </g>
    <g
       transform="translate(4,445)"
       id="edge20"
       class="edge">
      <title
         id="title223">53320045696887335194993346253191689308-&gt;155097196379112688162682361837491715737</title>
      <path
         d="m 176.2854,-25.6198 c -8.2449,-10.1357 -20.1615,-25.5665 -28.8706,-40.1196 -23.7831,-39.7423 -45.1803,-89.9016 -55.9151,-116.5197"
         id="path225"
         style="fill:none;stroke:#7d838b" />
      <polygon
         points="93.1053,-182.9571 89.8564,-181.6553 89.8564,-181.6553 89.6211,-186.9475 "
         id="polygon227"
         style="fill:#7d838b;stroke:#7d838b" />
    </g>
    <g
       transform="translate(4,445)"
       id="edge18"
       class="edge">
      <title
         id="title230">53320045696887335194993346253191689308-&gt;35709442208514154163720557599593798204</title>
      <path
         d="m 171.5863,-17.5489 c -11.9682,-2.786 -29.1715,-6.7907 -42.3522,-9.8589"
         id="path232"
         style="fill:none;stroke:#6e737a" />
      <polygon
         points="129.4861,-29.1459 128.6925,-25.737 128.6925,-25.737 124.2195,-28.5752 "
         id="polygon234"
         style="fill:#6e737a;stroke:#6e737a" />
    </g>
    <g
       transform="translate(4,445)"
       id="edge59"
       class="edge">
      <title
         id="title237">53320045696887335194993346253191689308-&gt;35709442208514154163720557599593798204</title>
      <path
         d="m 171.5863,-17.5489 c -11.9682,-2.786 -29.1715,-6.7907 -42.3522,-9.8589"
         id="path239"
         style="fill:none;stroke:#faa091;stroke-width:3;stroke-dasharray:5, 2" />
      <polygon
         points="129.4861,-29.1459 128.6925,-25.737 128.6925,-25.737 124.2195,-28.5752 "
         id="polygon241"
         style="fill:#faa091;stroke:#faa091;stroke-width:3" />
    </g>
    <g
       transform="translate(4,445)"
       id="edge16"
       class="edge">
      <title
         id="title244">53320045696887335194993346253191689308-&gt;47135923841202478204396209542284742446</title>
      <path
         d="m 189.5159,-28.544 c 0.4155,-1.6225 0.8439,-3.2949 1.2722,-4.9667"
         id="path246"
         style="fill:none;stroke:#60646b" />
      <polygon
         points="192.5139,-33.196 189.1233,-34.0645 189.1233,-34.0645 192.0593,-38.4739 "
         id="polygon248"
         style="fill:#60646b;stroke:#60646b" />
    </g>
    <g
       transform="translate(4,445)"
       id="node10"
       class="node">
      <title
         id="title251">83129301885096701538872373026313946467</title>
      <circle
         cx="158.6964"
         cy="-77.2257"
         id="ellipse253"
         r="14.5"
         style="fill:#c9fa91;stroke:#c9fa91" />
    </g>
    <g
       transform="translate(4,445)"
       id="edge17"
       class="edge">
      <title
         id="title256">53320045696887335194993346253191689308-&gt;83129301885096701538872373026313946467</title>
      <path
         d="m 180.0907,-27.5888 c -3.9599,-9.1874 -9.266,-21.4979 -13.6031,-31.5605"
         id="path258"
         style="fill:none;stroke:#64686f" />
      <polygon
         points="168.0327,-59.986 164.8185,-58.6006 164.8185,-58.6006 164.4465,-63.885 "
         id="polygon260"
         style="fill:#64686f;stroke:#64686f" />
    </g>
    <g
       transform="translate(4,445)"
       id="edge10"
       class="edge">
      <title
         id="title263">89632757210598869257822413126404359561-&gt;328195631542605159717044935356501157328</title>
      <path
         d="m 24.2493,-179.1234 c 39.6717,-40.4869 183.3398,-187.1077 228.9086,-233.613"
         id="path265"
         style="fill:none;stroke:#9da4ae" />
      <polygon
         points="254.5145,-411.6204 252.0145,-414.07 252.0145,-414.07 256.7639,-416.4165 "
         id="polygon267"
         style="fill:#9da4ae;stroke:#9da4ae" />
    </g>
    <g
       transform="translate(4,445)"
       id="edge9"
       class="edge">
      <title
         id="title270">89632757210598869257822413126404359561-&gt;188492473068794308163754971150040250344</title>
      <path
         d="m 28.3244,-171.8197 c 14.2353,-3.1553 36.6872,-8.211 56.0431,-12.9193 114.7101,-27.903 251.7076,-64.3347 301.2831,-77.6195"
         id="path272"
         style="fill:none;stroke:#a6adb8" />
      <polygon
         points="386.3402,-260.7316 385.4336,-264.1121 385.4336,-264.1121 390.7163,-263.717 "
         id="polygon274"
         style="fill:#a6adb8;stroke:#a6adb8" />
    </g>
    <g
       transform="translate(4,445)"
       id="edge8"
       class="edge">
      <title
         id="title277">89632757210598869257822413126404359561-&gt;53320045696887335194993346253191689308</title>
      <path
         d="m 25.0239,-158.7808 c 29.7535,26.7429 111.805,100.492 145.7851,131.0338"
         id="path279"
         style="fill:none;stroke:#828891" />
      <polygon
         points="169.8194,-26.2835 172.159,-28.8866 172.159,-28.8866 174.7079,-24.2426 "
         id="polygon281"
         style="fill:#828891;stroke:#828891" />
    </g>
    <g
       transform="translate(4,445)"
       id="edge6"
       class="edge">
      <title
         id="title284">89632757210598869257822413126404359561-&gt;155097196379112688162682361837491715737</title>
      <path
         d="m 27.2195,-174.7264 c 10.9413,-5.0119 26.6079,-12.1883 38.7493,-17.7499"
         id="path286"
         style="fill:none;stroke:#70757c" />
      <polygon
         points="66.7813,-190.9235 65.3237,-194.1056 65.3237,-194.1056 70.5983,-194.5969 "
         id="polygon288"
         style="fill:#70757c;stroke:#70757c" />
    </g>
    <g
       transform="translate(4,445)"
       id="edge7"
       class="edge">
      <title
         id="title291">89632757210598869257822413126404359561-&gt;35709442208514154163720557599593798204</title>
      <path
         d="m 22.5334,-156.5374 c 17.3374,24.7034 56.7219,80.8207 76.1784,108.5434"
         id="path293"
         style="fill:none;stroke:#7c818a" />
      <polygon
         points="97.3521,-46.885 100.217,-48.8957 100.217,-48.8957 101.6569,-43.7977 "
         id="polygon295"
         style="fill:#7c818a;stroke:#7c818a" />
    </g>
    <g
       transform="translate(4,445)"
       id="edge38"
       class="edge">
      <title
         id="title298">155097196379112688162682361837491715737-&gt;328195631542605159717044935356501157328</title>
      <path
         d="m 93.5457,-212.3643 c 30.3338,-37.5069 126.2645,-156.1224 160.929,-198.9841"
         id="path300"
         style="fill:none;stroke:#8b919a" />
      <polygon
         points="256.0408,-410.5018 253.3194,-412.7028 253.3194,-412.7028 257.8243,-415.49 "
         id="polygon302"
         style="fill:#8b919a;stroke:#8b919a" />
    </g>
    <g
       transform="translate(4,445)"
       id="edge37"
       class="edge">
      <title
         id="title305">155097196379112688162682361837491715737-&gt;188492473068794308163754971150040250344</title>
      <path
         d="m 98.8285,-203.8754 c 51.9483,-10.8028 227.7989,-47.3713 286.5843,-59.5959"
         id="path307"
         style="fill:none;stroke:#b5bdc9" />
      <polygon
         points="385.87,-261.7788 385.1573,-265.2055 385.1573,-265.2055 390.4089,-264.5102 "
         id="polygon309"
         style="fill:#b5bdc9;stroke:#b5bdc9" />
    </g>
    <g
       transform="translate(4,445)"
       id="edge34"
       class="edge">
      <title
         id="title312">155097196379112688162682361837491715737-&gt;89632757210598869257822413126404359561</title>
      <path
         d="m 71.018,-194.7891 c -10.9413,5.0118 -26.608,12.1882 -38.7494,17.7498"
         id="path314"
         style="fill:none;stroke:#70757c" />
      <polygon
         points="31.4562,-178.592 32.9138,-175.41 32.9138,-175.41 27.6392,-174.9187 "
         id="polygon316"
         style="fill:#70757c;stroke:#70757c" />
    </g>
    <g
       transform="translate(4,445)"
       id="edge35"
       class="edge">
      <title
         id="title319">155097196379112688162682361837491715737-&gt;47135923841202478204396209542284742446</title>
      <path
         d="m 93.3658,-189.1509 c 15.819,20.283 49.2324,63.384 76.6122,100.4388 4.7506,6.4294 9.8859,13.5827 14.3093,19.8107"
         id="path321"
         style="fill:none;stroke:#7b8189" />
      <polygon
         points="182.9042,-67.8263 185.7602,-69.8495 185.7602,-69.8495 187.2224,-64.7578 "
         id="polygon323"
         style="fill:#7b8189;stroke:#7b8189" />
    </g>
    <g
       transform="translate(4,445)"
       id="edge36"
       class="edge">
      <title
         id="title326">155097196379112688162682361837491715737-&gt;83129301885096701538872373026313946467</title>
      <path
         d="m 91.9134,-188.0753 c 13.5045,22.4154 41.4797,68.85 56.5825,93.9184"
         id="path328"
         style="fill:none;stroke:#767c84" />
      <polygon
         points="147.0805,-93.1151 150.0785,-94.9213 150.0785,-94.9213 151.1598,-89.7353 "
         id="polygon330"
         style="fill:#767c84;stroke:#767c84" />
    </g>
    <g
       transform="translate(4,445)"
       id="edge32"
       class="edge">
      <title
         id="title333">35709442208514154163720557599593798204-&gt;328195631542605159717044935356501157328</title>
      <path
         d="m 115.4287,-45.4811 c 23.5586,-59.2484 117.2575,-294.8949 144.335,-362.9931"
         id="path335"
         style="fill:none;stroke:#b1b8c4" />
      <polygon
         points="261.5206,-408.1565 258.2683,-409.4497 258.2683,-409.4497 261.7419,-413.4493 "
         id="polygon337"
         style="fill:#b1b8c4;stroke:#b1b8c4" />
    </g>
    <g
       transform="translate(4,445)"
       id="edge33"
       class="edge">
      <title
         id="title340">35709442208514154163720557599593798204-&gt;188492473068794308163754971150040250344</title>
      <path
         d="m 123.3758,-38.4849 c 12.4976,-6.3997 31.4867,-16.6939 46.8069,-27.4592 89.4297,-62.8411 184.9548,-153.1934 220.3244,-187.5594"
         id="path342"
         style="fill:none;stroke:#9298a2" />
      <polygon
         points="391.77,-252.2907 389.3278,-254.7978 389.3278,-254.7978 394.1306,-257.0331 "
         id="polygon344"
         style="fill:#9298a2;stroke:#9298a2" />
    </g>
    <g
       transform="translate(4,445)"
       id="edge30"
       class="edge">
      <title
         id="title347">35709442208514154163720557599593798204-&gt;89632757210598869257822413126404359561</title>
      <path
         d="M 101.5007,-44.0202 C 84.1633,-68.7236 44.7788,-124.8408 25.3224,-152.5635"
         id="path349"
         style="fill:none;stroke:#7c818a" />
      <polygon
         points="26.6821,-153.6725 23.8172,-151.6619 23.8172,-151.6619 22.3773,-156.7599 "
         id="polygon351"
         style="fill:#7c818a;stroke:#7c818a" />
    </g>
    <g
       transform="translate(4,445)"
       id="edge31"
       class="edge">
      <title
         id="title354">35709442208514154163720557599593798204-&gt;155097196379112688162682361837491715737</title>
      <path
         d="M 107.8213,-46.2857 C 103.1951,-76.5856 92.4533,-146.9403 87.2104,-181.2793"
         id="path356"
         style="fill:none;stroke:#838992" />
      <polygon
         points="88.9026,-181.791 85.4427,-181.2627 85.4427,-181.2627 86.4179,-186.4696 "
         id="polygon358"
         style="fill:#838992;stroke:#838992" />
    </g>
    <g
       transform="translate(4,445)"
       id="edge28"
       class="edge">
      <title
         id="title361">35709442208514154163720557599593798204-&gt;47135923841202478204396209542284742446</title>
      <path
         d="m 124.1683,-35.3139 c 14.2621,-3.4613 36.3765,-8.8282 52.2398,-12.6781"
         id="path363"
         style="fill:none;stroke:#70757d" />
      <polygon
         points="177.0816,-46.3545 176.2561,-49.7558 176.2561,-49.7558 181.5278,-49.2345 "
         id="polygon365"
         style="fill:#70757d;stroke:#70757d" />
    </g>
    <g
       transform="translate(4,445)"
       id="edge60"
       class="edge">
      <title
         id="title368">35709442208514154163720557599593798204-&gt;47135923841202478204396209542284742446</title>
      <path
         d="m 124.1683,-35.3139 c 14.2621,-3.4613 36.3765,-8.8282 52.2398,-12.6781"
         id="path370"
         style="fill:none;stroke:#faa091;stroke-width:3;stroke-dasharray:5, 2" />
      <polygon
         points="177.0816,-46.3545 176.2561,-49.7558 176.2561,-49.7558 181.5278,-49.2345 "
         id="polygon372"
         style="fill:#faa091;stroke:#faa091;stroke-width:3" />
    </g>
    <g
       transform="translate(4,445)"
       id="edge29"
       class="edge">
      <title
         id="title375">35709442208514154163720557599593798204-&gt;83129301885096701538872373026313946467</title>
      <path
         d="m 120.8234,-41.944 c 6.806,-6.3404 15.6827,-14.6097 23.1314,-21.5488"
         id="path377"
         style="fill:none;stroke:#696d74" />
      <polygon
         points="145.4582,-62.5016 143.0725,-65.0625 143.0725,-65.0625 147.9239,-67.1903 "
         id="polygon379"
         style="fill:#696d74;stroke:#696d74" />
    </g>
    <g
       transform="translate(4,445)"
       id="edge61"
       class="edge">
      <title
         id="title382">35709442208514154163720557599593798204-&gt;83129301885096701538872373026313946467</title>
      <path
         d="m 120.8234,-41.944 c 6.806,-6.3404 15.6827,-14.6097 23.1314,-21.5488"
         id="path384"
         style="fill:none;stroke:#faa091;stroke-width:3;stroke-dasharray:5, 2" />
      <polygon
         points="145.4582,-62.5016 143.0725,-65.0625 143.0725,-65.0625 147.9239,-67.1903 "
         id="polygon386"
         style="fill:#faa091;stroke:#faa091;stroke-width:3" />
    </g>
    <g
       transform="translate(4,445)"
       id="edge56"
       class="edge">
      <title
         id="title389">47135923841202478204396209542284742446-&gt;328195631542605159717044935356501157328</title>
      <path
         d="m 198.4966,-67.3468 c 11.1142,-58.2424 52.1291,-273.1731 64.8457,-339.8118"
         id="path391"
         style="fill:none;stroke:#a8b0bb" />
      <polygon
         points="265.128,-407.181 261.6901,-407.8371 261.6901,-407.8371 264.3463,-412.4204 "
         id="polygon393"
         style="fill:#a8b0bb;stroke:#a8b0bb" />
    </g>
    <g
       transform="translate(4,445)"
       id="edge57"
       class="edge">
      <title
         id="title396">47135923841202478204396209542284742446-&gt;188492473068794308163754971150040250344</title>
      <path
         d="m 206.0625,-63.3258 c 34.4766,-35.4298 145.3266,-149.3445 184.6631,-189.7686"
         id="path398"
         style="fill:none;stroke:#9aa1ac" />
      <polygon
         points="392.0713,-251.968 389.5629,-254.4089 389.5629,-254.4089 394.3042,-256.7719 "
         id="polygon400"
         style="fill:#9aa1ac;stroke:#9aa1ac" />
    </g>
    <g
       transform="translate(4,445)"
       id="edge51"
       class="edge">
      <title
         id="title403">47135923841202478204396209542284742446-&gt;53320045696887335194993346253191689308</title>
      <path
         d="m 192.0296,-38.3578 c -0.4156,1.6224 -0.844,3.2949 -1.2722,4.9667"
         id="path405"
         style="fill:none;stroke:#60646b" />
      <polygon
         points="189.0316,-33.7059 192.4221,-32.8373 192.4221,-32.8373 189.4861,-28.428 "
         id="polygon407"
         style="fill:#60646b;stroke:#60646b" />
    </g>
    <g
       transform="translate(4,445)"
       id="edge54"
       class="edge">
      <title
         id="title410">47135923841202478204396209542284742446-&gt;89632757210598869257822413126404359561</title>
      <path
         d="m 181.0057,-54.6439 c -9.9762,-1.805 -23.194,-5.1363 -33.5909,-11.0955 -46.7845,-26.8154 -95.3607,-68.3854 -118.8911,-89.5581"
         id="path412"
         style="fill:none;stroke:#7e848c" />
      <polygon
         points="29.5783,-156.7033 27.2299,-154.1081 27.2299,-154.1081 24.6966,-158.7605 "
         id="polygon414"
         style="fill:#7e848c;stroke:#7e848c" />
    </g>
    <g
       transform="translate(4,445)"
       id="edge55"
       class="edge">
      <title
         id="title417">47135923841202478204396209542284742446-&gt;155097196379112688162682361837491715737</title>
      <path
         d="m 187.2224,-64.7578 c -4.9679,-7.0315 -11.3975,-16.0412 -17.2444,-23.9543 -25.6686,-34.7389 -56.6401,-74.7918 -73.4458,-96.3754"
         id="path419"
         style="fill:none;stroke:#7b8189" />
      <polygon
         points="97.8195,-186.2826 95.0588,-184.1313 95.0588,-184.1313 93.3658,-189.1509 "
         id="polygon421"
         style="fill:#7b8189;stroke:#7b8189" />
    </g>
    <g
       transform="translate(4,445)"
       id="edge53"
       class="edge">
      <title
         id="title424">47135923841202478204396209542284742446-&gt;35709442208514154163720557599593798204</title>
      <path
         d="m 181.5488,-49.2396 c -14.2621,3.4613 -36.3764,8.8282 -52.2398,12.6781"
         id="path426"
         style="fill:none;stroke:#70757d" />
      <polygon
         points="128.6355,-38.1989 129.461,-34.7977 129.461,-34.7977 124.1893,-35.319 "
         id="polygon428"
         style="fill:#70757d;stroke:#70757d" />
    </g>
    <g
       transform="translate(4,445)"
       id="edge52"
       class="edge">
      <title
         id="title431">47135923841202478204396209542284742446-&gt;83129301885096701538872373026313946467</title>
      <path
         d="m 183.5812,-60.7125 c -2.6555,-1.7622 -5.5111,-3.6571 -8.3075,-5.5127"
         id="path433"
         style="fill:none;stroke:#676b72" />
      <polygon
         points="176.0993,-67.7777 174.164,-64.8613 174.164,-64.8613 170.9655,-69.0841 "
         id="polygon435"
         style="fill:#676b72;stroke:#676b72" />
    </g>
    <g
       transform="translate(4,445)"
       id="edge44"
       class="edge">
      <title
         id="title438">83129301885096701538872373026313946467-&gt;328195631542605159717044935356501157328</title>
      <path
         d="m 163.0813,-91.3702 c 17.0334,-54.9449 78.8198,-254.2505 98.1937,-316.7452"
         id="path440"
         style="fill:none;stroke:#a4abb6" />
      <polygon
         points="262.9974,-407.7615 259.6544,-408.7979 259.6544,-408.7979 262.8065,-413.0555 "
         id="polygon442"
         style="fill:#a4abb6;stroke:#a4abb6" />
    </g>
    <g
       transform="translate(4,445)"
       id="edge45"
       class="edge">
      <title
         id="title445">83129301885096701538872373026313946467-&gt;188492473068794308163754971150040250344</title>
      <path
         d="m 170.2332,-86.1473 c 40.0356,-30.96 173.0241,-133.8017 218.8329,-169.2263"
         id="path447"
         style="fill:none;stroke:#9ca3ad" />
      <polygon
         points="390.3362,-254.1435 388.1951,-256.9123 388.1951,-256.9123 393.221,-258.5866 "
         id="polygon449"
         style="fill:#9ca3ad;stroke:#9ca3ad" />
    </g>
    <g
       transform="translate(4,445)"
       id="edge39"
       class="edge">
      <title
         id="title452">83129301885096701538872373026313946467-&gt;53320045696887335194993346253191689308</title>
      <path
         d="m 164.4548,-63.8657 c 3.9599,9.1874 9.2659,21.4979 13.603,31.5605"
         id="path454"
         style="fill:none;stroke:#64686f" />
      <polygon
         points="176.5128,-31.4685 179.7269,-32.8539 179.7269,-32.8539 180.099,-27.5696 "
         id="polygon456"
         style="fill:#64686f;stroke:#64686f" />
    </g>
    <g
       transform="translate(4,445)"
       id="edge42"
       class="edge">
      <title
         id="title459">83129301885096701538872373026313946467-&gt;89632757210598869257822413126404359561</title>
      <path
         d="M 146.3608,-85.0228 C 120.4142,-101.4232 60.1677,-139.5039 30.7624,-158.0904"
         id="path461"
         style="fill:none;stroke:#898f98" />
      <polygon
         points="31.4793,-159.7075 29.6093,-156.749 29.6093,-156.749 26.3178,-160.8998 "
         id="polygon463"
         style="fill:#898f98;stroke:#898f98" />
    </g>
    <g
       transform="translate(4,445)"
       id="edge43"
       class="edge">
      <title
         id="title466">83129301885096701538872373026313946467-&gt;155097196379112688162682361837491715737</title>
      <path
         d="m 151.007,-89.9889 c -13.5044,-22.4153 -41.4797,-68.85 -56.5825,-93.9183"
         id="path468"
         style="fill:none;stroke:#767c84" />
      <polygon
         points="95.8399,-184.9491 92.842,-183.1429 92.842,-183.1429 91.7607,-188.3288 "
         id="polygon470"
         style="fill:#767c84;stroke:#767c84" />
    </g>
    <g
       transform="translate(4,445)"
       id="edge41"
       class="edge">
      <title
         id="title473">83129301885096701538872373026313946467-&gt;35709442208514154163720557599593798204</title>
      <path
         d="m 147.8937,-67.1621 c -6.806,6.3403 -15.6827,14.6096 -23.1314,21.5487"
         id="path475"
         style="fill:none;stroke:#696d74" />
      <polygon
         points="123.2589,-46.6045 125.6446,-44.0436 125.6446,-44.0436 120.7932,-41.9159 "
         id="polygon477"
         style="fill:#696d74;stroke:#696d74" />
    </g>
    <g
       transform="translate(4,445)"
       id="edge40"
       class="edge">
      <title
         id="title480">83129301885096701538872373026313946467-&gt;47135923841202478204396209542284742446</title>
      <path
         d="m 170.8116,-69.1863 c 2.6555,1.7622 5.5111,3.6572 8.3075,5.5128"
         id="path482"
         style="fill:none;stroke:#676b72" />
      <polygon
         points="178.2935,-62.1211 180.2288,-65.0374 180.2288,-65.0374 183.4273,-60.8146 "
         id="polygon484"
         style="fill:#676b72;stroke:#676b72" />
    </g>
  </g>
</svg>
