<?xml version="1.0" encoding="UTF-8" standalone="no"?>
<svg
   xmlns:dc="http://purl.org/dc/elements/1.1/"
   xmlns:cc="http://creativecommons.org/ns#"
   xmlns:rdf="http://www.w3.org/1999/02/22-rdf-syntax-ns#"
   xmlns:svg="http://www.w3.org/2000/svg"
   xmlns="http://www.w3.org/2000/svg"
   version="1.1"
   id="svg5313"
   viewBox="0 0 431.39642 266.20459"
   height="266.20459pt"
   width="431.39642pt">
  <metadata
     id="metadata5801">
    <rdf:RDF>
      <cc:Work
         rdf:about="">
        <dc:format>image/svg+xml</dc:format>
        <dc:type
           rdf:resource="http://purl.org/dc/dcmitype/StillImage" />
        <dc:title></dc:title>
      </cc:Work>
    </rdf:RDF>
  </metadata>
  <defs
     id="defs5799">
    <marker
       orient="auto"
       refY="0.0"
       refX="0.0"
       id="Arrow1Lstart"
       style="overflow:visible">
      <path
         id="path4686"
         d="M 0.0,0.0 L 5.0,-5.0 L -12.5,0.0 L 5.0,5.0 L 0.0,0.0 z "
         style="fill-rule:evenodd;stroke:#000000;stroke-width:1.0pt"
         transform="scale(0.8) translate(12.5,0)" />
    </marker>
  </defs>
  <path
     style="fill:none;stroke:#696d74"
     id="path5786"
     d="m 364.9302,78.355223 c 9.24927,0.985895 21.31259,2.271754 31.43535,3.350699" />
  <path
     style="fill:none;stroke:#70757d;marker-end:"
     id="path5737"
     d="m 356.41272,41.188917 c 11.96083,8.504507 30.50681,21.691336 43.81055,31.150716" />
  <circle
     style="fill:#fa91f0;stroke:#fa91f0"
     r="14.5"
     id="ellipse5323"
     cy="-108.52335"
     cx="-238.41982"
     transform="matrix(-0.65532821,-0.75534425,0.75534425,-0.65532821,0,0)" />
  <circle
     style="fill:#fa91a7;stroke:#fa91a7"
     r="14.5"
     id="ellipse5328"
     cy="-135.53107"
     cx="-179.10072"
     transform="matrix(-0.65532821,-0.75534425,0.75534425,-0.65532821,0,0)" />
  <path
     style="fill:none;stroke:#6d7279"
     id="path5333"
     d="M 60.820633,245.0564 C 52.635869,241.31322 42.075119,236.48358 33.15519,232.40422" />
  <polygon
     style="fill:#6d7279;stroke:#6d7279"
     id="polygon5335"
     points="248.4443,-420.4093 248.4443,-420.4093 253.72,-420.8885 249.8946,-417.2239 "
     transform="matrix(-0.65532821,-0.75534425,0.75534425,-0.65532821,512.57962,146.05266)" />
  <circle
     style="fill:#b791fa;stroke:#b791fa"
     r="14.5"
     id="ellipse5340"
     cy="3.8955398"
     cx="-128.94221"
     transform="matrix(-0.65532821,-0.75534425,0.75534425,-0.65532821,0,0)" />
  <path
     style="fill:none;stroke:#7f858e;stroke-dasharray:1, 5"
     id="path5345"
     d="m 75.533635,236.21455 c 2.386021,-28.3254 7.556066,-89.70295 10.230394,-121.45186" />
  <polygon
     style="fill:#7f858e;stroke:#7f858e"
     id="polygon5347"
     points="304.7455,-302.9516 304.7455,-302.9516 306.9802,-298.1485 302.238,-300.5097 "
     transform="matrix(-0.65532821,-0.75534425,0.75534425,-0.65532821,512.57962,146.05266)" />
  <circle
     style="fill:#91d8fa;stroke:#91d8fa"
     r="14.5"
     id="ellipse5352"
     cy="23.97275"
     cx="-41.49501"
     transform="matrix(-0.65532821,-0.75534425,0.75534425,-0.65532821,0,0)" />
  <path
     style="fill:none;stroke:#7a8088"
     id="path5357"
     d="M 72.458524,236.47126 C 67.447208,195.72104 53.399679,81.49199 47.724486,35.343779" />
  <polygon
     style="fill:#7a8088;stroke:#7a8088"
     id="polygon5359"
     points="389.4989,-279.848 389.4989,-279.848 392.6704,-275.6048 387.5451,-276.9441 "
     transform="matrix(-0.65532821,-0.75534425,0.75534425,-0.65532821,512.57962,146.05266)" />
  <circle
     style="fill:#faf491;stroke:#faf491"
     r="14.5"
     id="ellipse5364"
     cy="277.23285"
     cx="-260.37881"
     transform="matrix(-0.65532821,-0.75534425,0.75534425,-0.65532821,0,0)" />
  <path
     style="fill:none;stroke:#b2bac6"
     id="path5369"
     d="m 86.85483,243.53241 c 41.07132,-25.3638 173.97791,-109.94078 268.29163,-198.660248 4.44262,-4.179118 8.8498,-9.129247 12.69344,-13.785731" />
  <polygon
     style="fill:#b2bac6;stroke:#b2bac6"
     id="polygon5371"
     points="183.475,-33.955 183.475,-33.955 182.6365,-28.7244 180.0301,-33.3362 "
     transform="matrix(-0.65532821,-0.75534425,0.75534425,-0.65532821,512.57962,146.05266)" />
  <path
     style="fill:none;stroke:#fabb91;stroke-width:3;stroke-dasharray:5, 2"
     id="path5376"
     d="m 86.85483,243.53241 c 41.07132,-25.3638 173.97791,-109.94078 268.29163,-198.660248 4.44262,-4.179118 8.8498,-9.129247 12.69344,-13.785731" />
  <polygon
     style="fill:#fabb91;stroke:#fabb91;stroke-width:3"
     id="polygon5378"
     points="183.475,-33.955 183.475,-33.955 182.6365,-28.7244 180.0301,-33.3362 "
     transform="matrix(-0.65532821,-0.75534425,0.75534425,-0.65532821,512.57962,146.05266)" />
  <circle
     style="fill:#bdfa91;stroke:#bdfa91"
     r="14.5"
     id="ellipse5383"
     cy="122.78444"
     cx="-432.21451"
     transform="matrix(-0.65532821,-0.75534425,0.75534425,-0.65532821,0,0)" />
  <path
     style="fill:none;stroke:#939aa3"
     id="path5388"
     d="m 88.823081,250.95664 c 49.376889,-0.8511 210.594929,-3.63014 267.254429,-4.60686" />
  <polygon
     style="fill:#939aa3;stroke:#939aa3"
     id="polygon5390"
     points="28.0463,-182.7014 28.0463,-182.7014 23.4938,-179.9926 25.3635,-184.9492 "
     transform="matrix(-0.65532821,-0.75534425,0.75534425,-0.65532821,512.57962,146.05266)" />
  <path
     style="fill:none;stroke:#6d7279"
     id="path5395"
     d="m 28.447247,230.25123 c 8.184774,3.74304 18.745513,8.57282 27.665453,12.65204" />
  <polygon
     style="fill:#6d7279;stroke:#6d7279"
     id="polygon5397"
     points="226.491,-406.5684 226.491,-406.5684 221.2152,-406.0892 225.0406,-409.7538 "
     transform="matrix(-0.65532821,-0.75534425,0.75534425,-0.65532821,512.57962,146.05266)" />
  <path
     style="fill:none;stroke:#777d85"
     id="path5402"
     d="m 22.208337,211.23385 c 13.072492,-23.3243 40.693728,-72.60656 55.45209,-98.93849" />
  <polygon
     style="fill:#777d85;stroke:#777d85"
     id="polygon5404"
     points="312.2672,-306.6857 312.2672,-306.6857 312.3131,-301.3885 308.9738,-305.5009 "
     transform="matrix(-0.65532821,-0.75534425,0.75534425,-0.65532821,512.57962,146.05266)" />
  <path
     style="fill:none;stroke:#888e97;stroke-dasharray:1, 5"
     id="path5409"
     d="M 17.128069,209.44108 C 22.465822,172.72076 36.413231,76.771888 42.448614,35.25207" />
  <polygon
     style="fill:#888e97;stroke:#888e97"
     id="polygon5411"
     points="393.309,-283.4098 393.309,-283.4098 395.2501,-278.4807 390.6589,-281.1235 "
     transform="matrix(-0.65532821,-0.75534425,0.75534425,-0.65532821,512.57962,146.05266)" />
  <path
     style="fill:none;stroke:#acb3bf"
     id="path5416"
     d="M 28.770127,219.11022 C 77.2051,201.11829 242.82446,135.80007 355.14646,44.872162 c 4.91936,-3.982416 9.57416,-9.054568 13.49834,-13.884193" />
  <polygon
     style="fill:#acb3bf;stroke:#acb3bf"
     id="polygon5418"
     points="182.9648,-33.6021 182.9648,-33.6021 182.1963,-28.3607 179.5285,-32.9374 "
     transform="matrix(-0.65532821,-0.75534425,0.75534425,-0.65532821,512.57962,146.05266)" />
  <circle
     style="fill:#fad391;stroke:#fad391"
     r="14.5"
     id="ellipse5423"
     cy="259.58124"
     cx="-336.20721"
     transform="matrix(-0.65532821,-0.75534425,0.75534425,-0.65532821,0,0)" />
  <path
     style="fill:none;stroke:#b1b8c4"
     id="path5428"
     d="M 28.814299,219.27207 C 89.005994,198.23979 328.40369,114.58884 397.58599,90.415076" />
  <polygon
     style="fill:#b1b8c4;stroke:#b1b8c4"
     id="polygon5430"
     points="118.8796,-49.4234 118.8796,-49.4234 115.4059,-45.4239 115.6273,-50.7167 "
     transform="matrix(-0.65532821,-0.75534425,0.75534425,-0.65532821,512.57962,146.05266)" />
  <path
     style="fill:none;stroke:#7f858e;stroke-dasharray:none;stroke-width:1;stroke-miterlimit:4"
     id="path5435"
     d="m 86.179055,109.83582 c -2.386021,28.3254 -7.556066,89.70295 -10.230469,121.45193" />
  <polygon
     style="fill:#7f858e;stroke:#7f858e"
     id="polygon5437"
     points="220.3483,-384.5995 220.3483,-384.5995 218.1136,-389.4026 222.8558,-387.0414 "
     transform="matrix(-0.65532821,-0.75534425,0.75534425,-0.65532821,512.57962,146.05266)" />
  <path
     style="fill:none;stroke:#777d85"
     id="path5442"
     d="m 80.230828,107.70916 c -13.072557,23.32422 -40.693869,72.60655 -55.45209,98.93849" />
  <polygon
     style="fill:#777d85;stroke:#777d85"
     id="polygon5444"
     points="272.1457,-407.8731 272.1457,-407.8731 272.0997,-413.1704 275.439,-409.058 "
     transform="matrix(-0.65532821,-0.75534425,0.75534425,-0.65532821,512.57962,146.05266)" />
  <path
     style="fill:none;stroke:#70757c"
     id="path5449"
     d="M 80.483138,81.763052 C 73.425999,68.498296 62.460226,47.88674 54.648082,33.202864" />
  <polygon
     style="fill:#70757c;stroke:#70757c"
     id="polygon5451"
     points="386.0799,-273.5671 386.0799,-273.5671 390.5615,-270.7426 385.2966,-270.1559 "
     transform="matrix(-0.65532821,-0.75534425,0.75534425,-0.65532821,512.57962,146.05266)" />
  <path
     style="fill:none;stroke:#9097a0"
     id="path5456"
     d="m 101.14526,89.383988 c 38.04532,-14.866427 148.49747,-56.068984 244.47823,-72.69544 4.57559,-0.792507 9.54071,-1.25995 14.23845,-1.526667" />
  <polygon
     style="fill:#9097a0;stroke:#9097a0"
     id="polygon5458"
     points="200.0948,-28.2089 200.0948,-28.2089 195.6125,-25.3855 197.3558,-30.3879 "
     transform="matrix(-0.65532821,-0.75534425,0.75534425,-0.65532821,512.57962,146.05266)" />
  <circle
     style="fill:#fae891;stroke:#fae891"
     r="14.5"
     id="ellipse5463"
     cy="238.78864"
     cx="-250.53152"
     transform="matrix(-0.65532821,-0.75534425,0.75534425,-0.65532821,0,0)" />
  <path
     style="fill:none;stroke:#9399a3"
     id="path5468"
     d="M 101.63137,91.416223 C 145.00228,80.942344 275.86001,49.340516 325.32742,37.394323" />
  <polygon
     style="fill:#9399a3;stroke:#9399a3"
     id="polygon5470"
     points="206.2387,-69.2323 206.2387,-69.2323 202.386,-65.5964 203.1304,-70.8413 "
     transform="matrix(-0.65532821,-0.75534425,0.75534425,-0.65532821,512.57962,146.05266)" />
  <path
     style="fill:none;stroke:#7a8088"
     id="path5475"
     d="M 47.112747,30.369213 C 52.124062,71.119432 66.171591,185.34848 71.846774,231.49684" />
  <polygon
     style="fill:#7a8088;stroke:#7a8088"
     id="polygon5477"
     points="223.042,-387.6259 223.042,-387.6259 219.8705,-391.8691 224.9959,-390.5298 "
     transform="matrix(-0.65532821,-0.75534425,0.75534425,-0.65532821,512.57962,146.05266)" />
  <path
     style="fill:none;stroke:#888e97;stroke-dasharray:none;stroke-width:1;stroke-miterlimit:4"
     id="path5482"
     d="M 43.169676,30.292036 C 37.831924,67.012353 23.884439,162.96129 17.848991,204.48104" />
  <polygon
     style="fill:#888e97;stroke:#888e97"
     id="polygon5484"
     points="278.551,-411.0719 278.551,-411.0719 276.6099,-416.0009 281.2011,-413.3582 "
     transform="matrix(-0.65532821,-0.75534425,0.75534425,-0.65532821,512.57962,146.05266)" />
  <path
     style="fill:none;stroke:#70757c"
     id="path5489"
     d="M 52.259343,28.712869 C 59.316482,41.977626 70.28232,62.589257 78.094399,77.273057" />
  <polygon
     style="fill:#70757c;stroke:#70757c"
     id="polygon5491"
     points="335.9387,-281.4879 335.9387,-281.4879 331.4571,-284.3125 336.722,-284.8992 "
     transform="matrix(-0.65532821,-0.75534425,0.75534425,-0.65532821,512.57962,146.05266)" />
  <circle
     style="fill:#91fade;stroke:#91fade"
     r="14.5"
     id="ellipse5496"
     cy="90.623245"
     cx="-362.00394"
     transform="matrix(-0.65532821,-0.75534425,0.75534425,-0.65532821,0,0)" />
  <path
     style="fill:none;stroke:#b5bdc9"
     id="path5501"
     d="M 57.165252,24.674207 C 99.368271,56.833677 242.22994,165.69705 289.98745,202.08914" />
  <polygon
     style="fill:#b5bdc9;stroke:#b5bdc9"
     id="polygon5503"
     points="103.7996,-203.1218 103.7996,-203.1218 98.548,-203.8171 103.0869,-206.5485 "
     transform="matrix(-0.65532821,-0.75534425,0.75534425,-0.65532821,512.57962,146.05266)" />
  <path
     style="fill:none;stroke:#9298a2"
     id="path5508"
     d="m 60.146245,16.789419 c 44.609195,3.693724 181.159845,16.602288 291.097355,43.931746 16.04181,3.987913 33.68012,10.376152 46.55471,15.428045" />
  <polygon
     style="fill:#9298a2;stroke:#9298a2"
     id="polygon5510"
     points="128.6206,-39.2298 128.6206,-39.2298 123.3758,-38.4849 127.0113,-42.3379 "
     transform="matrix(-0.65532821,-0.75534425,0.75534425,-0.65532821,512.57962,146.05266)" />
  <path
     style="fill:none;stroke:#9097a0"
     id="path5515"
     d="m 365.21444,14.933717 c -6.10481,0.178795 -13.22491,0.652098 -19.59095,1.754831 -92.23159,15.977034 -197.82596,54.647576 -239.6935,70.835795" />
  <polygon
     style="fill:#9097a0;stroke:#9097a0"
     id="polygon5517"
     points="309.0954,-269.5208 309.0954,-269.5208 312.4289,-273.638 312.3905,-268.3407 "
     transform="matrix(-0.65532821,-0.75534425,0.75534425,-0.65532821,512.57962,146.05266)" />
  <path
     style="fill:none;stroke:#979ea8"
     id="path5522"
     d="m 365.22461,15.025246 c -53.7955,0.102212 -238.85827,0.453785 -300.081938,0.570149" />
  <polygon
     style="fill:#979ea8;stroke:#979ea8"
     id="polygon5524"
     points="390.5636,-253.7707 390.5636,-253.7707 395.1572,-256.4093 393.2117,-251.482 "
     transform="matrix(-0.65532821,-0.75534425,0.75534425,-0.65532821,512.57962,146.05266)" />
  <path
     style="fill:none;stroke:#828891"
     id="path5529"
     d="m 379.78012,29.799253 c -0.70171,39.999446 -2.63701,150.306437 -3.43846,195.988017" />
  <polygon
     style="fill:#828891;stroke:#828891"
     id="polygon5531"
     points="27.7034,-154.0193 27.7034,-154.0193 25.1546,-158.6633 30.0431,-156.6224 "
     transform="matrix(-0.65532821,-0.75534425,0.75534425,-0.65532821,512.57962,146.05266)" />
  <path
     style="fill:none;stroke:#7d838b"
     id="path5536"
     d="M 377.70306,29.685874 C 375.45023,42.555822 371.60395,61.669196 366.31867,77.784622 351.88528,121.7933 328.01993,170.82636 314.94892,196.37842" />
  <polygon
     style="fill:#7d838b;stroke:#7d838b"
     id="polygon5538"
     points="89.8564,-181.6553 89.8564,-181.6553 89.6211,-186.9475 93.1053,-182.9571 "
     transform="matrix(-0.65532821,-0.75534425,0.75534425,-0.65532821,512.57962,146.05266)" />
  <path
     style="fill:none;stroke:#6e737a"
     id="path5543"
     d="m 386.87882,27.946224 c 5.73871,10.865856 13.98759,26.484662 20.30772,38.451306" />
  <polygon
     style="fill:#6e737a;stroke:#6e737a"
     id="polygon5545"
     points="128.6925,-25.737 128.6925,-25.737 124.2195,-28.5752 129.4861,-29.1459 "
     transform="matrix(-0.65532821,-0.75534425,0.75534425,-0.65532821,512.57962,146.05266)" />
  <path
     style="fill:none;stroke:#fabb91;stroke-width:3;stroke-dasharray:5, 2"
     id="path5550"
     d="m 386.87882,27.946224 c 5.73871,10.865856 13.98759,26.484662 20.30772,38.451306" />
  <polygon
     style="fill:#fabb91;stroke:#fabb91;stroke-width:3"
     id="polygon5552"
     points="128.6925,-25.737 128.6925,-25.737 124.2195,-28.5752 129.4861,-29.1459 "
     transform="matrix(-0.65532821,-0.75534425,0.75534425,-0.65532821,512.57962,146.05266)" />
  <path
     style="fill:none;stroke:#60646b"
     id="path5557"
     d="m 366.82396,21.608603 c -1.49784,0.749425 -3.04182,1.521806 -4.58528,2.29387" />
  <polygon
     style="fill:#60646b;stroke:#60646b"
     id="polygon5559"
     points="189.1233,-34.0645 189.1233,-34.0645 192.0593,-38.4739 192.5139,-33.196 "
     transform="matrix(-0.65532821,-0.75534425,0.75534425,-0.65532821,512.57962,146.05266)" />
  <circle
     style="fill:#c9fa91;stroke:#c9fa91"
     r="14.5"
     id="ellipse5564"
     cy="214.23595"
     cx="-287.53152"
     transform="matrix(-0.65532821,-0.75534425,0.75534425,-0.65532821,0,0)" />
  <path
     style="fill:none;stroke:#64686f"
     id="path5569"
     d="m 373.72206,28.101904 c -4.34461,9.01185 -10.16604,21.0872 -14.92454,30.95751" />
  <polygon
     style="fill:#64686f;stroke:#64686f"
     id="polygon5571"
     points="164.8185,-58.6006 164.8185,-58.6006 164.4465,-63.885 168.0327,-59.986 "
     transform="matrix(-0.65532821,-0.75534425,0.75534425,-0.65532821,512.57962,146.05266)" />
  <path
     style="fill:none;stroke:#9da4ae"
     id="path5576"
     d="M 361.38854,245.12071 C 304.80901,241.68712 99.910071,229.253 34.92004,225.3091" />
  <polygon
     style="fill:#9da4ae;stroke:#9da4ae"
     id="polygon5578"
     points="252.0145,-414.07 252.0145,-414.07 256.7639,-416.4165 254.5145,-411.6204 "
     transform="matrix(-0.65532821,-0.75534425,0.75534425,-0.65532821,512.57962,146.05266)" />
  <path
     style="fill:none;stroke:#a6adb8"
     id="path5583"
     d="M 364.23482,237.25628 C 352.52269,228.57149 333.99053,214.92572 317.74968,203.39083 221.50054,135.03084 104.20374,55.425288 61.680918,26.684623" />
  <polygon
     style="fill:#a6adb8;stroke:#a6adb8"
     id="polygon5585"
     points="385.4336,-264.1121 385.4336,-264.1121 390.7163,-263.717 386.3402,-260.7316 "
     transform="matrix(-0.65532821,-0.75534425,0.75534425,-0.65532821,512.57962,146.05266)" />
  <path
     style="fill:none;stroke:#828891"
     id="path5590"
     d="m 376.24659,231.20454 c 0.70179,-39.99951 2.63708,-150.306508 3.43854,-195.988084" />
  <polygon
     style="fill:#828891;stroke:#828891"
     id="polygon5592"
     points="172.159,-28.8866 172.159,-28.8866 174.7079,-24.2426 169.8194,-26.2835 "
     transform="matrix(-0.65532821,-0.75534425,0.75534425,-0.65532821,512.57962,146.05266)" />
  <path
     style="fill:none;stroke:#70757c"
     id="path5597"
     d="M 362.76333,239.99571 C 351.80748,235.0157 336.12006,227.88492 323.96254,222.35866" />
  <polygon
     style="fill:#70757c;stroke:#70757c"
     id="polygon5599"
     points="65.3237,-194.1056 65.3237,-194.1056 70.5983,-194.5969 66.7813,-190.9235 "
     transform="matrix(-0.65532821,-0.75534425,0.75534425,-0.65532821,512.57962,146.05266)" />
  <path
     style="fill:none;stroke:#7c818a"
     id="path5604"
     d="m 379.57322,231.61556 c 7.29789,-29.28454 23.87599,-95.80865 32.06578,-128.67247" />
  <polygon
     style="fill:#7c818a;stroke:#7c818a"
     id="polygon5606"
     points="100.217,-48.8957 100.217,-48.8957 101.6569,-43.7977 97.3521,-46.885 "
     transform="matrix(-0.65532821,-0.75534425,0.75534425,-0.65532821,512.57962,146.05266)" />
  <path
     style="fill:none;stroke:#8b919a"
     id="path5611"
     d="m 290.86833,214.56177 c -48.20922,1.66687 -200.670845,6.93825 -255.762808,8.8431" />
  <polygon
     style="fill:#8b919a;stroke:#8b919a"
     id="polygon5613"
     points="253.3194,-412.7028 253.3194,-412.7028 257.8243,-415.49 256.0408,-410.5018 "
     transform="matrix(-0.65532821,-0.75534425,0.75534425,-0.65532821,512.57962,146.05266)" />
  <path
     style="fill:none;stroke:#b5bdc9"
     id="path5618"
     d="M 293.8184,205.00842 C 251.61539,172.84895 108.75372,63.985582 60.996208,27.593493" />
  <polygon
     style="fill:#b5bdc9;stroke:#b5bdc9"
     id="polygon5620"
     points="385.1573,-265.2055 385.1573,-265.2055 390.4089,-264.5102 385.87,-261.7788 "
     transform="matrix(-0.65532821,-0.75534425,0.75534425,-0.65532821,512.57962,146.05266)" />
  <path
     style="fill:none;stroke:#70757c"
     id="path5625"
     d="m 318.90669,220.06041 c 10.95578,4.98008 26.64326,12.11093 38.80079,17.6372" />
  <polygon
     style="fill:#70757c;stroke:#70757c"
     id="polygon5627"
     points="32.9138,-175.41 32.9138,-175.41 27.6392,-174.9187 31.4562,-178.592 "
     transform="matrix(-0.65532821,-0.75534425,0.75534425,-0.65532821,512.57962,146.05266)" />
  <path
     style="fill:none;stroke:#7b8189"
     id="path5632"
     d="m 308.52033,199.48526 c 4.95401,-25.24081 15.61336,-78.72473 25.65974,-123.688963 1.74321,-7.801706 3.7811,-16.368384 5.58661,-23.790958" />
  <polygon
     style="fill:#7b8189;stroke:#7b8189"
     id="polygon5634"
     points="185.7602,-69.8495 185.7602,-69.8495 187.2224,-64.7578 182.9042,-67.8263 "
     transform="matrix(-0.65532821,-0.75534425,0.75534425,-0.65532821,512.57962,146.05266)" />
  <path
     style="fill:none;stroke:#767c84"
     id="path5639"
     d="m 310.28458,199.87745 c 8.08146,-24.88999 24.82263,-76.4508 33.86061,-104.286641" />
  <polygon
     style="fill:#767c84;stroke:#767c84"
     id="polygon5641"
     points="150.0785,-94.9213 150.0785,-94.9213 151.1598,-89.7353 147.0805,-93.1151 "
     transform="matrix(-0.65532821,-0.75534425,0.75534425,-0.65532821,512.57962,146.05266)" />
  <path
     style="fill:none;stroke:#b1b8c4"
     id="path5646"
     d="M 402.58205,88.669303 C 342.3905,109.7016 102.99273,193.35247 33.810501,217.52631" />
  <polygon
     style="fill:#b1b8c4;stroke:#b1b8c4"
     id="polygon5648"
     points="258.2683,-409.4497 258.2683,-409.4497 261.7419,-413.4493 261.5206,-408.1565 "
     transform="matrix(-0.65532821,-0.75534425,0.75534425,-0.65532821,512.57962,146.05266)" />
  <path
     style="fill:none;stroke:#9298a2"
     id="path5653"
     d="M 402.65863,78.0817 C 389.63462,72.835613 369.41487,65.238385 351.2436,60.721165 245.17113,34.352501 114.32375,21.408577 65.18689,17.213362" />
  <polygon
     style="fill:#9298a2;stroke:#9298a2"
     id="polygon5655"
     points="389.3278,-254.7978 389.3278,-254.7978 394.1306,-257.0331 391.77,-252.2907 "
     transform="matrix(-0.65532821,-0.75534425,0.75534425,-0.65532821,512.57962,146.05266)" />
  <path
     style="fill:none;stroke:#7c818a"
     id="path5660"
     d="M 412.81294,98.232369 C 405.51506,127.51691 388.93703,194.04095 380.74717,226.9047" />
  <polygon
     style="fill:#7c818a;stroke:#7c818a"
     id="polygon5662"
     points="23.8172,-151.6619 23.8172,-151.6619 22.3773,-156.7599 26.6821,-153.6725 "
     transform="matrix(-0.65532821,-0.75534425,0.75534425,-0.65532821,512.57962,146.05266)" />
  <path
     style="fill:none;stroke:#838992"
     id="path5667"
     d="M 406.95964,94.942786 C 387.10447,118.29354 341.00185,172.51272 318.49991,198.97622" />
  <polygon
     style="fill:#838992;stroke:#838992"
     id="polygon5669"
     points="85.4427,-181.2627 85.4427,-181.2627 86.4179,-186.4696 88.9026,-181.791 "
     transform="matrix(-0.65532821,-0.75534425,0.75534425,-0.65532821,512.57962,146.05266)" />
  <path
     style="fill:none;stroke:#70757d"
     id="path5674"
     d="M 404.53448,75.405043 C 392.57365,66.900536 374.0276,53.713632 360.72393,44.254327" />
  <polygon
     style="fill:#70757d;stroke:#70757d"
     id="polygon5676"
     points="176.2561,-49.7558 176.2561,-49.7558 181.5278,-49.2345 177.0816,-46.3545 "
     transform="matrix(-0.65532821,-0.75534425,0.75534425,-0.65532821,512.57962,146.05266)" />
  <path
     style="fill:none;stroke:#fabb91;stroke-width:3;stroke-dasharray:5, 2"
     id="path5681"
     d="M 404.53448,75.405043 C 392.57365,66.900536 374.0276,53.713632 360.72393,44.254327" />
  <polygon
     style="fill:#fabb91;stroke:#fabb91;stroke-width:3"
     id="polygon5683"
     points="176.2561,-49.7558 176.2561,-49.7558 181.5278,-49.2345 177.0816,-46.3545 "
     transform="matrix(-0.65532821,-0.75534425,0.75534425,-0.65532821,512.57962,146.05266)" />
  <path
     style="fill:none;stroke:#696d74"
     id="path5688"
     d="m 401.71848,82.276486 c -9.24935,-0.98583 -21.31267,-2.271689 -31.43542,-3.350633" />
  <polygon
     style="fill:#696d74;stroke:#696d74"
     id="polygon5690"
     points="143.0725,-65.0625 143.0725,-65.0625 147.9239,-67.1903 145.4582,-62.5016 "
     transform="matrix(-0.65532821,-0.75534425,0.75534425,-0.65532821,512.57962,146.05266)" />
  <path
     style="fill:none;stroke:#fabb91;stroke-width:3;stroke-dasharray:5, 2"
     id="path5695"
     d="m 401.71848,82.276486 c -9.24935,-0.98583 -21.31267,-2.271689 -31.43542,-3.350633" />
  <polygon
     style="fill:#fabb91;stroke:#fabb91;stroke-width:3"
     id="polygon5697"
     points="143.0725,-65.0625 143.0725,-65.0625 147.9239,-67.1903 145.4582,-62.5016 "
     transform="matrix(-0.65532821,-0.75534425,0.75534425,-0.65532821,512.57962,146.05266)" />
  <path
     style="fill:none;stroke:#a8b0bb"
     id="path5702"
     d="M 331.62918,40.253652 C 280.35267,70.026493 91.12778,179.89628 32.459075,213.96108" />
  <polygon
     style="fill:#a8b0bb;stroke:#a8b0bb"
     id="polygon5704"
     points="261.6901,-407.8371 261.6901,-407.8371 264.3463,-412.4204 265.128,-407.181 "
     transform="matrix(-0.65532821,-0.75534425,0.75534425,-0.65532821,512.57962,146.05266)" />
  <path
     style="fill:none;stroke:#9aa1ac"
     id="path5709"
     d="M 329.70827,31.903719 C 280.35309,29.080164 121.66514,20.001771 65.352712,16.780225" />
  <polygon
     style="fill:#9aa1ac;stroke:#9aa1ac"
     id="polygon5711"
     points="389.5629,-254.4089 389.5629,-254.4089 394.3042,-256.7719 392.0713,-251.968 "
     transform="matrix(-0.65532821,-0.75534425,0.75534425,-0.65532821,512.57962,146.05266)" />
  <path
     style="fill:none;stroke:#60646b"
     id="path5716"
     d="m 357.76386,26.141154 c 1.49783,-0.749283 3.04188,-1.52173 4.58528,-2.293869" />
  <polygon
     style="fill:#60646b;stroke:#60646b"
     id="polygon5718"
     points="192.4221,-32.8373 192.4221,-32.8373 189.4861,-28.428 189.0316,-33.7059 "
     transform="matrix(-0.65532821,-0.75534425,0.75534425,-0.65532821,512.57962,146.05266)" />
  <path
     style="fill:none;stroke:#7e848c"
     id="path5723"
     d="m 352.68652,45.140734 c 5.17429,8.718333 11.32001,20.885417 13.63215,32.643888 10.40434,52.911288 10.83803,116.845038 10.26549,148.493658" />
  <polygon
     style="fill:#7e848c;stroke:#7e848c"
     id="polygon5725"
     points="27.2299,-154.1081 27.2299,-154.1081 24.6966,-158.7605 29.5783,-156.7033 "
     transform="matrix(-0.65532821,-0.75534425,0.75534425,-0.65532821,512.57962,146.05266)" />
  <path
     style="fill:none;stroke:#7b8189"
     id="path5730"
     d="m 340.97307,47.07291 c -2.0556,8.360415 -4.64753,19.121287 -6.793,28.723387 -9.41847,42.154013 -19.3757,91.795953 -24.6655,118.634383" />
  <polygon
     style="fill:#7b8189;stroke:#7b8189"
     id="polygon5732"
     points="95.0588,-184.1313 95.0588,-184.1313 93.3658,-189.1509 97.8195,-186.2826 "
     transform="matrix(-0.65532821,-0.75534425,0.75534425,-0.65532821,512.57962,146.05266)" />
  <polygon
     style="fill:#70757d;stroke:#70757d"
     id="polygon5739"
     points="129.461,-34.7977 129.461,-34.7977 124.1893,-35.319 128.6355,-38.1989 "
     transform="matrix(-0.65532821,-0.75534425,0.75534425,-0.65532821,512.57962,146.05266)" />
  <path
     style="fill:none;stroke:#676b72"
     id="path5744"
     d="m 346.41484,47.17227 c 0.40916,3.160636 0.84921,6.559379 1.28016,9.88765" />
  <polygon
     style="fill:#676b72;stroke:#676b72"
     id="polygon5746"
     points="174.164,-64.8613 174.164,-64.8613 170.9655,-69.0841 176.0993,-67.7777 "
     transform="matrix(-0.65532821,-0.75534425,0.75534425,-0.65532821,512.57962,146.05266)" />
  <path
     style="fill:none;stroke:#a4abb6"
     id="path5751"
     d="M 336.69189,82.747607 C 284.02711,105.88847 92.992397,189.82905 33.091121,216.14963" />
  <polygon
     style="fill:#a4abb6;stroke:#a4abb6"
     id="polygon5753"
     points="259.6544,-408.7979 259.6544,-408.7979 262.8065,-413.0555 262.9974,-407.7615 "
     transform="matrix(-0.65532821,-0.75534425,0.75534425,-0.65532821,512.57962,146.05266)" />
  <path
     style="fill:none;stroke:#9ca3ad"
     id="path5758"
     d="M 335.95013,73.922747 C 286.32822,63.971048 121.49622,30.914017 64.718649,19.527343" />
  <polygon
     style="fill:#9ca3ad;stroke:#9ca3ad"
     id="polygon5760"
     points="388.1951,-256.9123 388.1951,-256.9123 393.221,-258.5866 390.3362,-254.1435 "
     transform="matrix(-0.65532821,-0.75534425,0.75534425,-0.65532821,512.57962,146.05266)" />
  <path
     style="fill:none;stroke:#64686f"
     id="path5765"
     d="m 356.56716,63.685667 c 4.34462,-9.01185 10.16611,-21.087124 14.92461,-30.957434" />
  <polygon
     style="fill:#64686f;stroke:#64686f"
     id="polygon5767"
     points="179.7269,-32.8539 179.7269,-32.8539 180.099,-27.5696 176.5128,-31.4685 "
     transform="matrix(-0.65532821,-0.75534425,0.75534425,-0.65532821,512.57962,146.05266)" />
  <path
     style="fill:none;stroke:#898f98"
     id="path5772"
     d="m 352.44378,91.217711 c 4.61559,30.346259 15.33278,100.808459 20.5637,135.199849" />
  <polygon
     style="fill:#898f98;stroke:#898f98"
     id="polygon5774"
     points="29.6093,-156.749 29.6093,-156.749 26.3178,-160.8998 31.4793,-159.7075 "
     transform="matrix(-0.65532821,-0.75534425,0.75534425,-0.65532821,512.57962,146.05266)" />
  <path
     style="fill:none;stroke:#767c84"
     id="path5779"
     d="M 345.64787,90.962656 C 337.56642,115.8525 320.82524,167.41346 311.78734,195.24923" />
  <polygon
     style="fill:#767c84;stroke:#767c84"
     id="polygon5781"
     points="92.842,-183.1429 92.842,-183.1429 91.7607,-188.3288 95.8399,-184.9491 "
     transform="matrix(-0.65532821,-0.75534425,0.75534425,-0.65532821,512.57962,146.05266)" />
  <polygon
     style="fill:#696d74;stroke:#696d74"
     id="polygon5788"
     points="125.6446,-44.0436 125.6446,-44.0436 120.7932,-41.9159 123.2589,-46.6045 "
     transform="matrix(-0.65532821,-0.75534425,0.75534425,-0.65532821,512.57962,146.05266)" />
  <path
     style="fill:none;stroke:#676b72"
     id="path5793"
     d="m 348.38249,62.370834 c -0.40916,-3.160636 -0.84914,-6.559444 -1.28008,-9.887715" />
  <polygon
     style="fill:#676b72;stroke:#676b72"
     id="polygon5795"
     points="180.2288,-65.0374 180.2288,-65.0374 183.4273,-60.8146 178.2935,-62.1211 "
     transform="matrix(-0.65532821,-0.75534425,0.75534425,-0.65532821,512.57962,146.05266)" />
</svg>
