<?xml version="1.0" encoding="UTF-8" standalone="no"?>
<svg id="svg2" xmlns:rdf="http://www.w3.org/1999/02/22-rdf-syntax-ns#" xmlns="http://www.w3.org/2000/svg" viewBox="0 0 936.02655 421.82836" height="119.05mm" width="264.17mm" version="1.1" xmlns:cc="http://creativecommons.org/ns#" xmlns:dc="http://purl.org/dc/elements/1.1/">
 <defs id="defs4">
  <marker id="marker4910" refY="0" refX="0" orient="auto" overflow="visible">
   <path id="path4912" d="m0 0 5-5-17.5 5 17.5 5-5-5z" fill-rule="evenodd" transform="matrix(-.4 0 0 -.4 -4 0)" stroke="#32b17f" stroke-width="1pt" fill="#32b17f"/>
  </marker>
  <marker id="Arrow1Mend" refY="0" refX="0" orient="auto" overflow="visible">
   <path id="path4175" d="m0 0 5-5-17.5 5 17.5 5-5-5z" fill-rule="evenodd" transform="matrix(-.4 0 0 -.4 -4 0)" stroke="#b132a3" stroke-width="1pt" fill="#b132a3"/>
  </marker>
 </defs>
 <metadata id="metadata7">
  <rdf:RDF>
   <cc:Work rdf:about="">
    <dc:format>image/svg+xml</dc:format>
    <dc:type rdf:resource="http://purl.org/dc/dcmitype/StillImage"/>
    <dc:title/>
   </cc:Work>
  </rdf:RDF>
 </metadata>
 <g fill-rule="evenodd" fill-opacity=".19035" stroke-dashoffset="56.55" stroke="#000" stroke-width="2.14">
  <rect id="rect7336" opacity=".372" transform="matrix(.94457 -.32830 .32830 .94457 0 0)" rx="76.763" ry="20.306" height="40.612" width="46.534" y="237.41" x="357.86"/>
  <rect id="rect7334" opacity=".372" transform="rotate(-76.144)" rx="76.763" ry="20.306" height="40.612" width="46.534" y="392.9" x="-117.04"/>
  <rect id="rect7332" opacity=".372" transform="rotate(213.59)" rx="23.267" ry="20.306" height="40.612" width="46.534" y="-37.318" x="-541.86"/>
 </g>
 <g fill="none">
  <circle id="path4142" opacity=".372" cx="-114.37" stroke-linecap="round" transform="matrix(.20172 -.97944 .97944 .20172 0 0)" stroke="#55779f" cy="513.41" r="176.41" stroke-width="4.1"/>
  <circle id="path4144" opacity=".372" cx="-114.37" stroke-linecap="round" transform="matrix(.20172 -.97944 .97944 .20172 0 0)" stroke="#55779f" cy="512.79" r="134.95" stroke-width="4.1"/>
  <g stroke-dashoffset="56.55">
   <circle id="circle4146" opacity=".372" cx="-114.37" transform="matrix(.20172 -.97944 .97944 .20172 0 0)" stroke="#bababa" cy="512.79" r="155.86" stroke-miterlimit="0" stroke-dasharray="18.75910853, 18.75910853" stroke-width="37.518"/>
   <path id="path4160" opacity=".372" marker-end="url(#Arrow1Mend)" d="m285.02 155.36a205.01 205.01 0 0 1 190.4 -144.48 205.01 205.01 0 0 1 197.87 134.08 205.01 205.01 0 0 1 -63.61 230.39 205.01 205.01 0 0 1 -238.63 13.55" stroke="#b132a3" stroke-width="2"/>
   <path id="path4902" opacity=".372" marker-end="url(#marker4910)" d="m256.31 149.57a231.33 234.05 11.638 0 1 129 -148.01" stroke="#32b17f" stroke-width="2"/>
  </g>
 </g>
 <g>
  <g id="text4188" transform="translate(83.815 -7.8235)">
   <path id="path4251" d="m292.06 197.47-4.6338-6.8338h3.2725q0.37125 0 0.55 0.11 0.17875 0.0962 0.31625 0.33l2.9562 4.7162q0.0688-0.23375 0.165-0.4675 0.11-0.23375 0.26125-0.4675l2.3788-3.7125q0.3025-0.50875 0.78375-0.50875h3.1212l-4.6475 6.6825 4.84 7.425h-3.2725q-0.37125 0-0.605-0.1925-0.22-0.1925-0.37125-0.44l-2.9975-4.9088q-0.12375 0.495-0.34375 0.825l-2.64 4.0838q-0.15125 0.23375-0.37125 0.44-0.22 0.1925-0.55 0.1925h-3.0388l4.8262-7.2738z"/>
  </g>
  <g id="text4192" transform="translate(83.815 -7.8235)">
   <path id="path4279" d="m361.56 136.24q-0.15125 0.3575-0.39875 0.53625-0.23375 0.1925-0.72875 0.1925h-2.53l2.64-5.6512-5.7062-13.062h2.9838q0.39875 0 0.61875 0.1925 0.23375 0.1925 0.34375 0.44l2.9975 7.315q0.275 0.75625 0.45375 1.4988 0.11-0.385 0.23375-0.75625 0.1375-0.385 0.28875-0.75625l2.8325-7.3012q0.11-0.275 0.3575-0.45375 0.26125-0.17875 0.5775-0.17875h2.7225l-7.6862 17.985z"/>
  </g>
  <g id="text4196" transform="translate(83.815 -7.8235)">
   <path id="path4248" d="m343.5 303.4q0 0.3575-0.12375 0.70125t-0.33 0.56375l-6.71 8.8275h6.9575v2.6125h-10.89v-1.4162q0-0.23375 0.11-0.55 0.11-0.33 0.33-0.61875l6.765-8.9238h-6.8062v-2.5988h10.698v1.4025z"/>
  </g>
  <g id="text4200" transform="translate(83.815 -7.8235)">
   <path id="path4254" d="m164.22 130.39c0.20988 4.2034 2.9894 7.9189 7.2616 9.5559 4.2488 1.628 8.9828 0.87184 12.334-2.0742l-0.94208-1.2445c-3.0697 2.4916-7.2171 3.0442-10.836 1.6577-3.3383-1.2792-5.7092-4.035-6.2501-7.3746-0.0288-0.0646-0.0487-0.1525-0.0129-0.24588 0.0268-0.07 0.10036-0.12218 0.13615-0.21556 0.0179-0.0467 0.0214-0.12567 0.0338-0.228l-1.7247 0.16909z"/>
   <path id="path4256" d="m175.6 121.36c-1.2971 0.0246-2.5033 0.82861-3.1438 2.2675-0.8845 1.987-0.54611 5.0383 3.428 6.8073 3.8599 1.7182 6.5056 0.32358 7.4003-1.6863 0.58966-1.3247 0.38496-2.8935-0.48502-4.0744l0.91358 0.40667c0.25123 0.11183 0.51263 0.20083 0.79436 0.24414l0.732-1.6444c-0.33758-0.0408-0.68017-0.19331-0.99992-0.33564l-13.577-6.0161c-0.13704-0.061-0.18272-0.0813-0.27909-0.23369-0.0482-0.0762-0.12171-0.21837-0.29175-0.2667l-0.77267 1.7358 6.2808 2.7958zm-1.7658 2.7988c0.40666-0.91357 1.4861-2.0476 3.2222-1.7674 0.54063 0.0765 1.132 0.28495 2.2968 0.80345 0.79938 0.35583 1.35 0.65568 1.8168 1.0824 1.0605 0.93727 1.3034 2.3589 0.82553 3.4324-0.52867 1.1876-2.2251 2.5396-5.651 1.0146-2.992-1.3318-3.0492-3.3549-2.5104-4.5654z"/>
   <path id="path4258" d="m176.85 114.83 1.3139 0.67029 1.2497-2.4496 7.5939 3.874-1.3178 2.5833 1.2694 0.64757 3.3628-6.5918-1.2694-0.64757-1.2156 2.3828-8.9078-4.5443-2.079 4.0753zm-2.728-5.5453c-0.32946 0.64581-0.0786 1.4193 0.54498 1.7374 0.62355 0.3181 1.397 0.0672 1.7265-0.57862 0.32947-0.64581 0.0786-1.4193-0.54498-1.7374-0.62355-0.31811-1.397-0.0672-1.7265 0.57861z"/>
   <path id="path4260" d="m188.35 96.936c-1.5213 0.33263-2.8262 1.3394-3.6778 2.8107-1.3276 2.2935-0.91516 4.5253 0.55614 5.377 1.7309 1.0019 3.4355-0.49563 3.9433-0.92383 0.79136-0.66849 1.6772-1.6 2.4492-2.1353 0.86538-0.59676 1.4723-0.44764 1.8185-0.24725 0.93038 0.53853 0.90658 2.0268 0.0925 3.4332-0.97688 1.6877-2.62 2.1809-3.1541 2.305-0.12412 0.0148-0.18903-0.0228-0.27558-0.0729-0.0216-0.0125-0.13893-0.1093-0.24482-0.0262l1.0102 1.798c1.7581-0.54217 3.1325-1.7687 3.9966-3.2616 1.5655-2.7046 0.77847-5.0378-0.71446-5.9019-0.67074-0.38825-1.7423-0.63298-3.0677 0.15967-1.2662 0.74027-2.4094 2.2161-3.4023 2.8835-0.85285 0.57513-1.429 0.47269-1.7752 0.2723-0.77892-0.45087-0.77788-1.7501-0.13915-2.8536 0.82659-1.428 2.2431-1.8791 2.9537-1.9588 0.10248-0.02734 0.15486 0.03187 0.21977 0.06944 0.12982 0.07514 0.22319 0.01365 0.24824-0.02963l-0.83709-1.6978z"/>
   <path id="path4262" d="m188.21 88.58 2.453 1.8678-1.4882 2.2827 1.222 0.82648 1.4609-2.2409c1.5516 1.1906 3.1442 2.3184 4.7567 3.3697 0.85865 0.55978 1.822 1.1878 2.9865 1.1412 0.92864-0.05114 1.7835-0.53837 2.4252-1.5227 0.73727-1.1309 0.97921-2.5549 0.92529-3.7539l-1.4941-0.3175c0.0749 1.2127-0.1444 2.1441-0.52669 2.7305-0.46421 0.71205-1.34 1.1856-2.601 0.60224-0.0838-0.05461-0.48075-0.22389-1.8839-1.1387-1.2356-0.80554-2.4512-1.6876-3.6049-2.6187l2.048-3.1414-1.2566-0.81919-2.0343 3.1204s-1.6217-1.2662-2.098-1.7259c-0.19577-0.15747-0.2122-0.40693-0.49718-0.47335l-0.79269 1.811z"/>
   <path id="path4264" d="m197.79 82.189 1.4448-0.02835c-0.22706-1.3422 0.28266-2.5488 0.91668-3.4169 0.79622-1.0902 1.6587-1.2962 2.2743-1.249 0.72589 0.06579 1.3168 0.52832 1.8014 0.8822l0.32302 0.23592-0.20643 0.28264c-1.0026 1.3728-2.0643 2.8264-2.4955 4.307-0.53672 1.837 0.0816 3.2792 1.0911 4.0165 1.3527 0.9879 3.4798 0.74587 4.8805-1.1721 0.82571-1.1306 1.2569-2.6112 1.1664-4.2252l1.0094 0.73724 1.0026-1.3728-5.7135-4.1728c-0.74698-0.54556-1.4683-1.0414-2.5048-1.1483-1.4316-0.11683-2.8117 0.67076-3.8586 2.1042-0.89943 1.2315-1.3858 2.7028-1.1315 4.2197zm7.9148-2.8257 0.62586 0.45709c0.46434 0.33913 1.07 0.78147 1.2792 1.8939 0.0925 0.59387 0.20551 2.0076-0.67918 3.2189-0.89943 1.2315-2.2029 1.3631-3.0104 0.77329-0.68642-0.50132-1.0943-1.5112-0.53647-2.8684 0.41739-0.99538 1.3774-2.1827 2.0851-3.1517l0.23592-0.32302z"/>
   <path id="path4266" d="m213.05 78.534 1.1531-1.4146-5.0963-4.1544c-0.58133-0.47388-0.96382-0.9147-1.1481-1.6778-0.17715-0.69273-0.2766-2.193 0.48161-3.1231 0.36331-0.44568 0.92039-0.7334 1.5413-0.74332 0.97623-0.01055 1.732 0.60549 2.352 1.111l5.3288 4.3439 1.1215-1.3758-5.3676-4.3755c-0.67821-0.55286-1.4146-1.1531-2.3843-1.4275-1.3516-0.35992-2.6559 0.09274-3.4773 1.1004-0.97935 1.2014-1.0888 2.9184-0.63765 4.3828l-1.5502-1.2637-1.1531 1.4146 8.8361 7.203z"/>
   <path id="path4268" d="m220.48 55.318c-1.586-0.22426-3.2034 0.36712-4.4469 1.7369-2.2518 2.4803-1.9786 5.936 0.55724 8.2382 2.5544 2.319 6.0388 2.2745 8.2233-0.13176 1.0587-1.1661 1.6193-2.7507 1.4719-4.3364l-1.5774-0.04769c0.12692 1.162-0.25907 2.331-1.0152 3.1639-1.4956 1.6474-4.008 1.6626-5.9886-0.13547-1.925-1.7476-2.0023-4.0801-0.59077-5.6349 1.3107-1.4438 2.932-1.2212 3.0935-1.1759 0.19679 0.04359 0.28106 0.32269 0.52656 0.27543l-0.25359-1.9523z"/>
   <path id="path4270" d="m224.65 48.069c-1.9365 1.9172-2.359 5.0794 0.56071 8.0286 2.6911 2.7182 5.8035 2.4864 8.0066 0.3054 1.1726-1.1608 1.7987-2.625 1.6649-4.1459l-1.3966 0.01066c0.0828 1.1141-0.38233 2.2078-1.1818 2.9993-1.0837 1.0729-3.263 2.0342-5.7614-0.31179l5.7563-5.6987c-0.49195-0.60352-1.0374-1.1189-1.5835-1.4929-2.5365-1.8159-4.7326-1.0137-6.065 0.30541zm0.96045 5.8739c-1.6331-2.1826-0.95245-3.947-0.0819-4.8088 1.3147-1.3016 3.3996-1.0789 4.5412 0.39405l-4.4593 4.4147z"/>
   <path id="path4272" d="m246.1 35.773-7.1752-2.1593 1.7784-1.4187q0.22475-0.17929 0.37703-0.18884 0.16206-0.01734 0.34936 0.0571l5.2821 1.7506q-0.0603-0.17578-0.11077-0.35935-0.0583-0.19335-0.0775-0.41787l-0.37027-4.6935q-0.029-0.21673 0.0162-0.38065 0.0451-0.16392 0.20147-0.28864l1.7003-1.3564 0.44851 7.3974 7.6004 2.4117-1.7784 1.4187q-0.22475 0.17929-0.45509 0.17116-0.22057-0.01592-0.41568-0.10014l-5.4635-1.8778q0.0759 0.19532 0.13614 0.3711 0.0525 0.16601 0.0601 0.33586l0.39123 5.0606q0.0114 0.21476-0.0143 0.44312-0.0237 0.2108-0.21915 0.3667l-1.6612 1.3252-0.60012-7.8681z"/>
   <path id="path4274" d="m267.72 32.447q0.0607 0.29085-0.007 0.50275-0.0611 0.22226-0.36143 0.42518l-1.4605 0.98661-0.89331-5.4758-10.998-6.9463 1.7091-1.1545q0.24859-0.16794 0.47757-0.1416 0.22198 0.01598 0.37873 0.13636l7.0625 4.5817q0.49796 0.35752 0.91641 0.75365-0.0884-0.28722-0.1665-0.58143-0.0851-0.30457-0.15278-0.60578l-1.6934-8.1786q-0.0568-0.21807 0.0286-0.42661 0.0784-0.2189 0.27521-0.35184l1.5641-1.0566 3.3211 17.533z"/>
   <path id="path4276" d="m265.55 11.415c3.7431-0.17191 7.2912 1.6668 9.2044 4.863 1.926 3.2176 1.8789 7.3249-0.1053 10.581l1.1908 1.0645c2.5464-3.8261 2.7102-8.7608 0.39895-12.622-2.2856-3.8182-6.618-5.945-11.077-5.4609l0.38853 1.5739z"/>
  </g>
  <g id="text4208" transform="translate(83.815 -7.8235)">
   <path id="path4223" d="m499.89 27.22c-4.2032-0.2131-8.179 2.1795-10.237 6.2657-2.0463 4.0639-1.7691 8.8499 0.8257 12.48l1.3328-0.81241c-2.1709-3.3043-2.3044-7.4862-0.5617-10.947 1.6078-3.1931 4.5876-5.2754 7.9647-5.4783 0.0671-0.02217 0.15662-0.0331 0.24593 0.01187 0.067 0.03373 0.11149 0.11212 0.20081 0.15709 0.0447 0.02249 0.12289 0.03389 0.22345 0.05653l0.005-1.7329z"/>
   <path id="path4225" d="m507.76 39.56c0.11602-1.2922-0.55256-2.5783-1.9136-3.3709-1.8795-1.0945-4.9495-1.0887-7.1386 2.6704-2.1262 3.651-1.0264 6.4323 0.87473 7.5394 1.253 0.72969 2.8348 0.69614 4.1029-0.04081l-0.50324 0.86415c-0.13839 0.23764-0.25517 0.48786-0.32875 0.76325l1.5555 0.90582c0.0771-0.33117 0.26585-0.65523 0.44198-0.95768l7.4514-12.845c0.0755-0.12962 0.10064-0.17283 0.26254-0.25213 0.081-0.03965 0.23027-0.09735 0.29673-0.26115l-1.6419-0.95615-3.4597 5.941zm-2.591-2.0586c0.86415 0.50324 1.8746 1.6992 1.4079 3.3947-0.13458 0.52916-0.40589 1.0944-1.0475 2.1962-0.44033 0.75613-0.79806 1.2711-1.2728 1.6889-1.0466 0.95273-2.4862 1.0402-3.5016 0.44886-1.1234-0.6542-2.2836-2.4871-0.39652-5.7276 1.6481-2.8301 3.6655-2.6678 4.8105-2.001z"/>
   <path id="path4227" d="m514.19 41.576-0.81839 1.2271 2.2879 1.5258-4.73 7.0924-2.4127-1.609-0.79065 1.1855 6.1565 4.1058 0.79065-1.1855-2.2255-1.4842 5.5484-8.3196-3.8062-2.5384zm5.8247-2.0653c-0.60317-0.40226-1.4006-0.24292-1.789 0.33945-0.38839 0.58237-0.22905 1.3798 0.37412 1.782 0.60317 0.40226 1.4006 0.24292 1.789-0.33945 0.38839-0.58237 0.22905-1.3798-0.37412-1.782z"/>
   <path id="path4229" d="m530.64 55.189c-0.14147-1.5508-0.97868-2.9704-2.333-3.9979-2.1112-1.6016-4.377-1.4691-5.4044-0.11474-1.2088 1.5934 0.0659 3.4704 0.42784 4.0274 0.56524 0.86812 1.3798 1.8626 1.8152 2.695 0.48488 0.93268 0.26167 1.5165 0.0199 1.8351-0.64972 0.85644-2.1236 0.64833-3.4182-0.33381-1.5535-1.1786-1.8392-2.8702-1.8962-3.4155 0.00068-0.125 0.046-0.18475 0.10645-0.26442 0.0151-0.01992 0.12569-0.12431 0.0563-0.23969l-1.9093 0.77951c0.32004 1.8118 1.3667 3.3276 2.741 4.3701 2.4896 1.8887 4.9024 1.397 5.945 0.02271 0.4684-0.61743 0.84409-1.6504 0.22186-3.0638-0.57759-1.3482-1.9004-2.6655-2.4395-3.7335-0.46496-0.91757-0.29188-1.4766-0.0501-1.7953 0.54395-0.71702 1.8331-0.55492 2.8488 0.21568 1.3145 0.99725 1.5865 2.4588 1.5776 3.1737 0.0144 0.10508-0.0508 0.14972-0.0962 0.20947-0.0907 0.1195-0.0412 0.21978-0.001 0.25l1.7884-0.62017z"/>
   <path id="path4231" d="m539.01 56.191-2.1747 2.1856-2.0668-1.776-0.98026 1.1024 2.0289 1.7434c-1.3846 1.3812-2.7124 2.8113-3.967 4.2713-0.66802 0.77741-1.4175 1.6496-1.5247 2.8101-0.0716 0.92729 0.29872 1.8389 1.1899 2.6046 1.0239 0.87984 2.4036 1.3073 3.5993 1.4118l0.51157-1.4392c-1.212-0.08556-2.1064-0.42562-2.6373-0.88183-0.64469-0.55397-0.99876-1.4845-0.25432-2.6577 0.0652-0.07585 0.28527-0.44707 1.3769-1.7175 0.9613-1.1187 1.9958-2.2075 3.0708-3.2285l2.8442 2.444 0.9776-1.1377-2.8252-2.4277s1.4688-1.4408 1.9872-1.8523c0.18189-0.17332 0.43134-0.15674 0.53472-0.43049l-1.6908-1.0244z"/>
   <path id="path4233" d="m544.13 66.595-0.17351 1.4346c1.3608-0.03757 2.4844 0.6355 3.2556 1.3845 0.96845 0.94054 1.0521 1.8233 0.91945 2.4263-0.16642 0.70962-0.70688 1.2302-1.1249 1.6606l-0.27867 0.28695-0.25108-0.24384c-1.2195-1.1844-2.5108-2.4384-3.9167-3.072-1.7441-0.78776-3.2585-0.37667-4.1294 0.52004-1.167 1.2016-1.2241 3.3417 0.47967 4.9963 1.0043 0.97537 2.4103 1.609 4.0211 1.7445l-0.87087 0.89671 1.2195 1.1844 4.9291-5.0754c0.64444-0.66356 1.2361-1.3087 1.4865-2.3201 0.31543-1.4013-0.2719-2.8778-1.5452-4.1144-1.094-1.0625-2.483-1.7493-4.0206-1.7092zm1.6938 8.2316-0.53994 0.55596c-0.4006 0.41249-0.92312 0.95051-2.0538 1.0024-0.60098 0.0088-2.0166-0.0766-3.0926-1.1216-1.094-1.0625-1.0424-2.3715-0.34571-3.0889 0.59219-0.60976 1.6491-0.87273 2.9152-0.13102 0.92741 0.55219 1.9692 1.6685 2.83 2.5045l0.28694 0.27868z"/>
   <path id="path4235" d="m545.61 82.223 1.2293 1.3489 4.8598-4.4287c0.55434-0.50517 1.0467-0.81856 1.8286-0.88845 0.71126-0.07317 2.2098 0.04947 3.0181 0.93642 0.3873 0.425 0.58981 1.0184 0.50815 1.634-0.13336 0.96713-0.85401 1.6239-1.4453 2.1627l-5.0815 4.6308 1.1956 1.312 5.1185-4.6644c0.64674-0.58937 1.3489-1.2293 1.7632-2.148 0.55509-1.2838 0.29952-2.6406-0.57611-3.6015-1.044-1.1456-2.7262-1.5069-4.2411-1.2763l1.4783-1.3471-1.2293-1.3489-8.4261 7.6786z"/>
   <path id="path4237" d="m567.45 93.114c0.46752-1.532 0.13414-3.2215-1.0262-4.6624-2.1011-2.6092-5.5573-2.8753-8.2249-0.72717-2.6871 2.1638-3.1836 5.613-1.1452 8.1443 0.98784 1.2267 2.4662 2.0263 4.0556 2.1266l0.29176-1.551c-1.1676-0.05482-2.2626-0.61744-2.9682-1.4937-1.3955-1.733-1.0208-4.2173 1.0626-5.8951 2.025-1.6307 4.3412-1.3453 5.6584 0.2903 1.223 1.5188 0.75172 3.0859 0.68193 3.2384-0.0736 0.18765-0.36237 0.22762-0.35376 0.47747l1.968 0.05226z"/>
   <path id="path4239" d="m573.98 98.456c-1.5762-2.2229-4.6275-3.1546-8.0127-0.75412-3.1202 2.2125-3.3982 5.3212-1.6051 7.85 0.95442 1.346 2.297 2.2021 3.8195 2.3178l0.2169-1.3797c-1.1127-0.0997-2.1161-0.73674-2.7668-1.6544-0.88211-1.244-1.4758-3.5506 1.2458-5.6338l4.6853 6.6074c0.67557-0.38711 1.2729-0.84133 1.7308-1.3193 2.2047-2.2069 1.7708-4.5043 0.68628-6.0338zm-5.9519-0.0089c2.4194-1.2559 4.0494-0.29703 4.758 0.70223 1.0701 1.5091 0.51097 3.5299-1.1283 4.4165l-3.6297-5.1187z"/>
   <path id="path4241" d="m582.52 121.8 3.4019-6.6762 1.0795 2.0026q0.13642 0.25307 0.11871 0.40462-0.0118 0.16255-0.11837 0.33362l-2.6628 4.8862q0.1837-0.028 0.37333-0.045 0.20064-0.023 0.425-0.002l4.6845 0.47107q0.21843 0.0101 0.3717 0.0836 0.15327 0.0736 0.24818 0.24964l1.0321 1.9145-7.3591-0.87535-3.726 7.0498-1.0795-2.0026q-0.13642-0.25307-0.0874-0.4783 0.0549-0.21421 0.17253-0.39121l2.8202-5.042q-0.20571 0.0399-0.38941 0.0679-0.17269 0.0221-0.34118-0.00069l-5.0494-0.51577q-0.21336-0.027-0.43351-0.0929-0.20321-0.0609-0.32184-0.28093l-1.0083-1.8705 7.8493 0.80993z"/>
   <path id="path4243" d="m598.14 142.63q-0.22975 0.0986-0.494 0.11672-0.25276 0.0132-0.4678-0.0441l-10.863-2.6844 2.6958 6.2836-1.7002 0.72938-3.7849-8.8224 0.919-0.39426q0.14934-0.0641 0.38568-0.0839 0.25276-0.0132 0.51212 0.0523l10.942 2.6779-2.6514-6.1803 1.7001-0.72938 3.7258 8.6845-0.919 0.39426z"/>
   <path id="path4245" d="m602.56 144.63c-0.54512 3.7072-3.0268 6.8395-6.5291 8.1081-3.5259 1.277-7.5488 0.44744-10.367-2.1214l-1.2721 0.96594c3.2702 3.2294 8.0831 4.3312 12.314 2.7988 4.184-1.5154 7.098-5.3627 7.4732-9.8327l-1.6191 0.0812z"/>
  </g>
 </g>
</svg>
