<?xml version="1.0" encoding="UTF-8" standalone="no"?>
<svg
   xmlns:dc="http://purl.org/dc/elements/1.1/"
   xmlns:cc="http://creativecommons.org/ns#"
   xmlns:rdf="http://www.w3.org/1999/02/22-rdf-syntax-ns#"
   xmlns:svg="http://www.w3.org/2000/svg"
   xmlns="http://www.w3.org/2000/svg"
   version="1.1"
   width="328.350mm"
   height="59.492mm"
   viewBox="0 0 328.35008 59.492592"
   id="svg2">
  <defs
     id="defs4">
    <marker
       overflow="visible"
       orient="auto"
       refX="0"
       refY="0"
       id="Arrow2Mend">
      <path
         stroke-width=".625"
         stroke="#000"
         transform="scale(-.6)"
         fill-rule="evenodd"
         d="m8.7186 4.0337-10.926-4.0177 10.926-4.0177c-1.7455 2.3721-1.7354 5.6175-6e-7 8.0354z"
         stroke-linejoin="round"
         id="path5884" />
    </marker>
    <marker
       overflow="visible"
       orient="auto"
       refX="0"
       refY="0"
       id="StopL">
      <path
         fill="none"
         stroke-width="1pt"
         stroke="#000"
         transform="scale(.8)"
         d="m0 5.65v-11.3"
         id="path6026" />
    </marker>
    <linearGradient
       gradientTransform="translate(-52.914,-500.34)"
       x1="67.087"
       x2="75.528"
       y1="530.9"
       gradientUnits="userSpaceOnUse"
       y2="530.9"
       id="linearGradient6619">
      <stop
         offset="0"
         stop-color="#6bbb6b"
         id="stop6615" />
      <stop
         offset="1"
         stop-opacity=".8"
         stop-color="#6bbb6b"
         id="stop6617" />
    </linearGradient>
    <linearGradient
       gradientTransform="translate(-52.914,-500.34)"
       x1="208.01"
       x2="350.16"
       y1="530.9"
       gradientUnits="userSpaceOnUse"
       y2="530.9"
       id="linearGradient6621">
      <stop
         offset="0"
         stop-opacity=".2"
         stop-color="#6bbb6b"
         id="stop6631" />
      <stop
         offset="1"
         stop-opacity="0"
         stop-color="#6bbb6b"
         id="stop6633" />
    </linearGradient>
    <linearGradient
       gradientTransform="translate(-52.914,-500.34)"
       x1="134.99"
       x2="206.23"
       y1="530.9"
       gradientUnits="userSpaceOnUse"
       y2="530.9"
       id="linearGradient6623">
      <stop
         offset="0"
         stop-opacity=".4"
         stop-color="#6bbb6b"
         id="stop6637" />
      <stop
         offset="1"
         stop-opacity=".2"
         stop-color="#6bbb6b"
         id="stop6639" />
    </linearGradient>
    <linearGradient
       gradientTransform="translate(-52.914,-500.34)"
       x1="97.336"
       x2="133.21"
       y1="530.9"
       gradientUnits="userSpaceOnUse"
       y2="530.9"
       id="linearGradient6625">
      <stop
         offset="0"
         stop-opacity=".6"
         stop-color="#6bbb6b"
         id="stop6643" />
      <stop
         offset="1"
         stop-opacity=".4"
         stop-color="#6bbb6b"
         id="stop6645" />
    </linearGradient>
    <linearGradient
       gradientTransform="translate(-52.914,-500.34)"
       x1="77.31"
       x2="95.554"
       y1="530.9"
       gradientUnits="userSpaceOnUse"
       y2="530.9"
       id="linearGradient6627">
      <stop
         offset="0"
         stop-opacity=".8"
         stop-color="#6bbb6b"
         id="stop6649" />
      <stop
         offset="1"
         stop-opacity=".6"
         stop-color="#6bbb6b"
         id="stop6651" />
    </linearGradient>
  </defs>
  <metadata
     id="metadata7">
    <rdf:RDF>
      <cc:Work
         rdf:about="">
        <dc:format>image/svg+xml</dc:format>
        <dc:type
           rdf:resource="http://purl.org/dc/dcmitype/StillImage" />
        <dc:title></dc:title>
      </cc:Work>
    </rdf:RDF>
  </metadata>
  <g
     id="g4273">
    <rect
       id="rect4138"
       rx="1.4111111"
       ry="0"
       height="26.263"
       width="17.351999"
       y="17.42001"
       x="24.841997"
       style="opacity:0.372;fill:url(#linearGradient6627);fill-rule:evenodd;stroke:#6bbb6b;stroke-width:0.89098436;stroke-linecap:round;stroke-linejoin:round;stroke-miterlimit:4;stroke-dasharray:none" />
    <rect
       id="rect4140"
       rx="1.4111111"
       ry="0"
       height="26.069"
       width="34.98"
       y="17.519985"
       x="44.866997"
       style="opacity:0.372;fill:url(#linearGradient6625);fill-rule:evenodd;stroke:#6bbb6b;stroke-width:0.89098436;stroke-linecap:round;stroke-linejoin:round;stroke-miterlimit:4;stroke-dasharray:none" />
    <rect
       id="rect4142"
       rx="1.4111111"
       ry="0"
       height="25.796"
       width="70.349998"
       y="17.66"
       x="82.515991"
       style="opacity:0.372;fill:url(#linearGradient6623);fill-rule:evenodd;stroke:#6bbb6b;stroke-width:0.89098436;stroke-linecap:round;stroke-linejoin:round;stroke-miterlimit:4;stroke-dasharray:none" />
    <rect
       id="rect4144"
       rx="1.4111111"
       ry="0"
       height="25.416"
       width="141.25999"
       y="17.850002"
       x="155.54601"
       style="opacity:0.372;fill:url(#linearGradient6621);fill-rule:evenodd;stroke:#6bbb6b;stroke-width:0.89098436;stroke-linecap:round;stroke-linejoin:round;stroke-miterlimit:4;stroke-dasharray:none" />
    <g
       id="g4165"
       transform="translate(-52.914,-500.34)">
      <g
         transform="matrix(0.89108,0,0,0.89108,7.3072,59.307)"
         id="text4146">
        <path
           d="m 386.97,503.66 4.638,-2.406 0,0.762 q 0,0.102 -0.048,0.18 -0.048,0.072 -0.168,0.132 l -2.694,1.368 q -0.12,0.066 -0.258,0.114 -0.132,0.042 -0.282,0.078 0.15,0.03 0.282,0.078 0.138,0.048 0.258,0.108 l 2.694,1.362 q 0.12,0.06 0.168,0.138 0.048,0.078 0.048,0.174 l 0,0.768 -4.638,-2.412 0,-0.444 z"
           id="path4407" />
        <path
           d="m 396.5,499.23 q 0.546,0 1.02,0.162 0.474,0.162 0.822,0.474 0.348,0.306 0.546,0.75 0.198,0.444 0.198,1.008 0,0.48 -0.144,0.894 -0.144,0.408 -0.39,0.78 -0.246,0.372 -0.57,0.726 -0.318,0.354 -0.678,0.714 l -2.268,2.316 q 0.24,-0.066 0.486,-0.102 0.246,-0.042 0.474,-0.042 l 2.88,0 q 0.174,0 0.276,0.102 0.102,0.102 0.102,0.264 l 0,0.648 -5.736,0 0,-0.366 q 0,-0.114 0.048,-0.234 0.048,-0.12 0.15,-0.222 l 2.754,-2.766 q 0.342,-0.348 0.624,-0.666 0.282,-0.324 0.48,-0.648 0.198,-0.324 0.306,-0.654 0.108,-0.336 0.108,-0.714 0,-0.378 -0.12,-0.66 -0.12,-0.288 -0.33,-0.474 -0.204,-0.186 -0.486,-0.276 -0.282,-0.096 -0.606,-0.096 -0.33,0 -0.606,0.096 -0.276,0.096 -0.492,0.27 -0.21,0.168 -0.354,0.402 -0.144,0.234 -0.204,0.516 -0.072,0.21 -0.198,0.282 -0.12,0.066 -0.342,0.036 l -0.558,-0.096 q 0.084,-0.588 0.324,-1.038 0.246,-0.456 0.612,-0.762 0.372,-0.306 0.846,-0.462 0.474,-0.162 1.026,-0.162 z"
           id="path4409" />
        <path
           d="m 400.47,503.12 0,-3.9507 0.4173,0 q 0.1482,0 0.1833,0.1443 l 0.0546,0.429 q 0.2574,-0.2847 0.5772,-0.4602 0.3198,-0.1755 0.7371,-0.1755 0.3237,0 0.5694,0.1092 0.2496,0.1053 0.4134,0.3042 0.1677,0.195 0.2535,0.4719 0.0858,0.2769 0.0858,0.6123 l 0,2.5155 -0.6981,0 0,-2.5155 q 0,-0.4485 -0.2067,-0.6942 -0.2028,-0.2496 -0.6201,-0.2496 -0.312,0 -0.5811,0.1482 -0.2652,0.1482 -0.4875,0.4017 l 0,2.9094 -0.6981,0 z"
           style="baseline-shift:super"
           id="path4411" />
      </g>
      <g
         transform="matrix(0.89108,0,0,0.89108,7.3072,59.307)"
         id="text4152">
        <path
           d="m 225.73,502.9 0,-3.9507 0.4173,0 q 0.1482,0 0.1833,0.1443 l 0.0546,0.429 q 0.2574,-0.2847 0.5772,-0.4602 0.3198,-0.1755 0.7371,-0.1755 0.3237,0 0.5694,0.1092 0.2496,0.1053 0.4134,0.3042 0.1677,0.195 0.2535,0.4719 0.0858,0.2769 0.0858,0.6123 l 0,2.5155 -0.6981,0 0,-2.5155 q 0,-0.4485 -0.2067,-0.6942 -0.2028,-0.2496 -0.6201,-0.2496 -0.312,0 -0.5811,0.1482 -0.2652,0.1482 -0.4875,0.4017 l 0,2.9094 -0.6981,0 z"
           style="baseline-shift:super"
           id="path4400" />
        <path
           d="m 230.12,500.02 3.354,0 0,0.5265 -3.354,0 0,-0.5265 z"
           style="baseline-shift:super"
           id="path4402" />
        <path
           d="m 235.04,502.37 1.1973,0 0,-3.8103 q 0,-0.1638 0.0117,-0.3471 l -0.9945,0.8541 q -0.0507,0.0429 -0.1014,0.0546 -0.0507,0.008 -0.0936,0 -0.0429,-0.008 -0.0819,-0.0312 -0.0351,-0.0234 -0.0546,-0.0507 l -0.2184,-0.3003 1.6653,-1.4391 0.5655,0 0,5.07 1.0998,0 0,0.5304 -2.9952,0 0,-0.5304 z"
           style="baseline-shift:super"
           id="path4404" />
      </g>
      <g
         transform="matrix(0.89108,0,0,0.89108,7.3072,59.307)"
         id="text4158">
        <path
           d="m 143.36,502.9 0,-3.9507 0.4173,0 q 0.1482,0 0.1833,0.1443 l 0.0546,0.429 q 0.2574,-0.2847 0.5772,-0.4602 0.3198,-0.1755 0.7371,-0.1755 0.3237,0 0.5694,0.1092 0.2496,0.1053 0.4134,0.3042 0.1677,0.195 0.2535,0.4719 0.0858,0.2769 0.0858,0.6123 l 0,2.5155 -0.6981,0 0,-2.5155 q 0,-0.4485 -0.2067,-0.6942 -0.2028,-0.2496 -0.6201,-0.2496 -0.312,0 -0.5811,0.1482 -0.2652,0.1482 -0.4875,0.4017 l 0,2.9094 -0.6981,0 z"
           style="baseline-shift:super"
           id="path4393" />
        <path
           d="m 147.75,500.02 3.354,0 0,0.5265 -3.354,0 0,-0.5265 z"
           style="baseline-shift:super"
           id="path4395" />
        <path
           d="m 154,497.25 q 0.3549,0 0.663,0.1053 0.3081,0.1053 0.5343,0.3081 0.2262,0.1989 0.3549,0.4875 0.1287,0.2886 0.1287,0.6552 0,0.312 -0.0936,0.5811 -0.0936,0.2652 -0.2535,0.507 -0.1599,0.2418 -0.3705,0.4719 -0.2067,0.2301 -0.4407,0.4641 l -1.4742,1.5054 q 0.156,-0.0429 0.3159,-0.0663 0.1599,-0.0273 0.3081,-0.0273 l 1.872,0 q 0.1131,0 0.1794,0.0663 0.0663,0.0663 0.0663,0.1716 l 0,0.4212 -3.7284,0 0,-0.2379 q 0,-0.0741 0.0312,-0.1521 0.0312,-0.078 0.0975,-0.1443 l 1.7901,-1.7979 q 0.2223,-0.2262 0.4056,-0.4329 0.1833,-0.2106 0.312,-0.4212 0.1287,-0.2106 0.1989,-0.4251 0.0702,-0.2184 0.0702,-0.4641 0,-0.2457 -0.078,-0.429 -0.078,-0.1872 -0.2145,-0.3081 -0.1326,-0.1209 -0.3159,-0.1794 -0.1833,-0.0624 -0.3939,-0.0624 -0.2145,0 -0.3939,0.0624 -0.1794,0.0624 -0.3198,0.1755 -0.1365,0.1092 -0.2301,0.2613 -0.0936,0.1521 -0.1326,0.3354 -0.0468,0.1365 -0.1287,0.1833 -0.078,0.0429 -0.2223,0.0234 l -0.3627,-0.0624 q 0.0546,-0.3822 0.2106,-0.6747 0.1599,-0.2964 0.3978,-0.4953 0.2418,-0.1989 0.5499,-0.3003 0.3,-0.11 0.66,-0.11 z"
           style="baseline-shift:super"
           id="path4397" />
      </g>
      <g
         transform="matrix(0.89108,0,0,0.89108,7.6857,59.307)"
         id="text4172">
        <path
           d="m 100.84,502.95 0,-3.9507 0.4173,0 q 0.1482,0 0.1833,0.1443 l 0.0546,0.429 q 0.2574,-0.2847 0.5772,-0.4602 0.3198,-0.1755 0.7371,-0.1755 0.3237,0 0.5694,0.1092 0.2496,0.1053 0.4134,0.3042 0.1677,0.195 0.2535,0.4719 0.0858,0.2769 0.0858,0.6123 l 0,2.5155 -0.6981,0 0,-2.5155 q 0,-0.4485 -0.2067,-0.6942 -0.2028,-0.2496 -0.6201,-0.2496 -0.312,0 -0.5811,0.1482 -0.2652,0.1482 -0.4875,0.4017 l 0,2.9094 -0.6981,0 z"
           style="baseline-shift:super"
           id="path4386" />
        <path
           d="m 105.23,500.07 3.354,0 0,0.5265 -3.354,0 0,-0.5265 z"
           style="baseline-shift:super"
           id="path4388" />
        <path
           d="m 111.5,497.3 q 0.3549,0 0.6552,0.1014 0.3003,0.1014 0.5148,0.2886 0.2184,0.1872 0.3393,0.4524 0.1209,0.2652 0.1209,0.5889 0,0.2652 -0.0702,0.4758 -0.0663,0.2067 -0.195,0.3666 -0.1248,0.156 -0.3042,0.2652 -0.1794,0.1092 -0.4017,0.1755 0.546,0.1443 0.819,0.4836 0.2769,0.3393 0.2769,0.8502 0,0.3861 -0.1482,0.6942 -0.1443,0.3081 -0.3978,0.5265 -0.2535,0.2145 -0.5928,0.3315 -0.3354,0.1131 -0.7215,0.1131 -0.4446,0 -0.7605,-0.1092 -0.3159,-0.1131 -0.5343,-0.3081 -0.2184,-0.195 -0.3588,-0.4602 -0.1404,-0.2691 -0.2379,-0.5811 l 0.3003,-0.1248 q 0.117,-0.0507 0.2262,-0.0273 0.1131,0.0234 0.1638,0.1287 0.0507,0.1092 0.1248,0.2613 0.078,0.1521 0.2106,0.2925 0.1326,0.1404 0.3354,0.2379 0.2067,0.0975 0.5226,0.0975 0.2925,0 0.5109,-0.0936 0.2223,-0.0975 0.3666,-0.2496 0.1482,-0.1521 0.2223,-0.3393 0.0741,-0.1872 0.0741,-0.3705 0,-0.2262 -0.0585,-0.4134 -0.0585,-0.1872 -0.2184,-0.3237 -0.1599,-0.1365 -0.4407,-0.2145 -0.2769,-0.078 -0.7137,-0.078 l 0,-0.5031 q 0.3588,-0.004 0.6084,-0.078 0.2535,-0.0741 0.4095,-0.2028 0.1599,-0.1287 0.2301,-0.3081 0.0741,-0.1794 0.0741,-0.3978 0,-0.2418 -0.078,-0.4212 -0.0741,-0.1794 -0.2067,-0.2964 -0.1326,-0.117 -0.3159,-0.1755 -0.1794,-0.0585 -0.39,-0.0585 -0.2106,0 -0.3939,0.0624 -0.1794,0.0624 -0.3198,0.1755 -0.1365,0.1092 -0.2301,0.2613 -0.0936,0.1521 -0.1326,0.3354 -0.0507,0.1365 -0.1287,0.1833 -0.0741,0.0429 -0.2184,0.0234 l -0.3627,-0.0624 q 0.0546,-0.3822 0.2106,-0.6747 0.156,-0.2964 0.3939,-0.4953 0.2418,-0.1989 0.5499,-0.3003 0.312,-0.1053 0.6708,-0.1053 z"
           style="baseline-shift:super"
           id="path4390" />
      </g>
    </g>
    <rect
       style="opacity:0.372;fill:url(#linearGradient6619);fill-rule:evenodd;stroke:#6bbb6b;stroke-width:0.89098436;stroke-linecap:round;stroke-linejoin:round;stroke-miterlimit:4;stroke-dasharray:none"
       x="14.618998"
       y="17.41"
       width="7.5496998"
       height="26.299"
       ry="0"
       rx="1.4111111"
       id="rect4178" />
    <g
       transform="matrix(0.89108,0,0,0.89108,-45.7329,-441.033)"
       id="text4180">
      <path
         d="m 78.873,502.99 0,-3.9507 0.4173,0 q 0.1482,0 0.1833,0.1443 l 0.0546,0.429 q 0.2574,-0.2847 0.5772,-0.4602 0.3198,-0.1755 0.7371,-0.1755 0.3237,0 0.5694,0.1092 0.2496,0.1053 0.4134,0.3042 0.1677,0.195 0.2535,0.4719 0.0858,0.2769 0.0858,0.6123 l 0,2.5155 -0.6981,0 0,-2.5155 q 0,-0.4485 -0.2067,-0.6942 -0.2028,-0.2496 -0.6201,-0.2496 -0.312,0 -0.5811,0.1482 -0.2652,0.1482 -0.4875,0.4017 l 0,2.9094 -0.6981,0 z"
         style="baseline-shift:super"
         id="path4379" />
      <path
         d="m 83.265,500.11 3.354,0 0,0.5265 -3.354,0 0,-0.5265 z"
         style="baseline-shift:super"
         id="path4381" />
      <path
         d="m 90.66,500.98 0.8463,0 0,0.3978 q 0,0.0624 -0.039,0.1053 -0.0351,0.0429 -0.1131,0.0429 l -0.6942,0 0,1.4703 -0.6084,0 0,-1.4703 -2.4804,0 q -0.078,0 -0.1365,-0.0429 -0.0546,-0.0468 -0.0702,-0.1131 l -0.0702,-0.3549 2.7183,-3.6075 0.6474,0 0,3.5724 z m -0.6084,-2.3049 q 0,-0.1014 0.0039,-0.2184 0.0078,-0.1209 0.0273,-0.2457 l -2.0358,2.769 2.0046,0 0,-2.3049 z"
         style="baseline-shift:super"
         id="path4383" />
    </g>
    <g
       style="fill:none"
       id="g4188"
       transform="translate(-52.914,-500.34)">
      <g
         style="stroke:#dcdcdc;stroke-width:0.89108002;stroke-dasharray:0.89107898, 0.89107898"
         id="g4190">
        <path
           d="m 349.39,516.39 0,-15.987"
           id="path4194" />
        <path
           d="m 205.66,516.33 0,-15.987"
           id="path4196" />
        <path
           d="m 132.59,516.33 0,-15.987"
           id="path4198" />
        <path
           d="m 95.168,516.33 0,-15.987"
           id="path4200" />
        <path
           d="m 74.997,516.33 0,-15.987"
           id="path4202" />
      </g>
      <path
         style="stroke:#000000;stroke-width:0.5;stroke-linejoin:round;marker-start:url(#StopL);marker-end:url(#Arrow2Mend)"
         d="m 67.978,554.55 281.73,0"
         id="path7135" />
    </g>
    <g
       transform="translate(-43.9283,-500.34)"
       id="g8751">
      <path
         style="fill:#ffffff;fill-rule:evenodd"
         d="m 178.33,548.22 41.169,0 c 0.55566,0 1.003,0.44733 1.003,1.003 l 0,9.6096 c 0,0.55566 -0.44733,1.003 -1.003,1.003 l -41.169,0 c -0.55566,0 -1.003,-0.44733 -1.003,-1.003 l 0,-9.6096 c 0,-0.55566 0.44733,-1.003 1.003,-1.003 z"
         id="rect8749" />
      <g
         id="text7191">
        <path
           d="m 184.84,557.65 q -0.19,0 -0.24,-0.185 l -0.08,-0.615 q -0.325,0.395 -0.745,0.635 -0.415,0.235 -0.955,0.235 -0.435,0 -0.79,-0.165 -0.355,-0.17 -0.605,-0.495 -0.25,-0.325 -0.385,-0.81 -0.135,-0.485 -0.135,-1.115 0,-0.56 0.15,-1.04 0.15,-0.485 0.43,-0.84 0.28,-0.355 0.685,-0.555 0.41,-0.205 0.92,-0.205 0.465,0 0.795,0.16 0.335,0.155 0.595,0.44 l 0,-2.81 0.89,0 0,7.365 -0.53,0 z M 183.11,557 q 0.44,0 0.765,-0.2 0.33,-0.2 0.605,-0.565 l 0,-2.445 q -0.25,-0.33 -0.54,-0.465 -0.29,-0.135 -0.65,-0.135 -0.705,0 -1.085,0.505 -0.38,0.505 -0.38,1.44 0,0.495 0.085,0.85 0.085,0.35 0.25,0.58 0.165,0.225 0.405,0.33 0.24,0.105 0.545,0.105 z"
           id="path8857" />
        <path
           d="m 187.73,552.58 0,5.065 -0.89,0 0,-5.065 0.89,0 z m 0.19,-1.59 q 0,0.13 -0.055,0.245 -0.05,0.11 -0.14,0.2 -0.085,0.085 -0.205,0.135 -0.115,0.05 -0.245,0.05 -0.13,0 -0.245,-0.05 -0.11,-0.05 -0.195,-0.135 -0.085,-0.09 -0.135,-0.2 -0.05,-0.115 -0.05,-0.245 0,-0.13 0.05,-0.245 0.05,-0.12 0.135,-0.205 0.085,-0.09 0.195,-0.14 0.115,-0.05 0.245,-0.05 0.13,0 0.245,0.05 0.12,0.05 0.205,0.14 0.09,0.085 0.14,0.205 0.055,0.115 0.055,0.245 z"
           id="path8859" />
        <path
           d="m 192.14,553.42 q -0.06,0.11 -0.185,0.11 -0.075,0 -0.17,-0.055 -0.095,-0.055 -0.235,-0.12 -0.135,-0.07 -0.325,-0.125 -0.19,-0.06 -0.45,-0.06 -0.225,0 -0.405,0.06 -0.18,0.055 -0.31,0.155 -0.125,0.1 -0.195,0.235 -0.065,0.13 -0.065,0.285 0,0.195 0.11,0.325 0.115,0.13 0.3,0.225 0.185,0.095 0.42,0.17 0.235,0.07 0.48,0.155 0.25,0.08 0.485,0.18 0.235,0.1 0.42,0.25 0.185,0.15 0.295,0.37 0.115,0.215 0.115,0.52 0,0.35 -0.125,0.65 -0.125,0.295 -0.37,0.515 -0.245,0.215 -0.6,0.34 -0.355,0.125 -0.82,0.125 -0.53,0 -0.96,-0.17 -0.43,-0.175 -0.73,-0.445 l 0.21,-0.34 q 0.04,-0.065 0.095,-0.1 0.055,-0.035 0.14,-0.035 0.09,0 0.19,0.07 0.1,0.07 0.24,0.155 0.145,0.085 0.35,0.155 0.205,0.07 0.51,0.07 0.26,0 0.455,-0.065 0.195,-0.07 0.325,-0.185 0.13,-0.115 0.19,-0.265 0.065,-0.15 0.065,-0.32 0,-0.21 -0.115,-0.345 -0.11,-0.14 -0.295,-0.235 -0.185,-0.1 -0.425,-0.17 -0.235,-0.075 -0.485,-0.155 -0.245,-0.08 -0.485,-0.18 -0.235,-0.105 -0.42,-0.26 -0.185,-0.155 -0.3,-0.38 -0.11,-0.23 -0.11,-0.555 0,-0.29 0.12,-0.555 0.12,-0.27 0.35,-0.47 0.23,-0.205 0.565,-0.325 0.335,-0.12 0.765,-0.12 0.5,0 0.895,0.16 0.4,0.155 0.69,0.43 l -0.2,0.325 z"
           id="path8861" />
        <path
           d="m 195.08,557.73 q -0.6,0 -0.925,-0.335 -0.32,-0.335 -0.32,-0.965 l 0,-3.1 -0.61,0 q -0.08,0 -0.135,-0.045 -0.055,-0.05 -0.055,-0.15 l 0,-0.355 0.83,-0.105 0.205,-1.565 q 0.015,-0.075 0.065,-0.12 0.055,-0.05 0.14,-0.05 l 0.45,0 0,1.745 1.465,0 0,0.645 -1.465,0 0,3.04 q 0,0.32 0.155,0.475 0.155,0.155 0.4,0.155 0.14,0 0.24,-0.035 0.105,-0.04 0.18,-0.085 0.075,-0.045 0.125,-0.08 0.055,-0.04 0.095,-0.04 0.07,0 0.125,0.085 l 0.26,0.425 q -0.23,0.215 -0.555,0.34 -0.325,0.12 -0.67,0.12 z"
           id="path8863" />
        <path
           d="m 200.34,557.65 q -0.13,0 -0.2,-0.04 -0.07,-0.045 -0.11,-0.17 l -0.1,-0.475 q -0.2,0.18 -0.395,0.325 -0.19,0.14 -0.4,0.24 -0.205,0.095 -0.445,0.145 -0.235,0.055 -0.525,0.055 -0.295,0 -0.555,-0.08 -0.26,-0.085 -0.455,-0.25 -0.19,-0.165 -0.305,-0.415 -0.11,-0.255 -0.11,-0.6 0,-0.3 0.165,-0.575 0.165,-0.28 0.535,-0.495 0.37,-0.215 0.965,-0.35 0.595,-0.14 1.46,-0.16 l 0,-0.395 q 0,-0.59 -0.255,-0.89 -0.255,-0.305 -0.745,-0.305 -0.33,0 -0.555,0.085 -0.22,0.08 -0.385,0.185 -0.16,0.1 -0.28,0.185 -0.115,0.08 -0.23,0.08 -0.09,0 -0.155,-0.045 -0.065,-0.05 -0.11,-0.12 l -0.16,-0.285 q 0.42,-0.405 0.905,-0.605 0.485,-0.2 1.075,-0.2 0.425,0 0.755,0.14 0.33,0.14 0.555,0.39 0.225,0.25 0.34,0.605 0.115,0.355 0.115,0.78 l 0,3.24 -0.395,0 z m -1.91,-0.545 q 0.235,0 0.43,-0.045 0.195,-0.05 0.365,-0.135 0.175,-0.09 0.33,-0.215 0.16,-0.13 0.31,-0.29 l 0,-1.05 q -0.615,0.02 -1.05,0.1 -0.43,0.075 -0.705,0.2 -0.27,0.125 -0.395,0.295 -0.12,0.17 -0.12,0.38 0,0.2 0.065,0.345 0.065,0.145 0.175,0.24 0.115,0.09 0.265,0.135 0.155,0.04 0.33,0.04 z"
           id="path8865" />
        <path
           d="m 202.08,557.65 0,-5.065 0.535,0 q 0.19,0 0.235,0.185 l 0.07,0.55 q 0.33,-0.365 0.74,-0.59 0.41,-0.225 0.945,-0.225 0.415,0 0.73,0.14 0.32,0.135 0.53,0.39 0.215,0.25 0.325,0.605 0.11,0.355 0.11,0.785 l 0,3.225 -0.895,0 0,-3.225 q 0,-0.575 -0.265,-0.89 -0.26,-0.32 -0.795,-0.32 -0.4,0 -0.745,0.19 -0.34,0.19 -0.625,0.515 l 0,3.73 -0.895,0 z"
           id="path8867" />
        <path
           d="m 211.19,553.48 q -0.04,0.055 -0.08,0.085 -0.04,0.03 -0.11,0.03 -0.075,0 -0.165,-0.06 -0.09,-0.065 -0.225,-0.14 -0.13,-0.075 -0.325,-0.135 -0.19,-0.065 -0.47,-0.065 -0.375,0 -0.66,0.135 -0.285,0.13 -0.48,0.38 -0.19,0.25 -0.29,0.605 -0.095,0.355 -0.095,0.795 0,0.46 0.105,0.82 0.105,0.355 0.295,0.6 0.195,0.24 0.465,0.37 0.275,0.125 0.615,0.125 0.325,0 0.535,-0.075 0.21,-0.08 0.345,-0.175 0.14,-0.095 0.23,-0.17 0.095,-0.08 0.185,-0.08 0.11,0 0.17,0.085 l 0.25,0.325 q -0.165,0.205 -0.375,0.35 -0.21,0.145 -0.455,0.245 -0.24,0.095 -0.505,0.14 -0.265,0.045 -0.54,0.045 -0.475,0 -0.885,-0.175 -0.405,-0.175 -0.705,-0.505 -0.3,-0.335 -0.47,-0.82 -0.17,-0.485 -0.17,-1.105 0,-0.565 0.155,-1.045 0.16,-0.48 0.46,-0.825 0.305,-0.35 0.745,-0.545 0.445,-0.195 1.02,-0.195 0.535,0 0.94,0.175 0.41,0.17 0.725,0.485 l -0.235,0.32 z"
           id="path8869" />
        <path
           d="m 214.41,552.5 q 0.455,0 0.84,0.155 0.39,0.15 0.67,0.44 0.285,0.285 0.445,0.71 0.16,0.42 0.16,0.96 0,0.21 -0.045,0.28 -0.045,0.07 -0.17,0.07 l -3.385,0 q 0.01,0.48 0.13,0.835 0.12,0.355 0.33,0.595 0.21,0.235 0.5,0.355 0.29,0.115 0.65,0.115 0.335,0 0.575,-0.075 0.245,-0.08 0.42,-0.17 0.175,-0.09 0.29,-0.165 0.12,-0.08 0.205,-0.08 0.11,0 0.17,0.085 l 0.25,0.325 q -0.165,0.2 -0.395,0.35 -0.23,0.145 -0.495,0.24 -0.26,0.095 -0.54,0.14 -0.28,0.05 -0.555,0.05 -0.525,0 -0.97,-0.175 -0.44,-0.18 -0.765,-0.52 -0.32,-0.345 -0.5,-0.85 -0.18,-0.505 -0.18,-1.16 0,-0.53 0.16,-0.99 0.165,-0.46 0.47,-0.795 0.305,-0.34 0.745,-0.53 0.44,-0.195 0.99,-0.195 z m 0.02,0.655 q -0.645,0 -1.015,0.375 -0.37,0.37 -0.46,1.03 l 2.77,0 q 0,-0.31 -0.09,-0.565 -0.085,-0.26 -0.255,-0.445 -0.165,-0.19 -0.405,-0.29 -0.24,-0.105 -0.545,-0.105 z"
           id="path8871" />
      </g>
    </g>
  </g>
</svg>
