<?xml version="1.0" encoding="UTF-8" standalone="no"?>
<!DOCTYPE svg PUBLIC "-//W3C//DTD SVG 1.1//EN"
 "http://www.w3.org/Graphics/SVG/1.1/DTD/svg11.dtd">
<!-- Generated by graphviz version 2.40.1 (20161225.0304)
 -->
<!-- Title: %3 Pages: 1 -->
<svg width="718pt" height="188pt"
 viewBox="0.00 0.00 717.94 188.00" xmlns="http://www.w3.org/2000/svg" xmlns:xlink="http://www.w3.org/1999/xlink">
<g id="graph0" class="graph" transform="scale(1 1) rotate(0) translate(4 184)">
<title>%3</title>
<polygon fill="#ffffff" stroke="transparent" points="-4,4 -4,-184 713.9429,-184 713.9429,4 -4,4"/>
<!-- message -->
<g id="node1" class="node">
<title>message</title>
<ellipse fill="none" stroke="#0000ff" cx="344.9429" cy="-162" rx="45.4919" ry="18"/>
<text text-anchor="middle" x="344.9429" y="-158.3" font-family="Lato" font-size="14.00" fill="#000000">message</text>
</g>
<!-- request -->
<g id="node2" class="node">
<title>request</title>
<ellipse fill="none" stroke="#0000ff" cx="287.9429" cy="-90" rx="42.4939" ry="18"/>
<text text-anchor="middle" x="287.9429" y="-86.3" font-family="Lato" font-size="14.00" fill="#000000">request</text>
</g>
<!-- message&#45;&gt;request -->
<g id="edge1" class="edge">
<title>message&#45;&gt;request</title>
<path fill="none" stroke="#000000" d="M331.1448,-144.5708C324.2134,-135.8153 315.6843,-125.0418 308.0407,-115.3867"/>
<polygon fill="#000000" stroke="#000000" points="310.5652,-112.9367 301.6139,-107.2687 305.0768,-117.2816 310.5652,-112.9367"/>
</g>
<!-- reply -->
<g id="node3" class="node">
<title>reply</title>
<ellipse fill="none" stroke="#0000ff" cx="521.9429" cy="-90" rx="31.3957" ry="18"/>
<text text-anchor="middle" x="521.9429" y="-86.3" font-family="Lato" font-size="14.00" fill="#000000">reply</text>
</g>
<!-- message&#45;&gt;reply -->
<g id="edge5" class="edge">
<title>message&#45;&gt;reply</title>
<path fill="none" stroke="#000000" d="M376.9963,-148.9613C408.0535,-136.3279 455.028,-117.2196 487.0219,-104.2052"/>
<polygon fill="#000000" stroke="#000000" points="488.4918,-107.3858 496.4359,-100.3757 485.8541,-100.9017 488.4918,-107.3858"/>
</g>
<!-- discover_request -->
<g id="node4" class="node">
<title>discover_request</title>
<ellipse fill="none" stroke="#000000" cx="79.9429" cy="-18" rx="79.8859" ry="18"/>
<text text-anchor="middle" x="79.9429" y="-14.3" font-family="Lato" font-size="14.00" fill="#000000">discover&#45;request</text>
</g>
<!-- request&#45;&gt;discover_request -->
<g id="edge2" class="edge">
<title>request&#45;&gt;discover_request</title>
<path fill="none" stroke="#000000" d="M254.9847,-78.5914C222.248,-67.2595 171.5221,-49.7005 133.0881,-36.3964"/>
<polygon fill="#000000" stroke="#000000" points="134.1948,-33.0758 123.6,-33.1121 131.9049,-39.6907 134.1948,-33.0758"/>
</g>
<!-- get_request -->
<g id="node5" class="node">
<title>get_request</title>
<ellipse fill="none" stroke="#000000" cx="235.9429" cy="-18" rx="58.4896" ry="18"/>
<text text-anchor="middle" x="235.9429" y="-14.3" font-family="Lato" font-size="14.00" fill="#000000">get&#45;request</text>
</g>
<!-- request&#45;&gt;get_request -->
<g id="edge3" class="edge">
<title>request&#45;&gt;get_request</title>
<path fill="none" stroke="#000000" d="M275.3552,-72.5708C269.1877,-64.0312 261.6337,-53.5719 254.795,-44.1029"/>
<polygon fill="#000000" stroke="#000000" points="257.4683,-41.8265 248.776,-35.7689 251.7935,-45.9249 257.4683,-41.8265"/>
</g>
<!-- other_request -->
<g id="node6" class="node">
<title>other_request</title>
<text text-anchor="middle" x="338.9429" y="-14.3" font-family="Lato" font-size="14.00" fill="#000000">…</text>
</g>
<!-- request&#45;&gt;other_request -->
<g id="edge4" class="edge">
<title>request&#45;&gt;other_request</title>
<path fill="none" stroke="#000000" stroke-dasharray="1,5" d="M300.2886,-72.5708C306.2923,-64.095 313.6357,-53.7279 320.3031,-44.3151"/>
<polygon fill="#000000" stroke="#000000" points="323.2542,-46.2039 326.1783,-36.0206 317.542,-42.1578 323.2542,-46.2039"/>
</g>
<!-- discover_reply -->
<g id="node7" class="node">
<title>discover_reply</title>
<ellipse fill="none" stroke="#000000" cx="453.9429" cy="-18" rx="69.5877" ry="18"/>
<text text-anchor="middle" x="453.9429" y="-14.3" font-family="Lato" font-size="14.00" fill="#000000">discover&#45;reply</text>
</g>
<!-- reply&#45;&gt;discover_reply -->
<g id="edge6" class="edge">
<title>reply&#45;&gt;discover_reply</title>
<path fill="none" stroke="#000000" d="M506.8515,-74.0209C498.3082,-64.975 487.4295,-53.4564 477.7609,-43.2191"/>
<polygon fill="#000000" stroke="#000000" points="480.0728,-40.5695 470.6619,-35.7025 474.9837,-45.3759 480.0728,-40.5695"/>
</g>
<!-- get_reply -->
<g id="node8" class="node">
<title>get_reply</title>
<ellipse fill="none" stroke="#000000" cx="589.9429" cy="-18" rx="48.1917" ry="18"/>
<text text-anchor="middle" x="589.9429" y="-14.3" font-family="Lato" font-size="14.00" fill="#000000">get&#45;reply</text>
</g>
<!-- reply&#45;&gt;get_reply -->
<g id="edge7" class="edge">
<title>reply&#45;&gt;get_reply</title>
<path fill="none" stroke="#000000" d="M537.0343,-74.0209C545.7873,-64.753 556.9918,-52.8894 566.8346,-42.4676"/>
<polygon fill="#000000" stroke="#000000" points="569.3848,-44.8648 573.7065,-35.1915 564.2957,-40.0584 569.3848,-44.8648"/>
</g>
<!-- other_reply -->
<g id="node9" class="node">
<title>other_reply</title>
<text text-anchor="middle" x="682.9429" y="-14.3" font-family="Lato" font-size="14.00" fill="#000000">…</text>
</g>
<!-- reply&#45;&gt;other_reply -->
<g id="edge8" class="edge">
<title>reply&#45;&gt;other_reply</title>
<path fill="none" stroke="#000000" stroke-dasharray="1,5" d="M547.5051,-79.4496C571.0156,-69.6394 607.0151,-54.3507 646.3698,-36.157"/>
<polygon fill="#000000" stroke="#000000" points="648.3038,-39.1176 655.8949,-31.7266 645.3516,-32.7706 648.3038,-39.1176"/>
</g>
</g>
</svg>
