<?xml version="1.0" encoding="UTF-8" standalone="no"?>
<svg
   xmlns:dc="http://purl.org/dc/elements/1.1/"
   xmlns:cc="http://creativecommons.org/ns#"
   xmlns:rdf="http://www.w3.org/1999/02/22-rdf-syntax-ns#"
   xmlns:svg="http://www.w3.org/2000/svg"
   xmlns="http://www.w3.org/2000/svg"
   version="1.1"
   id="svg8066"
   viewBox="0 0 433.84537 266.25626"
   height="266.25626pt"
   width="433.84537pt">
  <metadata
     id="metadata8554">
    <rdf:RDF>
      <cc:Work
         rdf:about="">
        <dc:format>image/svg+xml</dc:format>
        <dc:type
           rdf:resource="http://purl.org/dc/dcmitype/StillImage" />
        <dc:title></dc:title>
      </cc:Work>
    </rdf:RDF>
  </metadata>
  <defs
     id="defs8552" />
  <circle
     style="fill:#fa91f0;stroke:#fa91f0"
     r="14.5"
     id="ellipse8076"
     cy="-104.51467"
     cx="-239.88986"
     transform="matrix(-0.64168931,-0.76696469,0.76696469,-0.64168931,0,0)" />
  <circle
     style="fill:#fa91a7;stroke:#fa91a7"
     r="14.5"
     id="ellipse8081"
     cy="-131.52238"
     cx="-180.57077"
     transform="matrix(-0.64168931,-0.76696469,0.76696469,-0.64168931,0,0)" />
  <path
     style="fill:none;stroke:#6d7279"
     id="path8086"
     d="M 60.437954,244.66196 C 52.321572,240.77272 41.849051,235.75464 33.003645,231.51611" />
  <polygon
     style="fill:#6d7279;stroke:#6d7279"
     id="polygon8088"
     points="249.8946,-417.2239 248.4443,-420.4093 248.4443,-420.4093 253.72,-420.8885 "
     transform="matrix(-0.64168931,-0.76696469,0.76696469,-0.64168931,513.8983,153.76839)" />
  <circle
     style="fill:#b791fa;stroke:#b791fa"
     r="14.5"
     id="ellipse8093"
     cy="7.9042153"
     cx="-130.41226"
     transform="matrix(-0.64168931,-0.76696469,0.76696469,-0.64168931,0,0)" />
  <path
     style="fill:none;stroke:#7f858e;stroke-dasharray:1, 5"
     id="path8098"
     d="m 75.307017,236.08513 c 2.893152,-28.2781 9.162084,-89.55316 12.404837,-121.24906" />
  <polygon
     style="fill:#7f858e;stroke:#7f858e"
     id="polygon8100"
     points="302.238,-300.5097 304.7455,-302.9516 304.7455,-302.9516 306.9802,-298.1485 "
     transform="matrix(-0.64168931,-0.76696469,0.76696469,-0.64168931,513.8983,153.76839)" />
  <circle
     style="fill:#91d8fa;stroke:#91d8fa"
     r="14.5"
     id="ellipse8105"
     cy="27.981424"
     cx="-42.965057"
     transform="matrix(-0.64168931,-0.76696469,0.76696469,-0.64168931,0,0)" />
  <path
     style="fill:none;stroke:#7a8088"
     id="path8110"
     d="M 72.227799,236.28671 C 67.947421,195.45324 55.948819,80.990834 51.101387,34.748347" />
  <polygon
     style="fill:#7a8088;stroke:#7a8088"
     id="polygon8112"
     points="387.5451,-276.9441 389.4989,-279.848 389.4989,-279.848 392.6704,-275.6048 "
     transform="matrix(-0.64168931,-0.76696469,0.76696469,-0.64168931,513.8983,153.76839)" />
  <circle
     style="fill:#faf491;stroke:#faf491"
     r="14.5"
     id="ellipse8117"
     cy="281.24152"
     cx="-261.84888"
     transform="matrix(-0.64168931,-0.76696469,0.76696469,-0.64168931,0,0)" />
  <path
     style="fill:none;stroke:#b2bac6"
     id="path8122"
     d="M 86.495278,243.60466 C 128.01446,218.98082 262.41509,136.79875 358.30329,49.783362 c 4.51678,-4.098847 9.01195,-8.969217 12.93841,-13.556086" />
  <polygon
     style="fill:#b2bac6;stroke:#b2bac6"
     id="polygon8124"
     points="180.0301,-33.3362 183.475,-33.955 183.475,-33.955 182.6365,-28.7244 "
     transform="matrix(-0.64168931,-0.76696469,0.76696469,-0.64168931,513.8983,153.76839)" />
  <circle
     style="fill:#bdfa91;stroke:#bdfa91"
     r="14.5"
     id="ellipse8129"
     cy="126.79311"
     cx="-433.68457"
     transform="matrix(-0.64168931,-0.76696469,0.76696469,-0.64168931,0,0)" />
  <path
     style="fill:none;stroke:#939aa3"
     id="path8134"
     d="m 88.330191,251.06297 c 49.384219,0.0337 210.626169,0.14373 267.294069,0.18235" />
  <polygon
     style="fill:#939aa3;stroke:#939aa3"
     id="polygon8136"
     points="25.3635,-184.9492 28.0463,-182.7014 28.0463,-182.7014 23.4938,-179.9926 "
     transform="matrix(-0.64168931,-0.76696469,0.76696469,-0.64168931,513.8983,153.76839)" />
  <path
     style="fill:none;stroke:#91fac3;stroke-width:3;stroke-dasharray:5, 2"
     id="path8141"
     d="m 88.330191,251.06297 c 49.384219,0.0337 210.626169,0.14373 267.294069,0.18235" />
  <polygon
     style="fill:#91fac3;stroke:#91fac3;stroke-width:3"
     id="polygon8143"
     points="25.3635,-184.9492 28.0463,-182.7014 28.0463,-182.7014 23.4938,-179.9926 "
     transform="matrix(-0.64168931,-0.76696469,0.76696469,-0.64168931,513.8983,153.76839)" />
  <path
     style="fill:none;stroke:#6d7279"
     id="path8148"
     d="m 28.335033,229.27911 c 8.116395,3.88909 18.588903,8.90732 27.434322,13.1457" />
  <polygon
     style="fill:#6d7279;stroke:#6d7279"
     id="polygon8150"
     points="225.0406,-409.7538 226.491,-406.5684 226.491,-406.5684 221.2152,-406.0892 "
     transform="matrix(-0.64168931,-0.76696469,0.76696469,-0.64168931,513.8983,153.76839)" />
  <path
     style="fill:none;stroke:#777d85"
     id="path8155"
     d="m 22.437865,210.153 c 13.4883,-23.08633 41.988106,-71.86578 57.215895,-97.92906" />
  <polygon
     style="fill:#777d85;stroke:#777d85"
     id="polygon8157"
     points="308.9738,-305.5009 312.2672,-306.6857 312.2672,-306.6857 312.3131,-301.3885 "
     transform="matrix(-0.64168931,-0.76696469,0.76696469,-0.64168931,513.8983,153.76839)" />
  <path
     style="fill:none;stroke:#888e97;stroke-dasharray:1, 5"
     id="path8162"
     d="M 17.390534,208.2695 C 23.385357,171.65071 39.049669,75.967139 45.828005,34.562123" />
  <polygon
     style="fill:#888e97;stroke:#888e97"
     id="polygon8164"
     points="390.6589,-281.1235 393.309,-283.4098 393.309,-283.4098 395.2501,-278.4807 "
     transform="matrix(-0.64168931,-0.76696469,0.76696469,-0.64168931,513.8983,153.76839)" />
  <path
     style="fill:none;stroke:#acb3bf"
     id="path8169"
     d="M 28.857478,218.14568 C 77.607042,201.02446 244.37014,138.68417 358.30329,49.783362 c 4.98992,-3.893635 9.73485,-8.881572 13.74494,-13.640111" />
  <polygon
     style="fill:#acb3bf;stroke:#acb3bf"
     id="polygon8171"
     points="179.5285,-32.9374 182.9648,-33.6021 182.9648,-33.6021 182.1963,-28.3607 "
     transform="matrix(-0.64168931,-0.76696469,0.76696469,-0.64168931,513.8983,153.76839)" />
  <circle
     style="fill:#fad391;stroke:#fad391"
     r="14.5"
     id="ellipse8176"
     cy="263.5899"
     cx="-337.67728"
     transform="matrix(-0.64168931,-0.76696469,0.76696469,-0.64168931,0,0)" />
  <path
     style="fill:none;stroke:#b1b8c4"
     id="path8181"
     d="M 28.898743,218.3083 C 89.457617,198.35786 330.31568,119.00969 399.92,96.079365" />
  <polygon
     style="fill:#b1b8c4;stroke:#b1b8c4"
     id="polygon8183"
     points="115.6273,-50.7167 118.8796,-49.4234 118.8796,-49.4234 115.4059,-45.4239 "
     transform="matrix(-0.64168931,-0.76696469,0.76696469,-0.64168931,513.8983,153.76839)" />
  <path
     style="fill:none;stroke:#7f858e;stroke-dasharray:none;stroke-width:1;stroke-miterlimit:4"
     id="path8188"
     d="m 88.215089,109.91743 c -2.893152,28.2781 -9.162084,89.55316 -12.404914,121.24913" />
  <polygon
     style="fill:#7f858e;stroke:#7f858e"
     id="polygon8190"
     points="222.8558,-387.0414 220.3483,-384.5995 220.3483,-384.5995 218.1136,-389.4026 "
     transform="matrix(-0.64168931,-0.76696469,0.76696469,-0.64168931,513.8983,153.76839)" />
  <path
     style="fill:none;stroke:#777d85"
     id="path8195"
     d="M 82.30592,107.68454 C 68.817556,130.77079 40.317673,179.55031 25.090025,205.6136" />
  <polygon
     style="fill:#777d85;stroke:#777d85"
     id="polygon8197"
     points="275.439,-409.058 272.1457,-407.8731 272.1457,-407.8731 272.0997,-413.1704 "
     transform="matrix(-0.64168931,-0.76696469,0.76696469,-0.64168931,513.8983,153.76839)" />
  <path
     style="fill:none;stroke:#70757c"
     id="path8202"
     d="M 83.023074,81.747114 C 76.204736,68.358042 65.610026,47.553319 58.06223,32.731828" />
  <polygon
     style="fill:#70757c;stroke:#70757c"
     id="polygon8204"
     points="385.2966,-270.1559 386.0799,-273.5671 386.0799,-273.5671 390.5615,-270.7426 "
     transform="matrix(-0.64168931,-0.76696469,0.76696469,-0.64168931,513.8983,153.76839)" />
  <path
     style="fill:none;stroke:#9097a0"
     id="path8209"
     d="m 103.54533,89.737035 c 38.30558,-14.182372 149.47824,-53.399314 245.74149,-68.303389 4.58906,-0.710397 9.56175,-1.088804 14.26352,-1.271307" />
  <polygon
     style="fill:#9097a0;stroke:#9097a0"
     id="polygon8211"
     points="197.3558,-30.3879 200.0948,-28.2089 200.0948,-28.2089 195.6125,-25.3855 "
     transform="matrix(-0.64168931,-0.76696469,0.76696469,-0.64168931,513.8983,153.76839)" />
  <circle
     style="fill:#fae891;stroke:#fae891"
     r="14.5"
     id="ellipse8216"
     cy="242.79732"
     cx="-252.00157"
     transform="matrix(-0.64168931,-0.76696469,0.76696469,-0.64168931,0,0)" />
  <path
     style="fill:none;stroke:#9399a3"
     id="path8221"
     d="M 103.99495,91.777654 C 147.54657,82.082545 278.94951,52.830402 328.62302,41.772448" />
  <polygon
     style="fill:#9399a3;stroke:#9399a3"
     id="polygon8223"
     points="203.1304,-70.8413 206.2387,-69.2323 206.2387,-69.2323 202.386,-65.5964 "
     transform="matrix(-0.64168931,-0.76696469,0.76696469,-0.64168931,513.8983,153.76839)" />
  <path
     style="fill:none;stroke:#7a8088"
     id="path8228"
     d="m 50.578876,29.763618 c 4.280379,40.833467 16.27898,155.295872 21.1264,201.538502" />
  <polygon
     style="fill:#7a8088;stroke:#7a8088"
     id="polygon8230"
     points="224.9959,-390.5298 223.042,-387.6259 223.042,-387.6259 219.8705,-391.8691 "
     transform="matrix(-0.64168931,-0.76696469,0.76696469,-0.64168931,513.8983,153.76839)" />
  <path
     style="fill:none;stroke:#888e97;stroke-dasharray:none;stroke-width:1;stroke-miterlimit:4"
     id="path8235"
     d="M 46.637822,29.615806 C 40.642998,66.23459 24.978609,161.91823 18.20021,203.32317" />
  <polygon
     style="fill:#888e97;stroke:#888e97"
     id="polygon8237"
     points="281.2011,-413.3582 278.551,-411.0719 278.551,-411.0719 276.6099,-416.0009 "
     transform="matrix(-0.64168931,-0.76696469,0.76696469,-0.64168931,513.8983,153.76839)" />
  <path
     style="fill:none;stroke:#70757c"
     id="path8242"
     d="M 55.754323,28.199754 C 62.572661,41.588826 73.167435,62.393626 80.715166,77.21504" />
  <polygon
     style="fill:#70757c;stroke:#70757c"
     id="polygon8244"
     points="336.722,-284.8992 335.9387,-281.4879 335.9387,-281.4879 331.4571,-284.3125 "
     transform="matrix(-0.64168931,-0.76696469,0.76696469,-0.64168931,513.8983,153.76839)" />
  <circle
     style="fill:#91fade;stroke:#91fade"
     r="14.5"
     id="ellipse8249"
     cy="94.63192"
     cx="-363.47397"
     transform="matrix(-0.64168931,-0.76696469,0.76696469,-0.64168931,0,0)" />
  <path
     style="fill:none;stroke:#b5bdc9"
     id="path8254"
     d="M 60.731807,24.24964 C 102.35184,57.16011 243.24004,168.5657 290.33784,205.80763" />
  <polygon
     style="fill:#b5bdc9;stroke:#b5bdc9"
     id="polygon8256"
     points="103.0869,-206.5485 103.7996,-203.1218 103.7996,-203.1218 98.548,-203.8171 "
     transform="matrix(-0.64168931,-0.76696469,0.76696469,-0.64168931,513.8983,153.76839)" />
  <path
     style="fill:none;stroke:#9298a2"
     id="path8261"
     d="m 63.853595,16.419529 c 44.535855,4.492407 180.833295,19.845512 290.263485,49.140363 15.96779,4.274698 33.48881,10.977943 46.27081,16.259702" />
  <polygon
     style="fill:#9298a2;stroke:#9298a2"
     id="polygon8263"
     points="127.0113,-42.3379 128.6206,-39.2298 128.6206,-39.2298 123.3758,-38.4849 "
     transform="matrix(-0.64168931,-0.76696469,0.76696469,-0.64168931,513.8983,153.76839)" />
  <path
     style="fill:none;stroke:#9097a0"
     id="path8268"
     d="m 368.90607,20.030114 c -6.10703,0.06939 -13.23448,0.415039 -19.61925,1.403532 -92.50304,14.321931 -198.77334,51.094303 -240.9242,66.529772" />
  <polygon
     style="fill:#9097a0;stroke:#9097a0"
     id="polygon8270"
     points="312.3905,-268.3407 309.0954,-269.5208 309.0954,-269.5208 312.4289,-273.638 "
     transform="matrix(-0.64168931,-0.76696469,0.76696469,-0.64168931,513.8983,153.76839)" />
  <path
     style="fill:none;stroke:#979ea8"
     id="path8275"
     d="M 368.9146,20.12181 C 315.1259,19.260137 130.08654,16.295834 68.870614,15.315219" />
  <polygon
     style="fill:#979ea8;stroke:#979ea8"
     id="polygon8277"
     points="393.2117,-251.482 390.5636,-253.7707 390.5636,-253.7707 395.1572,-256.4093 "
     transform="matrix(-0.64168931,-0.76696469,0.76696469,-0.64168931,513.8983,153.76839)" />
  <path
     style="fill:none;stroke:#828891"
     id="path8282"
     d="m 383.20306,35.15424 c -1.41828,39.980453 -5.32966,150.23507 -6.94948,195.89495" />
  <polygon
     style="fill:#828891;stroke:#828891"
     id="polygon8284"
     points="30.0431,-156.6224 27.7034,-154.0193 27.7034,-154.0193 25.1546,-158.6633 "
     transform="matrix(-0.64168931,-0.76696469,0.76696469,-0.64168931,513.8983,153.76839)" />
  <path
     style="fill:none;stroke:#7d838b"
     id="path8289"
     d="M 381.12836,35.003665 C 378.6453,47.831182 374.45718,66.872573 368.884,82.890714 353.66442,126.63372 328.92436,175.2313 315.39763,200.54507" />
  <polygon
     style="fill:#7d838b;stroke:#7d838b"
     id="polygon8291"
     points="93.1053,-182.9571 89.8564,-181.6553 89.8564,-181.6553 89.6211,-186.9475 "
     transform="matrix(-0.64168931,-0.76696469,0.76696469,-0.64168931,513.8983,153.76839)" />
  <path
     style="fill:none;stroke:#6e737a"
     id="path8296"
     d="m 390.33382,33.428698 c 5.5431,10.966933 13.51081,26.73103 19.61552,38.808993" />
  <polygon
     style="fill:#6e737a;stroke:#6e737a"
     id="polygon8298"
     points="129.4861,-29.1459 128.6925,-25.737 128.6925,-25.737 124.2195,-28.5752 "
     transform="matrix(-0.64168931,-0.76696469,0.76696469,-0.64168931,513.8983,153.76839)" />
  <path
     style="fill:none;stroke:#60646b"
     id="path8303"
     d="m 370.39573,26.732766 c -1.51102,0.722467 -3.06859,1.467061 -4.62564,2.211346" />
  <polygon
     style="fill:#60646b;stroke:#60646b"
     id="polygon8305"
     points="192.5139,-33.196 189.1233,-34.0645 189.1233,-34.0645 192.0593,-38.4739 "
     transform="matrix(-0.64168931,-0.76696469,0.76696469,-0.64168931,513.8983,153.76839)" />
  <circle
     style="fill:#c9fa91;stroke:#c9fa91"
     r="14.5"
     id="ellipse8310"
     cy="218.24461"
     cx="-289.00159"
     transform="matrix(-0.64168931,-0.76696469,0.76696469,-0.64168931,0,0)" />
  <path
     style="fill:none;stroke:#64686f"
     id="path8315"
     d="M 377.17639,33.34862 C 372.671,42.28118 366.63415,54.250288 361.69956,64.033753" />
  <polygon
     style="fill:#64686f;stroke:#64686f"
     id="polygon8317"
     points="168.0327,-59.986 164.8185,-58.6006 164.8185,-58.6006 164.4465,-63.885 "
     transform="matrix(-0.64168931,-0.76696469,0.76696469,-0.64168931,513.8983,153.76839)" />
  <path
     style="fill:none;stroke:#9da4ae"
     id="path8322"
     d="M 360.95646,250.1116 C 304.44753,245.66482 99.804272,229.56146 34.895337,224.45376" />
  <polygon
     style="fill:#9da4ae;stroke:#9da4ae"
     id="polygon8324"
     points="254.5145,-411.6204 252.0145,-414.07 252.0145,-414.07 256.7639,-416.4165 "
     transform="matrix(-0.64168931,-0.76696469,0.76696469,-0.64168931,513.8983,153.76839)" />
  <path
     style="fill:none;stroke:#a6adb8"
     id="path8329"
     d="m 363.94319,242.29944 c -11.55464,-8.89325 -29.83933,-22.86888 -45.8709,-34.6929 C 223.06343,137.533 107.21177,55.838586 65.210727,26.340642" />
  <polygon
     style="fill:#a6adb8;stroke:#a6adb8"
     id="polygon8331"
     points="386.3402,-260.7316 385.4336,-264.1121 385.4336,-264.1121 390.7163,-263.717 "
     transform="matrix(-0.64168931,-0.76696469,0.76696469,-0.64168931,513.8983,153.76839)" />
  <path
     style="fill:none;stroke:#828891"
     id="path8336"
     d="m 376.06146,236.46388 c 1.41836,-39.98051 5.32975,-150.235125 6.94956,-195.895008" />
  <polygon
     style="fill:#828891;stroke:#828891"
     id="polygon8338"
     points="169.8194,-26.2835 172.159,-28.8866 172.159,-28.8866 174.7079,-24.2426 "
     transform="matrix(-0.64168931,-0.76696469,0.76696469,-0.64168931,513.8983,153.76839)" />
  <path
     style="fill:none;stroke:#70757c"
     id="path8343"
     d="m 362.42286,245.01206 c -10.86487,-5.17551 -26.422,-12.58622 -38.47856,-18.32943" />
  <polygon
     style="fill:#70757c;stroke:#70757c"
     id="polygon8345"
     points="66.7813,-190.9235 65.3237,-194.1056 65.3237,-194.1056 70.5983,-194.5969 "
     transform="matrix(-0.64168931,-0.76696469,0.76696469,-0.64168931,513.8983,153.76839)" />
  <path
     style="fill:none;stroke:#91fac3;stroke-width:3;stroke-dasharray:5, 2"
     id="path8350"
     d="m 362.42286,245.01206 c -10.86487,-5.17551 -26.422,-12.58622 -38.47856,-18.32943" />
  <polygon
     style="fill:#91fac3;stroke:#91fac3;stroke-width:3"
     id="polygon8352"
     points="66.7813,-190.9235 65.3237,-194.1056 65.3237,-194.1056 70.5983,-194.5969 "
     transform="matrix(-0.64168931,-0.76696469,0.76696469,-0.64168931,513.8983,153.76839)" />
  <path
     style="fill:none;stroke:#7c818a"
     id="path8357"
     d="m 379.3802,236.93444 c 7.82141,-29.14908 25.58879,-95.36547 34.36609,-128.07728" />
  <polygon
     style="fill:#7c818a;stroke:#7c818a"
     id="polygon8359"
     points="97.3521,-46.885 100.217,-48.8957 100.217,-48.8957 101.6569,-43.7977 "
     transform="matrix(-0.64168931,-0.76696469,0.76696469,-0.64168931,513.8983,153.76839)" />
  <path
     style="fill:none;stroke:#8b919a"
     id="path8364"
     d="m 290.9951,218.29404 c -48.23134,0.80283 -200.762943,3.34166 -255.880193,4.25911" />
  <polygon
     style="fill:#8b919a;stroke:#8b919a"
     id="polygon8366"
     points="256.0408,-410.5018 253.3194,-412.7028 253.3194,-412.7028 257.8243,-415.49 "
     transform="matrix(-0.64168931,-0.76696469,0.76696469,-0.64168931,513.8983,153.76839)" />
  <path
     style="fill:none;stroke:#b5bdc9"
     id="path8371"
     d="M 294.11588,208.79508 C 252.49584,175.88461 111.60764,64.479029 64.509842,27.237098" />
  <polygon
     style="fill:#b5bdc9;stroke:#b5bdc9"
     id="polygon8373"
     points="385.87,-261.7788 385.1573,-265.2055 385.1573,-265.2055 390.4089,-264.5102 "
     transform="matrix(-0.64168931,-0.76696469,0.76696469,-0.64168931,513.8983,153.76839)" />
  <path
     style="fill:none;stroke:#70757c"
     id="path8378"
     d="m 318.93045,224.29417 c 10.86479,5.17558 26.42199,12.58636 38.47854,18.32957" />
  <polygon
     style="fill:#70757c;stroke:#70757c"
     id="polygon8380"
     points="31.4562,-178.592 32.9138,-175.41 32.9138,-175.41 27.6392,-174.9187 "
     transform="matrix(-0.64168931,-0.76696469,0.76696469,-0.64168931,513.8983,153.76839)" />
  <path
     style="fill:none;stroke:#91fac3;stroke-width:3;stroke-dasharray:5, 2"
     id="path8385"
     d="m 318.93045,224.29417 c 10.86479,5.17558 26.42199,12.58636 38.47854,18.32957" />
  <polygon
     style="fill:#91fac3;stroke:#91fac3;stroke-width:3"
     id="polygon8387"
     points="31.4562,-178.592 32.9138,-175.41 32.9138,-175.41 27.6392,-174.9187 "
     transform="matrix(-0.64168931,-0.76696469,0.76696469,-0.64168931,513.8983,153.76839)" />
  <path
     style="fill:none;stroke:#7b8189"
     id="path8392"
     d="m 308.9144,203.53623 c 5.40546,-25.148 17.02139,-78.43235 27.87179,-123.209358 1.88271,-7.76922 4.07377,-16.298009 6.01198,-23.687042" />
  <polygon
     style="fill:#7b8189;stroke:#7b8189"
     id="polygon8394"
     points="182.9042,-67.8263 185.7602,-69.8495 185.7602,-69.8495 187.2224,-64.7578 "
     transform="matrix(-0.64168931,-0.76696469,0.76696469,-0.64168931,513.8983,153.76839)" />
  <path
     style="fill:none;stroke:#7b8189"
     id="path8483"
     d="m 344.09274,51.729808 c -2.20506,8.322242 -4.98938,19.034947 -7.30655,28.597064 -10.17225,41.978488 -21.01733,91.434058 -26.78715,118.173398" />
  <path
     style="fill:none;stroke:#91fac3;stroke-width:3;stroke-dasharray:5, 2"
     id="path8399"
     d="m 308.9144,203.53623 c 5.40546,-25.148 17.02139,-78.43235 27.87179,-123.209358 1.88271,-7.76922 4.07377,-16.298009 6.01198,-23.687042" />
  <polygon
     style="fill:#91fac3;stroke:#91fac3;stroke-width:3"
     id="polygon8401"
     points="182.9042,-67.8263 185.7602,-69.8495 185.7602,-69.8495 187.2224,-64.7578 "
     transform="matrix(-0.64168931,-0.76696469,0.76696469,-0.64168931,513.8983,153.76839)" />
  <path
     style="fill:none;stroke:#767c84"
     id="path8406"
     d="m 310.67134,203.95997 c 8.52613,-24.7412 26.18844,-75.99378 35.72371,-103.66322" />
  <polygon
     style="fill:#767c84;stroke:#767c84"
     id="polygon8408"
     points="147.0805,-93.1151 150.0785,-94.9213 150.0785,-94.9213 151.1598,-89.7353 "
     transform="matrix(-0.64168931,-0.76696469,0.76696469,-0.64168931,513.8983,153.76839)" />
  <path
     style="fill:none;stroke:#b1b8c4"
     id="path8413"
     d="M 404.94654,94.423389 C 344.38781,114.37384 103.52968,193.72193 33.925422,216.65233" />
  <polygon
     style="fill:#b1b8c4;stroke:#b1b8c4"
     id="polygon8415"
     points="261.5206,-408.1565 258.2683,-409.4497 258.2683,-409.4497 261.7419,-413.4493 "
     transform="matrix(-0.64168931,-0.76696469,0.76696469,-0.64168931,513.8983,153.76839)" />
  <path
     style="fill:none;stroke:#9298a2"
     id="path8420"
     d="M 405.21281,83.838857 C 392.28489,78.360258 372.2045,70.401967 354.11708,65.559892 248.5341,37.294932 117.93964,22.008659 68.885835,16.933719" />
  <polygon
     style="fill:#9298a2;stroke:#9298a2"
     id="polygon8422"
     points="391.77,-252.2907 389.3278,-254.7978 389.3278,-254.7978 394.1306,-257.0331 "
     transform="matrix(-0.64168931,-0.76696469,0.76696469,-0.64168931,513.8983,153.76839)" />
  <path
     style="fill:none;stroke:#7c818a"
     id="path8427"
     d="m 415.00445,104.16823 c -7.82141,29.14908 -25.58871,95.36541 -34.36608,128.07714" />
  <polygon
     style="fill:#7c818a;stroke:#7c818a"
     id="polygon8429"
     points="26.6821,-153.6725 23.8172,-151.6619 23.8172,-151.6619 22.3773,-156.7599 "
     transform="matrix(-0.64168931,-0.76696469,0.76696469,-0.64168931,513.8983,153.76839)" />
  <path
     style="fill:none;stroke:#838992"
     id="path8434"
     d="m 409.21103,100.7743 c -20.27037,22.99125 -67.33705,76.37569 -90.30953,102.43178" />
  <polygon
     style="fill:#838992;stroke:#838992"
     id="polygon8436"
     points="88.9026,-181.791 85.4427,-181.2627 85.4427,-181.2627 86.4179,-186.4696 "
     transform="matrix(-0.64168931,-0.76696469,0.76696469,-0.64168931,513.8983,153.76839)" />
  <path
     style="fill:none;stroke:#70757d"
     id="path8441"
     d="M 407.13631,81.19624 C 395.32978,72.478793 377.02299,58.961711 363.89094,49.26556" />
  <polygon
     style="fill:#70757d;stroke:#70757d"
     id="polygon8443"
     points="177.0816,-46.3545 176.2561,-49.7558 176.2561,-49.7558 181.5278,-49.2345 "
     transform="matrix(-0.64168931,-0.76696469,0.76696469,-0.64168931,513.8983,153.76839)" />
  <path
     style="fill:none;stroke:#696d74"
     id="path8448"
     d="M 404.19765,88.016125 C 394.96745,86.86473 382.9291,85.362936 372.82731,84.102792" />
  <polygon
     style="fill:#696d74;stroke:#696d74"
     id="polygon8450"
     points="145.4582,-62.5016 143.0725,-65.0625 143.0725,-65.0625 147.9239,-67.1903 "
     transform="matrix(-0.64168931,-0.76696469,0.76696469,-0.64168931,513.8983,153.76839)" />
  <path
     style="fill:none;stroke:#a8b0bb"
     id="path8455"
     d="M 334.87254,44.744228 C 283.07081,73.593555 91.907728,180.05531 32.638092,213.06347" />
  <polygon
     style="fill:#a8b0bb;stroke:#a8b0bb"
     id="polygon8457"
     points="265.128,-407.181 261.6901,-407.8371 261.6901,-407.8371 264.3463,-412.4204 "
     transform="matrix(-0.64168931,-0.76696469,0.76696469,-0.64168931,513.8983,153.76839)" />
  <path
     style="fill:none;stroke:#9aa1ac"
     id="path8462"
     d="M 333.10154,36.361217 C 283.80487,32.653807 125.30506,20.733616 69.059391,16.503622" />
  <polygon
     style="fill:#9aa1ac;stroke:#9aa1ac"
     id="polygon8464"
     points="392.0713,-251.968 389.5629,-254.4089 389.5629,-254.4089 394.3042,-256.7719 "
     transform="matrix(-0.64168931,-0.76696469,0.76696469,-0.64168931,513.8983,153.76839)" />
  <path
     style="fill:none;stroke:#60646b"
     id="path8469"
     d="m 361.25588,31.102258 c 1.51101,-0.722327 3.06866,-1.466984 4.62564,-2.211346" />
  <polygon
     style="fill:#60646b;stroke:#60646b"
     id="polygon8471"
     points="189.0316,-33.7059 192.4221,-32.8373 192.4221,-32.8373 189.4861,-28.428 "
     transform="matrix(-0.64168931,-0.76696469,0.76696469,-0.64168931,513.8983,153.76839)" />
  <path
     style="fill:none;stroke:#7e848c"
     id="path8476"
     d="m 355.83894,50.007816 c 5.01725,8.809642 10.94398,21.084888 13.04506,32.882898 9.45465,53.089216 8.74275,117.020466 7.60325,148.653746" />
  <polygon
     style="fill:#7e848c;stroke:#7e848c"
     id="polygon8478"
     points="29.5783,-156.7033 27.2299,-154.1081 27.2299,-154.1081 24.6966,-158.7605 "
     transform="matrix(-0.64168931,-0.76696469,0.76696469,-0.64168931,513.8983,153.76839)" />
  <polygon
     style="fill:#7b8189;stroke:#7b8189"
     id="polygon8485"
     points="97.8195,-186.2826 95.0588,-184.1313 95.0588,-184.1313 93.3658,-189.1509 "
     transform="matrix(-0.64168931,-0.76696469,0.76696469,-0.64168931,513.8983,153.76839)" />
  <path
     style="fill:none;stroke:#70757d"
     id="path8490"
     d="m 359.63534,46.123396 c 11.80653,8.717448 30.11327,22.234453 43.24538,31.930681" />
  <polygon
     style="fill:#70757d;stroke:#70757d"
     id="polygon8492"
     points="128.6355,-38.1989 129.461,-34.7977 129.461,-34.7977 124.1893,-35.319 "
     transform="matrix(-0.64168931,-0.76696469,0.76696469,-0.64168931,513.8983,153.76839)" />
  <path
     style="fill:none;stroke:#676b72"
     id="path8497"
     d="m 349.53186,51.926654 c 0.35246,3.16746 0.73155,6.573541 1.10279,9.909" />
  <polygon
     style="fill:#676b72;stroke:#676b72"
     id="polygon8499"
     points="176.0993,-67.7777 174.164,-64.8613 174.164,-64.8613 170.9655,-69.0841 "
     transform="matrix(-0.64168931,-0.76696469,0.76696469,-0.64168931,513.8983,153.76839)" />
  <path
     style="fill:none;stroke:#a4abb6"
     id="path8504"
     d="M 339.17306,87.322072 C 286.10211,109.51561 93.594077,190.0199 33.230824,215.26298" />
  <polygon
     style="fill:#a4abb6;stroke:#a4abb6"
     id="polygon8506"
     points="262.9974,-407.7615 259.6544,-408.7979 259.6544,-408.7979 262.8065,-413.0555 "
     transform="matrix(-0.64168931,-0.76696469,0.76696469,-0.64168931,513.8983,153.76839)" />
  <path
     style="fill:none;stroke:#9ca3ad"
     id="path8511"
     d="M 338.58954,78.485338 C 289.15389,67.646148 124.94064,31.641083 68.376209,19.238938" />
  <polygon
     style="fill:#9ca3ad;stroke:#9ca3ad"
     id="polygon8513"
     points="390.3362,-254.1435 388.1951,-256.9123 388.1951,-256.9123 393.221,-258.5866 "
     transform="matrix(-0.64168931,-0.76696469,0.76696469,-0.64168931,513.8983,153.76839)" />
  <path
     style="fill:none;stroke:#64686f"
     id="path8518"
     d="m 359.38668,68.619302 c 4.50538,-8.93256 10.5423,-20.90159 15.47689,-30.685056" />
  <polygon
     style="fill:#64686f;stroke:#64686f"
     id="polygon8520"
     points="176.5128,-31.4685 179.7269,-32.8539 179.7269,-32.8539 180.099,-27.5696 "
     transform="matrix(-0.64168931,-0.76696469,0.76696469,-0.64168931,513.8983,153.76839)" />
  <path
     style="fill:none;stroke:#898f98"
     id="path8525"
     d="m 354.77065,96.073046 c 4.07113,30.424084 13.52411,101.067004 18.13799,135.546594" />
  <polygon
     style="fill:#898f98;stroke:#898f98"
     id="polygon8527"
     points="31.4793,-159.7075 29.6093,-156.749 29.6093,-156.749 26.3178,-160.8998 "
     transform="matrix(-0.64168931,-0.76696469,0.76696469,-0.64168931,513.8983,153.76839)" />
  <path
     style="fill:none;stroke:#767c84"
     id="path8532"
     d="M 347.98041,95.696268 C 339.4543,120.43732 321.79197,171.69004 312.25678,199.35942" />
  <polygon
     style="fill:#767c84;stroke:#767c84"
     id="polygon8534"
     points="95.8399,-184.9491 92.842,-183.1429 92.842,-183.1429 91.7607,-188.3288 "
     transform="matrix(-0.64168931,-0.76696469,0.76696469,-0.64168931,513.8983,153.76839)" />
  <path
     style="fill:none;stroke:#696d74"
     id="path8539"
     d="m 367.48553,83.436346 c 9.23013,1.151459 21.26847,2.653253 31.37027,3.913396" />
  <polygon
     style="fill:#696d74;stroke:#696d74"
     id="polygon8541"
     points="123.2589,-46.6045 125.6446,-44.0436 125.6446,-44.0436 120.7932,-41.9159 "
     transform="matrix(-0.64168931,-0.76696469,0.76696469,-0.64168931,513.8983,153.76839)" />
  <path
     style="fill:none;stroke:#676b72"
     id="path8546"
     d="m 351.22687,67.158033 c -0.35246,-3.167459 -0.73147,-6.573605 -1.10271,-9.909064" />
  <polygon
     style="fill:#676b72;stroke:#676b72"
     id="polygon8548"
     points="178.2935,-62.1211 180.2288,-65.0374 180.2288,-65.0374 183.4273,-60.8146 "
     transform="matrix(-0.64168931,-0.76696469,0.76696469,-0.64168931,513.8983,153.76839)" />
</svg>
