<?xml version="1.0" encoding="UTF-8" standalone="no"?>
<!-- Created with Inkscape (http://www.inkscape.org/) -->

<svg
   xmlns:dc="http://purl.org/dc/elements/1.1/"
   xmlns:cc="http://creativecommons.org/ns#"
   xmlns:rdf="http://www.w3.org/1999/02/22-rdf-syntax-ns#"
   xmlns:svg="http://www.w3.org/2000/svg"
   xmlns="http://www.w3.org/2000/svg"
   xmlns:sodipodi="http://sodipodi.sourceforge.net/DTD/sodipodi-0.dtd"
   xmlns:inkscape="http://www.inkscape.org/namespaces/inkscape"
   width="1000mm"
   height="129.9239mm"
   viewBox="0 0 354.33073 46.036029"
   id="svg2"
   version="1.1"
   inkscape:version="0.91 r13725"
   sodipodi:docname="erlangen-intro-send.svg">
  <defs
     id="defs4">
    <marker
       inkscape:stockid="Arrow2Lend"
       orient="auto"
       refY="0"
       refX="0"
       id="Arrow2Lend"
       style="overflow:visible"
       inkscape:isstock="true">
      <path
         id="path4183"
         style="fill:#000000;fill-opacity:1;fill-rule:evenodd;stroke:#000000;stroke-width:0.625;stroke-linejoin:round;stroke-opacity:1"
         d="M 8.7185878,4.0337352 -2.2072895,0.01601326 8.7185884,-4.0017078 c -1.7454984,2.3720609 -1.7354408,5.6174519 -6e-7,8.035443 z"
         transform="matrix(-1.1,0,0,-1.1,-1.1,0)"
         inkscape:connector-curvature="0" />
    </marker>
  </defs>
  <sodipodi:namedview
     id="base"
     pagecolor="#ffffff"
     bordercolor="#666666"
     borderopacity="1.0"
     inkscape:pageopacity="0.0"
     inkscape:pageshadow="2"
     inkscape:zoom="0.41861649"
     inkscape:cx="1892.0441"
     inkscape:cy="-394.32033"
     inkscape:document-units="px"
     inkscape:current-layer="layer1"
     showgrid="false"
     showguides="true"
     inkscape:guide-bbox="true"
     inkscape:window-width="1114"
     inkscape:window-height="646"
     inkscape:window-x="8"
     inkscape:window-y="197"
     inkscape:window-maximized="0"
     fit-margin-top="0"
     fit-margin-left="0"
     fit-margin-right="0"
     fit-margin-bottom="0"
     units="px">
    <sodipodi:guide
       position="147.84109,46.048648"
       orientation="0,1"
       id="guide3356" />
  </sodipodi:namedview>
  <metadata
     id="metadata7">
    <rdf:RDF>
      <cc:Work
         rdf:about="">
        <dc:format>image/svg+xml</dc:format>
        <dc:type
           rdf:resource="http://purl.org/dc/dcmitype/StillImage" />
        <dc:title />
      </cc:Work>
    </rdf:RDF>
  </metadata>
  <g
     inkscape:label="Layer 1"
     inkscape:groupmode="layer"
     id="layer1"
     transform="translate(-139.45026,229.41642)">
    <g
       id="g5364">
      <path
         style="opacity:0.372;fill:#4cced9;fill-opacity:1;fill-rule:evenodd;stroke:none;stroke-opacity:1"
         d="m 267.81269,-206.49306 a 22.736917,22.736917 0 0 1 -22.73691,22.73692 22.736917,22.736917 0 0 1 -22.73692,-22.73692 22.736917,22.736917 0 0 1 22.73692,-22.73691 22.736917,22.736917 0 0 1 22.73691,22.73691 z"
         id="path3338" />
      <g
         style="font-style:normal;font-variant:normal;font-weight:normal;font-stretch:normal;font-size:10px;line-height:125%;font-family:Lato;-inkscape-font-specification:'Lato, Normal';text-align:start;letter-spacing:0px;word-spacing:0px;writing-mode:lr-tb;text-anchor:start;fill:#000000;fill-opacity:1;stroke:none;stroke-width:1px;stroke-linecap:butt;stroke-linejoin:miter;stroke-opacity:1"
         id="text3344">
        <path
           d="m 235.12156,-203.70145 -0.75,0 q -0.13,0 -0.21,-0.065 -0.08,-0.065 -0.12,-0.165 l -0.67,-1.73 -3.215,0 -0.67,1.73 q -0.03,0.09 -0.115,0.16 -0.085,0.07 -0.21,0.07 l -0.75,0 2.865,-7.165 0.98,0 2.865,7.165 z m -4.695,-2.66 2.675,0 -1.125,-2.915 q -0.055,-0.13 -0.11,-0.3 -0.05,-0.17 -0.105,-0.365 -0.05,0.195 -0.105,0.37 -0.05,0.17 -0.105,0.3 l -1.125,2.91 z"
           style=""
           id="path9712" />
        <path
           d="m 237.62891,-208.85145 q 0.33,0 0.615,0.075 0.285,0.07 0.52,0.21 l 1.375,0 0,0.33 q 0,0.165 -0.21,0.21 l -0.575,0.08 q 0.17,0.325 0.17,0.725 0,0.37 -0.145,0.675 -0.14,0.3 -0.39,0.515 -0.25,0.215 -0.6,0.33 -0.35,0.115 -0.76,0.115 -0.36,0 -0.675,-0.085 -0.16,0.1 -0.245,0.215 -0.08,0.115 -0.08,0.225 0,0.18 0.145,0.275 0.15,0.09 0.39,0.13 0.24,0.04 0.545,0.05 0.31,0.01 0.63,0.035 0.325,0.02 0.63,0.075 0.31,0.055 0.55,0.18 0.24,0.125 0.385,0.345 0.15,0.22 0.15,0.57 0,0.325 -0.165,0.63 -0.16,0.305 -0.465,0.54 -0.305,0.24 -0.75,0.38 -0.44,0.145 -0.995,0.145 -0.555,0 -0.97,-0.11 -0.415,-0.11 -0.69,-0.295 -0.275,-0.185 -0.415,-0.43 -0.135,-0.24 -0.135,-0.505 0,-0.375 0.235,-0.635 0.235,-0.26 0.64,-0.415 -0.225,-0.1 -0.355,-0.265 -0.13,-0.17 -0.13,-0.455 0,-0.11 0.04,-0.225 0.04,-0.12 0.12,-0.235 0.085,-0.115 0.205,-0.22 0.12,-0.105 0.28,-0.185 -0.375,-0.21 -0.585,-0.56 -0.21,-0.35 -0.21,-0.81 0,-0.37 0.14,-0.67 0.145,-0.305 0.4,-0.515 0.255,-0.215 0.605,-0.33 0.355,-0.115 0.775,-0.115 z m 1.605,5.425 q 0,-0.185 -0.105,-0.3 -0.105,-0.115 -0.285,-0.18 -0.175,-0.065 -0.41,-0.09 -0.235,-0.03 -0.5,-0.045 -0.26,-0.015 -0.53,-0.03 -0.27,-0.015 -0.52,-0.05 -0.28,0.13 -0.46,0.325 -0.175,0.195 -0.175,0.465 0,0.17 0.085,0.315 0.09,0.15 0.27,0.255 0.18,0.11 0.45,0.17 0.275,0.065 0.645,0.065 0.36,0 0.645,-0.065 0.285,-0.065 0.48,-0.185 0.2,-0.12 0.305,-0.285 0.105,-0.165 0.105,-0.365 z m -1.605,-2.75 q 0.27,0 0.475,-0.075 0.205,-0.075 0.345,-0.21 0.14,-0.135 0.21,-0.32 0.07,-0.19 0.07,-0.415 0,-0.465 -0.285,-0.74 -0.28,-0.275 -0.815,-0.275 -0.54,0 -0.825,0.275 -0.28,0.275 -0.28,0.74 0,0.225 0.07,0.415 0.075,0.185 0.215,0.32 0.14,0.135 0.345,0.21 0.205,0.075 0.475,0.075 z"
           style=""
           id="path9714" />
        <path
           d="m 243.05609,-208.84645 q 0.455,0 0.84,0.155 0.39,0.15 0.67,0.44 0.285,0.285 0.445,0.71 0.16,0.42 0.16,0.96 0,0.21 -0.045,0.28 -0.045,0.07 -0.17,0.07 l -3.385,0 q 0.01,0.48 0.13,0.835 0.12,0.355 0.33,0.595 0.21,0.235 0.5,0.355 0.29,0.115 0.65,0.115 0.335,0 0.575,-0.075 0.245,-0.08 0.42,-0.17 0.175,-0.09 0.29,-0.165 0.12,-0.08 0.205,-0.08 0.11,0 0.17,0.085 l 0.25,0.325 q -0.165,0.2 -0.395,0.35 -0.23,0.145 -0.495,0.24 -0.26,0.095 -0.54,0.14 -0.28,0.05 -0.555,0.05 -0.525,0 -0.97,-0.175 -0.44,-0.18 -0.765,-0.52 -0.32,-0.345 -0.5,-0.85 -0.18,-0.505 -0.18,-1.16 0,-0.53 0.16,-0.99 0.165,-0.46 0.47,-0.795 0.305,-0.34 0.745,-0.53 0.44,-0.195 0.99,-0.195 z m 0.02,0.655 q -0.645,0 -1.015,0.375 -0.37,0.37 -0.46,1.03 l 2.77,0 q 0,-0.31 -0.09,-0.565 -0.085,-0.26 -0.255,-0.445 -0.165,-0.19 -0.405,-0.29 -0.24,-0.105 -0.545,-0.105 z"
           style=""
           id="path9716" />
        <path
           d="m 246.25453,-203.70145 0,-5.065 0.535,0 q 0.19,0 0.235,0.185 l 0.07,0.55 q 0.33,-0.365 0.74,-0.59 0.41,-0.225 0.945,-0.225 0.415,0 0.73,0.14 0.32,0.135 0.53,0.39 0.215,0.25 0.325,0.605 0.11,0.355 0.11,0.785 l 0,3.225 -0.895,0 0,-3.225 q 0,-0.575 -0.265,-0.89 -0.26,-0.32 -0.795,-0.32 -0.4,0 -0.745,0.19 -0.34,0.19 -0.625,0.515 l 0,3.73 -0.895,0 z"
           style=""
           id="path9718" />
        <path
           d="m 253.31734,-203.62145 q -0.6,0 -0.925,-0.335 -0.32,-0.335 -0.32,-0.965 l 0,-3.1 -0.61,0 q -0.08,0 -0.135,-0.045 -0.055,-0.05 -0.055,-0.15 l 0,-0.355 0.83,-0.105 0.205,-1.565 q 0.015,-0.075 0.065,-0.12 0.055,-0.05 0.14,-0.05 l 0.45,0 0,1.745 1.465,0 0,0.645 -1.465,0 0,3.04 q 0,0.32 0.155,0.475 0.155,0.155 0.4,0.155 0.14,0 0.24,-0.035 0.105,-0.04 0.18,-0.085 0.075,-0.045 0.125,-0.08 0.055,-0.04 0.095,-0.04 0.07,0 0.125,0.085 l 0.26,0.425 q -0.23,0.215 -0.555,0.34 -0.325,0.12 -0.67,0.12 z"
           style=""
           id="path9720" />
        <path
           d="m 258.45969,-204.38145 1.535,0 0,-4.885 q 0,-0.21 0.015,-0.445 l -1.275,1.095 q -0.065,0.055 -0.13,0.07 -0.065,0.01 -0.12,0 -0.055,-0.01 -0.105,-0.04 -0.045,-0.03 -0.07,-0.065 l -0.28,-0.385 2.135,-1.845 0.725,0 0,6.5 1.41,0 0,0.68 -3.84,0 0,-0.68 z"
           style=""
           id="path9722" />
      </g>
    </g>
    <g
       id="g5369">
      <path
         style="opacity:0.372;fill:#4cced9;fill-opacity:1;fill-rule:evenodd;stroke:none;stroke-opacity:1"
         d="m 410.89237,-206.67949 a 22.736917,22.736917 0 0 1 -22.73691,22.73692 22.736917,22.736917 0 0 1 -22.73692,-22.73692 22.736917,22.736917 0 0 1 22.73692,-22.73692 22.736917,22.736917 0 0 1 22.73691,22.73692 z"
         id="circle3350" />
      <g
         style="font-style:normal;font-variant:normal;font-weight:normal;font-stretch:normal;font-size:10px;line-height:125%;font-family:Lato;-inkscape-font-specification:'Lato, Normal';text-align:start;letter-spacing:0px;word-spacing:0px;writing-mode:lr-tb;text-anchor:start;fill:#000000;fill-opacity:1;stroke:none;stroke-width:1px;stroke-linecap:butt;stroke-linejoin:miter;stroke-opacity:1"
         id="text3352">
        <path
           d="m 377.57115,-203.88788 -0.75,0 q -0.13,0 -0.21,-0.065 -0.08,-0.065 -0.12,-0.165 l -0.67,-1.73 -3.215,0 -0.67,1.73 q -0.03,0.09 -0.115,0.16 -0.085,0.07 -0.21,0.07 l -0.75,0 2.865,-7.165 0.98,0 2.865,7.165 z m -4.695,-2.66 2.675,0 -1.125,-2.915 q -0.055,-0.13 -0.11,-0.3 -0.05,-0.17 -0.105,-0.365 -0.05,0.195 -0.105,0.37 -0.05,0.17 -0.105,0.3 l -1.125,2.91 z"
           style=""
           id="path9726" />
        <path
           d="m 380.07849,-209.03788 q 0.33,0 0.615,0.075 0.285,0.07 0.52,0.21 l 1.375,0 0,0.33 q 0,0.165 -0.21,0.21 l -0.575,0.08 q 0.17,0.325 0.17,0.725 0,0.37 -0.145,0.675 -0.14,0.3 -0.39,0.515 -0.25,0.215 -0.6,0.33 -0.35,0.115 -0.76,0.115 -0.36,0 -0.675,-0.085 -0.16,0.1 -0.245,0.215 -0.08,0.115 -0.08,0.225 0,0.18 0.145,0.275 0.15,0.09 0.39,0.13 0.24,0.04 0.545,0.05 0.31,0.01 0.63,0.035 0.325,0.02 0.63,0.075 0.31,0.055 0.55,0.18 0.24,0.125 0.385,0.345 0.15,0.22 0.15,0.57 0,0.325 -0.165,0.63 -0.16,0.305 -0.465,0.54 -0.305,0.24 -0.75,0.38 -0.44,0.145 -0.995,0.145 -0.555,0 -0.97,-0.11 -0.415,-0.11 -0.69,-0.295 -0.275,-0.185 -0.415,-0.43 -0.135,-0.24 -0.135,-0.505 0,-0.375 0.235,-0.635 0.235,-0.26 0.64,-0.415 -0.225,-0.1 -0.355,-0.265 -0.13,-0.17 -0.13,-0.455 0,-0.11 0.04,-0.225 0.04,-0.12 0.12,-0.235 0.085,-0.115 0.205,-0.22 0.12,-0.105 0.28,-0.185 -0.375,-0.21 -0.585,-0.56 -0.21,-0.35 -0.21,-0.81 0,-0.37 0.14,-0.67 0.145,-0.305 0.4,-0.515 0.255,-0.215 0.605,-0.33 0.355,-0.115 0.775,-0.115 z m 1.605,5.425 q 0,-0.185 -0.105,-0.3 -0.105,-0.115 -0.285,-0.18 -0.175,-0.065 -0.41,-0.09 -0.235,-0.03 -0.5,-0.045 -0.26,-0.015 -0.53,-0.03 -0.27,-0.015 -0.52,-0.05 -0.28,0.13 -0.46,0.325 -0.175,0.195 -0.175,0.465 0,0.17 0.085,0.315 0.09,0.15 0.27,0.255 0.18,0.11 0.45,0.17 0.275,0.065 0.645,0.065 0.36,0 0.645,-0.065 0.285,-0.065 0.48,-0.185 0.2,-0.12 0.305,-0.285 0.105,-0.165 0.105,-0.365 z m -1.605,-2.75 q 0.27,0 0.475,-0.075 0.205,-0.075 0.345,-0.21 0.14,-0.135 0.21,-0.32 0.07,-0.19 0.07,-0.415 0,-0.465 -0.285,-0.74 -0.28,-0.275 -0.815,-0.275 -0.54,0 -0.825,0.275 -0.28,0.275 -0.28,0.74 0,0.225 0.07,0.415 0.075,0.185 0.215,0.32 0.14,0.135 0.345,0.21 0.205,0.075 0.475,0.075 z"
           style=""
           id="path9728" />
        <path
           d="m 385.50568,-209.03288 q 0.455,0 0.84,0.155 0.39,0.15 0.67,0.44 0.285,0.285 0.445,0.71 0.16,0.42 0.16,0.96 0,0.21 -0.045,0.28 -0.045,0.07 -0.17,0.07 l -3.385,0 q 0.01,0.48 0.13,0.835 0.12,0.355 0.33,0.595 0.21,0.235 0.5,0.355 0.29,0.115 0.65,0.115 0.335,0 0.575,-0.075 0.245,-0.08 0.42,-0.17 0.175,-0.09 0.29,-0.165 0.12,-0.08 0.205,-0.08 0.11,0 0.17,0.085 l 0.25,0.325 q -0.165,0.2 -0.395,0.35 -0.23,0.145 -0.495,0.24 -0.26,0.095 -0.54,0.14 -0.28,0.05 -0.555,0.05 -0.525,0 -0.97,-0.175 -0.44,-0.18 -0.765,-0.52 -0.32,-0.345 -0.5,-0.85 -0.18,-0.505 -0.18,-1.16 0,-0.53 0.16,-0.99 0.165,-0.46 0.47,-0.795 0.305,-0.34 0.745,-0.53 0.44,-0.195 0.99,-0.195 z m 0.02,0.655 q -0.645,0 -1.015,0.375 -0.37,0.37 -0.46,1.03 l 2.77,0 q 0,-0.31 -0.09,-0.565 -0.085,-0.26 -0.255,-0.445 -0.165,-0.19 -0.405,-0.29 -0.24,-0.105 -0.545,-0.105 z"
           style=""
           id="path9730" />
        <path
           d="m 388.70411,-203.88788 0,-5.065 0.535,0 q 0.19,0 0.235,0.185 l 0.07,0.55 q 0.33,-0.365 0.74,-0.59 0.41,-0.225 0.945,-0.225 0.415,0 0.73,0.14 0.32,0.135 0.53,0.39 0.215,0.25 0.325,0.605 0.11,0.355 0.11,0.785 l 0,3.225 -0.895,0 0,-3.225 q 0,-0.575 -0.265,-0.89 -0.26,-0.32 -0.795,-0.32 -0.4,0 -0.745,0.19 -0.34,0.19 -0.625,0.515 l 0,3.73 -0.895,0 z"
           style=""
           id="path9732" />
        <path
           d="m 395.76693,-203.80788 q -0.6,0 -0.925,-0.335 -0.32,-0.335 -0.32,-0.965 l 0,-3.1 -0.61,0 q -0.08,0 -0.135,-0.045 -0.055,-0.05 -0.055,-0.15 l 0,-0.355 0.83,-0.105 0.205,-1.565 q 0.015,-0.075 0.065,-0.12 0.055,-0.05 0.14,-0.05 l 0.45,0 0,1.745 1.465,0 0,0.645 -1.465,0 0,3.04 q 0,0.32 0.155,0.475 0.155,0.155 0.4,0.155 0.14,0 0.24,-0.035 0.105,-0.04 0.18,-0.085 0.075,-0.045 0.125,-0.08 0.055,-0.04 0.095,-0.04 0.07,0 0.125,0.085 l 0.26,0.425 q -0.23,0.215 -0.555,0.34 -0.325,0.12 -0.67,0.12 z"
           style=""
           id="path9734" />
        <path
           d="m 402.61427,-211.13288 q 0.455,0 0.85,0.135 0.395,0.135 0.685,0.395 0.29,0.255 0.455,0.625 0.165,0.37 0.165,0.84 0,0.4 -0.12,0.745 -0.12,0.34 -0.325,0.65 -0.205,0.31 -0.475,0.605 -0.265,0.295 -0.565,0.595 l -1.89,1.93 q 0.2,-0.055 0.405,-0.085 0.205,-0.035 0.395,-0.035 l 2.4,0 q 0.145,0 0.23,0.085 0.085,0.085 0.085,0.22 l 0,0.54 -4.78,0 0,-0.305 q 0,-0.095 0.04,-0.195 0.04,-0.1 0.125,-0.185 l 2.295,-2.305 q 0.285,-0.29 0.52,-0.555 0.235,-0.27 0.4,-0.54 0.165,-0.27 0.255,-0.545 0.09,-0.28 0.09,-0.595 0,-0.315 -0.1,-0.55 -0.1,-0.24 -0.275,-0.395 -0.17,-0.155 -0.405,-0.23 -0.235,-0.08 -0.505,-0.08 -0.275,0 -0.505,0.08 -0.23,0.08 -0.41,0.225 -0.175,0.14 -0.295,0.335 -0.12,0.195 -0.17,0.43 -0.06,0.175 -0.165,0.235 -0.1,0.055 -0.285,0.03 l -0.465,-0.08 q 0.07,-0.49 0.27,-0.865 0.205,-0.38 0.51,-0.635 0.31,-0.255 0.705,-0.385 0.395,-0.135 0.855,-0.135 z"
           style=""
           id="path9736" />
      </g>
    </g>
    <g
       id="g5374">
      <path
         style="opacity:0.372;fill:#666666;fill-opacity:1;fill-rule:evenodd;stroke:none;stroke-linecap:round;stroke-opacity:1"
         d="m 314.80132,-201.46426 c 14.97143,0 27.02423,1.20531 27.02423,2.7025 l 0,12.67887 c 0,1.49719 -12.0528,2.70251 -27.02423,2.70251 -14.97142,0 -27.02422,-1.20532 -27.02422,-2.70251 l 0,-12.67887 c 0,-1.49719 12.0528,-2.7025 27.02422,-2.7025 z"
         id="rect4480" />
      <g
         style="font-style:normal;font-variant:normal;font-weight:normal;font-stretch:normal;font-size:10px;line-height:125%;font-family:Lato;-inkscape-font-specification:'Lato, Normal';text-align:start;letter-spacing:0px;word-spacing:0px;writing-mode:lr-tb;text-anchor:start;fill:#000000;fill-opacity:1;stroke:none;stroke-width:1px;stroke-linecap:butt;stroke-linejoin:miter;stroke-opacity:1"
         id="text4482">
        <path
           d="m 299.30151,-192.12264 q 0.06,0.12 0.115,0.255 0.055,0.13 0.11,0.26 0.05,-0.135 0.105,-0.265 0.055,-0.135 0.12,-0.255 l 2.43,-4.405 q 0.06,-0.115 0.13,-0.14 0.075,-0.025 0.205,-0.025 l 0.715,0 0,7.165 -0.85,0 0,-5.265 q 0,-0.105 0.005,-0.225 0.005,-0.12 0.015,-0.245 l -2.455,4.48 q -0.115,0.225 -0.35,0.225 l -0.14,0 q -0.235,0 -0.35,-0.225 l -2.51,-4.495 q 0.015,0.13 0.02,0.255 0.01,0.125 0.01,0.23 l 0,5.265 -0.85,0 0,-7.165 0.715,0 q 0.13,0 0.2,0.025 0.07,0.025 0.135,0.14 l 2.475,4.41 0,0 z"
           style=""
           id="path9740" />
        <path
           d="m 306.7626,-194.67764 q 0.455,0 0.84,0.155 0.39,0.15 0.67,0.44 0.285,0.285 0.445,0.71 0.16,0.42 0.16,0.96 0,0.21 -0.045,0.28 -0.045,0.07 -0.17,0.07 l -3.385,0 q 0.01,0.48 0.13,0.835 0.12,0.355 0.33,0.595 0.21,0.235 0.5,0.355 0.29,0.115 0.65,0.115 0.335,0 0.575,-0.075 0.245,-0.08 0.42,-0.17 0.175,-0.09 0.29,-0.165 0.12,-0.08 0.205,-0.08 0.11,0 0.17,0.085 l 0.25,0.325 q -0.165,0.2 -0.395,0.35 -0.23,0.145 -0.495,0.24 -0.26,0.095 -0.54,0.14 -0.28,0.05 -0.555,0.05 -0.525,0 -0.97,-0.175 -0.44,-0.18 -0.765,-0.52 -0.32,-0.345 -0.5,-0.85 -0.18,-0.505 -0.18,-1.16 0,-0.53 0.16,-0.99 0.165,-0.46 0.47,-0.795 0.305,-0.34 0.745,-0.53 0.44,-0.195 0.99,-0.195 z m 0.02,0.655 q -0.645,0 -1.015,0.375 -0.37,0.37 -0.46,1.03 l 2.77,0 q 0,-0.31 -0.09,-0.565 -0.085,-0.26 -0.255,-0.445 -0.165,-0.19 -0.405,-0.29 -0.24,-0.105 -0.545,-0.105 z"
           style=""
           id="path9742" />
        <path
           d="m 312.91104,-193.76264 q -0.06,0.11 -0.185,0.11 -0.075,0 -0.17,-0.055 -0.095,-0.055 -0.235,-0.12 -0.135,-0.07 -0.325,-0.125 -0.19,-0.06 -0.45,-0.06 -0.225,0 -0.405,0.06 -0.18,0.055 -0.31,0.155 -0.125,0.1 -0.195,0.235 -0.065,0.13 -0.065,0.285 0,0.195 0.11,0.325 0.115,0.13 0.3,0.225 0.185,0.095 0.42,0.17 0.235,0.07 0.48,0.155 0.25,0.08 0.485,0.18 0.235,0.1 0.42,0.25 0.185,0.15 0.295,0.37 0.115,0.215 0.115,0.52 0,0.35 -0.125,0.65 -0.125,0.295 -0.37,0.515 -0.245,0.215 -0.6,0.34 -0.355,0.125 -0.82,0.125 -0.53,0 -0.96,-0.17 -0.43,-0.175 -0.73,-0.445 l 0.21,-0.34 q 0.04,-0.065 0.095,-0.1 0.055,-0.035 0.14,-0.035 0.09,0 0.19,0.07 0.1,0.07 0.24,0.155 0.145,0.085 0.35,0.155 0.205,0.07 0.51,0.07 0.26,0 0.455,-0.065 0.195,-0.07 0.325,-0.185 0.13,-0.115 0.19,-0.265 0.065,-0.15 0.065,-0.32 0,-0.21 -0.115,-0.345 -0.11,-0.14 -0.295,-0.235 -0.185,-0.1 -0.425,-0.17 -0.235,-0.075 -0.485,-0.155 -0.245,-0.08 -0.485,-0.18 -0.235,-0.105 -0.42,-0.26 -0.185,-0.155 -0.3,-0.38 -0.11,-0.23 -0.11,-0.555 0,-0.29 0.12,-0.555 0.12,-0.27 0.35,-0.47 0.23,-0.205 0.565,-0.325 0.335,-0.12 0.765,-0.12 0.5,0 0.895,0.16 0.4,0.155 0.69,0.43 l -0.2,0.325 z"
           style=""
           id="path9744" />
        <path
           d="m 317.24698,-193.76264 q -0.06,0.11 -0.185,0.11 -0.075,0 -0.17,-0.055 -0.095,-0.055 -0.235,-0.12 -0.135,-0.07 -0.325,-0.125 -0.19,-0.06 -0.45,-0.06 -0.225,0 -0.405,0.06 -0.18,0.055 -0.31,0.155 -0.125,0.1 -0.195,0.235 -0.065,0.13 -0.065,0.285 0,0.195 0.11,0.325 0.115,0.13 0.3,0.225 0.185,0.095 0.42,0.17 0.235,0.07 0.48,0.155 0.25,0.08 0.485,0.18 0.235,0.1 0.42,0.25 0.185,0.15 0.295,0.37 0.115,0.215 0.115,0.52 0,0.35 -0.125,0.65 -0.125,0.295 -0.37,0.515 -0.245,0.215 -0.6,0.34 -0.355,0.125 -0.82,0.125 -0.53,0 -0.96,-0.17 -0.43,-0.175 -0.73,-0.445 l 0.21,-0.34 q 0.04,-0.065 0.095,-0.1 0.055,-0.035 0.14,-0.035 0.09,0 0.19,0.07 0.1,0.07 0.24,0.155 0.145,0.085 0.35,0.155 0.205,0.07 0.51,0.07 0.26,0 0.455,-0.065 0.195,-0.07 0.325,-0.185 0.13,-0.115 0.19,-0.265 0.065,-0.15 0.065,-0.32 0,-0.21 -0.115,-0.345 -0.11,-0.14 -0.295,-0.235 -0.185,-0.1 -0.425,-0.17 -0.235,-0.075 -0.485,-0.155 -0.245,-0.08 -0.485,-0.18 -0.235,-0.105 -0.42,-0.26 -0.185,-0.155 -0.3,-0.38 -0.11,-0.23 -0.11,-0.555 0,-0.29 0.12,-0.555 0.12,-0.27 0.35,-0.47 0.23,-0.205 0.565,-0.325 0.335,-0.12 0.765,-0.12 0.5,0 0.895,0.16 0.4,0.155 0.69,0.43 l -0.2,0.325 z"
           style=""
           id="path9746" />
        <path
           d="m 321.85292,-189.53264 q -0.13,0 -0.2,-0.04 -0.07,-0.045 -0.11,-0.17 l -0.1,-0.475 q -0.2,0.18 -0.395,0.325 -0.19,0.14 -0.4,0.24 -0.205,0.095 -0.445,0.145 -0.235,0.055 -0.525,0.055 -0.295,0 -0.555,-0.08 -0.26,-0.085 -0.455,-0.25 -0.19,-0.165 -0.305,-0.415 -0.11,-0.255 -0.11,-0.6 0,-0.3 0.165,-0.575 0.165,-0.28 0.535,-0.495 0.37,-0.215 0.965,-0.35 0.595,-0.14 1.46,-0.16 l 0,-0.395 q 0,-0.59 -0.255,-0.89 -0.255,-0.305 -0.745,-0.305 -0.33,0 -0.555,0.085 -0.22,0.08 -0.385,0.185 -0.16,0.1 -0.28,0.185 -0.115,0.08 -0.23,0.08 -0.09,0 -0.155,-0.045 -0.065,-0.05 -0.11,-0.12 l -0.16,-0.285 q 0.42,-0.405 0.905,-0.605 0.485,-0.2 1.075,-0.2 0.425,0 0.755,0.14 0.33,0.14 0.555,0.39 0.225,0.25 0.34,0.605 0.115,0.355 0.115,0.78 l 0,3.24 -0.395,0 z m -1.91,-0.545 q 0.235,0 0.43,-0.045 0.195,-0.05 0.365,-0.135 0.175,-0.09 0.33,-0.215 0.16,-0.13 0.31,-0.29 l 0,-1.05 q -0.615,0.02 -1.05,0.1 -0.43,0.075 -0.705,0.2 -0.27,0.125 -0.395,0.295 -0.12,0.17 -0.12,0.38 0,0.2 0.065,0.345 0.065,0.145 0.175,0.24 0.115,0.09 0.265,0.135 0.155,0.04 0.33,0.04 z"
           style=""
           id="path9748" />
        <path
           d="m 325.35885,-194.68264 q 0.33,0 0.615,0.075 0.285,0.07 0.52,0.21 l 1.375,0 0,0.33 q 0,0.165 -0.21,0.21 l -0.575,0.08 q 0.17,0.325 0.17,0.725 0,0.37 -0.145,0.675 -0.14,0.3 -0.39,0.515 -0.25,0.215 -0.6,0.33 -0.35,0.115 -0.76,0.115 -0.36,0 -0.675,-0.085 -0.16,0.1 -0.245,0.215 -0.08,0.115 -0.08,0.225 0,0.18 0.145,0.275 0.15,0.09 0.39,0.13 0.24,0.04 0.545,0.05 0.31,0.01 0.63,0.035 0.325,0.02 0.63,0.075 0.31,0.055 0.55,0.18 0.24,0.125 0.385,0.345 0.15,0.22 0.15,0.57 0,0.325 -0.165,0.63 -0.16,0.305 -0.465,0.54 -0.305,0.24 -0.75,0.38 -0.44,0.145 -0.995,0.145 -0.555,0 -0.97,-0.11 -0.415,-0.11 -0.69,-0.295 -0.275,-0.185 -0.415,-0.43 -0.135,-0.24 -0.135,-0.505 0,-0.375 0.235,-0.635 0.235,-0.26 0.64,-0.415 -0.225,-0.1 -0.355,-0.265 -0.13,-0.17 -0.13,-0.455 0,-0.11 0.04,-0.225 0.04,-0.12 0.12,-0.235 0.085,-0.115 0.205,-0.22 0.12,-0.105 0.28,-0.185 -0.375,-0.21 -0.585,-0.56 -0.21,-0.35 -0.21,-0.81 0,-0.37 0.14,-0.67 0.145,-0.305 0.4,-0.515 0.255,-0.215 0.605,-0.33 0.355,-0.115 0.775,-0.115 z m 1.605,5.425 q 0,-0.185 -0.105,-0.3 -0.105,-0.115 -0.285,-0.18 -0.175,-0.065 -0.41,-0.09 -0.235,-0.03 -0.5,-0.045 -0.26,-0.015 -0.53,-0.03 -0.27,-0.015 -0.52,-0.05 -0.28,0.13 -0.46,0.325 -0.175,0.195 -0.175,0.465 0,0.17 0.085,0.315 0.09,0.15 0.27,0.255 0.18,0.11 0.45,0.17 0.275,0.065 0.645,0.065 0.36,0 0.645,-0.065 0.285,-0.065 0.48,-0.185 0.2,-0.12 0.305,-0.285 0.105,-0.165 0.105,-0.365 z m -1.605,-2.75 q 0.27,0 0.475,-0.075 0.205,-0.075 0.345,-0.21 0.14,-0.135 0.21,-0.32 0.07,-0.19 0.07,-0.415 0,-0.465 -0.285,-0.74 -0.28,-0.275 -0.815,-0.275 -0.54,0 -0.825,0.275 -0.28,0.275 -0.28,0.74 0,0.225 0.07,0.415 0.075,0.185 0.215,0.32 0.14,0.135 0.345,0.21 0.205,0.075 0.475,0.075 z"
           style=""
           id="path9750" />
        <path
           d="m 330.78604,-194.67764 q 0.455,0 0.84,0.155 0.39,0.15 0.67,0.44 0.285,0.285 0.445,0.71 0.16,0.42 0.16,0.96 0,0.21 -0.045,0.28 -0.045,0.07 -0.17,0.07 l -3.385,0 q 0.01,0.48 0.13,0.835 0.12,0.355 0.33,0.595 0.21,0.235 0.5,0.355 0.29,0.115 0.65,0.115 0.335,0 0.575,-0.075 0.245,-0.08 0.42,-0.17 0.175,-0.09 0.29,-0.165 0.12,-0.08 0.205,-0.08 0.11,0 0.17,0.085 l 0.25,0.325 q -0.165,0.2 -0.395,0.35 -0.23,0.145 -0.495,0.24 -0.26,0.095 -0.54,0.14 -0.28,0.05 -0.555,0.05 -0.525,0 -0.97,-0.175 -0.44,-0.18 -0.765,-0.52 -0.32,-0.345 -0.5,-0.85 -0.18,-0.505 -0.18,-1.16 0,-0.53 0.16,-0.99 0.165,-0.46 0.47,-0.795 0.305,-0.34 0.745,-0.53 0.44,-0.195 0.99,-0.195 z m 0.02,0.655 q -0.645,0 -1.015,0.375 -0.37,0.37 -0.46,1.03 l 2.77,0 q 0,-0.31 -0.09,-0.565 -0.085,-0.26 -0.255,-0.445 -0.165,-0.19 -0.405,-0.29 -0.24,-0.105 -0.545,-0.105 z"
           style=""
           id="path9752" />
      </g>
    </g>
    <g
       id="g5385">
      <g
         style="font-style:normal;font-variant:normal;font-weight:500;font-stretch:normal;font-size:10px;line-height:125%;font-family:Inconsolata;-inkscape-font-specification:'Inconsolata, Medium';text-align:start;letter-spacing:0px;word-spacing:0px;writing-mode:lr-tb;text-anchor:start;fill:#000000;fill-opacity:1;stroke:none;stroke-width:1px;stroke-linecap:butt;stroke-linejoin:miter;stroke-opacity:1"
         id="text4476">
        <path
           d="m 308.87597,-214.00013 c -0.42,-0.46 -1.03,-0.71 -1.71,-0.71 -1.06,0 -1.75,0.59 -1.75,1.27 0,0.8 0.86,1.09 1.11,1.18 0.39,0.14 0.89,0.26 1.23,0.42 0.38,0.18 0.45,0.42 0.45,0.58 0,0.43 -0.52,0.72 -1.17,0.72 -0.78,0 -1.28,-0.47 -1.43,-0.63 -0.03,-0.04 -0.03,-0.07 -0.03,-0.11 0,-0.01 0.01,-0.07 -0.04,-0.09 l -0.42,0.71 c 0.54,0.5 1.24,0.73 1.93,0.73 1.25,0 1.9,-0.74 1.9,-1.43 0,-0.31 -0.13,-0.73 -0.67,-1.03 -0.51,-0.29 -1.25,-0.39 -1.68,-0.6 -0.37,-0.18 -0.45,-0.4 -0.45,-0.56 0,-0.36 0.45,-0.62 0.96,-0.62 0.66,0 1.1,0.4 1.27,0.63 0.03,0.03 0.02,0.06 0.02,0.09 0,0.06 0.04,0.08 0.06,0.08 l 0.42,-0.63 z"
           style=""
           id="path9755" />
        <path
           d="m 312.13597,-214.71013 c -1.09,0 -2.1,0.78 -2.1,2.44 0,1.53 0.95,2.34 2.19,2.34 0.66,0 1.25,-0.24 1.64,-0.71 l -0.4,-0.39 c -0.29,0.34 -0.73,0.52 -1.18,0.52 -0.61,0 -1.5,-0.34 -1.55,-1.71 l 3.24,0 c 0.03,-0.31 0.02,-0.61 -0.03,-0.87 -0.21,-1.23 -1.06,-1.62 -1.81,-1.62 z m -1.38,1.94 c 0.15,-1.08 0.84,-1.39 1.33,-1.39 0.74,0 1.27,0.65 1.18,1.39 l -2.51,0 z"
           style=""
           id="path9757" />
        <path
           d="m 315.23597,-210.04013 0.73,0 0,-2.63 c 0,-0.3 0.04,-0.53 0.23,-0.78 0.17,-0.23 0.61,-0.64 1.09,-0.64 0.23,0 0.46,0.1 0.62,0.29 0.25,0.3 0.25,0.69 0.25,1.01 l 0,2.75 0.71,0 0,-2.77 c 0,-0.35 0,-0.73 -0.16,-1.1 -0.23,-0.51 -0.7,-0.8 -1.22,-0.8 -0.62,0 -1.18,0.4 -1.52,0.91 l 0,-0.8 -0.73,0 0,4.56 z"
           style=""
           id="path9759" />
        <path
           d="m 323.26597,-213.94013 c -0.22,-0.47 -0.71,-0.78 -1.34,-0.78 -0.87,0 -1.93,0.62 -1.93,2.36 0,1.69 0.94,2.43 1.82,2.43 0.58,0 1.12,-0.33 1.41,-0.84 l 0,0.4 c 0,0.11 0.01,0.22 0.04,0.33 l 0.72,0 c -0.04,-0.13 -0.04,-0.28 -0.04,-0.42 l -0.01,-5.94 c 0,-0.06 0,-0.08 0.04,-0.14 0.02,-0.03 0.06,-0.08 0.05,-0.15 l -0.76,0 0,2.75 z m -1.31,-0.19 c 0.4,0 0.99,0.21 1.17,0.89 0.06,0.21 0.08,0.46 0.08,0.97 0,0.35 -0.02,0.6 -0.1,0.84 -0.17,0.54 -0.65,0.86 -1.12,0.86 -0.52,0 -1.29,-0.4 -1.29,-1.9 0,-1.31 0.73,-1.66 1.26,-1.66 z"
           style=""
           id="path9761" />
      </g>
      <path
         inkscape:connector-curvature="0"
         id="path4996"
         d="m 269.50679,-206.3115 92.65659,-0.37286"
         style="fill:none;fill-rule:evenodd;stroke:#000000;stroke-width:1px;stroke-linecap:round;stroke-linejoin:miter;stroke-opacity:1;marker-end:url(#Arrow2Lend)" />
    </g>
  </g>
</svg>
