<?xml version="1.0" encoding="UTF-8" standalone="no"?>
<svg
   xmlns:dc="http://purl.org/dc/elements/1.1/"
   xmlns:cc="http://creativecommons.org/ns#"
   xmlns:rdf="http://www.w3.org/1999/02/22-rdf-syntax-ns#"
   xmlns:svg="http://www.w3.org/2000/svg"
   xmlns="http://www.w3.org/2000/svg"
   width="112.67792mm"
   height="60.726665mm"
   viewBox="0 0 399.25247 215.17323"
   id="svg2"
   version="1.1">
  <defs
     id="defs4">
    <filter
       id="filter"
       height="3"
       width="3"
       x="-0.5"
       y="-0.5">
      <feGaussianBlur
         stdDeviation="1.1"
         id="feGaussianBlur7431" />
    </filter>
    <filter
       id="filterG"
       height="3"
       width="3"
       x="-0.5"
       y="-0.5">
      <feGaussianBlur
         stdDeviation="1.1"
         id="feGaussianBlur4424" />
    </filter>
  </defs>
  <metadata
     id="metadata7">
    <rdf:RDF>
      <cc:Work
         rdf:about="">
        <dc:format>image/svg+xml</dc:format>
        <dc:type
           rdf:resource="http://purl.org/dc/dcmitype/StillImage" />
        <dc:title></dc:title>
      </cc:Work>
    </rdf:RDF>
  </metadata>
  <g
     transform="translate(-236.11417,-418.59448)"
     id="layer1" />
  <g
     transform="translate(-236.11417,-418.59448)"
     id="g5622" />
  <g
     transform="translate(-236.11417,-418.59448)"
     id="g5952" />
  <g
     transform="translate(-236.11417,-418.59448)"
     id="g6006" />
  <g
     transform="translate(-236.11417,-418.59448)"
     id="g6082" />
  <g
     transform="translate(-236.11417,-418.59448)"
     id="g6180" />
  <g
     transform="translate(-236.11417,-418.59448)"
     id="g6300" />
  <g
     transform="translate(-236.11417,-418.59448)"
     id="g6442" />
  <g
     transform="translate(-236.11417,-418.59448)"
     id="g6606" />
  <g
     transform="translate(-236.11417,-418.59448)"
     id="g6792" />
  <g
     transform="translate(-236.11417,-418.59448)"
     id="g7038" />
  <g
     transform="translate(-236.11417,-418.59448)"
     id="g7104" />
  <g
     transform="translate(-236.11417,-418.59448)"
     id="g7172" />
  <path
     id="path7457"
     style="fill:#d96f93;fill-opacity:1;stroke:none"
     d="" />
  <path
     id="path7463"
     style="fill:#71b6d7;fill-opacity:1;stroke:none"
     d="" />
  <path
     id="path7469"
     style="fill:#e7cd64;fill-opacity:1;stroke:none"
     d="" />
  <g
     transform="translate(-233.11417,-426.59448)"
     style="font-style:normal;font-variant:normal;font-weight:300;font-stretch:normal;font-size:25px;line-height:125%;font-family:Lato;-inkscape-font-specification:Sans;text-align:center;letter-spacing:0px;word-spacing:0px;text-anchor:middle;fill:#000000;fill-opacity:1;stroke:none;stroke-width:1px;stroke-linecap:butt;stroke-linejoin:miter;stroke-opacity:1"
     id="text7524">
    <path
       d="m 506.4657,489.0235 0,18.4125 -2.225,0 0,-18.4125 2.225,0 z"
       style="font-style:normal;font-variant:normal;font-weight:normal;font-stretch:normal;font-family:Lato;-inkscape-font-specification:Lato;text-align:start;text-anchor:start"
       id="path7617" />
    <path
       d="m 512.4239,494.7735 0,12.6625 -2.225,0 0,-12.6625 2.225,0 z m 0.475,-3.975 q 0,0.325 -0.1375,0.6125 -0.125,0.275 -0.35,0.5 -0.2125,0.2125 -0.5125,0.3375 -0.2875,0.125 -0.6125,0.125 -0.325,0 -0.6125,-0.125 -0.275,-0.125 -0.4875,-0.3375 -0.2125,-0.225 -0.3375,-0.5 -0.125,-0.2875 -0.125,-0.6125 0,-0.325 0.125,-0.6125 0.125,-0.3 0.3375,-0.5125 0.2125,-0.225 0.4875,-0.35 0.2875,-0.125 0.6125,-0.125 0.325,0 0.6125,0.125 0.3,0.125 0.5125,0.35 0.225,0.2125 0.35,0.5125 0.1375,0.2875 0.1375,0.6125 z"
       style="font-style:normal;font-variant:normal;font-weight:normal;font-stretch:normal;font-family:Lato;-inkscape-font-specification:Lato;text-align:start;text-anchor:start"
       id="path7619" />
    <path
       d="m 516.07976,507.436 0,-18.4125 2.2375,0 0,7.5875 q 0.7875,-0.9375 1.8,-1.4875 1.0125,-0.55 2.325,-0.55 1.1125,0 2,0.425 0.9,0.425 1.525,1.2375 0.625,0.8 0.95,1.95 0.3375,1.15 0.3375,2.5875 0,1.5375 -0.375,2.8 -0.375,1.2625 -1.0875,2.1625 -0.7,0.8875 -1.7125,1.3875 -1.0125,0.4875 -2.275,0.4875 -1.25,0 -2.1125,-0.4625 -0.85,-0.475 -1.4875,-1.3375 l -0.1125,1.15 q -0.1,0.475 -0.575,0.475 l -1.4375,0 z m 5.625,-11.0875 q -1.0875,0 -1.9,0.5 -0.8125,0.5 -1.4875,1.4125 l 0,6.125 q 0.6125,0.825 1.3375,1.1625 0.7375,0.3375 1.6125,0.3375 1.7875,0 2.7375,-1.2625 0.95,-1.2625 0.95,-3.7625 0,-2.325 -0.85,-3.4125 -0.8375,-1.1 -2.4,-1.1 z"
       style="font-style:normal;font-variant:normal;font-weight:normal;font-stretch:normal;font-family:Lato;-inkscape-font-specification:Lato;text-align:start;text-anchor:start"
       id="path7621" />
    <path
       d="m 529.71843,506.061 q 0,-0.325 0.1125,-0.6125 0.125,-0.2875 0.325,-0.5 0.2125,-0.2125 0.5,-0.3375 0.2875,-0.125 0.6125,-0.125 0.325,0 0.6125,0.125 0.2875,0.125 0.5,0.3375 0.2125,0.2125 0.3375,0.5 0.125,0.2875 0.125,0.6125 0,0.3375 -0.125,0.625 -0.125,0.275 -0.3375,0.4875 -0.2125,0.2125 -0.5,0.325 -0.2875,0.125 -0.6125,0.125 -0.325,0 -0.6125,-0.125 -0.2875,-0.1125 -0.5,-0.325 -0.2,-0.2125 -0.325,-0.4875 -0.1125,-0.2875 -0.1125,-0.625 z"
       style="font-style:normal;font-variant:normal;font-weight:normal;font-stretch:normal;font-family:Lato;-inkscape-font-specification:Lato;text-align:start;text-anchor:start"
       id="path7623" />
    <path
       d="m 538.35164,494.7735 0,12.6625 -2.225,0 0,-12.6625 2.225,0 z m 0.475,-3.975 q 0,0.325 -0.1375,0.6125 -0.125,0.275 -0.35,0.5 -0.2125,0.2125 -0.5125,0.3375 -0.2875,0.125 -0.6125,0.125 -0.325,0 -0.6125,-0.125 -0.275,-0.125 -0.4875,-0.3375 -0.2125,-0.225 -0.3375,-0.5 -0.125,-0.2875 -0.125,-0.6125 0,-0.325 0.125,-0.6125 0.125,-0.3 0.3375,-0.5125 0.2125,-0.225 0.4875,-0.35 0.2875,-0.125 0.6125,-0.125 0.325,0 0.6125,0.125 0.3,0.125 0.5125,0.35 0.225,0.2125 0.35,0.5125 0.1375,0.2875 0.1375,0.6125 z"
       style="font-style:normal;font-variant:normal;font-weight:normal;font-stretch:normal;font-family:Lato;-inkscape-font-specification:Lato;text-align:start;text-anchor:start"
       id="path7625" />
    <path
       d="m 542.0075,511.7235 0,-16.95 1.3375,0 q 0.475,0 0.5875,0.4625 l 0.1875,1.5 q 0.8125,-0.9875 1.8625,-1.5875 1.05,-0.6 2.4,-0.6 1.1,0 1.9875,0.425 0.8875,0.4125 1.5125,1.2375 0.625,0.8125 0.9625,2.025 0.3375,1.2125 0.3375,2.7875 0,1.4 -0.375,2.6125 -0.375,1.2 -1.0875,2.0875 -0.7,0.875 -1.725,1.3875 -1.0125,0.5 -2.2875,0.5 -1.1625,0 -2,-0.3875 -0.825,-0.3875 -1.4625,-1.1 l 0,5.6 -2.2375,0 z m 5.65,-15.375 q -1.0875,0 -1.9125,0.5 -0.8125,0.5 -1.5,1.4125 l 0,6.125 q 0.6,0.825 1.325,1.1625 0.7375,0.3375 1.6375,0.3375 1.775,0 2.725,-1.2625 0.95,-1.2625 0.95,-3.6 0,-1.2375 -0.225,-2.125 -0.2125,-0.8875 -0.625,-1.45 -0.4125,-0.575 -1.0125,-0.8375 -0.6,-0.2625 -1.3625,-0.2625 z"
       style="font-style:normal;font-variant:normal;font-weight:normal;font-stretch:normal;font-family:Lato;-inkscape-font-specification:Lato;text-align:start;text-anchor:start"
       id="path7627" />
    <path
       d="m 563.39617,496.861 q -0.15,0.275 -0.4625,0.275 -0.1875,0 -0.425,-0.1375 -0.2375,-0.1375 -0.5875,-0.3 -0.3375,-0.175 -0.8125,-0.3125 -0.475,-0.15 -1.125,-0.15 -0.5625,0 -1.0125,0.15 -0.45,0.1375 -0.775,0.3875 -0.3125,0.25 -0.4875,0.5875 -0.1625,0.325 -0.1625,0.7125 0,0.4875 0.275,0.8125 0.2875,0.325 0.75,0.5625 0.4625,0.2375 1.05,0.425 0.5875,0.175 1.2,0.3875 0.625,0.2 1.2125,0.45 0.5875,0.25 1.05,0.625 0.4625,0.375 0.7375,0.925 0.2875,0.5375 0.2875,1.3 0,0.875 -0.3125,1.625 -0.3125,0.7375 -0.925,1.2875 -0.6125,0.5375 -1.5,0.85 -0.8875,0.3125 -2.05,0.3125 -1.325,0 -2.4,-0.425 -1.075,-0.4375 -1.825,-1.1125 l 0.525,-0.85 q 0.1,-0.1625 0.2375,-0.25 0.1375,-0.0875 0.35,-0.0875 0.225,0 0.475,0.175 0.25,0.175 0.6,0.3875 0.3625,0.2125 0.875,0.3875 0.5125,0.175 1.275,0.175 0.65,0 1.1375,-0.1625 0.4875,-0.175 0.8125,-0.4625 0.325,-0.2875 0.475,-0.6625 0.1625,-0.375 0.1625,-0.8 0,-0.525 -0.2875,-0.8625 -0.275,-0.35 -0.7375,-0.5875 -0.4625,-0.25 -1.0625,-0.425 -0.5875,-0.1875 -1.2125,-0.3875 -0.6125,-0.2 -1.2125,-0.45 -0.5875,-0.2625 -1.05,-0.65 -0.4625,-0.3875 -0.75,-0.95 -0.275,-0.575 -0.275,-1.3875 0,-0.725 0.3,-1.3875 0.3,-0.675 0.875,-1.175 0.575,-0.5125 1.4125,-0.8125 0.8375,-0.3 1.9125,-0.3 1.25,0 2.2375,0.4 1,0.3875 1.725,1.075 l -0.5,0.8125 z"
       style="font-style:normal;font-variant:normal;font-weight:normal;font-stretch:normal;font-family:Lato;-inkscape-font-specification:Lato;text-align:start;text-anchor:start"
       id="path7629" />
    <path
       d="m 572.04851,494.5735 q 1.1375,0 2.1,0.3875 0.975,0.375 1.675,1.1 0.7125,0.7125 1.1125,1.775 0.4,1.05 0.4,2.4 0,0.525 -0.1125,0.7 -0.1125,0.175 -0.425,0.175 l -8.4625,0 q 0.025,1.2 0.325,2.0875 0.3,0.8875 0.825,1.4875 0.525,0.5875 1.25,0.8875 0.725,0.2875 1.625,0.2875 0.8375,0 1.4375,-0.1875 0.6125,-0.2 1.05,-0.425 0.4375,-0.225 0.725,-0.4125 0.3,-0.2 0.5125,-0.2 0.275,0 0.425,0.2125 l 0.625,0.8125 q -0.4125,0.5 -0.9875,0.875 -0.575,0.3625 -1.2375,0.6 -0.65,0.2375 -1.35,0.35 -0.7,0.125 -1.3875,0.125 -1.3125,0 -2.425,-0.4375 -1.1,-0.45 -1.9125,-1.3 -0.8,-0.8625 -1.25,-2.125 -0.45,-1.2625 -0.45,-2.9 0,-1.325 0.4,-2.475 0.4125,-1.15 1.175,-1.9875 0.7625,-0.85 1.8625,-1.325 1.1,-0.4875 2.475,-0.4875 z m 0.05,1.6375 q -1.6125,0 -2.5375,0.9375 -0.925,0.925 -1.15,2.575 l 6.925,0 q 0,-0.775 -0.225,-1.4125 -0.2125,-0.65 -0.6375,-1.1125 -0.4125,-0.475 -1.0125,-0.725 -0.6,-0.2625 -1.3625,-0.2625 z"
       style="font-style:normal;font-variant:normal;font-weight:normal;font-stretch:normal;font-family:Lato;-inkscape-font-specification:Lato;text-align:start;text-anchor:start"
       id="path7631" />
    <path
       d="m 588.8571,497.0235 q -0.1,0.1375 -0.2,0.2125 -0.1,0.075 -0.275,0.075 -0.1875,0 -0.4125,-0.15 -0.225,-0.1625 -0.5625,-0.35 -0.325,-0.1875 -0.8125,-0.3375 -0.475,-0.1625 -1.175,-0.1625 -0.9375,0 -1.65,0.3375 -0.7125,0.325 -1.2,0.95 -0.475,0.625 -0.725,1.5125 -0.2375,0.8875 -0.2375,1.9875 0,1.15 0.2625,2.05 0.2625,0.8875 0.7375,1.5 0.4875,0.6 1.1625,0.925 0.6875,0.3125 1.5375,0.3125 0.8125,0 1.3375,-0.1875 0.525,-0.2 0.8625,-0.4375 0.35,-0.2375 0.575,-0.425 0.2375,-0.2 0.4625,-0.2 0.275,0 0.425,0.2125 l 0.625,0.8125 q -0.4125,0.5125 -0.9375,0.875 -0.525,0.3625 -1.1375,0.6125 -0.6,0.2375 -1.2625,0.35 -0.6625,0.1125 -1.35,0.1125 -1.1875,0 -2.2125,-0.4375 -1.0125,-0.4375 -1.7625,-1.2625 -0.75,-0.8375 -1.175,-2.05 -0.425,-1.2125 -0.425,-2.7625 0,-1.4125 0.3875,-2.6125 0.4,-1.2 1.15,-2.0625 0.7625,-0.875 1.8625,-1.3625 1.1125,-0.4875 2.55,-0.4875 1.3375,0 2.35,0.4375 1.025,0.425 1.8125,1.2125 l -0.5875,0.8 z"
       style="font-style:normal;font-variant:normal;font-weight:normal;font-stretch:normal;font-family:Lato;-inkscape-font-specification:Lato;text-align:start;text-anchor:start"
       id="path7633" />
    <path
       d="m 504.75695,518.24382 0,12.73125 -0.84,0 0,-12.73125 0.84,0 z"
       style="font-size:17.5px;text-align:start;text-anchor:start"
       id="path7635" />
    <path
       d="m 508.628,522.26882 0,8.70625 -0.83125,0 0,-8.70625 0.83125,0 z m 0.35875,-3.00125 q 0,0.1575 -0.07,0.2975 -0.0612,0.13125 -0.16625,0.23625 -0.105,0.105 -0.245,0.16625 -0.14,0.0612 -0.2975,0.0612 -0.1575,0 -0.2975,-0.0612 -0.14,-0.0612 -0.245,-0.16625 -0.105,-0.105 -0.16625,-0.23625 -0.0613,-0.14 -0.0613,-0.2975 0,-0.1575 0.0613,-0.2975 0.0612,-0.14875 0.16625,-0.25375 0.105,-0.105 0.245,-0.16625 0.14,-0.0612 0.2975,-0.0612 0.1575,0 0.2975,0.0612 0.14,0.0612 0.245,0.16625 0.105,0.105 0.16625,0.25375 0.07,0.14 0.07,0.2975 z"
       style="font-size:17.5px;text-align:start;text-anchor:start"
       id="path7637" />
    <path
       d="m 511.59699,530.97507 0,-8.70625 0.46375,0 q 0.21875,0 0.25375,0.21875 l 0.0788,1.3125 q 0.60375,-0.76125 1.39125,-1.21625 0.7875,-0.455 1.7675,-0.455 0.7175,0 1.26,0.2275 0.55125,0.2275 0.91,0.65625 0.35875,0.42875 0.5425,1.0325 0.18375,0.60375 0.18375,1.365 l 0,5.565 -0.84,0 0,-5.565 q 0,-1.225 -0.56,-1.91625 -0.56,-0.7 -1.70625,-0.7 -0.8575,0 -1.5925,0.4375 -0.735,0.42875 -1.3125,1.19875 l 0,6.545 -0.84,0 z"
       style="font-size:17.5px;text-align:start;text-anchor:start"
       id="path7639" />
    <path
       d="m 524.63941,522.12882 q 0.735,0 1.365,0.25375 0.63,0.25375 1.09375,0.74375 0.46375,0.48125 0.72625,1.19 0.27125,0.70875 0.27125,1.6275 0,0.1925 -0.0525,0.2625 -0.0525,0.07 -0.175,0.07 l -6.335,0 0,0.16625 q 0,0.98 0.2275,1.72375 0.2275,0.74375 0.6475,1.25125 0.42,0.49875 1.015,0.7525 0.595,0.25375 1.33,0.25375 0.65625,0 1.1375,-0.14 0.48125,-0.14875 0.805,-0.32375 0.3325,-0.18375 0.525,-0.32375 0.1925,-0.14875 0.28,-0.14875 0.11375,0 0.175,0.0875 l 0.2275,0.28 q -0.21,0.2625 -0.56,0.49 -0.34125,0.2275 -0.77,0.39375 -0.42,0.1575 -0.91,0.25375 -0.48125,0.0963 -0.97125,0.0963 -0.8925,0 -1.6275,-0.30625 -0.735,-0.315 -1.26,-0.91 -0.525,-0.595 -0.81375,-1.4525 -0.28,-0.86625 -0.28,-1.9775 0,-0.93625 0.2625,-1.72375 0.27125,-0.79625 0.77,-1.365 0.5075,-0.5775 1.23375,-0.90125 0.735,-0.32375 1.6625,-0.32375 z m 0.009,0.62125 q -0.67375,0 -1.2075,0.21 -0.53375,0.21 -0.9275,0.60375 -0.385,0.39375 -0.63,0.945 -0.23625,0.55125 -0.315,1.23375 l 5.775,0 q 0,-0.7 -0.20125,-1.25125 -0.1925,-0.56 -0.55125,-0.945 -0.35875,-0.385 -0.8575,-0.58625 -0.49,-0.21 -1.085,-0.21 z"
       style="font-size:17.5px;text-align:start;text-anchor:start"
       id="path7641" />
    <path
       d="m 535.14789,523.34507 q -0.07,0.1225 -0.20125,0.1225 -0.0963,0 -0.245,-0.105 -0.14875,-0.11375 -0.4025,-0.245 -0.245,-0.14 -0.6125,-0.245 -0.3675,-0.11375 -0.8925,-0.11375 -0.4725,0 -0.86625,0.14 -0.385,0.13125 -0.665,0.35875 -0.27125,0.2275 -0.42,0.53375 -0.14875,0.2975 -0.14875,0.63 0,0.41125 0.21,0.6825 0.21,0.27125 0.5425,0.46375 0.34125,0.1925 0.77875,0.3325 0.4375,0.14 0.88375,0.28 0.455,0.14 0.8925,0.315 0.4375,0.16625 0.77,0.42 0.34125,0.25375 0.55125,0.62125 0.21,0.3675 0.21,0.8925 0,0.56875 -0.20125,1.05875 -0.20125,0.49 -0.595,0.84875 -0.385,0.35875 -0.95375,0.56875 -0.56875,0.21 -1.30375,0.21 -0.91875,0 -1.58375,-0.28875 -0.665,-0.2975 -1.19,-0.77 l 0.1925,-0.2975 q 0.0438,-0.07 0.0963,-0.105 0.0612,-0.035 0.1575,-0.035 0.11375,0 0.27125,0.14 0.16625,0.14 0.4375,0.30625 0.27125,0.1575 0.665,0.2975 0.4025,0.14 0.98875,0.14 0.55125,0 0.97125,-0.14875 0.42,-0.1575 0.7,-0.42 0.28,-0.2625 0.42,-0.6125 0.14875,-0.35875 0.14875,-0.7525 0,-0.4375 -0.21,-0.72625 -0.21,-0.28875 -0.55125,-0.49 -0.34125,-0.20125 -0.77875,-0.34125 -0.42875,-0.14 -0.88375,-0.28 -0.455,-0.14 -0.8925,-0.30625 -0.42875,-0.16625 -0.77,-0.42 -0.34125,-0.25375 -0.55125,-0.6125 -0.21,-0.3675 -0.21,-0.91 0,-0.46375 0.20125,-0.8925 0.20125,-0.42875 0.56875,-0.7525 0.37625,-0.32375 0.91,-0.51625 0.53375,-0.1925 1.19875,-0.1925 0.79625,0 1.40875,0.2275 0.62125,0.2275 1.12875,0.7 l -0.175,0.28875 z"
       style="font-size:17.5px;text-align:start;text-anchor:start"
       id="path7643" />
    <path
       d="m 546.01128,522.12882 q 0.93625,0 1.67125,0.32375 0.74375,0.315 1.25125,0.90125 0.5075,0.58625 0.77,1.4175 0.27125,0.8225 0.27125,1.84625 0,1.02375 -0.27125,1.84625 -0.2625,0.8225 -0.77,1.40875 -0.5075,0.58625 -1.25125,0.90125 -0.735,0.315 -1.67125,0.315 -0.93625,0 -1.68,-0.315 -0.735,-0.315 -1.25125,-0.90125 -0.5075,-0.58625 -0.77875,-1.40875 -0.2625,-0.8225 -0.2625,-1.84625 0,-1.02375 0.2625,-1.84625 0.27125,-0.83125 0.77875,-1.4175 0.51625,-0.58625 1.25125,-0.90125 0.74375,-0.32375 1.68,-0.32375 z m 0,8.30375 q 0.77875,0 1.35625,-0.2625 0.58625,-0.27125 0.97125,-0.77 0.39375,-0.49875 0.58625,-1.19875 0.1925,-0.70875 0.1925,-1.58375 0,-0.86625 -0.1925,-1.575 -0.1925,-0.70875 -0.58625,-1.2075 -0.385,-0.5075 -0.97125,-0.77875 -0.5775,-0.27125 -1.35625,-0.27125 -0.77875,0 -1.365,0.27125 -0.5775,0.27125 -0.97125,0.77875 -0.385,0.49875 -0.58625,1.2075 -0.1925,0.70875 -0.1925,1.575 0,0.875 0.1925,1.58375 0.20125,0.7 0.58625,1.19875 0.39375,0.49875 0.97125,0.77 0.58625,0.2625 1.365,0.2625 z"
       style="font-size:17.5px;text-align:start;text-anchor:start"
       id="path7645" />
    <path
       d="m 552.71871,530.97507 0,-7.79625 -1.225,-0.0788 q -0.245,-0.0263 -0.245,-0.21875 l 0,-0.34125 1.47,0 0,-1.1025 q 0,-0.74375 0.1925,-1.30375 0.1925,-0.56875 0.5425,-0.945 0.35,-0.37625 0.84,-0.56 0.49,-0.1925 1.085,-0.1925 0.27125,0 0.5425,0.0525 0.28,0.0437 0.49875,0.13125 l -0.0262,0.4025 q -0.0175,0.0788 -0.0788,0.105 -0.0525,0.0175 -0.1575,0.0175 -0.105,-0.009 -0.27125,-0.0263 -0.16625,-0.0263 -0.385,-0.0263 -0.42875,0 -0.79625,0.13125 -0.35875,0.1225 -0.62125,0.4025 -0.2625,0.28 -0.41125,0.735 -0.14,0.44625 -0.14,1.1025 l 0,1.07625 2.82625,0 0,0.62125 -2.8,0 0,7.81375 -0.84,0 z"
       style="font-size:17.5px;text-align:start;text-anchor:start"
       id="path7647" />
    <path
       d="m 568.44683,523.43257 q -0.0437,0.0437 -0.0875,0.0787 -0.035,0.0263 -0.105,0.0263 -0.0875,0 -0.23625,-0.11375 -0.14875,-0.1225 -0.4025,-0.2625 -0.25375,-0.14 -0.63875,-0.25375 -0.37625,-0.1225 -0.91875,-0.1225 -0.7525,0 -1.33875,0.27125 -0.5775,0.2625 -0.98,0.76125 -0.4025,0.49875 -0.6125,1.2075 -0.20125,0.70875 -0.20125,1.5925 0,0.91875 0.21,1.6275 0.21875,0.70875 0.6125,1.19875 0.39375,0.48125 0.95375,0.735 0.56,0.25375 1.2425,0.25375 0.63,0 1.05,-0.14875 0.42875,-0.14875 0.7,-0.32375 0.28,-0.175 0.4375,-0.32375 0.1575,-0.14875 0.2625,-0.14875 0.105,0 0.175,0.0875 l 0.21875,0.28 q -0.20125,0.2625 -0.5075,0.49 -0.30625,0.2275 -0.69125,0.39375 -0.385,0.16625 -0.84,0.25375 -0.44625,0.0963 -0.93625,0.0963 -0.83125,0 -1.5225,-0.2975 -0.6825,-0.30625 -1.18125,-0.875 -0.49,-0.5775 -0.77,-1.40875 -0.27125,-0.83125 -0.27125,-1.89 0,-0.9975 0.2625,-1.82 0.2625,-0.8225 0.77,-1.4175 0.5075,-0.595 1.23375,-0.91875 0.735,-0.3325 1.68,-0.3325 0.84875,0 1.505,0.27125 0.65625,0.27125 1.14625,0.735 l -0.21875,0.2975 z"
       style="font-size:17.5px;text-align:start;text-anchor:start"
       id="path7649" />
    <path
       d="m 574.10699,522.12882 q 0.93625,0 1.67125,0.32375 0.74375,0.315 1.25125,0.90125 0.5075,0.58625 0.77,1.4175 0.27125,0.8225 0.27125,1.84625 0,1.02375 -0.27125,1.84625 -0.2625,0.8225 -0.77,1.40875 -0.5075,0.58625 -1.25125,0.90125 -0.735,0.315 -1.67125,0.315 -0.93625,0 -1.68,-0.315 -0.735,-0.315 -1.25125,-0.90125 -0.5075,-0.58625 -0.77875,-1.40875 -0.2625,-0.8225 -0.2625,-1.84625 0,-1.02375 0.2625,-1.84625 0.27125,-0.83125 0.77875,-1.4175 0.51625,-0.58625 1.25125,-0.90125 0.74375,-0.32375 1.68,-0.32375 z m 0,8.30375 q 0.77875,0 1.35625,-0.2625 0.58625,-0.27125 0.97125,-0.77 0.39375,-0.49875 0.58625,-1.19875 0.1925,-0.70875 0.1925,-1.58375 0,-0.86625 -0.1925,-1.575 -0.1925,-0.70875 -0.58625,-1.2075 -0.385,-0.5075 -0.97125,-0.77875 -0.5775,-0.27125 -1.35625,-0.27125 -0.77875,0 -1.365,0.27125 -0.5775,0.27125 -0.97125,0.77875 -0.385,0.49875 -0.58625,1.2075 -0.1925,0.70875 -0.1925,1.575 0,0.875 0.1925,1.58375 0.20125,0.7 0.58625,1.19875 0.39375,0.49875 0.97125,0.77 0.58625,0.2625 1.365,0.2625 z"
       style="font-size:17.5px;text-align:start;text-anchor:start"
       id="path7651" />
    <path
       d="m 586.75238,530.97507 q -0.2275,0 -0.2625,-0.2275 l -0.0875,-1.37375 q -0.5775,0.7875 -1.3475,1.25125 -0.77,0.46375 -1.7325,0.46375 -1.61,0 -2.5025,-1.11125 -0.8925,-1.11125 -0.8925,-3.33375 0,-0.95375 0.245,-1.77625 0.25375,-0.83125 0.735,-1.435 0.48125,-0.6125 1.18125,-0.9625 0.70875,-0.35 1.6275,-0.35 0.88375,0 1.53125,0.3325 0.6475,0.32375 1.12875,0.95375 l 0,-5.1625 0.83125,0 0,12.73125 -0.455,0 z m -3.19375,-0.56 q 0.8575,0 1.5575,-0.44625 0.70875,-0.44625 1.26,-1.25125 l 0,-4.5675 q -0.49875,-0.7525 -1.11125,-1.05875 -0.60375,-0.315 -1.3825,-0.315 -0.77,0 -1.3475,0.28 -0.5775,0.28 -0.97125,0.79625 -0.385,0.5075 -0.58625,1.225 -0.1925,0.70875 -0.1925,1.56625 0,1.9425 0.70875,2.86125 0.7175,0.91 2.065,0.91 z"
       style="font-size:17.5px;text-align:start;text-anchor:start"
       id="path7653" />
    <path
       d="m 593.4773,522.12882 q 0.735,0 1.365,0.25375 0.63,0.25375 1.09375,0.74375 0.46375,0.48125 0.72625,1.19 0.27125,0.70875 0.27125,1.6275 0,0.1925 -0.0525,0.2625 -0.0525,0.07 -0.175,0.07 l -6.335,0 0,0.16625 q 0,0.98 0.2275,1.72375 0.2275,0.74375 0.6475,1.25125 0.42,0.49875 1.015,0.7525 0.595,0.25375 1.33,0.25375 0.65625,0 1.1375,-0.14 0.48125,-0.14875 0.805,-0.32375 0.3325,-0.18375 0.525,-0.32375 0.1925,-0.14875 0.28,-0.14875 0.11375,0 0.175,0.0875 l 0.2275,0.28 q -0.21,0.2625 -0.56,0.49 -0.34125,0.2275 -0.77,0.39375 -0.42,0.1575 -0.91,0.25375 -0.48125,0.0963 -0.97125,0.0963 -0.8925,0 -1.6275,-0.30625 -0.735,-0.315 -1.26,-0.91 -0.525,-0.595 -0.81375,-1.4525 -0.28,-0.86625 -0.28,-1.9775 0,-0.93625 0.2625,-1.72375 0.27125,-0.79625 0.77,-1.365 0.5075,-0.5775 1.23375,-0.90125 0.735,-0.32375 1.6625,-0.32375 z m 0.009,0.62125 q -0.67375,0 -1.2075,0.21 -0.53375,0.21 -0.9275,0.60375 -0.385,0.39375 -0.63,0.945 -0.23625,0.55125 -0.315,1.23375 l 5.775,0 q 0,-0.7 -0.20125,-1.25125 -0.1925,-0.56 -0.55125,-0.945 -0.35875,-0.385 -0.8575,-0.58625 -0.49,-0.21 -1.085,-0.21 z"
       style="font-size:17.5px;text-align:start;text-anchor:start"
       id="path7655" />
  </g>
  <g
     transform="translate(-236.11417,-418.59448)"
     id="g4489">
    <circle
       cx="372.04724"
       cy="526.18109"
       r="100"
       style="fill:#000000;filter:url(#filter)"
       id="circle4491" />
    <circle
       cx="372.04724"
       cy="526.18109"
       r="100"
       style="fill:#f9f9f9;stroke:#ececec"
       id="circle4493" />
    <path
       d="m 471.64251,517.19324 a 100,100 0 0 1 -66.15718,103.23165 100,100 0 0 1 -116.42649,-38.4502 l 82.9884,-55.7936 z"
       style="fill:#ff9ec7;fill-opacity:1;stroke:none"
       id="path4499" />
    <path
       d="m 294.40936,589.20775 a 100,100 0 0 1 -12.38499,-106.5684 100,100 0 0 1 91.23324,-56.45093 100,100 0 0 1 89.84008,58.64275 l -91.05045,41.34992 z"
       style="fill:#9ad1ff;fill-opacity:1;stroke:none"
       id="path4505" />
    <path
       d="m 459.01271,476.81504 a 100,100 0 0 1 13.03453,49.36592 l -100,1.3e-4 z"
       style="fill:#fff09d;fill-opacity:1;stroke:none"
       id="path4511" />
  </g>
  <g
     transform="translate(-233.41329,-416.24404)"
     style="font-style:normal;font-variant:normal;font-weight:300;font-stretch:normal;font-size:25px;line-height:125%;font-family:Lato;-inkscape-font-specification:Sans;text-align:center;letter-spacing:0px;word-spacing:0px;text-anchor:middle;fill:#000000;fill-opacity:1;stroke:none;stroke-width:1px;stroke-linecap:butt;stroke-linejoin:miter;stroke-opacity:1"
     id="text7500">
    <path
       d="m 320.42208,493.31816 7.5375,0 0,0.97875 -8.69625,0 0,-15.91875 1.15875,0 0,14.94 z"
       style="font-size:22.5px"
       id="path7686" />
    <path
       d="m 330.2602,483.10316 0,7.155 q 0,1.575 0.72,2.475 0.72,0.88875 2.19375,0.88875 1.09125,0 2.03625,-0.55125 0.945,-0.5625 1.69875,-1.5525 l 0,-8.415 1.08,0 0,11.19375 -0.59625,0 q -0.28125,0 -0.32625,-0.2925 l -0.10125,-1.665 q -0.77625,0.9675 -1.8,1.5525 -1.0125,0.585 -2.26125,0.585 -0.93375,0 -1.63125,-0.2925 -0.6975,-0.2925 -1.15875,-0.84375 -0.46125,-0.55125 -0.6975,-1.3275 -0.23625,-0.77625 -0.23625,-1.755 l 0,-7.155 1.08,0 z"
       style="font-size:22.5px"
       id="path7688" />
    <path
       d="m 348.53759,494.29691 q -0.3375,0 -0.41625,-0.315 l -0.1575,-1.42875 q -0.46125,0.45 -0.9225,0.81 -0.45,0.36 -0.945,0.6075 -0.495,0.2475 -1.06875,0.37125 -0.57375,0.135 -1.26,0.135 -0.57375,0 -1.11375,-0.16875 -0.54,-0.16875 -0.9675,-0.5175 -0.41625,-0.34875 -0.675,-0.88875 -0.2475,-0.55125 -0.2475,-1.31625 0,-0.70875 0.405,-1.31625 0.405,-0.6075 1.27125,-1.0575 0.86625,-0.45 2.21625,-0.72 1.36125,-0.27 3.2625,-0.315 l 0,-1.17 q 0,-1.5525 -0.675,-2.385 -0.66375,-0.84375 -1.98,-0.84375 -0.81,0 -1.38375,0.225 -0.5625,0.225 -0.95625,0.495 -0.39375,0.27 -0.64125,0.495 -0.2475,0.225 -0.41625,0.225 -0.12375,0 -0.2025,-0.0563 -0.0788,-0.0562 -0.135,-0.14625 l -0.19125,-0.32625 q 0.8775,-0.8775 1.845,-1.3275 0.9675,-0.45 2.19375,-0.45 0.9,0 1.575,0.2925 0.675,0.28125 1.11375,0.82125 0.45,0.52875 0.675,1.29375 0.225,0.75375 0.225,1.6875 l 0,7.29 -0.4275,0 z m -4.5,-0.59625 q 0.6525,0 1.1925,-0.135 0.55125,-0.14625 1.0125,-0.39375 0.4725,-0.25875 0.8775,-0.6075 0.405,-0.34875 0.79875,-0.75375 l 0,-2.91375 q -1.5975,0.045 -2.75625,0.2475 -1.15875,0.19125 -1.9125,0.52875 -0.7425,0.3375 -1.1025,0.81 -0.34875,0.46125 -0.34875,1.0575 0,0.5625 0.18,0.97875 0.19125,0.405 0.495,0.675 0.315,0.25875 0.72,0.3825 0.405,0.12375 0.84375,0.12375 z"
       style="font-size:22.5px"
       id="path7690" />
    <path
       d="m 356.69333,488.89691 q -0.19375,0.25625 -0.35625,0.48125 -0.1625,0.225 -0.29375,0.44375 0.36875,-0.38125 0.875,-0.59375 0.50625,-0.21875 1.10625,-0.21875 0.56875,0 1.05,0.1875 0.48125,0.1875 0.825,0.53125 0.35,0.3375 0.54375,0.825 0.2,0.48125 0.2,1.08125 0,0.6 -0.21875,1.10625 -0.2125,0.50625 -0.6,0.875 -0.38125,0.36875 -0.91875,0.575 -0.5375,0.20625 -1.18125,0.20625 -0.61875,0 -1.13125,-0.2 -0.5125,-0.2 -0.88125,-0.575 -0.3625,-0.375 -0.5625,-0.9125 -0.2,-0.54375 -0.2,-1.225 0,-0.51875 0.2625,-1.16875 0.2625,-0.65625 0.8625,-1.46875 l 2.4125,-3.25 q 0.10625,-0.14375 0.31875,-0.14375 l 0.525,0 -2.6375,3.44375 z m -1.1625,2.73125 q 0,0.49375 0.15,0.9125 0.15625,0.41875 0.4375,0.725 0.28125,0.3 0.6875,0.46875 0.40625,0.16875 0.9125,0.16875 0.5375,0 0.96875,-0.16875 0.43125,-0.16875 0.73125,-0.4625 0.30625,-0.3 0.46875,-0.70625 0.1625,-0.4125 0.1625,-0.89375 0,-0.50625 -0.1625,-0.9125 -0.15625,-0.4125 -0.45,-0.69375 -0.2875,-0.2875 -0.6875,-0.4375 -0.4,-0.15625 -0.8875,-0.15625 -0.55,0 -0.9875,0.19375 -0.43125,0.1875 -0.73125,0.49375 -0.3,0.3 -0.45625,0.6875 -0.15625,0.3875 -0.15625,0.78125 z"
       style="font-size:12.5px"
       id="path7692" />
    <path
       d="m 368.01931,485.45316 0,0.26875 q 0,0.10625 -0.025,0.1875 -0.025,0.075 -0.0562,0.13125 l -4.05,8.03125 q -0.05,0.1 -0.1375,0.1625 -0.0813,0.0625 -0.21875,0.0625 l -0.4125,0 4.0875,-8 q 0.0437,-0.0875 0.0875,-0.15625 0.05,-0.0688 0.1,-0.1375 l -5.09375,0 q -0.0688,0 -0.11875,-0.05 -0.05,-0.05 -0.05,-0.11875 l 0,-0.38125 5.8875,0 z"
       style="font-size:12.5px"
       id="path7694" />
    <path
       d="m 373.27653,490.64691 q 0.19375,-0.275 0.35625,-0.50625 0.1625,-0.2375 0.29375,-0.4625 -0.36875,0.4125 -0.8875,0.6375 -0.51875,0.21875 -1.10625,0.21875 -0.54375,0 -1.00625,-0.175 -0.45625,-0.18125 -0.79375,-0.5125 -0.3375,-0.33125 -0.525,-0.79375 -0.1875,-0.46875 -0.1875,-1.04375 0,-0.56875 0.2125,-1.05 0.2125,-0.4875 0.5875,-0.84375 0.375,-0.35625 0.8875,-0.55625 0.51875,-0.20625 1.13125,-0.20625 0.5875,0 1.075,0.2 0.49375,0.2 0.84375,0.56875 0.35625,0.3625 0.55,0.875 0.2,0.50625 0.2,1.13125 0,0.34375 -0.075,0.65625 -0.0688,0.3125 -0.2125,0.625 -0.1375,0.3125 -0.3375,0.64375 -0.2,0.325 -0.45625,0.7 l -2.31875,3.4 q -0.0937,0.14375 -0.30625,0.14375 l -0.54375,0 2.61875,-3.65 z m 1.05625,-2.63125 q 0,-0.48125 -0.15625,-0.88125 -0.15625,-0.4 -0.4375,-0.68125 -0.28125,-0.2875 -0.66875,-0.44375 -0.38125,-0.1625 -0.8375,-0.1625 -0.49375,0 -0.9,0.15625 -0.40625,0.15625 -0.7,0.4375 -0.2875,0.28125 -0.45,0.675 -0.1625,0.3875 -0.1625,0.85625 0,0.4875 0.14375,0.88125 0.15,0.3875 0.41875,0.6625 0.275,0.26875 0.65625,0.4125 0.3875,0.14375 0.85625,0.14375 0.53125,0 0.95,-0.18125 0.41875,-0.18125 0.7,-0.475 0.2875,-0.29375 0.4375,-0.65625 0.15,-0.36875 0.15,-0.74375 z"
       style="font-size:12.5px"
       id="path7696" />
  </g>
  <g
     transform="translate(-238.15266,-418.23121)"
     style="font-style:normal;font-variant:normal;font-weight:300;font-stretch:normal;font-size:25px;line-height:125%;font-family:Lato;-inkscape-font-specification:Sans;text-align:center;letter-spacing:0px;word-spacing:0px;text-anchor:middle;fill:#000000;fill-opacity:1;stroke:none;stroke-width:1px;stroke-linecap:butt;stroke-linejoin:miter;stroke-opacity:1"
     id="text7516">
    <path
       d="m 436.16675,515.47722 q 0.1125,0 0.19125,0.0788 l 0.45,0.48375 q -0.495,0.52875 -1.08,0.95625 -0.57375,0.41625 -1.27125,0.72 -0.68625,0.2925 -1.51875,0.45 -0.82125,0.16875 -1.81125,0.16875 -1.65375,0 -3.0375,-0.57375 -1.3725,-0.585 -2.3625,-1.6425 -0.99,-1.06875 -1.54125,-2.57625 -0.54,-1.5075 -0.54,-3.3525 0,-1.81125 0.5625,-3.3075 0.5625,-1.49625 1.575,-2.565 1.0125,-1.08 2.43,-1.665 1.4175,-0.59625 3.1275,-0.59625 1.63125,0 2.89125,0.50625 1.26,0.50625 2.295,1.42875 l -0.34875,0.50625 q -0.09,0.135 -0.28125,0.135 -0.135,0 -0.43875,-0.2475 -0.30375,-0.2475 -0.84375,-0.54 -0.54,-0.30375 -1.35,-0.55125 -0.79875,-0.2475 -1.92375,-0.2475 -1.44,0 -2.64375,0.495 -1.1925,0.495 -2.05875,1.4175 -0.855,0.9225 -1.33875,2.25 -0.48375,1.3275 -0.48375,2.98125 0,1.6875 0.48375,3.015 0.495,1.3275 1.35,2.25 0.855,0.91125 2.01375,1.40625 1.17,0.48375 2.52,0.48375 0.855,0 1.51875,-0.1125 0.675,-0.1125 1.2375,-0.3375 0.5625,-0.225 1.04625,-0.55125 0.48375,-0.32625 0.95625,-0.765 0.0562,-0.045 0.1125,-0.0675 0.0562,-0.0338 0.1125,-0.0338 z"
       style="font-size:22.5px"
       id="path7658" />
    <path
       d="m 442.59664,517.69222 2.03125,0 0,-7.175 q 0,-0.2125 0.0188,-0.45 l -1.95,1.73125 q -0.0875,0.075 -0.175,0.0562 -0.0875,-0.0188 -0.1375,-0.075 l -0.18125,-0.25 2.55625,-2.25625 0.46875,0 0,8.41875 1.93125,0 0,0.4625 -4.5625,0 0,-0.4625 z"
       style="font-size:12.5px"
       id="path7660" />
    <path
       d="m 454.97261,513.72972 q 0,1.1625 -0.25,2.0125 -0.25,0.85 -0.68125,1.40625 -0.43125,0.55625 -1.0125,0.83125 -0.575,0.26875 -1.23125,0.26875 -0.65625,0 -1.23125,-0.26875 -0.575,-0.275 -1.00625,-0.83125 -0.43125,-0.55625 -0.68125,-1.40625 -0.24375,-0.85 -0.24375,-2.0125 0,-1.1625 0.24375,-2.0125 0.25,-0.85 0.68125,-1.40625 0.43125,-0.55625 1.00625,-0.825 0.575,-0.275 1.23125,-0.275 0.65625,0 1.23125,0.275 0.58125,0.26875 1.0125,0.825 0.43125,0.55625 0.68125,1.40625 0.25,0.85 0.25,2.0125 z m -0.625,0 q 0,-1.075 -0.20625,-1.8375 -0.20625,-0.7625 -0.55625,-1.24375 -0.34375,-0.4875 -0.8125,-0.7125 -0.4625,-0.225 -0.975,-0.225 -0.5125,0 -0.975,0.225 -0.4625,0.225 -0.8125,0.7125 -0.35,0.48125 -0.55625,1.24375 -0.20625,0.7625 -0.20625,1.8375 0,1.08125 0.20625,1.84375 0.20625,0.75625 0.55625,1.24375 0.35,0.48125 0.8125,0.70625 0.4625,0.21875 0.975,0.21875 0.5125,0 0.975,-0.21875 0.46875,-0.225 0.8125,-0.70625 0.35,-0.4875 0.55625,-1.24375 0.20625,-0.7625 0.20625,-1.84375 z"
       style="font-size:12.5px"
       id="path7662" />
    <path
       d="m 458.02359,512.75472 q -0.19375,0.25625 -0.35625,0.48125 -0.1625,0.225 -0.29375,0.44375 0.36875,-0.38125 0.875,-0.59375 0.50625,-0.21875 1.10625,-0.21875 0.56875,0 1.05,0.1875 0.48125,0.1875 0.825,0.53125 0.35,0.3375 0.54375,0.825 0.2,0.48125 0.2,1.08125 0,0.6 -0.21875,1.10625 -0.2125,0.50625 -0.6,0.875 -0.38125,0.36875 -0.91875,0.575 -0.5375,0.20625 -1.18125,0.20625 -0.61875,0 -1.13125,-0.2 -0.5125,-0.2 -0.88125,-0.575 -0.3625,-0.375 -0.5625,-0.9125 -0.2,-0.54375 -0.2,-1.225 0,-0.51875 0.2625,-1.16875 0.2625,-0.65625 0.8625,-1.46875 l 2.4125,-3.25 q 0.10625,-0.14375 0.31875,-0.14375 l 0.525,0 -2.6375,3.44375 z m -1.1625,2.73125 q 0,0.49375 0.15,0.9125 0.15625,0.41875 0.4375,0.725 0.28125,0.3 0.6875,0.46875 0.40625,0.16875 0.9125,0.16875 0.5375,0 0.96875,-0.16875 0.43125,-0.16875 0.73125,-0.4625 0.30625,-0.3 0.46875,-0.70625 0.1625,-0.4125 0.1625,-0.89375 0,-0.50625 -0.1625,-0.9125 -0.15625,-0.4125 -0.45,-0.69375 -0.2875,-0.2875 -0.6875,-0.4375 -0.4,-0.15625 -0.8875,-0.15625 -0.55,0 -0.9875,0.19375 -0.43125,0.1875 -0.73125,0.49375 -0.3,0.3 -0.45625,0.6875 -0.15625,0.3875 -0.15625,0.78125 z"
       style="font-size:12.5px"
       id="path7664" />
  </g>
  <g
     transform="translate(-234.08851,-420.58165)"
     style="font-style:normal;font-variant:normal;font-weight:300;font-stretch:normal;font-size:25px;line-height:125%;font-family:Lato;-inkscape-font-specification:Sans;text-align:center;letter-spacing:0px;word-spacing:0px;text-anchor:middle;fill:#000000;fill-opacity:1;stroke:none;stroke-width:1px;stroke-linecap:butt;stroke-linejoin:miter;stroke-opacity:1"
     id="text7506">
    <path
       d="m 349.51522,572.84781 q 0,1.845 -0.55125,3.31875 -0.55125,1.47375 -1.5525,2.50875 -1.00125,1.035 -2.4075,1.58625 -1.395,0.55125 -3.0825,0.55125 l -5.81625,0 0,-15.91875 5.81625,0 q 1.6875,0 3.0825,0.55125 1.40625,0.55125 2.4075,1.58625 1.00125,1.035 1.5525,2.50875 0.55125,1.47375 0.55125,3.3075 z m -1.1925,0 q 0,-1.665 -0.46125,-2.97 -0.46125,-1.305 -1.305,-2.205 -0.84375,-0.9 -2.025,-1.3725 -1.18125,-0.4725 -2.61,-0.4725 l -4.6575,0 0,14.05125 4.6575,0 q 1.42875,0 2.61,-0.4725 1.18125,-0.4725 2.025,-1.3725 0.84375,-0.9 1.305,-2.205 0.46125,-1.305 0.46125,-2.98125 z"
       style="font-size:22.5px"
       id="path7667" />
    <path
       d="m 355.2158,584.41281 q -0.0675,0.1575 -0.18,0.25875 -0.10125,0.10125 -0.30375,0.10125 l -0.765,0 1.96875,-4.37625 -4.73625,-10.7775 0.88875,0 q 0.16875,0 0.27,0.09 0.10125,0.0788 0.135,0.18 l 3.76875,8.7075 q 0.0675,0.16875 0.1125,0.34875 0.0562,0.16875 0.10125,0.34875 0.0563,-0.18 0.1125,-0.34875 0.0675,-0.18 0.135,-0.34875 l 3.72375,-8.7075 q 0.0563,-0.12375 0.1575,-0.19125 0.10125,-0.0788 0.225,-0.0788 l 0.82125,0 -6.435,14.79375 z"
       style="font-size:22.5px"
       id="path7669" />
    <path
       d="m 363.89975,580.81281 0,-11.19375 0.59625,0 q 0.28125,0 0.32625,0.28125 l 0.10125,1.6875 q 0.77625,-0.97875 1.78875,-1.56375 1.0125,-0.585 2.2725,-0.585 0.9225,0 1.62,0.2925 0.70875,0.2925 1.17,0.84375 0.46125,0.55125 0.6975,1.3275 0.23625,0.77625 0.23625,1.755 l 0,7.155 -1.08,0 0,-7.155 q 0,-1.575 -0.72,-2.46375 -0.72,-0.9 -2.19375,-0.9 -1.1025,0 -2.0475,0.5625 -0.945,0.55125 -1.6875,1.54125 l 0,8.415 -1.08,0 z"
       style="font-size:22.5px"
       id="path7671" />
    <path
       d="m 388.90358,580.81281 -0.88875,0 q -0.1575,0 -0.25875,-0.0788 -0.10125,-0.09 -0.1575,-0.225 l -1.8675,-4.62375 -7.81875,0 -1.8675,4.62375 q -0.045,0.12375 -0.1575,0.21375 -0.1125,0.09 -0.27,0.09 l -0.8775,0 6.51375,-15.91875 1.13625,0 6.51375,15.91875 z m -10.65375,-5.7825 7.1325,0 -3.24,-8.04375 q -0.16875,-0.39375 -0.32625,-0.945 -0.0788,0.27 -0.1575,0.5175 -0.0787,0.2475 -0.1575,0.43875 l -3.25125,8.0325 z"
       style="font-size:22.5px"
       id="path7673" />
    <path
       d="m 399.29295,566.82906 q -0.10125,0.19125 -0.2925,0.19125 -0.14625,0 -0.3825,-0.2025 -0.225,-0.21375 -0.61875,-0.46125 -0.39375,-0.25875 -0.99,-0.4725 -0.585,-0.21375 -1.45125,-0.21375 -0.86625,0 -1.53,0.2475 -0.6525,0.2475 -1.1025,0.675 -0.43875,0.4275 -0.675,0.99 -0.225,0.5625 -0.225,1.18125 0,0.81 0.3375,1.33875 0.34875,0.52875 0.91125,0.9 0.5625,0.37125 1.27125,0.63 0.72,0.2475 1.47375,0.495 0.75375,0.2475 1.4625,0.55125 0.72,0.2925 1.2825,0.7425 0.5625,0.45 0.9,1.11375 0.34875,0.6525 0.34875,1.63125 0,1.00125 -0.34875,1.89 -0.3375,0.8775 -0.99,1.53 -0.6525,0.6525 -1.5975,1.035 -0.945,0.37125 -2.16,0.37125 -1.575,0 -2.71125,-0.55125 -1.13625,-0.5625 -1.99125,-1.53 l 0.315,-0.495 q 0.135,-0.16875 0.315,-0.16875 0.10125,0 0.25875,0.135 0.1575,0.135 0.3825,0.3375 0.225,0.19125 0.54,0.4275 0.315,0.225 0.73125,0.4275 0.41625,0.19125 0.95625,0.32625 0.54,0.135 1.22625,0.135 0.945,0 1.6875,-0.28125 0.7425,-0.2925 1.24875,-0.7875 0.5175,-0.495 0.7875,-1.17 0.27,-0.68625 0.27,-1.4625 0,-0.84375 -0.34875,-1.38375 -0.3375,-0.55125 -0.9,-0.91125 -0.5625,-0.37125 -1.2825,-0.61875 -0.70875,-0.2475 -1.4625,-0.48375 -0.75375,-0.23625 -1.47375,-0.52875 -0.70875,-0.2925 -1.27125,-0.7425 -0.5625,-0.46125 -0.91125,-1.13625 -0.3375,-0.68625 -0.3375,-1.71 0,-0.79875 0.30375,-1.54125 0.30375,-0.7425 0.88875,-1.305 0.585,-0.57375 1.44,-0.91125 0.86625,-0.34875 1.96875,-0.34875 1.2375,0 2.21625,0.39375 0.99,0.39375 1.8,1.20375 l -0.27,0.5175 z"
       style="font-size:22.5px"
       id="path7675" />
    <path
       d="m 411.25522,576.17781 q 0.16875,0.315 0.2925,0.675 0.0675,-0.16875 0.14625,-0.34875 0.0788,-0.18 0.16875,-0.3375 l 6.24375,-11.05875 q 0.09,-0.14625 0.18,-0.18 0.10125,-0.0338 0.25875,-0.0338 l 0.7875,0 0,15.91875 -1.00125,0 0,-13.5675 q 0,-0.135 0,-0.2925 0.0112,-0.1575 0.0225,-0.315 l -6.255,11.115 q -0.1575,0.2925 -0.45,0.2925 l -0.18,0 q -0.2925,0 -0.45,-0.2925 l -6.435,-11.1375 q 0.0337,0.32625 0.0337,0.63 l 0,13.5675 -1.0125,0 0,-15.91875 0.79875,0 q 0.1575,0 0.2475,0.0338 0.09,0.0337 0.18,0.18 l 6.42375,11.07 0,0 z"
       style="font-size:22.5px"
       id="path7677" />
    <path
       d="m 431.09459,572.22531 q 0,0.125 -0.0875,0.2125 -0.0813,0.0812 -0.2625,0.0812 l -3.2,0 -0.53125,2.95 q 0.41875,-0.10625 0.79375,-0.15 0.375,-0.05 0.7125,-0.05 0.69375,0 1.21875,0.2 0.525,0.19375 0.875,0.55 0.35625,0.35 0.53125,0.8375 0.18125,0.4875 0.18125,1.0625 0,0.7 -0.24375,1.25625 -0.2375,0.55 -0.65625,0.9375 -0.41875,0.3875 -0.975,0.59375 -0.55625,0.20625 -1.18125,0.20625 -0.3625,0 -0.7,-0.0688 -0.33125,-0.0625 -0.625,-0.16875 -0.2875,-0.1125 -0.5375,-0.25625 -0.24375,-0.14375 -0.43125,-0.29375 l 0.18125,-0.24375 q 0.0563,-0.0937 0.175,-0.0937 0.0813,0 0.23125,0.0937 0.15625,0.0937 0.39375,0.20625 0.24375,0.1125 0.575,0.20625 0.33125,0.0937 0.76875,0.0937 0.5125,0 0.95625,-0.1625 0.44375,-0.16875 0.76875,-0.48125 0.325,-0.3125 0.50625,-0.76875 0.1875,-0.4625 0.1875,-1.04375 0,-0.475 -0.14375,-0.875 -0.1375,-0.4 -0.425,-0.68125 -0.28125,-0.2875 -0.71875,-0.44375 -0.43125,-0.1625 -1.01875,-0.1625 -0.35625,0 -0.75625,0.0562 -0.4,0.0563 -0.85,0.18125 l -0.38125,-0.11875 0.6875,-3.91875 3.98125,0 0,0.25625 z"
       style="font-size:12.5px"
       id="path7679" />
    <path
       d="m 439.12682,576.38781 q 0,1.1625 -0.25,2.0125 -0.25,0.85 -0.68125,1.40625 -0.43125,0.55625 -1.0125,0.83125 -0.575,0.26875 -1.23125,0.26875 -0.65625,0 -1.23125,-0.26875 -0.575,-0.275 -1.00625,-0.83125 -0.43125,-0.55625 -0.68125,-1.40625 -0.24375,-0.85 -0.24375,-2.0125 0,-1.1625 0.24375,-2.0125 0.25,-0.85 0.68125,-1.40625 0.43125,-0.55625 1.00625,-0.825 0.575,-0.275 1.23125,-0.275 0.65625,0 1.23125,0.275 0.58125,0.26875 1.0125,0.825 0.43125,0.55625 0.68125,1.40625 0.25,0.85 0.25,2.0125 z m -0.625,0 q 0,-1.075 -0.20625,-1.8375 -0.20625,-0.7625 -0.55625,-1.24375 -0.34375,-0.4875 -0.8125,-0.7125 -0.4625,-0.225 -0.975,-0.225 -0.5125,0 -0.975,0.225 -0.4625,0.225 -0.8125,0.7125 -0.35,0.48125 -0.55625,1.24375 -0.20625,0.7625 -0.20625,1.8375 0,1.08125 0.20625,1.84375 0.20625,0.75625 0.55625,1.24375 0.35,0.48125 0.8125,0.70625 0.4625,0.21875 0.975,0.21875 0.5125,0 0.975,-0.21875 0.46875,-0.225 0.8125,-0.70625 0.35,-0.4875 0.55625,-1.24375 0.20625,-0.7625 0.20625,-1.84375 z"
       style="font-size:12.5px"
       id="path7681" />
    <path
       d="m 445.59655,572.22531 q 0,0.125 -0.0875,0.2125 -0.0813,0.0812 -0.2625,0.0812 l -3.2,0 -0.53125,2.95 q 0.41875,-0.10625 0.79375,-0.15 0.375,-0.05 0.7125,-0.05 0.69375,0 1.21875,0.2 0.525,0.19375 0.875,0.55 0.35625,0.35 0.53125,0.8375 0.18125,0.4875 0.18125,1.0625 0,0.7 -0.24375,1.25625 -0.2375,0.55 -0.65625,0.9375 -0.41875,0.3875 -0.975,0.59375 -0.55625,0.20625 -1.18125,0.20625 -0.3625,0 -0.7,-0.0688 -0.33125,-0.0625 -0.625,-0.16875 -0.2875,-0.1125 -0.5375,-0.25625 -0.24375,-0.14375 -0.43125,-0.29375 l 0.18125,-0.24375 q 0.0563,-0.0937 0.175,-0.0937 0.0813,0 0.23125,0.0937 0.15625,0.0937 0.39375,0.20625 0.24375,0.1125 0.575,0.20625 0.33125,0.0937 0.76875,0.0937 0.5125,0 0.95625,-0.1625 0.44375,-0.16875 0.76875,-0.48125 0.325,-0.3125 0.50625,-0.76875 0.1875,-0.4625 0.1875,-1.04375 0,-0.475 -0.14375,-0.875 -0.1375,-0.4 -0.425,-0.68125 -0.28125,-0.2875 -0.71875,-0.44375 -0.43125,-0.1625 -1.01875,-0.1625 -0.35625,0 -0.75625,0.0562 -0.4,0.0563 -0.85,0.18125 l -0.38125,-0.11875 0.6875,-3.91875 3.98125,0 0,0.25625 z"
       style="font-size:12.5px"
       id="path7683" />
  </g>
</svg>
